<svg id="svg" version="1.1" xmlns="http://www.w3.org/2000/svg" xmlns:xlink="http://www.w3.org/1999/xlink" width="400" height="400" viewBox="0, 0, 400,400"><g id="svgg"><path id="path0" d="M27.773 88.100 C 26.937 89.035,24.892 91.297,23.227 93.126 C 19.470 97.255,19.242 98.159,19.226 109.000 C 19.215 116.183,19.502 119.069,20.778 124.600 C 25.705 145.967,41.886 159.902,68.800 165.954 C 76.992 167.797,97.695 169.287,104.970 168.558 L 108.539 168.200 109.009 166.000 C 109.268 164.790,109.705 162.270,109.982 160.400 C 110.258 158.530,110.656 156.190,110.867 155.200 C 111.077 154.210,111.404 152.680,111.592 151.800 C 111.781 150.920,112.158 149.120,112.431 147.800 C 113.545 142.404,115.885 133.670,117.781 127.826 C 119.831 121.507,120.032 121.899,114.900 122.190 C 112.535 122.325,108.710 122.639,106.400 122.890 C 100.311 123.549,76.401 123.542,73.600 122.880 C 72.390 122.593,70.590 122.168,69.600 121.934 C 57.435 119.061,45.233 109.266,41.949 99.738 C 40.818 96.454,39.317 94.638,33.326 89.300 C 29.498 85.889,29.709 85.934,27.773 88.100 M370.000 88.000 C 369.450 88.430,368.848 88.786,368.662 88.791 C 368.476 88.796,367.846 89.138,367.262 89.552 C 366.678 89.965,364.990 90.933,363.510 91.703 C 360.933 93.043,360.684 93.308,357.556 98.051 C 347.904 112.687,340.854 117.233,322.800 120.463 C 320.498 120.875,315.263 120.974,300.300 120.889 C 288.924 120.824,280.800 120.927,280.800 121.137 C 280.800 121.335,281.267 123.276,281.837 125.449 C 282.407 127.622,283.055 130.210,283.276 131.200 C 283.498 132.190,283.819 133.630,283.991 134.400 C 284.517 136.757,285.580 142.068,286.032 144.600 C 286.268 145.920,286.612 147.810,286.796 148.800 C 287.363 151.840,288.486 159.344,289.242 165.148 L 289.730 168.897 295.365 168.654 C 306.905 168.156,318.571 166.501,327.186 164.138 C 328.404 163.804,329.940 163.385,330.600 163.206 C 333.249 162.489,338.538 160.624,341.400 159.398 C 359.061 151.834,368.690 143.707,375.077 130.974 C 380.015 121.132,382.363 104.956,380.283 95.118 L 379.800 92.837 375.829 90.018 C 371.433 86.899,371.416 86.893,370.000 88.000 M280.778 200.935 C 279.931 201.356,279.741 201.850,279.360 204.611 C 278.009 214.407,273.806 218.993,264.878 220.414 C 261.015 221.030,260.857 222.128,264.604 222.328 C 273.951 222.827,282.312 213.703,282.386 202.924 C 282.402 200.559,282.153 200.251,280.778 200.935 M116.286 201.848 C 113.655 204.478,119.764 215.948,125.625 219.383 C 130.627 222.314,138.214 222.987,137.924 220.473 C 137.830 219.661,137.557 219.376,136.800 219.302 C 126.146 218.262,121.364 214.347,119.614 205.235 C 118.957 201.815,117.649 200.484,116.286 201.848 " stroke="none" fill="#fafafa" fill-rule="evenodd"></path><path id="path1" d="M359.600 33.120 C 359.600 34.836,359.771 36.411,359.980 36.620 C 360.189 36.829,360.456 39.880,360.573 43.400 C 360.691 46.920,360.891 52.030,361.018 54.756 C 361.170 58.017,361.104 59.856,360.824 60.136 C 360.565 60.395,360.400 62.774,360.400 66.256 C 360.400 69.623,360.236 72.054,360.000 72.200 C 359.780 72.336,359.600 73.596,359.600 75.000 C 359.600 76.404,359.420 77.664,359.200 77.800 C 358.980 77.936,358.800 78.937,358.800 80.024 C 358.800 81.111,358.620 82.000,358.400 82.000 C 358.180 82.000,358.000 82.720,358.000 83.600 C 358.000 84.480,357.820 85.200,357.600 85.200 C 357.380 85.200,357.200 85.920,357.200 86.800 C 357.200 87.680,357.020 88.400,356.800 88.400 C 356.580 88.400,356.400 88.762,356.400 89.205 C 356.400 89.648,356.241 90.323,356.047 90.705 C 355.852 91.087,355.471 91.940,355.200 92.600 C 354.929 93.260,354.548 94.113,354.353 94.495 C 354.159 94.877,354.000 95.379,354.000 95.611 C 354.000 95.843,353.640 96.420,353.200 96.892 C 352.760 97.364,352.400 97.987,352.400 98.275 C 352.400 98.564,352.220 98.800,352.000 98.800 C 351.780 98.800,351.600 99.120,351.600 99.512 C 351.600 99.903,351.240 100.483,350.800 100.800 C 350.360 101.117,350.000 101.586,350.000 101.842 C 350.000 102.398,345.022 107.600,344.490 107.600 C 344.286 107.600,343.554 108.140,342.863 108.800 C 342.172 109.460,341.336 110.000,341.004 110.000 C 340.672 110.000,340.400 110.180,340.400 110.400 C 340.400 110.620,340.040 110.800,339.600 110.800 C 339.160 110.800,338.799 110.935,338.797 111.100 C 338.793 111.459,336.856 112.400,336.120 112.400 C 335.834 112.400,335.600 112.580,335.600 112.800 C 335.600 113.020,335.240 113.200,334.800 113.200 C 334.360 113.200,334.000 113.380,334.000 113.600 C 334.000 113.820,333.460 114.000,332.800 114.000 C 332.140 114.000,331.600 114.180,331.600 114.400 C 331.600 114.620,331.071 114.800,330.424 114.800 C 329.777 114.800,329.136 114.980,329.000 115.200 C 328.864 115.420,328.054 115.600,327.200 115.600 C 326.346 115.600,325.536 115.780,325.400 116.000 C 325.264 116.220,324.263 116.400,323.176 116.400 C 322.089 116.400,321.200 116.580,321.200 116.800 C 321.200 117.041,319.541 117.200,317.024 117.200 C 314.671 117.200,312.739 117.375,312.600 117.600 C 312.461 117.825,310.537 118.000,308.200 118.000 C 305.863 118.000,303.939 117.825,303.800 117.600 C 303.651 117.360,300.937 117.200,297.000 117.200 C 293.063 117.200,290.349 117.040,290.200 116.800 C 290.048 116.555,286.804 116.400,281.800 116.400 C 276.796 116.400,273.552 116.245,273.400 116.000 C 273.246 115.751,269.423 115.600,263.256 115.600 C 257.392 115.600,253.202 115.442,252.972 115.212 C 252.244 114.484,179.358 113.682,178.646 114.394 C 178.398 114.642,175.089 114.800,170.144 114.800 C 165.177 114.800,161.952 114.955,161.800 115.200 C 161.652 115.439,159.063 115.600,155.376 115.600 C 151.525 115.600,149.200 115.751,149.200 116.000 C 149.200 116.248,147.075 116.400,143.624 116.400 C 140.337 116.400,137.946 116.564,137.800 116.800 C 137.656 117.033,135.404 117.200,132.400 117.200 C 129.396 117.200,127.144 117.367,127.000 117.600 C 126.856 117.833,124.604 118.000,121.600 118.000 C 118.596 118.000,116.344 118.167,116.200 118.400 C 116.053 118.639,113.470 118.800,109.800 118.800 C 106.130 118.800,103.547 118.961,103.400 119.200 C 103.244 119.453,98.529 119.600,90.576 119.600 C 82.459 119.600,78.000 119.458,78.000 119.200 C 78.000 118.980,77.021 118.800,75.824 118.800 C 74.627 118.800,73.536 118.620,73.400 118.400 C 73.264 118.180,72.544 118.000,71.800 118.000 C 71.056 118.000,70.336 117.820,70.200 117.600 C 70.064 117.380,69.423 117.200,68.776 117.200 C 68.129 117.200,67.600 117.020,67.600 116.800 C 67.600 116.580,67.251 116.400,66.824 116.400 C 66.397 116.400,65.936 116.220,65.800 116.000 C 65.664 115.780,65.113 115.600,64.576 115.600 C 64.039 115.600,63.600 115.420,63.600 115.200 C 63.600 114.980,63.240 114.800,62.800 114.800 C 62.360 114.800,62.000 114.620,62.000 114.400 C 62.000 114.180,61.640 114.000,61.200 114.000 C 60.760 114.000,60.400 113.850,60.400 113.668 C 60.400 113.485,59.905 113.080,59.300 112.768 C 58.695 112.455,57.851 111.885,57.425 111.500 C 56.998 111.115,56.501 110.800,56.319 110.800 C 55.782 110.800,49.451 104.281,48.832 103.092 C 48.520 102.491,48.115 102.000,47.932 102.000 C 47.750 102.000,47.600 101.764,47.600 101.475 C 47.600 101.187,47.240 100.564,46.800 100.092 C 46.360 99.620,46.000 98.956,46.000 98.617 C 46.000 98.278,45.820 98.000,45.600 98.000 C 45.380 98.000,45.200 97.640,45.200 97.200 C 45.200 96.760,45.020 96.400,44.800 96.400 C 44.580 96.400,44.400 95.961,44.400 95.424 C 44.400 94.887,44.220 94.336,44.000 94.200 C 43.780 94.064,43.600 93.603,43.600 93.176 C 43.600 92.749,43.420 92.400,43.200 92.400 C 42.980 92.400,42.800 91.781,42.800 91.024 C 42.800 90.267,42.620 89.536,42.400 89.400 C 42.180 89.264,42.000 88.443,42.000 87.576 C 42.000 86.709,41.820 86.000,41.600 86.000 C 41.380 86.000,41.200 85.021,41.200 83.824 C 41.200 82.627,41.020 81.536,40.800 81.400 C 40.580 81.264,40.400 79.734,40.400 78.000 C 40.400 76.266,40.220 74.736,40.000 74.600 C 39.760 74.451,39.600 71.737,39.600 67.800 C 39.600 63.863,39.440 61.149,39.200 61.000 C 38.947 60.843,38.800 56.004,38.800 47.800 C 38.800 38.982,38.663 34.762,38.369 34.581 C 37.845 34.257,36.400 35.727,36.400 36.583 C 36.400 36.922,36.220 37.200,36.000 37.200 C 35.780 37.200,35.600 37.560,35.600 38.000 C 35.600 38.440,35.420 38.800,35.200 38.800 C 34.980 38.800,34.800 39.160,34.800 39.600 C 34.800 40.040,34.620 40.400,34.400 40.400 C 34.180 40.400,34.000 40.745,34.000 41.167 C 34.000 41.588,33.863 41.993,33.696 42.067 C 33.288 42.246,29.993 48.867,29.997 49.500 C 29.999 49.775,29.820 50.000,29.600 50.000 C 29.380 50.000,29.200 50.360,29.200 50.800 C 29.200 51.240,29.020 51.600,28.800 51.600 C 28.580 51.600,28.400 51.960,28.400 52.400 C 28.400 52.840,28.220 53.200,28.000 53.200 C 27.780 53.200,27.600 53.549,27.600 53.976 C 27.600 54.403,27.420 54.864,27.200 55.000 C 26.980 55.136,26.800 55.687,26.800 56.224 C 26.800 56.761,26.620 57.200,26.400 57.200 C 26.180 57.200,26.000 57.549,26.000 57.976 C 26.000 58.403,25.820 58.864,25.600 59.000 C 25.380 59.136,25.200 59.687,25.200 60.224 C 25.200 60.761,25.020 61.200,24.800 61.200 C 24.580 61.200,24.400 61.740,24.400 62.400 C 24.400 63.060,24.220 63.600,24.000 63.600 C 23.780 63.600,23.600 64.140,23.600 64.800 C 23.600 65.460,23.420 66.000,23.200 66.000 C 22.980 66.000,22.800 66.540,22.800 67.200 C 22.800 67.860,22.620 68.400,22.400 68.400 C 22.180 68.400,22.000 68.940,22.000 69.600 C 22.000 70.260,21.820 70.800,21.600 70.800 C 21.380 70.800,21.200 71.419,21.200 72.176 C 21.200 72.933,21.020 73.664,20.800 73.800 C 20.580 73.936,20.400 74.577,20.400 75.224 C 20.400 75.871,20.220 76.400,20.000 76.400 C 19.780 76.400,19.600 77.120,19.600 78.000 C 19.600 78.880,19.420 79.600,19.200 79.600 C 18.980 79.600,18.800 80.399,18.800 81.376 C 18.800 82.353,18.620 83.264,18.400 83.400 C 18.180 83.536,18.000 84.436,18.000 85.400 C 18.000 86.364,17.820 87.264,17.600 87.400 C 17.380 87.536,17.200 88.526,17.200 89.600 C 17.200 90.674,17.020 91.664,16.800 91.800 C 16.580 91.936,16.400 93.207,16.400 94.624 C 16.400 96.075,16.225 97.200,16.000 97.200 C 15.743 97.200,15.600 101.200,15.600 108.400 C 15.600 115.600,15.743 119.600,16.000 119.600 C 16.222 119.600,16.400 120.667,16.400 122.000 C 16.400 123.333,16.578 124.400,16.800 124.400 C 17.020 124.400,17.200 125.199,17.200 126.176 C 17.200 127.153,17.380 128.064,17.600 128.200 C 17.820 128.336,18.000 128.977,18.000 129.624 C 18.000 130.271,18.180 130.800,18.400 130.800 C 18.620 130.800,18.800 131.340,18.800 132.000 C 18.800 132.660,18.980 133.200,19.200 133.200 C 19.420 133.200,19.600 133.549,19.600 133.976 C 19.600 134.403,19.780 134.864,20.000 135.000 C 20.220 135.136,20.400 135.687,20.400 136.224 C 20.400 136.761,20.580 137.200,20.800 137.200 C 21.020 137.200,21.200 137.560,21.200 138.000 C 21.200 138.440,21.380 138.800,21.600 138.800 C 21.820 138.800,22.000 139.160,22.000 139.600 C 22.000 140.040,22.180 140.400,22.400 140.400 C 22.620 140.400,22.800 140.636,22.800 140.925 C 22.800 141.213,23.160 141.836,23.600 142.308 C 24.040 142.780,24.400 143.356,24.400 143.587 C 24.400 143.818,24.940 144.572,25.600 145.263 C 26.260 145.954,26.800 146.681,26.800 146.880 C 26.800 147.387,35.167 155.600,35.683 155.600 C 35.916 155.600,36.397 155.916,36.753 156.303 C 37.109 156.689,37.895 157.260,38.500 157.570 C 39.105 157.881,39.600 158.285,39.600 158.468 C 39.600 158.650,39.920 158.800,40.312 158.800 C 40.703 158.800,41.283 159.160,41.600 159.600 C 41.917 160.040,42.497 160.400,42.888 160.400 C 43.280 160.400,43.600 160.580,43.600 160.800 C 43.600 161.020,43.960 161.200,44.400 161.200 C 44.840 161.200,45.200 161.380,45.200 161.600 C 45.200 161.820,45.560 162.000,46.000 162.000 C 46.440 162.000,46.800 162.180,46.800 162.400 C 46.800 162.620,47.160 162.800,47.600 162.800 C 48.040 162.800,48.400 162.980,48.400 163.200 C 48.400 163.420,48.749 163.600,49.176 163.600 C 49.603 163.600,50.064 163.780,50.200 164.000 C 50.336 164.220,50.887 164.400,51.424 164.400 C 51.961 164.400,52.400 164.580,52.400 164.800 C 52.400 165.020,52.760 165.200,53.200 165.200 C 53.640 165.200,54.000 165.380,54.000 165.600 C 54.000 165.820,54.540 166.000,55.200 166.000 C 55.860 166.000,56.400 166.180,56.400 166.400 C 56.400 166.620,56.940 166.800,57.600 166.800 C 58.260 166.800,58.800 166.980,58.800 167.200 C 58.800 167.420,59.340 167.600,60.000 167.600 C 60.660 167.600,61.200 167.780,61.200 168.000 C 61.200 168.220,61.920 168.400,62.800 168.400 C 63.680 168.400,64.400 168.580,64.400 168.800 C 64.400 169.020,65.120 169.200,66.000 169.200 C 66.880 169.200,67.600 169.380,67.600 169.600 C 67.600 169.820,68.500 170.000,69.600 170.000 C 70.700 170.000,71.600 170.180,71.600 170.400 C 71.600 170.622,72.659 170.800,73.976 170.800 C 75.283 170.800,76.464 170.980,76.600 171.200 C 76.736 171.421,78.530 171.600,80.600 171.600 C 82.670 171.600,84.464 171.779,84.600 172.000 C 84.736 172.220,85.287 172.400,85.824 172.400 C 86.361 172.400,86.800 172.580,86.800 172.800 C 86.800 173.020,85.821 173.200,84.624 173.200 C 83.427 173.200,82.336 173.380,82.200 173.600 C 82.064 173.820,81.063 174.000,79.976 174.000 C 78.889 174.000,78.000 174.180,78.000 174.400 C 78.000 174.620,77.100 174.800,76.000 174.800 C 74.900 174.800,74.000 174.980,74.000 175.200 C 74.000 175.420,73.280 175.600,72.400 175.600 C 71.520 175.600,70.800 175.780,70.800 176.000 C 70.800 176.220,70.080 176.400,69.200 176.400 C 68.320 176.400,67.600 176.580,67.600 176.800 C 67.600 177.020,66.880 177.200,66.000 177.200 C 65.120 177.200,64.400 177.380,64.400 177.600 C 64.400 177.820,63.680 178.000,62.800 178.000 C 61.920 178.000,61.200 178.180,61.200 178.400 C 61.200 178.620,60.581 178.800,59.824 178.800 C 59.067 178.800,58.336 178.980,58.200 179.200 C 58.064 179.420,57.423 179.600,56.776 179.600 C 56.129 179.600,55.600 179.780,55.600 180.000 C 55.600 180.220,54.981 180.400,54.224 180.400 C 53.467 180.400,52.736 180.580,52.600 180.800 C 52.464 181.020,52.001 181.200,51.571 181.200 C 51.141 181.200,50.432 181.380,49.995 181.600 C 49.558 181.820,48.842 182.180,48.405 182.400 C 47.968 182.620,47.248 182.800,46.805 182.800 C 46.362 182.800,46.000 182.980,46.000 183.200 C 46.000 183.420,45.460 183.600,44.800 183.600 C 44.140 183.600,43.600 183.780,43.600 184.000 C 43.600 184.220,43.240 184.400,42.800 184.400 C 42.360 184.400,42.000 184.580,42.000 184.800 C 42.000 185.020,41.561 185.200,41.024 185.200 C 40.487 185.200,39.936 185.380,39.800 185.600 C 39.664 185.820,39.203 186.000,38.776 186.000 C 38.349 186.000,38.000 186.180,38.000 186.400 C 38.000 186.620,37.640 186.800,37.200 186.800 C 36.760 186.800,36.400 186.980,36.400 187.200 C 36.400 187.420,36.040 187.600,35.600 187.600 C 35.160 187.600,34.800 187.780,34.800 188.000 C 34.800 188.220,34.440 188.400,34.000 188.400 C 32.778 188.400,32.990 190.061,34.400 191.537 C 35.060 192.228,35.600 192.967,35.600 193.181 C 35.600 193.696,43.116 201.200,43.632 201.200 C 43.853 201.200,44.420 201.560,44.892 202.000 C 45.364 202.440,45.987 202.800,46.275 202.800 C 46.564 202.800,46.800 202.980,46.800 203.200 C 46.800 203.420,47.160 203.600,47.600 203.600 C 48.040 203.600,48.401 203.735,48.403 203.900 C 48.407 204.259,50.344 205.200,51.080 205.200 C 51.366 205.200,51.600 205.380,51.600 205.600 C 51.600 205.820,51.960 206.000,52.400 206.000 C 52.840 206.000,53.200 206.180,53.200 206.400 C 53.200 206.620,53.560 206.800,54.000 206.800 C 54.440 206.800,54.800 206.980,54.800 207.200 C 54.800 207.420,55.340 207.600,56.000 207.600 C 56.660 207.600,57.200 207.780,57.200 208.000 C 57.200 208.220,57.740 208.400,58.400 208.400 C 59.060 208.400,59.600 208.580,59.600 208.800 C 59.600 209.020,60.309 209.200,61.176 209.200 C 62.043 209.200,62.864 209.380,63.000 209.600 C 63.136 209.820,64.306 210.000,65.600 210.000 C 66.894 210.000,68.064 210.180,68.200 210.400 C 68.526 210.927,77.074 210.927,77.400 210.400 C 77.536 210.180,78.886 210.000,80.400 210.000 C 81.914 210.000,83.264 209.820,83.400 209.600 C 83.536 209.380,84.537 209.200,85.624 209.200 C 86.711 209.200,87.600 209.020,87.600 208.800 C 87.600 208.580,88.399 208.400,89.376 208.400 C 90.353 208.400,91.264 208.220,91.400 208.000 C 91.536 207.780,92.166 207.600,92.800 207.600 C 93.434 207.600,94.064 207.420,94.200 207.200 C 94.336 206.980,94.889 206.800,95.429 206.800 C 95.969 206.800,96.813 206.592,97.305 206.338 C 99.231 205.342,99.617 205.200,100.395 205.200 C 100.838 205.200,101.200 205.020,101.200 204.800 C 101.200 204.206,102.373 204.316,103.029 204.971 C 103.343 205.286,103.600 206.006,103.600 206.571 C 103.600 207.137,103.780 207.600,104.000 207.600 C 104.220 207.600,104.400 208.129,104.400 208.776 C 104.400 209.423,104.580 210.064,104.800 210.200 C 105.020 210.336,105.200 210.876,105.200 211.400 C 105.200 211.924,105.380 212.464,105.600 212.600 C 105.820 212.736,106.000 213.287,106.000 213.824 C 106.000 214.361,106.180 214.800,106.400 214.800 C 106.620 214.800,106.800 215.340,106.800 216.000 C 106.800 216.660,106.980 217.200,107.200 217.200 C 107.420 217.200,107.600 217.639,107.600 218.176 C 107.600 218.713,107.780 219.264,108.000 219.400 C 108.220 219.536,108.400 219.997,108.400 220.424 C 108.400 220.851,108.580 221.200,108.800 221.200 C 109.020 221.200,109.200 221.639,109.200 222.176 C 109.200 222.713,109.380 223.264,109.600 223.400 C 109.820 223.536,110.000 223.997,110.000 224.424 C 110.000 224.851,110.180 225.200,110.400 225.200 C 110.620 225.200,110.800 225.560,110.800 226.000 C 110.800 226.440,110.980 226.800,111.200 226.800 C 111.420 226.800,111.600 227.239,111.600 227.776 C 111.600 228.313,111.780 228.864,112.000 229.000 C 112.220 229.136,112.400 229.597,112.400 230.024 C 112.400 230.451,112.580 230.800,112.800 230.800 C 113.020 230.800,113.200 231.160,113.200 231.600 C 113.200 232.040,113.380 232.400,113.600 232.400 C 113.820 232.400,114.000 232.839,114.000 233.376 C 114.000 233.913,114.180 234.464,114.400 234.600 C 114.620 234.736,114.800 235.197,114.800 235.624 C 114.800 236.051,114.980 236.400,115.200 236.400 C 115.420 236.400,115.600 236.760,115.600 237.200 C 115.600 237.640,115.780 238.000,116.000 238.000 C 116.220 238.000,116.400 238.360,116.400 238.800 C 116.400 239.240,116.580 239.600,116.800 239.600 C 117.020 239.600,117.200 239.872,117.200 240.205 C 117.200 240.793,117.367 241.218,118.338 243.095 C 118.592 243.587,118.800 244.262,118.800 244.595 C 118.800 244.928,118.980 245.200,119.200 245.200 C 119.420 245.200,119.600 245.560,119.600 246.000 C 119.600 246.440,119.780 246.800,120.000 246.800 C 120.220 246.800,120.400 247.160,120.400 247.600 C 120.400 248.040,120.580 248.400,120.800 248.400 C 121.020 248.400,121.200 248.760,121.200 249.200 C 121.200 249.640,121.380 250.000,121.600 250.000 C 121.820 250.000,122.000 250.272,122.000 250.605 C 122.000 250.938,122.180 251.568,122.400 252.005 C 122.620 252.442,122.980 253.158,123.200 253.595 C 123.420 254.032,123.600 254.662,123.600 254.995 C 123.600 255.328,123.780 255.600,124.000 255.600 C 124.220 255.600,124.400 255.960,124.400 256.400 C 124.400 256.840,124.580 257.200,124.800 257.200 C 125.020 257.200,125.200 257.560,125.200 258.000 C 125.200 258.440,125.380 258.800,125.600 258.800 C 125.820 258.800,126.000 259.160,126.000 259.600 C 126.000 260.040,126.180 260.400,126.400 260.400 C 126.620 260.400,126.800 260.760,126.800 261.200 C 126.800 261.640,126.980 262.000,127.200 262.000 C 127.420 262.000,127.600 262.360,127.600 262.800 C 127.600 263.240,127.780 263.600,128.000 263.600 C 128.220 263.600,128.400 263.853,128.400 264.162 C 128.400 264.471,128.740 265.416,129.155 266.262 C 132.108 272.273,133.206 274.661,133.203 275.067 C 133.201 275.323,133.335 275.593,133.500 275.667 C 133.755 275.780,135.291 278.550,136.954 281.897 C 137.199 282.390,137.535 282.795,137.700 282.797 C 137.865 282.799,138.000 283.160,138.000 283.600 C 138.000 284.040,138.180 284.400,138.400 284.400 C 138.620 284.400,138.800 284.760,138.800 285.200 C 138.800 285.640,138.980 286.000,139.200 286.000 C 139.420 286.000,139.600 286.360,139.600 286.800 C 139.600 287.240,139.780 287.600,140.000 287.600 C 140.220 287.600,140.400 287.960,140.400 288.400 C 140.400 288.840,140.580 289.200,140.800 289.200 C 141.020 289.200,141.200 289.436,141.200 289.725 C 141.200 290.013,141.560 290.636,142.000 291.108 C 142.440 291.580,142.800 292.244,142.800 292.583 C 142.800 292.922,142.980 293.200,143.200 293.200 C 143.420 293.200,143.600 293.560,143.600 294.000 C 143.600 294.440,143.780 294.800,144.000 294.800 C 144.220 294.800,144.400 295.036,144.400 295.325 C 144.400 295.613,144.760 296.236,145.200 296.708 C 145.640 297.180,146.000 297.844,146.000 298.183 C 146.000 298.522,146.180 298.800,146.400 298.800 C 146.620 298.800,146.800 299.145,146.800 299.567 C 146.800 299.988,147.025 300.438,147.300 300.567 C 147.700 300.753,147.700 300.847,147.300 301.033 C 147.025 301.162,146.800 301.612,146.800 302.033 C 146.800 302.455,146.662 302.800,146.494 302.800 C 146.326 302.800,145.768 303.475,145.253 304.300 C 144.738 305.125,143.616 306.293,142.759 306.896 L 141.200 307.992 141.200 313.973 C 141.200 317.528,141.362 320.053,141.600 320.200 C 141.820 320.336,142.000 321.596,142.000 323.000 C 142.000 324.404,142.180 325.664,142.400 325.800 C 142.620 325.936,142.800 326.836,142.800 327.800 C 142.800 328.764,142.980 329.664,143.200 329.800 C 143.420 329.936,143.600 330.656,143.600 331.400 C 143.600 332.144,143.780 332.864,144.000 333.000 C 144.220 333.136,144.400 333.777,144.400 334.424 C 144.400 335.071,144.580 335.600,144.800 335.600 C 145.020 335.600,145.200 336.140,145.200 336.800 C 145.200 337.460,145.380 338.000,145.600 338.000 C 145.820 338.000,146.000 338.540,146.000 339.200 C 146.000 339.860,146.180 340.400,146.400 340.400 C 146.620 340.400,146.800 340.760,146.800 341.200 C 146.800 341.640,146.980 342.000,147.200 342.000 C 147.420 342.000,147.600 342.342,147.600 342.759 C 147.600 343.177,148.166 344.572,148.859 345.859 C 149.551 347.147,150.316 348.604,150.559 349.097 C 150.801 349.590,151.135 349.995,151.300 349.997 C 151.465 349.999,151.600 350.320,151.600 350.712 C 151.600 351.103,151.960 351.683,152.400 352.000 C 152.840 352.317,153.200 352.857,153.200 353.200 C 153.200 353.543,153.560 354.083,154.000 354.400 C 154.440 354.717,154.800 355.183,154.800 355.435 C 154.800 356.144,158.856 360.134,160.200 360.747 C 160.860 361.047,161.713 361.452,162.095 361.647 C 162.477 361.841,163.141 362.000,163.571 362.000 C 164.001 362.000,164.464 362.180,164.600 362.400 C 164.736 362.620,165.276 362.800,165.800 362.800 C 166.324 362.800,166.864 362.980,167.000 363.200 C 167.136 363.420,167.867 363.600,168.624 363.600 C 169.381 363.600,170.000 363.780,170.000 364.000 C 170.000 364.220,170.720 364.400,171.600 364.400 C 172.480 364.400,173.200 364.580,173.200 364.800 C 173.200 365.020,174.100 365.200,175.200 365.200 C 176.300 365.200,177.200 365.380,177.200 365.600 C 177.200 365.822,178.267 366.000,179.600 366.000 C 180.933 366.000,182.000 366.178,182.000 366.400 C 182.000 366.638,183.525 366.800,185.776 366.800 C 187.863 366.800,189.663 366.979,189.800 367.200 C 190.135 367.742,208.265 367.742,208.600 367.200 C 208.737 366.979,210.537 366.800,212.624 366.800 C 214.875 366.800,216.400 366.638,216.400 366.400 C 216.400 366.175,217.525 366.000,218.976 366.000 C 220.393 366.000,221.664 365.820,221.800 365.600 C 221.936 365.380,222.937 365.200,224.024 365.200 C 225.111 365.200,226.000 365.020,226.000 364.800 C 226.000 364.580,226.720 364.400,227.600 364.400 C 228.480 364.400,229.200 364.220,229.200 364.000 C 229.200 363.780,229.920 363.600,230.800 363.600 C 231.680 363.600,232.400 363.420,232.400 363.200 C 232.400 362.980,232.929 362.800,233.576 362.800 C 234.223 362.800,234.864 362.620,235.000 362.400 C 235.136 362.180,235.676 362.000,236.200 362.000 C 236.724 362.000,237.264 361.820,237.400 361.600 C 237.536 361.380,238.087 361.200,238.624 361.200 C 239.161 361.200,239.600 361.020,239.600 360.800 C 239.600 360.580,239.888 360.400,240.240 360.400 C 240.914 360.400,244.400 356.950,244.400 356.283 C 244.400 356.069,244.716 355.603,245.103 355.247 C 245.489 354.891,246.060 354.105,246.370 353.500 C 246.681 352.895,247.085 352.400,247.268 352.400 C 247.450 352.400,247.600 352.040,247.600 351.600 C 247.600 351.160,247.780 350.800,248.000 350.800 C 248.220 350.800,248.400 350.522,248.400 350.183 C 248.400 349.844,248.760 349.180,249.200 348.708 C 249.640 348.236,250.000 347.613,250.000 347.325 C 250.000 347.036,250.180 346.800,250.400 346.800 C 250.620 346.800,250.800 346.440,250.800 346.000 C 250.800 345.560,250.980 345.200,251.200 345.200 C 251.420 345.200,251.600 344.935,251.600 344.612 C 251.600 344.289,251.960 343.383,252.400 342.600 C 252.840 341.817,253.200 340.821,253.200 340.388 C 253.200 339.955,253.380 339.600,253.600 339.600 C 253.820 339.600,254.000 339.240,254.000 338.800 C 254.000 338.360,254.180 338.000,254.400 338.000 C 254.620 338.000,254.800 337.460,254.800 336.800 C 254.800 336.140,254.980 335.600,255.200 335.600 C 255.420 335.600,255.600 335.251,255.600 334.824 C 255.600 334.397,255.780 333.936,256.000 333.800 C 256.220 333.664,256.400 333.034,256.400 332.400 C 256.400 331.766,256.580 331.136,256.800 331.000 C 257.020 330.864,257.200 330.223,257.200 329.576 C 257.200 328.929,257.380 328.400,257.600 328.400 C 257.820 328.400,258.000 327.860,258.000 327.200 C 258.000 326.540,258.180 326.000,258.400 326.000 C 258.620 326.000,258.800 325.291,258.800 324.424 C 258.800 323.557,258.980 322.736,259.200 322.600 C 259.420 322.464,259.600 321.564,259.600 320.600 C 259.600 319.636,259.780 318.736,260.000 318.600 C 260.220 318.464,260.400 316.732,260.400 314.750 L 260.400 311.148 258.400 309.200 C 257.300 308.129,256.400 307.053,256.400 306.809 C 256.400 306.566,256.040 305.980,255.600 305.508 C 255.160 305.036,254.800 304.334,254.800 303.948 C 254.800 303.563,254.620 303.136,254.400 303.000 C 254.180 302.864,254.000 302.043,254.000 301.176 C 254.000 300.309,254.180 299.600,254.400 299.600 C 254.620 299.600,254.800 299.240,254.800 298.800 C 254.800 298.360,254.980 298.000,255.200 298.000 C 255.420 298.000,255.600 297.640,255.600 297.200 C 255.600 296.760,255.780 296.400,256.000 296.400 C 256.220 296.400,256.400 296.040,256.400 295.600 C 256.400 295.160,256.580 294.800,256.800 294.800 C 257.020 294.800,257.200 294.440,257.200 294.000 C 257.200 293.560,257.380 293.200,257.600 293.200 C 257.820 293.200,258.000 292.840,258.000 292.400 C 258.000 291.960,258.180 291.600,258.400 291.600 C 258.620 291.600,258.800 291.347,258.800 291.038 C 258.800 290.553,259.352 289.280,260.850 286.305 C 261.043 285.923,261.200 285.338,261.200 285.005 C 261.200 284.672,261.380 284.400,261.600 284.400 C 261.820 284.400,262.000 284.040,262.000 283.600 C 262.000 283.160,262.180 282.800,262.400 282.800 C 262.620 282.800,262.800 282.440,262.800 282.000 C 262.800 281.560,262.980 281.200,263.200 281.200 C 263.420 281.200,263.600 280.840,263.600 280.400 C 263.600 279.960,263.780 279.600,264.000 279.600 C 264.220 279.600,264.400 279.240,264.400 278.800 C 264.400 278.360,264.580 278.000,264.800 278.000 C 265.020 278.000,265.200 277.640,265.200 277.200 C 265.200 276.760,265.380 276.400,265.600 276.400 C 265.820 276.400,266.000 276.040,266.000 275.600 C 266.000 275.160,266.180 274.800,266.400 274.800 C 266.620 274.800,266.800 274.440,266.800 274.000 C 266.800 273.560,266.980 273.200,267.200 273.200 C 267.420 273.200,267.600 272.840,267.600 272.400 C 267.600 271.960,267.780 271.600,268.000 271.600 C 268.220 271.600,268.400 271.328,268.400 270.995 C 268.400 270.662,268.580 270.032,268.800 269.595 C 269.020 269.158,269.380 268.442,269.600 268.005 C 269.820 267.568,270.000 266.938,270.000 266.605 C 270.000 266.272,270.180 266.000,270.400 266.000 C 270.620 266.000,270.800 265.640,270.800 265.200 C 270.800 264.760,270.980 264.400,271.200 264.400 C 271.420 264.400,271.600 264.040,271.600 263.600 C 271.600 263.160,271.780 262.800,272.000 262.800 C 272.220 262.800,272.400 262.440,272.400 262.000 C 272.400 261.560,272.580 261.200,272.800 261.200 C 273.020 261.200,273.200 260.840,273.200 260.400 C 273.200 259.960,273.380 259.600,273.600 259.600 C 273.820 259.600,274.000 259.251,274.000 258.824 C 274.000 258.397,274.180 257.936,274.400 257.800 C 274.620 257.664,274.800 257.113,274.800 256.576 C 274.800 256.039,274.980 255.600,275.200 255.600 C 275.420 255.600,275.600 255.240,275.600 254.800 C 275.600 254.360,275.780 254.000,276.000 254.000 C 276.220 254.000,276.400 253.640,276.400 253.200 C 276.400 252.760,276.580 252.400,276.800 252.400 C 277.020 252.400,277.200 252.040,277.200 251.600 C 277.200 251.160,277.380 250.800,277.600 250.800 C 277.820 250.800,278.000 250.361,278.000 249.824 C 278.000 249.287,278.180 248.736,278.400 248.600 C 278.620 248.464,278.800 248.003,278.800 247.576 C 278.800 247.149,278.980 246.800,279.200 246.800 C 279.420 246.800,279.600 246.440,279.600 246.000 C 279.600 245.560,279.780 245.200,280.000 245.200 C 280.220 245.200,280.400 244.840,280.400 244.400 C 280.400 243.960,280.580 243.600,280.800 243.600 C 281.020 243.600,281.200 243.161,281.200 242.624 C 281.200 242.087,281.380 241.536,281.600 241.400 C 281.820 241.264,282.000 240.803,282.000 240.376 C 282.000 239.949,282.180 239.600,282.400 239.600 C 282.620 239.600,282.800 239.240,282.800 238.800 C 282.800 238.360,282.980 238.000,283.200 238.000 C 283.420 238.000,283.600 237.651,283.600 237.224 C 283.600 236.797,283.780 236.336,284.000 236.200 C 284.220 236.064,284.400 235.513,284.400 234.976 C 284.400 234.439,284.580 234.000,284.800 234.000 C 285.020 234.000,285.200 233.640,285.200 233.200 C 285.200 232.760,285.380 232.400,285.600 232.400 C 285.820 232.400,286.000 232.051,286.000 231.624 C 286.000 231.197,286.180 230.736,286.400 230.600 C 286.620 230.464,286.800 229.913,286.800 229.376 C 286.800 228.839,286.980 228.400,287.200 228.400 C 287.420 228.400,287.600 228.040,287.600 227.600 C 287.600 227.160,287.780 226.800,288.000 226.800 C 288.220 226.800,288.400 226.361,288.400 225.824 C 288.400 225.287,288.580 224.736,288.800 224.600 C 289.020 224.464,289.200 224.003,289.200 223.576 C 289.200 223.149,289.380 222.800,289.600 222.800 C 289.820 222.800,290.000 222.361,290.000 221.824 C 290.000 221.287,290.180 220.736,290.400 220.600 C 290.620 220.464,290.800 220.003,290.800 219.576 C 290.800 219.149,290.980 218.800,291.200 218.800 C 291.420 218.800,291.600 218.260,291.600 217.600 C 291.600 216.940,291.780 216.400,292.000 216.400 C 292.220 216.400,292.400 216.040,292.400 215.600 C 292.400 215.160,292.580 214.800,292.800 214.800 C 293.020 214.800,293.200 214.260,293.200 213.600 C 293.200 212.940,293.380 212.400,293.600 212.400 C 293.820 212.400,294.000 212.040,294.000 211.600 C 294.000 211.160,294.180 210.800,294.400 210.800 C 294.620 210.800,294.800 210.260,294.800 209.600 C 294.800 208.940,294.980 208.400,295.200 208.400 C 295.420 208.400,295.600 208.040,295.600 207.600 C 295.600 207.160,295.780 206.800,296.000 206.800 C 296.220 206.800,296.400 206.451,296.400 206.024 C 296.400 205.597,296.580 205.136,296.800 205.000 C 297.020 204.864,297.200 204.313,297.200 203.776 C 297.200 203.239,297.380 202.800,297.600 202.800 C 297.820 202.800,298.000 202.980,298.000 203.200 C 298.000 203.420,298.360 203.600,298.800 203.600 C 299.240 203.600,299.600 203.780,299.600 204.000 C 299.600 204.220,300.140 204.400,300.800 204.400 C 301.460 204.400,302.000 204.580,302.000 204.800 C 302.000 205.020,302.540 205.200,303.200 205.200 C 303.860 205.200,304.400 205.380,304.400 205.600 C 304.400 205.820,304.929 206.000,305.576 206.000 C 306.223 206.000,306.864 206.180,307.000 206.400 C 307.136 206.620,308.047 206.800,309.024 206.800 C 310.001 206.800,310.800 206.980,310.800 207.200 C 310.800 207.420,311.700 207.600,312.800 207.600 C 313.900 207.600,314.800 207.780,314.800 208.000 C 314.800 208.233,316.133 208.400,318.000 208.400 C 319.867 208.400,321.200 208.567,321.200 208.800 C 321.200 209.038,322.725 209.200,324.976 209.200 C 327.063 209.200,328.863 209.021,329.000 208.800 C 329.136 208.580,330.306 208.400,331.600 208.400 C 332.894 208.400,334.064 208.220,334.200 208.000 C 334.336 207.780,335.056 207.600,335.800 207.600 C 336.544 207.600,337.264 207.420,337.400 207.200 C 337.536 206.980,338.076 206.800,338.600 206.800 C 339.124 206.800,339.664 206.620,339.800 206.400 C 339.936 206.180,340.487 206.000,341.024 206.000 C 341.561 206.000,342.000 205.820,342.000 205.600 C 342.000 205.380,342.360 205.200,342.800 205.200 C 343.240 205.200,343.600 205.020,343.600 204.800 C 343.600 204.580,344.039 204.400,344.576 204.400 C 345.113 204.400,345.664 204.220,345.800 204.000 C 345.936 203.780,346.314 203.600,346.640 203.600 C 346.967 203.600,347.620 203.240,348.092 202.800 C 348.564 202.360,349.187 202.000,349.475 202.000 C 349.764 202.000,350.000 201.820,350.000 201.600 C 350.000 201.380,350.360 201.200,350.800 201.200 C 351.240 201.200,351.600 201.050,351.600 200.868 C 351.600 200.685,352.095 200.281,352.700 199.970 C 353.305 199.660,354.091 199.089,354.447 198.703 C 354.803 198.316,355.290 198.000,355.530 198.000 C 356.090 198.000,362.800 191.303,362.800 190.743 C 362.800 190.511,363.340 189.817,364.000 189.200 C 365.722 187.591,365.378 185.200,363.423 185.200 C 363.074 185.200,362.432 185.020,361.995 184.800 C 361.558 184.580,360.842 184.220,360.405 184.000 C 359.968 183.780,359.259 183.600,358.829 183.600 C 358.399 183.600,357.936 183.420,357.800 183.200 C 357.664 182.980,357.124 182.800,356.600 182.800 C 356.076 182.800,355.536 182.620,355.400 182.400 C 355.264 182.180,354.724 182.000,354.200 182.000 C 353.676 182.000,353.136 181.820,353.000 181.600 C 352.864 181.380,352.313 181.200,351.776 181.200 C 351.239 181.200,350.800 181.020,350.800 180.800 C 350.800 180.580,350.260 180.400,349.600 180.400 C 348.940 180.400,348.400 180.220,348.400 180.000 C 348.400 179.780,347.860 179.600,347.200 179.600 C 346.540 179.600,346.000 179.420,346.000 179.200 C 346.000 178.980,345.460 178.800,344.800 178.800 C 344.140 178.800,343.600 178.620,343.600 178.400 C 343.600 178.180,343.060 178.000,342.400 178.000 C 341.740 178.000,341.200 177.820,341.200 177.600 C 341.200 177.380,340.671 177.200,340.024 177.200 C 339.377 177.200,338.736 177.020,338.600 176.800 C 338.464 176.580,337.744 176.400,337.000 176.400 C 336.256 176.400,335.536 176.220,335.400 176.000 C 335.264 175.780,334.544 175.600,333.800 175.600 C 333.056 175.600,332.336 175.420,332.200 175.200 C 332.064 174.980,331.153 174.800,330.176 174.800 C 329.199 174.800,328.400 174.620,328.400 174.400 C 328.400 174.180,327.691 174.000,326.824 174.000 C 325.957 174.000,325.136 173.820,325.000 173.600 C 324.864 173.380,323.953 173.200,322.976 173.200 C 321.999 173.200,321.200 173.020,321.200 172.800 C 321.200 172.580,320.491 172.400,319.624 172.400 C 318.757 172.400,317.936 172.220,317.800 172.000 C 317.664 171.780,316.753 171.600,315.776 171.600 C 314.799 171.600,314.000 171.420,314.000 171.200 C 314.000 170.980,314.619 170.800,315.376 170.800 C 316.133 170.800,316.864 170.620,317.000 170.400 C 317.136 170.180,318.036 170.000,319.000 170.000 C 319.964 170.000,320.864 169.820,321.000 169.600 C 321.136 169.380,321.957 169.200,322.824 169.200 C 323.691 169.200,324.400 169.020,324.400 168.800 C 324.400 168.580,325.109 168.400,325.976 168.400 C 326.843 168.400,327.664 168.220,327.800 168.000 C 327.936 167.780,328.667 167.600,329.424 167.600 C 330.181 167.600,330.800 167.420,330.800 167.200 C 330.800 166.980,331.419 166.800,332.176 166.800 C 332.933 166.800,333.664 166.620,333.800 166.400 C 333.936 166.180,334.577 166.000,335.224 166.000 C 335.871 166.000,336.400 165.820,336.400 165.600 C 336.400 165.380,336.940 165.200,337.600 165.200 C 338.260 165.200,338.800 165.020,338.800 164.800 C 338.800 164.580,339.239 164.400,339.776 164.400 C 340.313 164.400,340.864 164.220,341.000 164.000 C 341.136 163.780,341.597 163.600,342.024 163.600 C 342.451 163.600,342.800 163.420,342.800 163.200 C 342.800 162.980,343.340 162.800,344.000 162.800 C 344.660 162.800,345.200 162.620,345.200 162.400 C 345.200 162.180,345.560 162.000,346.000 162.000 C 346.440 162.000,346.800 161.820,346.800 161.600 C 346.800 161.380,347.160 161.200,347.600 161.200 C 348.040 161.200,348.400 161.020,348.400 160.800 C 348.400 160.580,348.760 160.400,349.200 160.400 C 349.640 160.400,350.000 160.220,350.000 160.000 C 350.000 159.780,350.360 159.600,350.800 159.600 C 351.240 159.600,351.600 159.420,351.600 159.200 C 351.600 158.980,351.960 158.800,352.400 158.800 C 352.840 158.800,353.200 158.620,353.200 158.400 C 353.200 158.180,353.560 158.000,354.000 158.000 C 354.440 158.000,354.800 157.820,354.800 157.600 C 354.800 157.380,355.160 157.200,355.600 157.200 C 356.040 157.200,356.400 157.050,356.400 156.868 C 356.400 156.685,356.895 156.281,357.500 155.970 C 358.105 155.660,358.891 155.089,359.247 154.703 C 359.603 154.316,360.148 154.000,360.459 154.000 C 360.769 154.000,361.283 153.640,361.600 153.200 C 361.917 152.760,362.401 152.400,362.676 152.400 C 363.323 152.400,374.000 141.822,374.000 141.181 C 374.000 140.913,374.316 140.403,374.703 140.047 C 375.089 139.691,375.660 138.905,375.970 138.300 C 376.281 137.695,376.685 137.200,376.868 137.200 C 377.050 137.200,377.200 136.840,377.200 136.400 C 377.200 135.960,377.380 135.600,377.600 135.600 C 377.820 135.600,378.000 135.240,378.000 134.800 C 378.000 134.360,378.135 133.999,378.300 133.997 C 378.659 133.993,379.600 132.056,379.600 131.320 C 379.600 131.034,379.780 130.800,380.000 130.800 C 380.220 130.800,380.400 130.440,380.400 130.000 C 380.400 129.560,380.580 129.200,380.800 129.200 C 381.020 129.200,381.200 128.660,381.200 128.000 C 381.200 127.340,381.380 126.800,381.600 126.800 C 381.820 126.800,382.000 126.260,382.000 125.600 C 382.000 124.940,382.180 124.400,382.400 124.400 C 382.620 124.400,382.800 123.680,382.800 122.800 C 382.800 121.920,382.980 121.200,383.200 121.200 C 383.420 121.200,383.600 120.311,383.600 119.224 C 383.600 118.137,383.780 117.136,384.000 117.000 C 384.251 116.845,384.400 112.604,384.400 105.600 C 384.400 98.596,384.251 94.355,384.000 94.200 C 383.780 94.064,383.600 92.894,383.600 91.600 C 383.600 90.306,383.420 89.136,383.200 89.000 C 382.980 88.864,382.800 87.874,382.800 86.800 C 382.800 85.726,382.620 84.736,382.400 84.600 C 382.180 84.464,382.000 83.643,382.000 82.776 C 382.000 81.909,381.820 81.200,381.600 81.200 C 381.380 81.200,381.200 80.480,381.200 79.600 C 381.200 78.720,381.020 78.000,380.800 78.000 C 380.580 78.000,380.400 77.381,380.400 76.624 C 380.400 75.867,380.220 75.136,380.000 75.000 C 379.780 74.864,379.600 74.223,379.600 73.576 C 379.600 72.929,379.420 72.400,379.200 72.400 C 378.980 72.400,378.800 71.860,378.800 71.200 C 378.800 70.540,378.620 70.000,378.400 70.000 C 378.180 70.000,378.000 69.460,378.000 68.800 C 378.000 68.140,377.820 67.600,377.600 67.600 C 377.380 67.600,377.200 67.060,377.200 66.400 C 377.200 65.740,377.020 65.200,376.800 65.200 C 376.580 65.200,376.400 64.660,376.400 64.000 C 376.400 63.340,376.220 62.800,376.000 62.800 C 375.780 62.800,375.600 62.440,375.600 62.000 C 375.600 61.560,375.420 61.200,375.200 61.200 C 374.980 61.200,374.800 60.660,374.800 60.000 C 374.800 59.340,374.620 58.800,374.400 58.800 C 374.180 58.800,374.000 58.451,374.000 58.024 C 374.000 57.597,373.820 57.136,373.600 57.000 C 373.380 56.864,373.200 56.313,373.200 55.776 C 373.200 55.239,373.020 54.800,372.800 54.800 C 372.580 54.800,372.400 54.440,372.400 54.000 C 372.400 53.560,372.220 53.200,372.000 53.200 C 371.780 53.200,371.600 52.928,371.600 52.595 C 371.600 52.262,371.420 51.632,371.200 51.195 C 370.980 50.758,370.620 50.042,370.400 49.605 C 370.180 49.168,370.000 48.538,370.000 48.205 C 370.000 47.872,369.820 47.600,369.600 47.600 C 369.380 47.600,369.200 47.240,369.200 46.800 C 369.200 46.360,369.020 46.000,368.800 46.000 C 368.580 46.000,368.400 45.640,368.400 45.200 C 368.400 44.760,368.220 44.400,368.000 44.400 C 367.780 44.400,367.600 44.040,367.600 43.600 C 367.600 43.160,367.420 42.800,367.200 42.800 C 366.980 42.800,366.800 42.440,366.800 42.000 C 366.800 41.560,366.620 41.200,366.400 41.200 C 366.180 41.200,366.000 40.840,366.000 40.400 C 366.000 39.960,365.820 39.600,365.600 39.600 C 365.380 39.600,365.200 39.240,365.200 38.800 C 365.200 38.360,365.020 38.000,364.800 38.000 C 364.580 38.000,364.400 37.640,364.400 37.200 C 364.400 36.760,364.220 36.400,364.000 36.400 C 363.780 36.400,363.600 36.178,363.600 35.908 C 363.600 34.719,360.971 30.020,360.300 30.010 C 359.692 30.001,359.600 30.411,359.600 33.120 M366.769 49.300 C 369.147 54.412,369.149 54.417,370.590 58.170 C 371.753 61.201,372.806 64.379,374.776 70.800 C 375.484 73.110,376.211 75.450,376.391 76.000 C 377.714 80.055,379.600 87.039,379.600 87.884 C 379.600 88.798,378.836 88.447,375.502 86.000 C 371.536 83.089,371.909 83.098,367.018 85.800 C 362.264 88.427,361.382 88.578,361.766 86.700 C 363.093 80.222,363.982 67.921,363.991 55.900 C 363.996 49.795,364.152 44.800,364.337 44.800 C 364.523 44.800,365.617 46.825,366.769 49.300 M36.349 56.300 C 36.316 68.849,36.953 77.935,38.377 85.200 C 39.628 91.584,39.915 91.515,34.269 86.200 C 31.815 83.890,29.689 82.000,29.545 82.000 C 29.401 82.000,27.690 83.845,25.742 86.100 C 21.438 91.082,21.328 91.200,20.977 91.200 C 19.911 91.200,24.686 72.444,28.004 63.600 C 28.705 61.730,29.577 59.388,29.940 58.395 C 31.568 53.950,35.446 45.614,35.889 45.608 C 36.262 45.602,36.370 48.121,36.349 56.300 M33.330 88.498 C 39.613 94.066,41.288 96.155,42.845 100.363 C 44.488 104.804,50.857 112.101,55.986 115.418 C 67.339 122.763,79.723 124.316,108.992 122.064 C 114.488 121.642,119.213 121.383,119.492 121.491 C 120.246 121.780,120.162 122.229,118.186 128.471 C 114.995 138.546,112.366 149.713,110.395 161.565 C 109.709 165.693,109.026 168.664,108.718 168.859 C 107.206 169.818,82.878 168.908,74.407 167.576 C 35.576 161.467,14.969 136.969,18.793 101.462 C 19.372 96.088,18.832 97.006,25.945 89.300 C 30.028 84.877,29.329 84.952,33.330 88.498 M376.102 89.500 C 380.984 92.921,381.601 94.687,381.589 105.200 C 381.543 143.450,350.466 166.261,294.103 169.415 C 288.916 169.706,289.142 169.872,288.635 165.400 C 287.233 153.045,283.912 135.313,280.964 124.447 C 280.312 122.043,280.084 120.556,280.331 120.309 C 280.576 120.064,286.127 120.047,295.588 120.262 C 334.721 121.151,344.848 117.257,358.052 96.242 C 359.884 93.325,360.523 92.648,362.400 91.635 C 363.610 90.982,366.036 89.627,367.790 88.624 C 371.814 86.324,371.526 86.293,376.102 89.500 M229.000 117.607 C 235.820 117.826,245.810 118.180,251.200 118.393 C 256.590 118.606,263.880 118.883,267.400 119.007 C 276.553 119.332,277.153 119.433,277.663 120.728 C 278.243 122.199,280.354 129.440,280.775 131.400 C 283.253 142.945,284.261 148.864,285.202 157.400 C 285.445 159.600,285.814 162.605,286.022 164.077 C 286.230 165.549,286.400 167.748,286.400 168.963 C 286.400 171.773,286.792 172.000,291.647 172.000 C 295.108 172.000,297.547 172.208,306.000 173.226 C 314.999 174.310,321.452 175.510,331.800 178.026 C 342.770 180.692,360.400 186.836,360.400 187.992 C 360.400 188.328,358.862 190.239,357.000 192.216 C 347.979 201.798,330.766 207.486,317.767 205.180 C 309.246 203.669,304.636 202.374,299.463 200.037 C 297.957 199.356,296.588 198.800,296.420 198.800 C 296.130 198.800,293.226 205.327,291.792 209.200 C 291.425 210.190,290.980 211.360,290.802 211.800 C 290.624 212.240,290.071 213.680,289.573 215.000 C 285.990 224.498,282.919 228.223,276.170 231.253 C 271.334 233.424,263.172 232.007,260.525 228.538 C 259.298 226.928,259.633 226.417,261.923 226.406 C 264.622 226.394,269.826 224.881,273.948 222.912 C 280.998 219.544,285.462 211.913,287.386 199.940 C 287.670 198.176,288.024 197.874,290.600 197.202 C 293.488 196.449,294.400 195.486,294.400 193.190 C 294.400 187.077,291.295 184.620,283.600 184.645 C 274.735 184.674,270.357 187.232,257.400 199.953 C 242.939 214.151,236.984 217.598,226.925 217.600 C 215.194 217.601,207.732 210.790,204.152 196.812 C 202.916 191.987,202.910 192.000,206.464 192.000 C 210.743 192.000,224.382 190.780,237.900 189.189 C 248.273 187.967,249.598 187.613,249.058 186.206 C 248.763 185.439,246.657 185.485,240.200 186.398 C 229.598 187.897,214.287 189.217,206.000 189.347 L 202.600 189.400 202.600 184.200 L 202.600 179.000 207.200 178.704 C 213.284 178.313,221.127 177.632,224.600 177.194 C 226.140 177.000,229.020 176.641,231.000 176.397 C 232.980 176.152,235.590 175.794,236.800 175.601 C 238.010 175.408,240.350 175.047,242.000 174.799 C 245.392 174.289,247.000 173.641,247.000 172.785 C 247.000 172.058,243.757 172.022,240.200 172.709 C 232.319 174.233,203.300 176.633,202.495 175.828 C 202.360 175.694,202.239 172.842,202.225 169.492 L 202.200 163.400 203.600 163.312 C 214.864 162.601,224.526 161.626,232.800 160.365 C 244.510 158.580,246.799 157.866,245.006 156.555 C 244.586 156.248,243.963 156.083,243.621 156.189 C 242.591 156.509,233.251 157.843,228.000 158.420 C 219.557 159.347,212.975 159.796,207.800 159.798 L 202.200 159.800 202.000 154.318 C 201.801 148.861,201.412 147.380,200.475 148.510 C 200.201 148.840,199.980 151.241,199.912 154.627 L 199.800 160.200 192.000 160.113 C 184.695 160.031,180.108 159.732,171.400 158.769 C 162.268 157.760,160.449 157.531,158.274 157.120 C 156.283 156.743,155.857 156.772,155.309 157.320 C 153.725 158.904,154.868 159.211,169.600 161.163 C 178.215 162.305,189.247 163.200,194.702 163.200 C 200.424 163.200,200.002 162.711,199.995 169.333 C 199.986 177.306,201.748 176.821,180.200 174.784 C 173.436 174.145,163.534 172.918,160.800 172.380 C 155.060 171.252,152.685 171.656,154.484 173.455 C 156.113 175.085,176.014 177.738,193.800 178.698 L 199.400 179.000 199.317 183.963 C 199.271 186.693,199.052 189.108,198.830 189.330 C 198.176 189.984,174.347 188.299,163.000 186.797 C 155.956 185.864,154.800 185.897,154.800 187.029 C 154.800 187.886,156.181 188.412,159.513 188.822 C 167.510 189.807,169.665 190.059,173.200 190.424 C 179.376 191.062,186.205 191.568,192.514 191.854 C 199.332 192.164,199.036 191.974,198.191 195.494 C 194.412 211.251,183.074 220.604,170.236 218.556 C 160.184 216.952,155.744 214.163,141.761 200.668 C 126.734 186.165,117.126 182.084,110.061 187.202 C 105.510 190.499,105.012 199.200,109.375 199.200 C 111.369 199.200,112.800 200.330,112.800 201.903 C 112.800 204.486,114.396 210.023,116.082 213.287 C 119.705 220.304,127.047 224.817,136.442 225.803 C 140.700 226.250,140.888 226.924,137.521 229.676 C 131.046 234.967,123.323 234.844,117.238 229.351 C 113.781 226.232,112.257 223.064,107.745 209.618 C 104.293 199.333,105.049 199.891,98.545 202.831 C 95.913 204.021,93.203 204.822,87.800 206.007 C 68.459 210.250,51.699 205.671,40.055 192.963 C 37.225 189.875,37.252 189.948,38.700 189.312 C 46.971 185.681,57.681 182.328,71.000 179.202 C 76.190 177.983,77.386 177.731,84.400 176.382 C 89.739 175.354,98.364 174.143,106.761 173.241 C 111.269 172.757,110.968 173.048,111.558 168.600 C 113.123 156.800,114.284 150.485,116.596 141.200 C 117.530 137.446,118.400 134.243,118.767 133.200 C 118.961 132.650,119.900 129.709,120.853 126.664 C 122.945 119.987,122.098 120.509,131.665 119.992 C 135.919 119.762,142.550 119.395,146.400 119.178 C 159.818 118.419,167.875 118.032,179.000 117.609 C 185.160 117.375,190.560 117.108,191.000 117.015 C 192.102 116.783,213.983 117.124,229.000 117.607 M282.888 203.000 C 282.668 208.492,280.342 214.530,277.183 217.810 C 273.269 221.873,262.625 224.960,261.647 222.315 C 261.081 220.785,261.549 220.000,263.027 220.000 C 272.363 220.000,277.656 214.291,279.015 202.754 C 279.497 198.666,283.052 198.892,282.888 203.000 M118.927 201.240 C 119.769 201.623,119.926 202.035,120.151 204.459 C 120.909 212.617,127.168 218.375,135.300 218.395 C 138.274 218.403,139.991 221.140,137.868 222.490 C 136.150 223.583,128.228 221.738,124.557 219.390 C 116.504 214.238,111.409 197.814,118.927 201.240 M201.287 221.100 C 208.722 233.510,227.741 236.617,245.890 228.388 C 247.331 227.735,248.777 227.200,249.102 227.200 C 249.796 227.200,249.795 227.205,247.902 233.800 C 247.144 236.440,246.307 239.590,246.042 240.800 C 245.777 242.010,245.403 243.720,245.211 244.600 C 245.019 245.480,244.677 247.460,244.452 249.000 C 244.227 250.540,243.853 252.991,243.621 254.446 C 243.100 257.719,243.064 277.075,243.573 280.033 C 243.778 281.225,244.156 283.730,244.413 285.600 C 244.669 287.470,245.032 289.630,245.220 290.400 C 246.617 296.143,247.731 300.365,248.217 301.760 C 249.380 305.097,249.245 305.104,243.007 302.035 C 237.584 299.368,233.026 297.479,229.200 296.316 C 211.290 290.871,191.106 290.589,172.400 295.521 C 168.948 296.431,165.924 297.417,164.200 298.196 C 163.540 298.494,162.051 299.110,160.892 299.566 C 159.733 300.022,157.894 300.846,156.805 301.397 C 154.266 302.684,153.412 302.713,153.780 301.500 C 154.078 300.522,154.299 299.741,155.563 295.200 C 156.456 291.993,157.224 288.430,158.064 283.600 C 158.779 279.488,158.767 260.969,158.047 256.400 C 156.740 248.106,155.041 240.859,152.795 233.983 C 151.181 229.047,151.284 228.840,154.643 230.244 C 169.549 236.472,185.673 234.148,195.790 224.313 C 200.817 219.426,200.422 219.657,201.287 221.100 M142.400 231.242 C 142.400 236.396,138.860 242.722,134.911 244.627 C 129.263 247.351,119.734 241.783,118.216 234.873 C 117.878 233.335,118.219 233.277,120.516 234.486 C 124.891 236.788,133.973 235.100,140.200 230.829 C 141.872 229.681,142.400 229.780,142.400 231.242 M282.400 230.981 C 282.400 234.187,276.597 240.866,272.459 242.423 C 266.526 244.655,259.438 239.725,258.498 232.713 C 258.257 230.916,258.500 230.865,260.908 232.211 C 266.192 235.164,273.906 234.933,279.745 231.646 C 282.180 230.275,282.400 230.220,282.400 230.981 M146.046 237.900 C 148.585 243.443,151.267 252.620,152.358 259.498 C 152.611 261.092,153.030 263.612,153.289 265.098 C 153.935 268.809,153.925 287.238,153.275 291.600 C 152.498 296.808,151.918 299.604,151.568 299.820 C 151.081 300.121,146.854 293.442,141.808 284.400 C 140.330 281.751,128.800 258.571,128.800 258.249 C 128.800 258.151,128.170 256.705,127.400 255.036 C 122.240 243.848,122.372 244.441,125.340 245.760 C 133.027 249.179,138.631 246.773,142.709 238.304 C 144.520 234.543,144.509 234.545,146.046 237.900 M257.574 237.240 C 260.849 243.067,266.819 246.186,272.400 244.987 C 275.673 244.284,276.000 244.278,276.000 244.931 C 276.000 245.463,274.571 249.164,273.181 252.232 C 272.774 253.130,272.063 254.825,271.600 256.000 C 271.137 257.175,270.424 258.870,270.015 259.768 C 269.155 261.656,266.853 266.729,265.284 270.196 C 261.653 278.221,250.748 299.600,250.285 299.600 C 246.948 299.600,246.785 273.797,250.023 258.000 C 251.689 249.873,252.520 246.543,254.735 239.114 C 255.981 234.932,256.197 234.790,257.574 237.240 M241.062 237.229 C 240.970 237.543,240.696 238.520,240.455 239.400 C 239.191 243.997,238.785 245.255,237.648 248.099 C 230.435 266.138,220.764 275.049,205.400 277.810 C 200.216 278.742,197.042 278.576,189.400 276.976 C 176.894 274.356,166.182 259.870,162.710 240.883 C 162.095 237.521,161.351 237.049,161.503 240.117 C 161.884 247.798,165.873 258.522,170.830 265.197 C 176.382 272.672,181.746 276.230,191.400 278.842 C 194.381 279.649,204.574 279.541,208.572 278.662 C 222.823 275.525,234.334 263.170,240.199 244.716 C 240.988 242.232,241.805 239.666,242.015 239.013 C 242.304 238.112,242.256 237.684,241.813 237.242 C 241.311 236.739,241.206 236.737,241.062 237.229 M212.600 294.801 C 228.300 297.407,244.958 304.400,255.036 312.615 L 256.673 313.949 256.313 316.275 C 253.949 331.558,247.818 346.212,239.494 356.477 C 238.541 357.653,231.292 360.194,225.000 361.558 C 207.850 365.277,194.307 365.618,178.600 362.727 C 174.039 361.888,166.800 359.924,164.200 358.820 C 163.760 358.634,162.796 358.253,162.057 357.974 C 158.161 356.504,150.664 343.520,147.637 333.000 C 145.752 326.448,143.872 312.242,144.720 310.960 C 146.317 308.544,160.221 301.414,168.485 298.773 C 181.726 294.541,200.724 292.830,212.600 294.801 M223.200 309.601 C 212.026 311.108,205.958 323.047,211.664 332.300 C 213.106 334.639,213.727 332.143,212.354 329.526 C 210.853 326.666,212.696 324.612,214.466 327.172 C 220.964 336.575,236.714 333.410,239.608 322.121 C 241.171 316.020,232.950 308.359,225.800 309.255 C 225.580 309.282,224.410 309.438,223.200 309.601 M171.200 311.246 C 160.550 312.437,155.871 321.273,161.854 328.893 C 167.399 335.955,177.088 336.097,183.859 329.217 C 185.637 327.411,186.105 327.116,186.424 327.604 C 186.846 328.248,186.532 331.774,185.954 332.874 C 185.425 333.880,185.518 335.293,186.100 335.106 C 186.795 334.882,188.309 331.716,189.012 329.017 C 191.677 318.788,182.816 309.947,171.200 311.246 M194.800 344.043 C 189.967 344.293,186.127 344.716,183.200 345.323 C 182.650 345.437,181.120 345.749,179.800 346.016 C 174.837 347.021,165.936 349.819,163.052 351.280 C 160.849 352.397,161.695 353.170,164.074 352.213 C 167.376 350.884,172.727 349.250,177.050 348.250 C 197.557 343.506,214.149 344.542,233.917 351.801 C 238.188 353.369,239.818 352.413,235.900 350.638 C 224.122 345.300,211.052 343.203,194.800 344.043 " stroke="none" fill="#091c25" fill-rule="evenodd"></path><path id="path2" d="M364.610 51.653 C 364.727 54.872,364.628 61.262,364.391 65.853 C 364.014 73.144,363.734 76.131,362.522 85.749 L 362.277 87.698 366.977 85.195 L 371.676 82.693 375.217 85.146 C 377.165 86.496,378.846 87.600,378.953 87.600 C 380.075 87.600,369.803 56.724,366.377 49.800 L 364.399 45.800 364.610 51.653 M35.063 47.900 C 30.113 57.659,20.778 86.533,21.689 89.266 C 21.774 89.522,23.410 87.911,25.325 85.687 C 27.240 83.463,28.980 81.536,29.191 81.405 C 29.403 81.275,31.479 82.907,33.805 85.033 C 38.711 89.516,38.644 89.514,37.807 85.143 C 36.308 77.321,35.906 71.947,35.875 59.300 C 35.858 52.425,35.794 46.800,35.732 46.800 C 35.671 46.800,35.369 47.295,35.063 47.900 M179.200 118.026 C 175.790 118.195,168.860 118.537,163.800 118.786 C 158.740 119.034,151.900 119.402,148.600 119.603 C 145.300 119.803,138.820 120.163,134.200 120.403 C 122.101 121.029,123.336 120.465,121.498 126.200 C 117.170 139.706,114.396 151.788,112.818 164.000 C 112.349 167.630,111.838 171.226,111.683 171.991 L 111.400 173.382 106.400 173.871 C 84.070 176.053,51.151 183.722,40.218 189.289 L 38.235 190.298 40.818 192.993 C 55.216 208.020,77.873 211.286,100.118 201.541 C 105.289 199.276,104.559 198.441,109.059 211.771 C 112.321 221.432,114.058 225.084,116.865 228.179 C 122.290 234.162,131.318 234.464,137.617 228.874 C 139.758 226.974,139.530 226.581,136.113 226.277 C 122.884 225.103,115.087 217.639,112.428 203.606 L 111.785 200.211 110.393 199.961 C 101.260 198.318,106.060 184.800,115.776 184.800 C 123.531 184.800,129.686 188.352,141.443 199.612 C 155.432 213.009,159.133 215.538,167.800 217.624 C 181.269 220.866,193.414 212.053,197.440 196.117 C 198.358 192.482,199.199 192.853,188.546 192.190 C 180.010 191.658,177.519 191.442,167.900 190.399 C 160.392 189.585,155.502 188.816,154.958 188.365 C 153.990 187.562,154.268 186.048,155.438 185.755 C 156.451 185.501,157.373 185.566,164.400 186.388 C 175.724 187.713,189.305 188.786,194.840 188.794 L 198.680 188.800 198.948 184.376 C 199.280 178.912,199.496 179.201,195.076 179.197 C 183.822 179.190,157.227 175.873,154.476 174.134 C 153.812 173.715,153.587 173.247,153.676 172.475 C 153.848 170.981,154.699 170.953,163.116 172.158 C 175.159 173.884,187.192 175.070,194.800 175.283 L 199.000 175.400 199.111 169.700 L 199.222 164.000 198.111 163.998 C 188.636 163.982,159.193 160.882,155.500 159.511 C 154.652 159.196,154.400 158.841,154.400 157.959 C 154.400 156.315,155.241 156.235,162.607 157.181 C 175.593 158.849,197.024 160.460,198.529 159.882 C 199.109 159.660,199.200 158.923,199.200 154.457 C 199.200 148.714,199.843 146.846,201.475 147.843 C 202.111 148.232,202.214 148.984,202.311 153.998 L 202.423 159.711 208.511 159.433 C 218.361 158.984,231.325 157.660,240.469 156.169 C 245.439 155.359,248.066 156.703,245.100 158.538 C 243.045 159.810,219.731 162.946,208.508 163.461 C 201.728 163.772,202.191 163.241,202.595 170.256 L 202.881 175.200 206.540 175.192 C 212.345 175.178,230.653 173.774,235.600 172.963 C 236.370 172.836,238.969 172.375,241.376 171.937 C 246.124 171.073,247.600 171.274,247.600 172.782 C 247.600 174.331,246.612 174.639,236.600 176.208 C 228.771 177.436,212.286 179.086,205.600 179.312 L 203.000 179.400 202.867 181.200 C 202.794 182.190,202.855 184.305,203.001 185.900 L 203.268 188.800 206.734 188.797 C 213.685 188.792,229.965 187.302,241.975 185.572 C 248.392 184.647,249.600 184.806,249.600 186.577 C 249.600 188.415,249.519 188.433,232.400 190.387 C 226.413 191.071,220.403 191.611,212.248 192.197 C 207.875 192.512,204.196 192.871,204.072 192.995 C 203.650 193.416,205.694 200.992,207.000 203.852 C 212.263 215.370,223.011 219.522,236.600 215.287 C 241.565 213.739,245.807 210.472,257.078 199.509 C 270.564 186.393,275.386 183.706,284.803 184.058 C 290.815 184.283,293.367 185.979,294.722 190.646 C 295.829 194.458,294.679 196.697,291.163 197.576 C 288.426 198.261,288.319 198.399,287.542 202.222 C 284.483 217.268,278.435 223.703,264.713 226.507 C 259.991 227.472,259.885 227.605,262.325 229.471 C 265.753 232.094,271.274 232.548,276.069 230.602 C 282.981 227.797,285.218 224.762,290.512 211.000 C 295.802 197.251,295.521 197.620,299.378 199.377 C 320.898 209.184,341.920 206.243,356.900 191.329 C 360.366 187.878,360.438 188.056,354.700 185.886 C 334.330 178.180,315.780 174.137,294.000 172.654 C 285.633 172.085,286.159 172.352,285.828 168.506 C 283.934 146.459,278.828 120.753,276.236 120.207 C 274.675 119.878,255.415 119.043,225.248 117.994 C 212.409 117.548,188.494 117.565,179.200 118.026 M196.200 224.720 C 186.081 234.588,171.594 236.791,155.100 230.970 C 151.954 229.860,152.015 229.715,153.577 234.591 C 160.821 257.205,161.203 283.648,154.537 301.020 C 154.217 301.854,154.953 301.739,157.190 300.605 C 181.793 288.138,216.445 288.406,242.727 301.268 C 248.605 304.144,248.336 304.283,246.854 299.143 C 240.635 277.568,240.896 256.092,247.662 232.457 C 249.098 227.443,249.198 227.567,245.113 229.299 C 227.323 236.843,211.141 234.540,202.228 223.194 C 201.193 221.877,200.314 220.804,200.273 220.810 C 200.233 220.815,198.400 222.575,196.200 224.720 M140.200 231.445 C 135.145 235.361,125.392 237.249,120.856 235.191 C 118.654 234.192,118.661 234.191,118.980 235.461 C 120.960 243.350,132.072 247.389,137.339 242.135 C 141.093 238.391,143.671 228.757,140.200 231.445 M259.032 232.964 C 261.575 244.716,274.835 245.377,280.580 234.039 C 281.860 231.513,281.758 231.303,279.739 232.317 C 273.979 235.211,266.487 235.562,261.657 233.164 L 258.765 231.729 259.032 232.964 M143.027 238.971 C 139.156 247.018,133.175 249.656,125.792 246.571 C 123.547 245.633,123.384 245.035,128.242 255.536 C 128.989 257.150,129.600 258.541,129.600 258.625 C 129.600 260.468,148.706 296.230,151.046 298.767 C 151.402 299.152,151.651 298.319,152.187 294.956 C 155.160 276.306,152.562 253.786,145.654 238.316 L 144.541 235.823 143.027 238.971 M242.353 236.762 C 244.729 238.267,236.397 257.526,229.962 265.400 C 213.289 285.803,183.389 285.170,169.380 264.118 C 164.742 257.148,160.800 245.778,160.800 239.371 C 160.800 235.833,162.751 236.675,163.265 240.435 C 167.051 268.118,188.090 283.562,211.421 275.785 C 224.292 271.494,235.169 258.004,239.414 241.064 C 240.550 236.533,240.985 235.896,242.353 236.762 M254.599 241.700 C 249.966 257.946,248.008 270.149,248.006 282.800 C 248.004 289.492,249.385 298.400,250.423 298.400 C 251.259 298.400,265.738 268.396,271.463 254.800 C 273.084 250.950,274.684 247.197,275.018 246.461 L 275.624 245.122 273.512 245.461 C 266.505 246.586,261.315 244.202,257.453 238.084 C 256.087 235.920,256.339 235.601,254.599 241.700 M191.000 294.848 C 175.264 296.176,160.839 300.917,148.710 308.747 C 144.570 311.420,144.854 310.840,145.252 315.800 C 146.876 336.025,155.507 355.064,164.534 358.331 C 183.186 365.080,206.627 365.850,227.400 360.396 C 230.410 359.606,238.401 356.977,238.578 356.718 C 238.622 356.653,239.496 355.495,240.519 354.144 C 247.944 344.340,253.387 331.041,255.609 317.276 C 256.175 313.767,256.235 313.862,251.352 310.579 C 233.297 298.442,212.536 293.030,191.000 294.848 M230.447 309.369 C 236.794 311.296,240.860 316.230,240.264 321.282 C 238.896 332.872,223.527 337.186,214.870 328.411 L 212.711 326.221 212.908 328.211 C 213.017 329.305,213.271 330.830,213.473 331.600 C 214.319 334.823,212.911 335.301,211.127 332.398 C 203.711 320.322,216.461 305.124,230.447 309.369 M177.865 310.959 C 188.774 313.864,193.703 326.793,187.030 335.000 C 185.450 336.943,184.359 335.633,185.285 332.905 C 186.925 328.070,186.590 327.375,183.898 330.025 C 175.372 338.417,161.591 335.050,158.781 323.889 C 156.745 315.806,167.839 308.290,177.865 310.959 M210.716 343.624 C 220.592 344.703,229.004 346.844,236.100 350.085 C 239.061 351.437,239.119 351.517,238.094 352.783 L 237.389 353.654 233.394 352.195 C 219.336 347.061,211.403 345.717,197.600 346.130 C 186.484 346.463,178.846 347.814,168.528 351.272 C 162.459 353.307,161.199 353.451,161.201 352.113 C 161.202 350.796,172.422 346.890,181.110 345.181 C 190.530 343.328,202.327 342.708,210.716 343.624 " stroke="none" fill="#cb1444" fill-rule="evenodd"></path><path id="path3" d="M363.991 55.900 C 363.982 67.921,363.093 80.222,361.766 86.700 C 361.382 88.578,362.264 88.427,367.018 85.800 C 371.909 83.098,371.536 83.089,375.502 86.000 C 378.836 88.447,379.600 88.798,379.600 87.884 C 379.600 87.039,377.714 80.055,376.391 76.000 C 376.211 75.450,375.484 73.110,374.776 70.800 C 372.383 63.001,370.928 58.776,369.194 54.600 C 367.785 51.205,364.611 44.800,364.337 44.800 C 364.152 44.800,363.996 49.795,363.991 55.900 M33.001 51.102 C 31.681 54.120,30.304 57.402,29.940 58.395 C 29.577 59.388,28.705 61.730,28.004 63.600 C 24.686 72.444,19.911 91.200,20.977 91.200 C 21.328 91.200,21.438 91.082,25.742 86.100 C 27.690 83.845,29.401 82.000,29.545 82.000 C 29.689 82.000,31.815 83.890,34.269 86.200 C 39.915 91.515,39.628 91.584,38.377 85.200 C 36.953 77.935,36.316 68.849,36.349 56.300 C 36.382 43.529,36.340 43.464,33.001 51.102 M370.205 58.800 C 372.910 66.114,379.436 87.600,378.953 87.600 C 378.846 87.600,377.165 86.496,375.217 85.146 L 371.676 82.693 366.977 85.195 L 362.277 87.698 362.522 85.749 C 363.734 76.131,364.014 73.144,364.391 65.853 C 364.628 61.262,364.727 54.872,364.610 51.653 L 364.399 45.800 366.377 49.800 C 367.466 52.000,369.188 56.050,370.205 58.800 M35.875 59.300 C 35.906 71.947,36.308 77.321,37.807 85.143 C 38.644 89.514,38.711 89.516,33.805 85.033 C 31.479 82.907,29.403 81.275,29.191 81.405 C 28.980 81.536,27.240 83.463,25.325 85.687 C 23.410 87.911,21.774 89.522,21.689 89.266 C 20.733 86.398,33.828 46.800,35.732 46.800 C 35.794 46.800,35.858 52.425,35.875 59.300 M191.000 117.015 C 190.560 117.108,185.160 117.375,179.000 117.609 C 167.875 118.032,159.818 118.419,146.400 119.178 C 142.550 119.395,135.919 119.762,131.665 119.992 C 122.098 120.509,122.945 119.987,120.853 126.664 C 119.900 129.709,118.961 132.650,118.767 133.200 C 118.400 134.243,117.530 137.446,116.596 141.200 C 114.284 150.485,113.123 156.800,111.558 168.600 C 110.968 173.048,111.269 172.757,106.761 173.241 C 98.364 174.143,89.739 175.354,84.400 176.382 C 77.386 177.731,76.190 177.983,71.000 179.202 C 57.681 182.328,46.971 185.681,38.700 189.312 C 37.252 189.948,37.225 189.875,40.055 192.963 C 51.699 205.671,68.459 210.250,87.800 206.007 C 93.203 204.822,95.913 204.021,98.545 202.831 C 105.049 199.891,104.293 199.333,107.745 209.618 C 112.257 223.064,113.781 226.232,117.238 229.351 C 123.323 234.844,131.046 234.967,137.521 229.676 C 140.888 226.924,140.700 226.250,136.442 225.803 C 127.047 224.817,119.705 220.304,116.082 213.287 C 114.396 210.023,112.800 204.486,112.800 201.903 C 112.800 200.330,111.369 199.200,109.375 199.200 C 105.012 199.200,105.510 190.499,110.061 187.202 C 117.126 182.084,126.734 186.165,141.761 200.668 C 155.744 214.163,160.184 216.952,170.236 218.556 C 183.074 220.604,194.412 211.251,198.191 195.494 C 199.036 191.974,199.332 192.164,192.514 191.854 C 186.205 191.568,179.376 191.062,173.200 190.424 C 169.665 190.059,167.510 189.807,159.513 188.822 C 156.181 188.412,154.800 187.886,154.800 187.029 C 154.800 185.897,155.956 185.864,163.000 186.797 C 174.347 188.299,198.176 189.984,198.830 189.330 C 199.052 189.108,199.271 186.693,199.317 183.963 L 199.400 179.000 193.800 178.698 C 176.014 177.738,156.113 175.085,154.484 173.455 C 152.685 171.656,155.060 171.252,160.800 172.380 C 163.534 172.918,173.436 174.145,180.200 174.784 C 201.748 176.821,199.986 177.306,199.995 169.333 C 200.002 162.711,200.424 163.200,194.702 163.200 C 189.247 163.200,178.215 162.305,169.600 161.163 C 154.868 159.211,153.725 158.904,155.309 157.320 C 155.857 156.772,156.283 156.743,158.274 157.120 C 160.449 157.531,162.268 157.760,171.400 158.769 C 180.108 159.732,184.695 160.031,192.000 160.113 L 199.800 160.200 199.912 154.627 C 199.980 151.241,200.201 148.840,200.475 148.510 C 201.412 147.380,201.801 148.861,202.000 154.318 L 202.200 159.800 207.800 159.798 C 212.975 159.796,219.557 159.347,228.000 158.420 C 233.251 157.843,242.591 156.509,243.621 156.189 C 243.963 156.083,244.586 156.248,245.006 156.555 C 246.799 157.866,244.510 158.580,232.800 160.365 C 224.526 161.626,214.864 162.601,203.600 163.312 L 202.200 163.400 202.225 169.492 C 202.239 172.842,202.360 175.694,202.495 175.828 C 203.300 176.633,232.319 174.233,240.200 172.709 C 243.757 172.022,247.000 172.058,247.000 172.785 C 247.000 173.641,245.392 174.289,242.000 174.799 C 240.350 175.047,238.010 175.408,236.800 175.601 C 235.590 175.794,232.980 176.152,231.000 176.397 C 229.020 176.641,226.140 177.000,224.600 177.194 C 221.127 177.632,213.284 178.313,207.200 178.704 L 202.600 179.000 202.600 184.200 L 202.600 189.400 206.000 189.347 C 214.287 189.217,229.598 187.897,240.200 186.398 C 248.120 185.278,251.093 185.626,248.680 187.391 C 247.781 188.048,236.468 189.543,223.000 190.784 C 212.304 191.770,209.174 192.000,206.464 192.000 C 202.910 192.000,202.916 191.987,204.152 196.812 C 207.732 210.790,215.194 217.601,226.925 217.600 C 236.984 217.598,242.939 214.151,257.400 199.953 C 270.357 187.232,274.735 184.674,283.600 184.645 C 291.295 184.620,294.400 187.077,294.400 193.190 C 294.400 195.486,293.488 196.449,290.600 197.202 C 288.024 197.874,287.670 198.176,287.386 199.940 C 285.462 211.913,280.998 219.544,273.948 222.912 C 269.826 224.881,264.622 226.394,261.923 226.406 C 259.633 226.417,259.298 226.928,260.525 228.538 C 263.172 232.007,271.334 233.424,276.170 231.253 C 282.919 228.223,285.990 224.498,289.573 215.000 C 290.071 213.680,290.624 212.240,290.802 211.800 C 290.980 211.360,291.425 210.190,291.792 209.200 C 293.226 205.327,296.130 198.800,296.420 198.800 C 296.588 198.800,297.957 199.356,299.463 200.037 C 304.636 202.374,309.246 203.669,317.767 205.180 C 330.766 207.486,347.979 201.798,357.000 192.216 C 358.862 190.239,360.400 188.328,360.400 187.992 C 360.400 186.836,342.770 180.692,331.800 178.026 C 324.913 176.351,324.526 176.268,317.000 174.846 C 313.126 174.114,308.165 173.443,298.973 172.408 C 296.978 172.184,293.681 172.000,291.647 172.000 C 286.792 172.000,286.400 171.773,286.400 168.963 C 286.400 167.748,286.230 165.549,286.022 164.077 C 285.814 162.605,285.445 159.600,285.202 157.400 C 284.261 148.864,283.253 142.945,280.775 131.400 C 280.354 129.440,278.243 122.199,277.663 120.728 C 277.153 119.433,276.553 119.332,267.400 119.007 C 263.880 118.883,256.590 118.606,251.200 118.393 C 225.469 117.376,192.836 116.629,191.000 117.015 M225.248 117.994 C 255.415 119.043,274.675 119.878,276.236 120.207 C 278.828 120.753,283.934 146.459,285.828 168.506 C 286.159 172.352,285.633 172.085,294.000 172.654 C 315.780 174.137,334.330 178.180,354.700 185.886 C 360.438 188.056,360.366 187.878,356.900 191.329 C 341.920 206.243,320.898 209.184,299.378 199.377 C 295.521 197.620,295.802 197.251,290.512 211.000 C 285.218 224.762,282.981 227.797,276.069 230.602 C 271.274 232.548,265.753 232.094,262.325 229.471 C 259.885 227.605,259.991 227.472,264.713 226.507 C 278.435 223.703,284.483 217.268,287.542 202.222 C 288.319 198.399,288.426 198.261,291.163 197.576 C 294.679 196.697,295.829 194.458,294.722 190.646 C 293.367 185.979,290.815 184.283,284.803 184.058 C 275.386 183.706,270.564 186.393,257.078 199.509 C 245.807 210.472,241.565 213.739,236.600 215.287 C 223.011 219.522,212.263 215.370,207.000 203.852 C 205.694 200.992,203.650 193.416,204.072 192.995 C 204.196 192.871,207.875 192.512,212.248 192.197 C 220.403 191.611,226.413 191.071,232.400 190.387 C 249.519 188.433,249.600 188.415,249.600 186.577 C 249.600 184.806,248.392 184.647,241.975 185.572 C 229.965 187.302,213.685 188.792,206.734 188.797 L 203.268 188.800 203.001 185.900 C 202.855 184.305,202.794 182.190,202.867 181.200 L 203.000 179.400 205.600 179.312 C 212.286 179.086,228.771 177.436,236.600 176.208 C 246.612 174.639,247.600 174.331,247.600 172.782 C 247.600 171.274,246.124 171.073,241.376 171.937 C 238.969 172.375,236.370 172.836,235.600 172.963 C 230.653 173.774,212.345 175.178,206.540 175.192 L 202.881 175.200 202.595 170.256 C 202.191 163.241,201.728 163.772,208.508 163.461 C 219.731 162.946,243.045 159.810,245.100 158.538 C 248.066 156.703,245.439 155.359,240.469 156.169 C 231.325 157.660,218.361 158.984,208.511 159.433 L 202.423 159.711 202.311 153.998 C 202.214 148.984,202.111 148.232,201.475 147.843 C 199.843 146.846,199.200 148.714,199.200 154.457 C 199.200 158.923,199.109 159.660,198.529 159.882 C 197.024 160.460,175.593 158.849,162.607 157.181 C 155.241 156.235,154.400 156.315,154.400 157.959 C 154.400 158.841,154.652 159.196,155.500 159.511 C 159.193 160.882,188.636 163.982,198.111 163.998 L 199.222 164.000 199.111 169.700 L 199.000 175.400 194.800 175.283 C 187.192 175.070,175.159 173.884,163.116 172.158 C 154.699 170.953,153.848 170.981,153.676 172.475 C 153.587 173.247,153.812 173.715,154.476 174.134 C 157.227 175.873,183.822 179.190,195.076 179.197 C 199.496 179.201,199.280 178.912,198.948 184.376 L 198.680 188.800 194.840 188.794 C 189.305 188.786,175.724 187.713,164.400 186.388 C 157.373 185.566,156.451 185.501,155.438 185.755 C 154.268 186.048,153.990 187.562,154.958 188.365 C 155.502 188.816,160.392 189.585,167.900 190.399 C 177.519 191.442,180.010 191.658,188.546 192.190 C 199.199 192.853,198.358 192.482,197.440 196.117 C 193.414 212.053,181.269 220.866,167.800 217.624 C 159.133 215.538,155.432 213.009,141.443 199.612 C 123.827 182.741,110.803 179.732,106.392 191.515 C 104.559 196.411,105.853 199.144,110.393 199.961 L 111.785 200.211 112.428 203.606 C 115.087 217.639,122.884 225.103,136.113 226.277 C 139.530 226.581,139.758 226.974,137.617 228.874 C 131.318 234.464,122.290 234.162,116.865 228.179 C 114.058 225.084,112.321 221.432,109.059 211.771 C 104.559 198.441,105.289 199.276,100.118 201.541 C 77.873 211.286,55.216 208.020,40.818 192.993 L 38.235 190.298 40.218 189.289 C 51.151 183.722,84.070 176.053,106.400 173.871 L 111.400 173.382 111.683 171.991 C 111.838 171.226,112.349 167.630,112.818 164.000 C 114.396 151.788,117.170 139.706,121.498 126.200 C 123.336 120.465,122.101 121.029,134.200 120.403 C 138.820 120.163,145.300 119.803,148.600 119.603 C 151.900 119.402,158.740 119.034,163.800 118.786 C 168.860 118.537,175.790 118.195,179.200 118.026 C 188.494 117.565,212.409 117.548,225.248 117.994 M195.790 224.313 C 185.673 234.148,169.549 236.472,154.643 230.244 C 151.284 228.840,151.181 229.047,152.795 233.983 C 155.041 240.859,156.740 248.106,158.047 256.400 C 158.767 260.969,158.779 279.488,158.064 283.600 C 157.224 288.430,156.456 291.993,155.563 295.200 C 154.299 299.741,154.078 300.522,153.780 301.500 C 153.412 302.713,154.266 302.684,156.805 301.397 C 157.894 300.846,159.733 300.022,160.892 299.566 C 162.051 299.110,163.540 298.494,164.200 298.196 C 180.347 290.905,208.704 290.085,229.200 296.316 C 233.026 297.479,237.584 299.368,243.007 302.035 C 249.245 305.104,249.380 305.097,248.217 301.760 C 247.731 300.365,246.617 296.143,245.220 290.400 C 245.032 289.630,244.669 287.470,244.413 285.600 C 244.156 283.730,243.778 281.225,243.573 280.033 C 243.064 277.075,243.100 257.719,243.621 254.446 C 243.853 252.991,244.227 250.540,244.452 249.000 C 244.677 247.460,245.019 245.480,245.211 244.600 C 245.403 243.720,245.777 242.010,246.042 240.800 C 246.307 239.590,247.144 236.440,247.902 233.800 C 249.795 227.205,249.796 227.200,249.102 227.200 C 248.777 227.200,247.331 227.735,245.890 228.388 C 227.741 236.617,208.722 233.510,201.287 221.100 C 200.422 219.657,200.817 219.426,195.790 224.313 M202.228 223.194 C 211.141 234.540,227.323 236.843,245.113 229.299 C 249.198 227.567,249.098 227.443,247.662 232.457 C 240.896 256.092,240.635 277.568,246.854 299.143 C 248.336 304.283,248.605 304.144,242.727 301.268 C 216.445 288.406,181.793 288.138,157.190 300.605 C 154.953 301.739,154.217 301.854,154.537 301.020 C 161.203 283.648,160.821 257.205,153.577 234.591 C 152.015 229.715,151.954 229.860,155.100 230.970 C 171.594 236.791,186.081 234.588,196.200 224.720 C 198.400 222.575,200.233 220.815,200.273 220.810 C 200.314 220.804,201.193 221.877,202.228 223.194 M140.200 230.829 C 133.973 235.100,124.891 236.788,120.516 234.486 C 117.715 233.012,117.317 234.008,119.282 237.573 C 125.583 249.001,138.516 247.472,141.771 234.914 C 142.970 230.287,142.556 229.212,140.200 230.829 M279.745 231.646 C 273.906 234.933,266.192 235.164,260.908 232.211 C 258.020 230.597,257.594 231.796,259.538 236.063 C 263.709 245.220,273.839 245.213,279.936 236.048 C 283.383 230.867,283.329 229.628,279.745 231.646 M141.779 232.300 C 140.056 242.334,133.938 247.091,126.944 243.835 C 123.527 242.244,119.662 238.181,118.980 235.461 C 118.661 234.191,118.654 234.192,120.856 235.191 C 125.392 237.249,135.145 235.361,140.200 231.445 C 141.588 230.370,142.066 230.629,141.779 232.300 M269.175 234.597 C 273.943 234.594,276.158 234.116,279.739 232.317 C 281.758 231.303,281.860 231.513,280.580 234.039 C 274.835 245.377,261.575 244.716,259.032 232.964 L 258.765 231.729 261.657 233.164 C 264.475 234.563,264.668 234.600,269.175 234.597 M142.709 238.304 C 138.631 246.773,133.027 249.179,125.340 245.760 C 122.769 244.617,122.711 244.868,124.600 248.964 C 125.370 250.634,126.630 253.366,127.400 255.036 C 128.170 256.705,128.800 258.151,128.800 258.249 C 128.800 258.571,140.330 281.751,141.808 284.400 C 146.854 293.442,151.081 300.121,151.568 299.820 C 151.918 299.604,152.498 296.808,153.275 291.600 C 153.925 287.238,153.935 268.809,153.289 265.098 C 153.030 263.612,152.611 261.092,152.358 259.498 C 151.014 251.023,145.895 235.187,144.505 235.204 C 144.337 235.206,143.529 236.601,142.709 238.304 M255.791 236.014 C 255.419 236.616,253.894 241.762,252.417 247.400 C 248.779 261.286,246.893 277.317,247.664 287.791 C 248.056 293.107,249.497 299.600,250.285 299.600 C 250.748 299.600,261.653 278.221,265.284 270.196 C 266.853 266.729,269.155 261.656,270.015 259.768 C 270.424 258.870,271.137 257.175,271.600 256.000 C 272.063 254.825,272.774 253.130,273.181 252.232 C 274.571 249.164,276.000 245.463,276.000 244.931 C 276.000 244.278,275.673 244.284,272.400 244.987 C 266.819 246.186,260.849 243.067,257.574 237.240 C 256.629 235.558,256.239 235.290,255.791 236.014 M147.974 244.325 C 153.201 259.547,154.789 278.633,152.187 294.956 C 151.651 298.319,151.402 299.152,151.046 298.767 C 148.706 296.230,129.600 260.468,129.600 258.625 C 129.600 258.541,128.989 257.150,128.242 255.536 C 123.384 245.035,123.547 245.633,125.792 246.571 C 133.175 249.656,139.156 247.018,143.027 238.971 L 144.541 235.823 145.654 238.316 C 146.266 239.687,147.310 242.391,147.974 244.325 M240.464 237.500 C 240.226 238.105,239.754 239.709,239.414 241.064 C 235.169 258.004,224.292 271.494,211.421 275.785 C 188.090 283.562,167.051 268.118,163.265 240.435 C 162.751 236.675,160.800 235.833,160.800 239.371 C 160.800 251.642,170.483 269.218,180.507 275.142 C 192.432 282.190,210.363 281.576,221.331 273.746 C 230.840 266.956,240.203 251.521,242.616 238.656 C 243.047 236.356,241.286 235.410,240.464 237.500 M257.453 238.084 C 261.315 244.202,266.505 246.586,273.512 245.461 L 275.624 245.122 275.018 246.461 C 274.684 247.197,273.084 250.950,271.463 254.800 C 265.738 268.396,251.259 298.400,250.423 298.400 C 249.385 298.400,248.004 289.492,248.006 282.800 C 248.008 270.149,249.966 257.946,254.599 241.700 C 256.339 235.601,256.087 235.920,257.453 238.084 M242.015 239.013 C 241.805 239.666,240.988 242.232,240.199 244.716 C 232.963 267.483,219.013 279.333,199.400 279.371 C 192.487 279.385,188.935 278.649,183.600 276.099 C 171.909 270.511,162.229 254.748,161.503 240.117 C 161.351 237.049,162.095 237.521,162.710 240.883 C 166.182 259.870,176.894 274.356,189.400 276.976 C 197.042 278.576,200.216 278.742,205.400 277.810 C 220.764 275.049,230.435 266.138,237.648 248.099 C 238.785 245.255,239.191 243.997,240.455 239.400 C 241.274 236.420,241.165 236.593,241.813 237.242 C 242.256 237.684,242.304 238.112,242.015 239.013 M191.400 294.237 C 175.929 295.406,159.496 300.811,148.039 308.497 C 144.245 311.042,144.401 310.762,144.634 314.592 C 145.107 322.383,146.458 329.532,148.831 336.800 C 151.516 345.020,158.851 356.764,162.057 357.974 C 162.796 358.253,163.760 358.634,164.200 358.820 C 166.800 359.924,174.039 361.888,178.600 362.727 C 194.307 365.618,207.850 365.277,225.000 361.558 C 231.292 360.194,238.541 357.653,239.494 356.477 C 247.818 346.212,253.949 331.558,256.313 316.275 L 256.673 313.949 255.036 312.615 C 244.958 304.400,228.300 297.407,212.600 294.801 C 209.810 294.338,195.203 293.949,191.400 294.237 M207.258 294.807 C 224.458 296.496,248.365 305.827,255.394 313.594 C 258.483 317.006,248.936 343.031,240.519 354.144 C 239.496 355.495,238.622 356.653,238.578 356.718 C 238.401 356.977,230.410 359.606,227.400 360.396 C 206.627 365.850,183.186 365.080,164.534 358.331 C 155.507 355.064,146.876 336.025,145.252 315.800 C 144.854 310.840,144.570 311.420,148.710 308.747 C 165.017 298.219,187.499 292.866,207.258 294.807 M221.155 309.380 C 210.629 312.283,205.709 323.575,211.127 332.398 C 212.911 335.301,214.319 334.823,213.473 331.600 C 213.271 330.830,213.017 329.305,212.908 328.211 L 212.711 326.221 214.870 328.411 C 223.527 337.186,238.896 332.872,240.264 321.282 C 241.213 313.240,230.763 306.731,221.155 309.380 M228.463 309.575 C 240.779 311.593,243.789 323.862,233.576 330.416 C 227.359 334.405,218.415 332.887,214.466 327.172 C 212.696 324.612,210.853 326.666,212.354 329.526 C 212.942 330.647,213.314 333.600,212.868 333.600 C 210.413 333.600,208.619 323.200,210.398 319.280 C 213.244 313.009,217.393 310.308,225.800 309.255 C 226.020 309.227,227.218 309.371,228.463 309.575 M167.950 311.324 C 158.073 314.691,155.660 323.339,162.589 330.534 C 168.186 336.346,177.707 336.119,183.898 330.025 C 186.590 327.375,186.925 328.070,185.285 332.905 C 184.359 335.633,185.450 336.943,187.030 335.000 C 189.809 331.582,190.769 323.898,188.917 319.889 C 185.492 312.469,175.984 308.585,167.950 311.324 M180.000 312.209 C 185.427 314.350,189.580 320.008,189.596 325.280 C 189.604 328.286,187.318 334.714,186.100 335.106 C 185.518 335.293,185.425 333.880,185.954 332.874 C 186.532 331.774,186.846 328.248,186.424 327.604 C 186.105 327.116,185.637 327.411,183.859 329.217 C 177.088 336.097,167.399 335.955,161.854 328.893 C 153.807 318.646,166.569 306.912,180.000 312.209 M189.800 343.815 C 175.164 345.551,157.483 351.399,161.828 353.066 C 162.174 353.199,165.189 352.391,168.528 351.272 C 178.846 347.814,186.484 346.463,197.600 346.130 C 211.403 345.717,219.336 347.061,233.394 352.195 L 237.389 353.654 238.094 352.783 C 239.119 351.517,239.061 351.437,236.100 350.085 C 223.554 344.355,205.670 341.933,189.800 343.815 M213.000 344.446 C 221.974 345.604,228.958 347.492,235.900 350.638 C 239.818 352.413,238.188 353.369,233.917 351.801 C 225.158 348.584,219.692 347.138,212.093 346.026 C 208.315 345.473,192.454 345.476,188.707 346.030 C 179.415 347.405,170.396 349.669,164.074 352.213 C 161.695 353.170,160.849 352.397,163.052 351.280 C 165.936 349.819,174.837 347.021,179.800 346.016 C 181.120 345.749,182.650 345.437,183.200 345.323 C 190.433 343.824,204.879 343.399,213.000 344.446 " stroke="none" fill="#771a38" fill-rule="evenodd"></path><path id="path4" d="M25.945 89.300 C 18.832 97.006,19.372 96.088,18.793 101.462 C 14.969 136.969,35.576 161.467,74.407 167.576 C 82.878 168.908,107.206 169.818,108.718 168.859 C 109.026 168.664,109.709 165.693,110.395 161.565 C 112.366 149.713,114.995 138.546,118.186 128.471 C 120.162 122.229,120.246 121.780,119.492 121.491 C 119.213 121.383,114.488 121.642,108.992 122.064 C 79.723 124.316,67.339 122.763,55.986 115.418 C 50.857 112.101,44.488 104.804,42.845 100.363 C 41.288 96.155,39.613 94.066,33.330 88.498 C 29.329 84.952,30.028 84.877,25.945 89.300 M33.326 89.300 C 39.317 94.638,40.818 96.454,41.949 99.738 C 45.233 109.266,57.435 119.061,69.600 121.934 C 70.590 122.168,72.390 122.593,73.600 122.880 C 76.401 123.542,100.311 123.549,106.400 122.890 C 108.710 122.639,112.535 122.325,114.900 122.190 C 120.032 121.899,119.831 121.507,117.781 127.826 C 115.885 133.670,113.545 142.404,112.431 147.800 C 112.158 149.120,111.781 150.920,111.592 151.800 C 111.404 152.680,111.077 154.210,110.867 155.200 C 110.656 156.190,110.258 158.530,109.982 160.400 C 109.705 162.270,109.268 164.790,109.009 166.000 L 108.539 168.200 104.970 168.558 C 97.695 169.287,76.992 167.797,68.800 165.954 C 43.351 160.231,26.618 146.657,21.521 127.600 C 19.670 120.678,19.214 116.985,19.226 109.000 C 19.242 98.159,19.470 97.255,23.227 93.126 C 24.892 91.297,26.937 89.035,27.773 88.100 C 29.709 85.934,29.498 85.889,33.326 89.300 M367.790 88.624 C 366.036 89.627,363.610 90.982,362.400 91.635 C 360.523 92.648,359.884 93.325,358.052 96.242 C 344.848 117.257,334.721 121.151,295.588 120.262 C 286.127 120.047,280.576 120.064,280.331 120.309 C 280.084 120.556,280.312 122.043,280.964 124.447 C 283.912 135.313,287.233 153.045,288.635 165.400 C 289.142 169.872,288.916 169.706,294.103 169.415 C 350.466 166.261,381.543 143.450,381.589 105.200 C 381.601 94.687,380.984 92.921,376.102 89.500 C 371.526 86.293,371.814 86.324,367.790 88.624 M375.829 90.018 L 379.800 92.837 380.283 95.118 C 382.363 104.956,380.015 121.132,375.077 130.974 C 368.690 143.707,359.061 151.834,341.400 159.398 C 338.538 160.624,333.249 162.489,330.600 163.206 C 329.940 163.385,328.404 163.804,327.186 164.138 C 318.571 166.501,306.905 168.156,295.365 168.654 L 289.730 168.897 289.242 165.148 C 288.486 159.344,287.363 151.840,286.796 148.800 C 286.612 147.810,286.268 145.920,286.032 144.600 C 285.580 142.068,284.517 136.757,283.991 134.400 C 283.819 133.630,283.498 132.190,283.276 131.200 C 283.055 130.210,282.407 127.622,281.837 125.449 C 281.267 123.276,280.800 121.335,280.800 121.137 C 280.800 120.927,288.924 120.824,300.300 120.889 C 315.263 120.974,320.498 120.875,322.800 120.463 C 340.854 117.233,347.904 112.687,357.556 98.051 C 360.684 93.308,360.933 93.043,363.510 91.703 C 364.990 90.933,366.678 89.965,367.262 89.552 C 367.846 89.138,368.476 88.796,368.662 88.791 C 368.848 88.786,369.450 88.430,370.000 88.000 C 371.416 86.893,371.433 86.899,375.829 90.018 M280.116 200.472 C 279.457 200.797,279.178 201.376,279.015 202.754 C 277.656 214.291,272.363 220.000,263.027 220.000 C 261.549 220.000,261.081 220.785,261.647 222.315 C 262.625 224.960,273.269 221.873,277.183 217.810 C 280.342 214.530,282.668 208.492,282.888 203.000 C 283.010 199.940,282.373 199.359,280.116 200.472 M282.386 202.924 C 282.312 213.703,273.951 222.827,264.604 222.328 C 260.857 222.128,261.015 221.030,264.878 220.414 C 273.806 218.993,278.009 214.407,279.360 204.611 C 279.741 201.850,279.931 201.356,280.778 200.935 C 282.153 200.251,282.402 200.559,282.386 202.924 M116.080 201.280 C 113.187 204.173,118.495 215.512,124.557 219.390 C 128.228 221.738,136.150 223.583,137.868 222.490 C 139.991 221.140,138.274 218.403,135.300 218.395 C 127.168 218.375,120.909 212.617,120.151 204.459 C 119.846 201.184,117.785 199.575,116.080 201.280 M119.614 205.235 C 121.364 214.347,126.146 218.262,136.800 219.302 C 137.557 219.376,137.830 219.661,137.924 220.473 C 138.150 222.428,136.356 222.572,129.826 221.126 C 123.744 219.778,118.249 213.900,116.595 206.972 C 115.546 202.579,115.788 201.484,117.763 201.681 C 118.924 201.797,118.971 201.888,119.614 205.235 " stroke="none" fill="#5c6c6e" fill-rule="evenodd"></path></g></svg>