<svg id="svg" version="1.1" xmlns="http://www.w3.org/2000/svg" xmlns:xlink="http://www.w3.org/1999/xlink" width="400" height="400" viewBox="0, 0, 400,400"><g id="svgg"><path id="path0" d="M204.100 14.589 C 203.825 14.906,203.600 15.444,203.600 15.783 C 203.600 16.122,203.420 16.400,203.200 16.400 C 202.980 16.400,202.800 16.672,202.800 17.005 C 202.800 17.338,202.620 17.968,202.400 18.405 C 202.180 18.842,201.820 19.558,201.600 19.995 C 201.380 20.432,201.200 21.062,201.200 21.395 C 201.200 21.728,201.020 22.000,200.800 22.000 C 200.580 22.000,200.400 22.360,200.400 22.800 C 200.400 23.240,200.220 23.600,200.000 23.600 C 199.780 23.600,199.600 23.949,199.600 24.376 C 199.600 24.803,199.420 25.264,199.200 25.400 C 198.980 25.536,198.800 26.087,198.800 26.624 C 198.800 27.161,198.620 27.600,198.400 27.600 C 198.180 27.600,198.000 28.140,198.000 28.800 C 198.000 29.460,197.820 30.000,197.600 30.000 C 197.380 30.000,197.200 30.540,197.200 31.200 C 197.200 31.860,197.020 32.400,196.800 32.400 C 196.580 32.400,196.400 33.120,196.400 34.000 C 196.400 34.880,196.220 35.600,196.000 35.600 C 195.780 35.600,195.600 36.309,195.600 37.176 C 195.600 38.043,195.420 38.864,195.200 39.000 C 194.980 39.136,194.800 40.216,194.800 41.400 C 194.800 42.584,194.620 43.664,194.400 43.800 C 194.180 43.936,194.000 45.556,194.000 47.400 C 194.000 49.244,193.820 50.864,193.600 51.000 C 193.343 51.159,193.200 57.730,193.200 69.400 C 193.200 81.070,193.057 87.641,192.800 87.800 C 192.539 87.961,192.400 98.404,192.400 117.824 C 192.400 147.333,192.393 147.600,191.600 147.600 C 191.160 147.600,190.800 147.780,190.800 148.000 C 190.800 148.220,190.361 148.400,189.824 148.400 C 189.287 148.400,188.736 148.580,188.600 148.800 C 188.464 149.020,188.003 149.200,187.576 149.200 C 187.149 149.200,186.800 149.380,186.800 149.600 C 186.800 149.820,186.440 150.000,186.000 150.000 C 185.560 150.000,185.200 150.180,185.200 150.400 C 185.200 150.620,184.840 150.800,184.400 150.800 C 183.960 150.800,183.600 150.980,183.600 151.200 C 183.600 151.420,183.245 151.600,182.812 151.600 C 182.379 151.600,181.383 151.960,180.600 152.400 C 179.817 152.840,178.911 153.200,178.588 153.200 C 178.265 153.200,178.000 153.380,178.000 153.600 C 178.000 153.820,177.640 154.000,177.200 154.000 C 176.760 154.000,176.400 154.180,176.400 154.400 C 176.400 154.620,176.040 154.800,175.600 154.800 C 175.160 154.800,174.800 154.980,174.800 155.200 C 174.800 155.420,174.440 155.600,174.000 155.600 C 173.560 155.600,173.200 155.780,173.200 156.000 C 173.200 156.220,172.840 156.400,172.400 156.400 C 171.960 156.400,171.600 156.580,171.600 156.800 C 171.600 157.020,171.255 157.200,170.833 157.200 C 170.412 157.200,170.007 157.335,169.933 157.500 C 169.813 157.770,167.711 158.978,165.303 160.160 C 164.810 160.402,164.405 160.735,164.403 160.900 C 164.401 161.065,164.040 161.200,163.600 161.200 C 163.160 161.200,162.800 161.380,162.800 161.600 C 162.800 161.820,162.440 162.000,162.000 162.000 C 161.560 162.000,161.200 162.180,161.200 162.400 C 161.200 162.620,160.964 162.800,160.675 162.800 C 160.387 162.800,159.764 163.160,159.292 163.600 C 158.820 164.040,158.156 164.400,157.817 164.400 C 157.478 164.400,157.200 164.580,157.200 164.800 C 157.200 165.020,156.922 165.200,156.583 165.200 C 156.244 165.200,155.580 165.560,155.108 166.000 C 154.636 166.440,154.013 166.800,153.725 166.800 C 153.436 166.800,153.200 166.980,153.200 167.200 C 153.200 167.420,152.922 167.600,152.583 167.600 C 152.244 167.600,151.580 167.960,151.108 168.400 C 150.636 168.840,150.013 169.200,149.725 169.200 C 149.436 169.200,149.200 169.380,149.200 169.600 C 149.200 169.820,148.964 170.000,148.675 170.000 C 148.387 170.000,147.764 170.360,147.292 170.800 C 146.820 171.240,146.196 171.600,145.905 171.600 C 145.614 171.600,145.117 171.960,144.800 172.400 C 144.483 172.840,143.943 173.200,143.600 173.200 C 143.257 173.200,142.717 173.560,142.400 174.000 C 142.083 174.440,141.543 174.800,141.200 174.800 C 140.857 174.800,140.317 175.160,140.000 175.600 C 139.683 176.040,139.143 176.400,138.800 176.400 C 138.457 176.400,137.917 176.760,137.600 177.200 C 137.283 177.640,136.743 178.000,136.400 178.000 C 136.057 178.000,135.517 178.360,135.200 178.800 C 134.883 179.240,134.420 179.600,134.171 179.600 C 133.922 179.600,133.154 180.140,132.463 180.800 C 131.772 181.460,131.052 182.000,130.863 182.000 C 130.674 182.000,129.954 182.540,129.263 183.200 C 128.572 183.860,127.847 184.400,127.652 184.400 C 127.456 184.400,126.587 185.088,125.720 185.930 C 124.854 186.771,123.842 187.575,123.472 187.717 C 123.102 187.859,122.800 188.251,122.800 188.587 C 122.800 188.924,122.620 189.200,122.400 189.200 C 122.180 189.200,122.000 189.436,122.000 189.725 C 122.000 190.013,121.640 190.636,121.200 191.108 C 120.760 191.580,120.400 192.204,120.400 192.495 C 120.400 192.786,120.040 193.283,119.600 193.600 C 119.160 193.917,118.800 194.457,118.800 194.800 C 118.800 195.143,118.440 195.683,118.000 196.000 C 117.560 196.317,117.200 196.814,117.200 197.105 C 117.200 197.396,116.840 198.020,116.400 198.492 C 115.960 198.964,115.600 199.587,115.600 199.875 C 115.600 200.164,115.420 200.400,115.200 200.400 C 114.980 200.400,114.800 200.636,114.800 200.925 C 114.800 201.213,114.485 201.798,114.100 202.225 C 113.715 202.651,113.145 203.495,112.832 204.100 C 112.520 204.705,112.115 205.200,111.932 205.200 C 111.750 205.200,111.600 205.520,111.600 205.912 C 111.600 206.303,111.240 206.883,110.800 207.200 C 110.360 207.517,110.000 208.014,110.000 208.305 C 110.000 208.596,109.640 209.220,109.200 209.692 C 108.760 210.164,108.400 210.787,108.400 211.075 C 108.400 211.364,108.220 211.600,108.000 211.600 C 107.780 211.600,107.600 211.960,107.600 212.400 C 107.600 213.279,110.890 213.626,111.400 212.800 C 111.536 212.580,112.357 212.400,113.224 212.400 C 114.091 212.400,114.800 212.220,114.800 212.000 C 114.800 211.780,115.520 211.600,116.400 211.600 C 117.280 211.600,118.000 211.420,118.000 211.200 C 118.000 210.980,118.720 210.800,119.600 210.800 C 120.480 210.800,121.200 210.620,121.200 210.400 C 121.200 210.180,121.905 210.000,122.767 210.000 C 123.658 210.000,124.410 209.784,124.512 209.500 C 124.610 209.225,124.834 209.134,125.009 209.297 C 125.185 209.461,124.939 209.932,124.464 210.344 C 123.989 210.757,123.600 211.299,123.600 211.551 C 123.600 211.802,123.060 212.572,122.400 213.263 C 121.740 213.954,121.200 214.679,121.200 214.876 C 121.200 215.073,120.840 215.620,120.400 216.092 C 119.960 216.564,119.600 217.187,119.600 217.475 C 119.600 217.764,119.420 218.000,119.200 218.000 C 118.980 218.000,118.800 218.236,118.800 218.525 C 118.800 218.813,118.440 219.436,118.000 219.908 C 117.560 220.380,117.200 221.044,117.200 221.383 C 117.200 221.722,117.020 222.000,116.800 222.000 C 116.580 222.000,116.400 222.360,116.400 222.800 C 116.400 223.240,116.265 223.601,116.100 223.603 C 115.935 223.605,115.602 224.010,115.360 224.503 C 115.117 224.996,114.510 226.210,114.010 227.200 C 113.509 228.190,112.942 229.313,112.750 229.695 C 112.557 230.077,112.400 230.662,112.400 230.995 C 112.400 231.328,112.220 231.600,112.000 231.600 C 111.780 231.600,111.600 231.960,111.600 232.400 C 111.600 232.840,111.420 233.200,111.200 233.200 C 110.980 233.200,110.800 233.740,110.800 234.400 C 110.800 235.060,110.620 235.600,110.400 235.600 C 110.180 235.600,110.000 236.039,110.000 236.576 C 110.000 237.113,109.820 237.664,109.600 237.800 C 109.380 237.936,109.200 238.577,109.200 239.224 C 109.200 239.871,109.020 240.400,108.800 240.400 C 108.580 240.400,108.400 241.019,108.400 241.776 C 108.400 242.533,108.220 243.264,108.000 243.400 C 107.780 243.536,107.600 244.436,107.600 245.400 C 107.600 246.364,107.420 247.264,107.200 247.400 C 106.658 247.735,106.658 265.465,107.200 265.800 C 107.420 265.936,107.600 266.656,107.600 267.400 C 107.600 268.144,107.780 268.864,108.000 269.000 C 108.220 269.136,108.400 269.676,108.400 270.200 C 108.400 270.724,108.580 271.264,108.800 271.400 C 109.020 271.536,109.200 271.997,109.200 272.424 C 109.200 272.851,109.380 273.200,109.600 273.200 C 109.820 273.200,110.000 273.560,110.000 274.000 C 110.000 274.440,110.180 274.800,110.400 274.800 C 110.620 274.800,110.800 275.160,110.800 275.600 C 110.800 276.040,110.980 276.400,111.200 276.400 C 111.420 276.400,111.600 276.760,111.600 277.200 C 111.600 277.640,111.750 278.000,111.932 278.000 C 112.115 278.000,112.520 278.491,112.832 279.092 C 113.568 280.507,119.493 286.432,120.908 287.168 C 121.509 287.480,122.000 287.885,122.000 288.068 C 122.000 288.250,122.236 288.400,122.525 288.400 C 122.813 288.400,123.436 288.760,123.908 289.200 C 124.380 289.640,125.044 290.000,125.383 290.000 C 125.722 290.000,126.000 290.180,126.000 290.400 C 126.000 290.620,126.360 290.800,126.800 290.800 C 127.240 290.800,127.600 290.980,127.600 291.200 C 127.600 291.420,127.949 291.600,128.376 291.600 C 128.803 291.600,129.264 291.780,129.400 292.000 C 129.536 292.220,130.087 292.400,130.624 292.400 C 131.161 292.400,131.600 292.580,131.600 292.800 C 131.600 293.020,132.039 293.200,132.576 293.200 C 133.113 293.200,133.664 293.380,133.800 293.600 C 133.936 293.820,134.577 294.000,135.224 294.000 C 135.871 294.000,136.400 294.180,136.400 294.400 C 136.400 294.620,137.199 294.800,138.176 294.800 C 139.153 294.800,140.064 294.980,140.200 295.200 C 140.336 295.420,141.697 295.600,143.224 295.600 C 144.808 295.600,146.000 295.772,146.000 296.000 C 146.000 296.544,162.264 296.544,162.600 296.000 C 162.736 295.780,164.266 295.600,166.000 295.600 C 167.734 295.600,169.264 295.420,169.400 295.200 C 169.536 294.980,170.616 294.800,171.800 294.800 C 172.984 294.800,174.064 294.620,174.200 294.400 C 174.336 294.180,175.247 294.000,176.224 294.000 C 177.201 294.000,178.000 293.820,178.000 293.600 C 178.000 293.380,178.799 293.200,179.776 293.200 C 180.753 293.200,181.664 293.020,181.800 292.800 C 181.936 292.580,182.656 292.400,183.400 292.400 C 184.144 292.400,184.864 292.220,185.000 292.000 C 185.136 291.780,185.777 291.600,186.424 291.600 C 187.071 291.600,187.600 291.420,187.600 291.200 C 187.600 290.980,188.104 290.800,188.720 290.800 C 189.336 290.800,190.056 290.584,190.320 290.320 C 190.693 289.947,190.800 290.175,190.800 291.349 C 190.800 292.884,190.092 294.000,189.117 294.000 C 188.820 294.000,188.317 294.360,188.000 294.800 C 187.683 295.240,187.196 295.600,186.918 295.600 C 186.641 295.600,185.735 296.213,184.907 296.963 C 179.842 301.545,178.800 302.551,178.800 302.858 C 178.800 303.045,178.080 303.941,177.200 304.848 C 176.320 305.755,175.600 306.705,175.600 306.960 C 175.600 307.215,175.240 307.683,174.800 308.000 C 174.360 308.317,174.000 308.897,174.000 309.288 C 174.000 309.680,173.820 310.000,173.600 310.000 C 173.380 310.000,173.200 310.345,173.200 310.767 C 173.200 311.188,173.065 311.593,172.900 311.667 C 172.468 311.859,170.800 315.172,170.800 315.838 C 170.800 316.147,170.620 316.400,170.400 316.400 C 170.180 316.400,170.000 316.760,170.000 317.200 C 170.000 317.640,169.820 318.000,169.600 318.000 C 169.380 318.000,169.200 318.540,169.200 319.200 C 169.200 319.860,169.020 320.400,168.800 320.400 C 168.580 320.400,168.400 321.120,168.400 322.000 C 168.400 322.880,168.220 323.600,168.000 323.600 C 167.780 323.600,167.600 324.500,167.600 325.600 C 167.600 326.700,167.420 327.600,167.200 327.600 C 166.952 327.600,166.800 329.725,166.800 333.176 C 166.800 336.463,166.636 338.854,166.400 339.000 C 166.180 339.136,166.000 340.587,166.000 342.224 C 166.000 343.941,165.831 345.200,165.600 345.200 C 165.380 345.200,165.200 346.100,165.200 347.200 C 165.200 348.300,165.020 349.200,164.800 349.200 C 164.580 349.200,164.400 349.819,164.400 350.576 C 164.400 351.333,164.220 352.064,164.000 352.200 C 163.780 352.336,163.600 352.876,163.600 353.400 C 163.600 353.924,163.420 354.464,163.200 354.600 C 162.980 354.736,162.800 355.197,162.800 355.624 C 162.800 356.051,162.620 356.400,162.400 356.400 C 162.180 356.400,162.000 356.760,162.000 357.200 C 162.000 357.640,161.820 358.000,161.600 358.000 C 161.380 358.000,161.200 358.720,161.200 359.600 C 161.200 361.210,163.783 362.122,164.600 360.800 C 164.736 360.580,165.467 360.400,166.224 360.400 C 166.981 360.400,167.600 360.220,167.600 360.000 C 167.600 359.780,168.129 359.600,168.776 359.600 C 169.423 359.600,170.064 359.420,170.200 359.200 C 170.336 358.980,170.887 358.800,171.424 358.800 C 171.961 358.800,172.400 358.620,172.400 358.400 C 172.400 358.180,172.816 358.000,173.325 358.000 C 173.833 358.000,174.636 357.640,175.108 357.200 C 175.580 356.760,176.178 356.400,176.436 356.400 C 176.695 356.400,177.197 356.083,177.553 355.696 C 177.909 355.308,178.873 354.490,179.696 353.879 C 181.422 352.594,183.595 350.357,183.598 349.860 C 183.599 349.674,184.140 349.017,184.800 348.400 C 185.460 347.783,186.000 347.126,186.001 346.940 C 186.001 346.753,186.541 345.970,187.200 345.200 C 187.859 344.430,188.399 343.641,188.399 343.447 C 188.400 343.253,188.727 342.803,189.128 342.447 C 189.528 342.091,190.023 341.440,190.228 341.000 C 190.468 340.483,190.637 344.859,190.706 353.373 C 190.764 360.618,190.674 366.648,190.506 366.773 C 189.996 367.151,189.200 368.750,189.200 369.395 C 189.200 369.728,189.020 370.000,188.800 370.000 C 188.580 370.000,188.400 370.360,188.400 370.800 C 188.400 371.240,188.220 371.600,188.000 371.600 C 187.780 371.600,187.600 371.949,187.600 372.376 C 187.600 372.803,187.420 373.264,187.200 373.400 C 186.980 373.536,186.800 374.087,186.800 374.624 C 186.800 375.161,186.620 375.600,186.400 375.600 C 186.180 375.600,186.000 376.140,186.000 376.800 C 186.000 377.460,185.820 378.000,185.600 378.000 C 185.380 378.000,185.200 378.720,185.200 379.600 C 185.200 380.480,185.020 381.200,184.800 381.200 C 184.578 381.200,184.400 382.267,184.400 383.600 L 184.400 386.000 191.376 386.000 C 195.596 386.000,198.450 385.842,198.600 385.600 C 198.736 385.380,199.636 385.200,200.600 385.200 C 201.564 385.200,202.464 385.020,202.600 384.800 C 202.736 384.580,203.377 384.400,204.024 384.400 C 204.671 384.400,205.200 384.220,205.200 384.000 C 205.200 383.780,205.740 383.600,206.400 383.600 C 207.060 383.600,207.600 383.420,207.600 383.200 C 207.600 382.980,207.960 382.800,208.400 382.800 C 208.840 382.800,209.200 382.620,209.200 382.400 C 209.200 382.180,209.560 382.000,210.000 382.000 C 210.440 382.000,210.800 381.820,210.800 381.600 C 210.800 381.380,211.160 381.200,211.600 381.200 C 212.040 381.200,212.400 381.020,212.400 380.800 C 212.400 380.580,212.660 380.400,212.978 380.400 C 213.730 380.400,218.800 375.330,218.800 374.578 C 218.800 374.260,218.980 374.000,219.200 374.000 C 219.420 374.000,219.600 373.561,219.600 373.024 C 219.600 372.487,219.780 371.936,220.000 371.800 C 220.220 371.664,220.400 370.663,220.400 369.576 C 220.400 368.489,220.580 367.600,220.800 367.600 C 221.020 367.600,221.200 366.971,221.200 366.203 C 221.200 365.010,221.609 364.392,224.000 361.972 C 225.540 360.414,226.800 358.949,226.800 358.716 C 226.800 358.484,227.116 358.003,227.503 357.647 C 227.889 357.291,228.460 356.505,228.770 355.900 C 229.081 355.295,229.485 354.800,229.668 354.800 C 229.850 354.800,230.000 354.440,230.000 354.000 C 230.000 353.560,230.180 353.200,230.400 353.200 C 230.620 353.200,230.800 352.840,230.800 352.400 C 230.800 351.960,230.980 351.600,231.200 351.600 C 231.420 351.600,231.600 351.251,231.600 350.824 C 231.600 350.397,231.780 349.936,232.000 349.800 C 232.220 349.664,232.400 349.113,232.400 348.576 C 232.400 348.039,232.580 347.600,232.800 347.600 C 233.020 347.600,233.200 346.981,233.200 346.224 C 233.200 345.467,233.380 344.736,233.600 344.600 C 233.820 344.464,234.000 343.384,234.000 342.200 C 234.000 341.016,234.180 339.936,234.400 339.800 C 234.922 339.478,234.922 332.922,234.400 332.600 C 234.180 332.464,234.000 331.298,234.000 330.010 C 234.000 328.497,233.823 327.603,233.500 327.488 C 233.225 327.390,233.138 327.162,233.307 326.981 C 233.475 326.801,233.826 326.866,234.087 327.127 C 234.347 327.387,235.503 327.600,236.656 327.600 C 237.809 327.600,238.864 327.780,239.000 328.000 C 240.318 330.133,242.800 327.599,242.800 324.120 C 242.800 322.954,242.980 322.000,243.200 322.000 C 243.446 322.000,243.600 320.000,243.600 316.800 C 243.600 313.600,243.446 311.600,243.200 311.600 C 242.980 311.600,242.800 310.700,242.800 309.600 C 242.800 308.500,242.620 307.600,242.400 307.600 C 242.180 307.600,242.000 307.161,242.000 306.624 C 242.000 306.087,241.820 305.536,241.600 305.400 C 241.380 305.264,241.200 304.803,241.200 304.376 C 241.200 303.949,241.020 303.600,240.800 303.600 C 240.580 303.600,240.400 303.240,240.400 302.800 C 240.400 302.360,240.250 302.000,240.068 302.000 C 239.885 302.000,239.480 301.505,239.168 300.900 C 238.419 299.449,232.085 293.200,231.363 293.200 C 231.054 293.200,230.800 293.020,230.800 292.800 C 230.800 292.580,230.440 292.400,230.000 292.400 C 229.560 292.400,229.200 292.220,229.200 292.000 C 229.200 291.780,228.840 291.600,228.400 291.600 C 227.960 291.600,227.600 291.420,227.600 291.200 C 227.600 290.980,227.240 290.800,226.800 290.800 C 226.360 290.800,226.000 290.620,226.000 290.400 C 226.000 290.180,225.460 290.000,224.800 290.000 C 224.140 290.000,223.600 289.820,223.600 289.600 C 223.600 289.380,223.071 289.200,222.424 289.200 C 221.777 289.200,221.136 289.020,221.000 288.800 C 220.864 288.580,219.953 288.400,218.976 288.400 L 217.200 288.400 217.200 284.000 C 217.200 279.867,217.248 279.600,218.000 279.600 C 218.440 279.600,218.800 279.420,218.800 279.200 C 218.800 278.980,219.160 278.800,219.600 278.800 C 220.040 278.800,220.400 278.620,220.400 278.400 C 220.400 278.180,220.760 278.000,221.200 278.000 C 221.640 278.000,222.000 277.820,222.000 277.600 C 222.000 277.380,222.360 277.200,222.800 277.200 C 223.240 277.200,223.600 277.020,223.600 276.800 C 223.600 276.580,223.945 276.400,224.367 276.400 C 224.788 276.400,225.193 276.265,225.267 276.100 C 225.434 275.724,227.564 274.425,228.500 274.129 C 228.885 274.007,229.200 273.748,229.200 273.553 C 229.200 273.359,229.560 273.200,230.000 273.200 C 230.440 273.200,230.800 273.020,230.800 272.800 C 230.800 272.580,231.160 272.400,231.600 272.400 C 232.040 272.400,232.400 272.220,232.400 272.000 C 232.400 271.780,232.636 271.600,232.925 271.600 C 233.213 271.600,233.836 271.240,234.308 270.800 C 234.780 270.360,235.444 270.000,235.783 270.000 C 236.122 270.000,236.400 269.820,236.400 269.600 C 236.400 269.380,236.720 269.200,237.112 269.200 C 237.503 269.200,238.083 268.840,238.400 268.400 C 238.717 267.960,239.214 267.600,239.505 267.600 C 239.796 267.600,240.420 267.240,240.892 266.800 C 241.364 266.360,241.987 266.000,242.275 266.000 C 242.564 266.000,242.800 265.820,242.800 265.600 C 242.800 265.380,243.120 265.200,243.512 265.200 C 243.903 265.200,244.483 264.840,244.800 264.400 C 245.117 263.960,245.573 263.600,245.813 263.600 C 246.053 263.600,246.598 263.285,247.025 262.900 C 247.451 262.515,248.295 261.945,248.900 261.632 C 249.505 261.320,250.000 260.915,250.000 260.732 C 250.000 260.550,250.243 260.400,250.541 260.400 C 250.838 260.400,251.646 259.860,252.337 259.200 C 253.028 258.540,253.792 258.000,254.036 258.000 C 254.280 258.000,254.983 257.460,255.600 256.800 C 256.217 256.140,256.937 255.600,257.200 255.600 C 257.463 255.600,258.183 255.060,258.800 254.400 C 259.417 253.740,260.087 253.200,260.290 253.200 C 260.493 253.200,261.622 252.300,262.800 251.200 C 263.978 250.100,265.096 249.200,265.284 249.200 C 266.289 249.200,268.400 246.364,268.400 245.013 C 268.400 244.236,268.580 243.600,268.800 243.600 C 269.020 243.600,269.200 242.700,269.200 241.600 C 269.200 240.500,269.380 239.600,269.600 239.600 C 269.820 239.600,270.000 238.700,270.000 237.600 C 270.000 236.500,270.180 235.600,270.400 235.600 C 270.620 235.600,270.800 234.700,270.800 233.600 C 270.800 232.500,270.980 231.600,271.200 231.600 C 271.420 231.600,271.600 230.700,271.600 229.600 C 271.600 228.500,271.780 227.600,272.000 227.600 C 272.220 227.600,272.400 226.700,272.400 225.600 C 272.400 224.500,272.580 223.600,272.800 223.600 C 273.020 223.600,273.200 222.700,273.200 221.600 C 273.200 220.500,273.380 219.600,273.600 219.600 C 273.820 219.600,274.000 219.060,274.000 218.400 C 274.000 217.333,273.867 217.200,272.800 217.200 C 272.140 217.200,271.600 217.380,271.600 217.600 C 271.600 217.820,271.240 218.000,270.800 218.000 C 270.360 218.000,270.000 218.180,270.000 218.400 C 270.000 218.620,269.655 218.800,269.233 218.800 C 268.812 218.800,268.407 218.935,268.333 219.100 C 268.166 219.476,266.036 220.775,265.100 221.071 C 264.715 221.193,264.400 221.452,264.400 221.647 C 264.400 221.841,264.040 222.000,263.600 222.000 C 263.160 222.000,262.800 222.180,262.800 222.400 C 262.800 222.620,262.440 222.800,262.000 222.800 C 261.560 222.800,261.200 222.980,261.200 223.200 C 261.200 223.420,260.840 223.600,260.400 223.600 C 259.960 223.600,259.600 223.780,259.600 224.000 C 259.600 224.220,259.251 224.400,258.824 224.400 C 258.397 224.400,257.936 224.580,257.800 224.800 C 257.664 225.020,257.113 225.200,256.576 225.200 C 256.039 225.200,255.600 225.380,255.600 225.600 C 255.600 225.820,255.240 226.000,254.800 226.000 C 254.360 226.000,254.000 226.180,254.000 226.400 C 254.000 226.620,253.561 226.800,253.024 226.800 C 252.487 226.800,251.936 226.980,251.800 227.200 C 251.664 227.420,251.203 227.600,250.776 227.600 C 250.349 227.600,250.000 227.780,250.000 228.000 C 250.000 228.220,249.640 228.400,249.200 228.400 C 248.760 228.400,248.400 228.580,248.400 228.800 C 248.400 229.020,247.860 229.200,247.200 229.200 C 246.540 229.200,246.000 229.380,246.000 229.600 C 246.000 229.820,245.640 230.000,245.200 230.000 C 244.760 230.000,244.400 230.180,244.400 230.400 C 244.400 230.620,243.961 230.800,243.424 230.800 C 242.887 230.800,242.336 230.980,242.200 231.200 C 242.064 231.420,241.603 231.600,241.176 231.600 C 240.749 231.600,240.400 231.780,240.400 232.000 C 240.400 232.220,239.961 232.400,239.424 232.400 C 238.887 232.400,238.336 232.580,238.200 232.800 C 238.064 233.020,237.603 233.200,237.176 233.200 C 236.749 233.200,236.400 233.380,236.400 233.600 C 236.400 233.820,235.860 234.000,235.200 234.000 C 234.540 234.000,234.000 234.180,234.000 234.400 C 234.000 234.620,233.640 234.800,233.200 234.800 C 232.760 234.800,232.400 234.980,232.400 235.200 C 232.400 235.420,231.860 235.600,231.200 235.600 C 230.540 235.600,230.000 235.780,230.000 236.000 C 230.000 236.220,229.561 236.400,229.024 236.400 C 228.487 236.400,227.936 236.580,227.800 236.800 C 227.664 237.020,227.203 237.200,226.776 237.200 C 226.349 237.200,226.000 237.380,226.000 237.600 C 226.000 237.820,225.460 238.000,224.800 238.000 C 224.140 238.000,223.600 238.180,223.600 238.400 C 223.600 238.620,223.161 238.800,222.624 238.800 C 222.087 238.800,221.536 238.980,221.400 239.200 C 221.264 239.420,220.803 239.600,220.376 239.600 C 219.949 239.600,219.600 239.780,219.600 240.000 C 219.600 240.220,219.060 240.400,218.400 240.400 L 217.200 240.400 217.200 209.600 C 217.200 179.067,217.207 178.800,218.000 178.800 C 218.440 178.800,218.800 178.620,218.800 178.400 C 218.800 178.180,219.160 178.000,219.600 178.000 C 220.040 178.000,220.400 177.820,220.400 177.600 C 220.400 177.380,220.760 177.200,221.200 177.200 C 221.640 177.200,222.000 177.020,222.000 176.800 C 222.000 176.580,222.360 176.400,222.800 176.400 C 223.240 176.400,223.600 176.220,223.600 176.000 C 223.600 175.780,223.960 175.600,224.400 175.600 C 224.840 175.600,225.200 175.420,225.200 175.200 C 225.200 174.980,225.560 174.800,226.000 174.800 C 226.440 174.800,226.800 174.620,226.800 174.400 C 226.800 174.180,227.149 174.000,227.576 174.000 C 228.003 174.000,228.464 173.820,228.600 173.600 C 228.736 173.380,229.287 173.200,229.824 173.200 C 230.361 173.200,230.800 173.020,230.800 172.800 C 230.800 172.580,231.162 172.400,231.605 172.400 C 232.048 172.400,232.768 172.220,233.205 172.000 C 233.642 171.780,234.358 171.420,234.795 171.200 C 235.232 170.980,235.941 170.800,236.371 170.800 C 236.801 170.800,237.264 170.620,237.400 170.400 C 237.536 170.180,238.256 170.000,239.000 170.000 C 239.744 170.000,240.464 169.820,240.600 169.600 C 240.736 169.380,241.287 169.200,241.824 169.200 C 242.361 169.200,242.800 169.380,242.800 169.600 C 242.800 169.820,242.620 170.000,242.400 170.000 C 242.180 170.000,242.000 170.439,242.000 170.976 C 242.000 171.513,241.820 172.064,241.600 172.200 C 241.380 172.336,241.200 172.797,241.200 173.224 C 241.200 173.651,241.020 174.000,240.800 174.000 C 240.580 174.000,240.400 174.360,240.400 174.800 C 240.400 175.240,240.220 175.600,240.000 175.600 C 239.780 175.600,239.600 175.960,239.600 176.400 C 239.600 176.840,239.420 177.200,239.200 177.200 C 238.980 177.200,238.800 177.560,238.800 178.000 C 238.800 178.440,238.620 178.800,238.400 178.800 C 238.180 178.800,238.000 179.160,238.000 179.600 C 238.000 180.040,237.820 180.400,237.600 180.400 C 237.380 180.400,237.200 180.760,237.200 181.200 C 237.200 181.640,237.020 182.000,236.800 182.000 C 236.580 182.000,236.400 182.360,236.400 182.800 C 236.400 183.240,236.220 183.600,236.000 183.600 C 235.780 183.600,235.600 183.960,235.600 184.400 C 235.600 184.840,235.420 185.200,235.200 185.200 C 234.980 185.200,234.800 185.545,234.800 185.967 C 234.800 186.388,234.665 186.793,234.500 186.867 C 234.205 186.998,233.111 189.051,228.250 198.600 C 226.906 201.240,225.670 203.460,225.503 203.533 C 225.336 203.607,225.200 204.012,225.200 204.433 C 225.200 204.855,225.007 205.200,224.772 205.200 C 224.537 205.200,224.402 205.605,224.472 206.100 C 224.604 207.030,227.208 207.255,227.533 206.365 C 227.607 206.164,228.012 206.000,228.433 206.000 C 228.855 206.000,229.200 205.841,229.200 205.647 C 229.200 205.452,229.515 205.193,229.900 205.071 C 230.836 204.775,232.966 203.476,233.133 203.100 C 233.207 202.935,233.597 202.800,234.000 202.800 C 234.403 202.800,234.793 202.665,234.867 202.500 C 235.034 202.124,237.164 200.825,238.100 200.529 C 238.485 200.407,238.800 200.148,238.800 199.953 C 238.800 199.759,239.160 199.600,239.600 199.600 C 240.040 199.600,240.400 199.420,240.400 199.200 C 240.400 198.980,240.636 198.800,240.925 198.800 C 241.213 198.800,241.836 198.440,242.308 198.000 C 242.780 197.560,243.444 197.200,243.783 197.200 C 244.122 197.200,244.400 197.020,244.400 196.800 C 244.400 196.580,244.760 196.400,245.200 196.400 C 245.640 196.400,246.000 196.220,246.000 196.000 C 246.000 195.780,246.236 195.600,246.525 195.600 C 246.813 195.600,247.436 195.240,247.908 194.800 C 248.380 194.360,249.044 194.000,249.383 194.000 C 249.722 194.000,250.000 193.820,250.000 193.600 C 250.000 193.380,250.278 193.200,250.617 193.200 C 250.956 193.200,251.620 192.840,252.092 192.400 C 252.564 191.960,253.187 191.600,253.475 191.600 C 253.764 191.600,254.000 191.420,254.000 191.200 C 254.000 190.980,254.360 190.800,254.800 190.800 C 255.240 190.800,255.600 190.620,255.600 190.400 C 255.600 190.180,255.836 190.000,256.125 190.000 C 256.413 190.000,257.036 189.640,257.508 189.200 C 257.980 188.760,258.644 188.400,258.983 188.400 C 259.322 188.400,259.600 188.220,259.600 188.000 C 259.600 187.780,259.960 187.600,260.400 187.600 C 260.840 187.600,261.200 187.420,261.200 187.200 C 261.200 186.980,261.436 186.800,261.725 186.800 C 262.013 186.800,262.636 186.440,263.108 186.000 C 263.580 185.560,264.244 185.200,264.583 185.200 C 264.922 185.200,265.200 185.020,265.200 184.800 C 265.200 184.580,265.478 184.400,265.817 184.400 C 266.156 184.400,266.820 184.040,267.292 183.600 C 267.764 183.160,268.387 182.800,268.675 182.800 C 268.964 182.800,269.200 182.620,269.200 182.400 C 269.200 182.180,269.560 182.000,270.000 182.000 C 270.440 182.000,270.800 181.820,270.800 181.600 C 270.800 181.380,271.036 181.200,271.325 181.200 C 271.613 181.200,272.236 180.840,272.708 180.400 C 273.180 179.960,273.844 179.600,274.183 179.600 C 274.522 179.600,274.800 179.420,274.800 179.200 C 274.800 178.980,275.078 178.800,275.417 178.800 C 275.756 178.800,276.420 178.440,276.892 178.000 C 277.364 177.560,277.987 177.200,278.275 177.200 C 278.564 177.200,278.800 177.020,278.800 176.800 C 278.800 176.580,279.160 176.400,279.600 176.400 C 280.040 176.400,280.400 176.220,280.400 176.000 C 280.400 175.780,280.636 175.600,280.925 175.600 C 281.213 175.600,281.836 175.240,282.308 174.800 C 282.780 174.360,283.444 174.000,283.783 174.000 C 284.122 174.000,284.400 173.820,284.400 173.600 C 284.400 173.380,284.678 173.200,285.017 173.200 C 285.356 173.200,286.020 172.840,286.492 172.400 C 286.964 171.960,287.587 171.600,287.875 171.600 C 288.164 171.600,288.400 171.420,288.400 171.200 C 288.400 170.980,288.760 170.800,289.200 170.800 C 289.640 170.800,290.000 170.620,290.000 170.400 C 290.000 170.180,290.236 170.000,290.525 170.000 C 290.813 170.000,291.436 169.640,291.908 169.200 C 292.380 168.760,293.044 168.400,293.383 168.400 C 293.919 168.400,294.000 167.332,294.000 160.312 L 294.000 152.223 291.713 149.912 C 290.454 148.640,289.285 147.600,289.113 147.600 C 288.941 147.600,288.059 146.880,287.152 146.000 C 286.245 145.120,285.338 144.400,285.135 144.400 C 284.932 144.400,284.380 144.040,283.908 143.600 C 283.436 143.160,282.813 142.800,282.525 142.800 C 282.236 142.800,282.000 142.620,282.000 142.400 C 282.000 142.180,281.640 142.000,281.200 142.000 C 280.760 142.000,280.400 141.820,280.400 141.600 C 280.400 141.380,280.040 141.200,279.600 141.200 C 279.160 141.200,278.800 141.020,278.800 140.800 C 278.800 140.580,278.440 140.400,278.000 140.400 C 277.560 140.400,277.200 140.220,277.200 140.000 C 277.200 139.780,276.840 139.600,276.400 139.600 C 275.960 139.600,275.600 139.420,275.600 139.200 C 275.600 138.980,275.238 138.800,274.795 138.800 C 274.352 138.800,273.632 138.620,273.195 138.400 C 272.758 138.180,272.042 137.820,271.605 137.600 C 271.168 137.380,270.268 137.200,269.605 137.200 C 268.942 137.200,268.400 137.020,268.400 136.800 C 268.400 136.580,267.680 136.400,266.800 136.400 C 265.920 136.400,265.200 136.220,265.200 136.000 C 265.200 135.780,264.311 135.600,263.224 135.600 C 262.137 135.600,261.136 135.420,261.000 135.200 C 260.855 134.965,258.529 134.800,255.376 134.800 C 252.059 134.800,250.000 134.647,250.000 134.400 C 250.000 134.180,249.201 134.000,248.224 134.000 C 247.247 134.000,246.336 134.180,246.200 134.400 C 246.056 134.633,243.796 134.800,240.776 134.800 C 237.592 134.800,235.600 134.954,235.600 135.200 C 235.600 135.425,234.475 135.600,233.024 135.600 C 231.607 135.600,230.336 135.780,230.200 136.000 C 230.064 136.220,229.063 136.400,227.976 136.400 C 226.889 136.400,226.000 136.580,226.000 136.800 C 226.000 137.020,225.201 137.200,224.224 137.200 C 223.247 137.200,222.336 137.380,222.200 137.600 C 222.064 137.820,221.243 138.000,220.376 138.000 C 219.509 138.000,218.800 138.180,218.800 138.400 C 218.800 138.620,218.440 138.800,218.000 138.800 C 217.205 138.800,217.200 138.533,217.200 93.024 C 217.200 62.937,217.063 47.162,216.800 47.000 C 216.580 46.864,216.400 45.424,216.400 43.800 C 216.400 42.176,216.220 40.736,216.000 40.600 C 215.780 40.464,215.600 39.463,215.600 38.376 C 215.600 37.289,215.420 36.400,215.200 36.400 C 214.980 36.400,214.800 35.680,214.800 34.800 C 214.800 33.920,214.620 33.200,214.400 33.200 C 214.180 33.200,214.000 32.671,214.000 32.024 C 214.000 31.377,213.820 30.736,213.600 30.600 C 213.380 30.464,213.200 29.913,213.200 29.376 C 213.200 28.839,213.020 28.400,212.800 28.400 C 212.580 28.400,212.400 27.860,212.400 27.200 C 212.400 26.540,212.220 26.000,212.000 26.000 C 211.780 26.000,211.600 25.640,211.600 25.200 C 211.600 24.760,211.420 24.400,211.200 24.400 C 210.980 24.400,210.800 24.040,210.800 23.600 C 210.800 23.160,210.620 22.800,210.400 22.800 C 210.180 22.800,210.000 22.440,210.000 22.000 C 210.000 21.560,209.820 21.200,209.600 21.200 C 209.380 21.200,209.200 20.840,209.200 20.400 C 209.200 19.960,209.020 19.600,208.800 19.600 C 208.580 19.600,208.384 19.285,208.364 18.900 C 208.227 16.249,205.260 13.249,204.100 14.589 M207.077 28.700 C 208.742 32.562,209.942 36.780,210.744 41.600 C 210.982 43.030,211.396 45.460,211.663 47.000 C 212.285 50.576,212.664 242.759,212.052 243.903 C 211.648 244.658,207.147 246.400,205.599 246.400 L 204.703 246.400 204.851 161.700 C 204.972 92.940,204.900 76.323,204.471 73.400 C 203.615 67.572,202.423 62.738,201.920 63.049 C 201.744 63.158,201.602 78.582,201.604 97.324 C 201.611 155.602,200.793 247.733,200.263 248.267 C 200.008 248.524,199.350 248.794,198.800 248.867 L 197.800 249.000 197.662 241.400 C 197.534 234.364,197.782 203.590,198.810 98.800 C 199.299 49.036,199.611 44.447,203.301 32.800 C 205.320 26.427,205.849 25.853,207.077 28.700 M260.600 141.412 C 268.432 142.873,271.345 143.807,277.082 146.694 C 280.854 148.592,286.800 153.029,286.800 153.946 C 286.800 154.247,282.476 157.145,281.410 157.559 C 281.185 157.647,280.279 158.210,279.398 158.811 C 278.517 159.412,277.167 160.261,276.398 160.698 C 275.629 161.136,273.470 162.443,271.600 163.603 C 269.730 164.764,267.390 166.202,266.400 166.800 C 265.410 167.398,263.070 168.836,261.200 169.997 C 259.330 171.157,257.170 172.464,256.400 172.900 C 255.630 173.337,254.550 174.012,254.000 174.400 C 253.450 174.788,252.370 175.463,251.600 175.899 C 250.830 176.334,249.253 177.284,248.096 178.008 C 245.725 179.491,245.350 179.444,246.155 177.765 C 247.092 175.808,248.506 172.449,249.001 171.000 C 254.689 154.365,243.117 149.836,220.422 159.814 C 218.689 160.576,217.165 161.200,217.035 161.200 C 216.906 161.200,216.800 157.697,216.800 153.416 L 216.800 145.632 218.500 145.171 C 219.435 144.918,220.650 144.570,221.200 144.398 C 221.750 144.226,223.280 143.866,224.600 143.597 C 225.920 143.328,227.540 142.964,228.200 142.788 C 228.860 142.612,230.930 142.251,232.800 141.986 C 234.670 141.721,237.010 141.366,238.000 141.197 C 241.395 140.617,257.145 140.767,260.600 141.412 M192.800 165.564 L 192.800 176.728 189.500 179.454 C 187.685 180.954,183.757 184.615,180.771 187.590 C 174.736 193.604,172.856 195.668,168.005 201.604 C 167.019 202.812,166.119 203.890,166.005 204.000 C 164.449 205.515,156.313 217.057,153.595 221.606 C 140.393 243.704,140.779 256.156,154.800 260.449 C 157.461 261.264,169.524 261.117,174.200 260.212 C 176.180 259.829,178.610 259.365,179.600 259.181 C 181.763 258.779,189.910 256.679,192.412 255.878 C 193.395 255.563,195.550 254.903,197.200 254.410 C 200.932 253.295,206.792 251.339,212.800 249.203 C 215.330 248.303,218.840 247.054,220.600 246.428 C 222.360 245.801,225.240 244.745,227.000 244.081 C 228.760 243.416,231.640 242.338,233.400 241.684 C 236.595 240.498,247.928 235.998,250.200 235.013 C 250.860 234.727,252.253 234.112,253.296 233.647 C 254.338 233.181,255.285 232.800,255.400 232.800 C 255.598 232.800,256.444 232.438,260.944 230.424 C 262.942 229.530,263.714 229.558,262.748 230.490 C 258.219 234.856,230.921 254.400,229.351 254.400 C 229.226 254.400,228.646 254.739,228.062 255.153 C 227.478 255.567,226.325 256.287,225.500 256.753 C 224.675 257.219,223.325 257.992,222.500 258.470 C 220.384 259.698,205.328 267.283,203.400 268.092 C 202.520 268.461,201.080 269.059,200.200 269.420 C 199.320 269.781,198.060 270.309,197.400 270.593 C 196.740 270.877,195.120 271.507,193.800 271.993 C 192.480 272.480,191.040 273.022,190.600 273.199 C 189.168 273.773,187.455 274.330,184.400 275.214 C 182.750 275.692,180.950 276.230,180.400 276.410 C 176.293 277.751,166.656 279.577,159.373 280.394 C 148.911 281.566,137.262 280.041,129.606 276.498 C 114.348 269.435,110.200 252.959,118.832 233.699 C 125.201 219.487,135.025 206.253,151.342 189.900 C 154.767 186.468,154.888 186.071,152.311 186.723 C 150.442 187.196,144.458 188.607,141.600 189.247 C 140.610 189.469,139.170 189.812,138.400 190.009 C 132.836 191.435,131.642 191.714,130.400 191.881 L 129.000 192.068 130.200 190.931 C 134.250 187.092,151.233 175.638,162.000 169.482 C 163.433 168.663,165.414 167.564,170.000 165.041 C 174.361 162.642,184.020 157.933,190.800 154.901 C 192.866 153.978,192.800 153.628,192.800 165.564 M289.600 160.567 L 289.600 165.134 281.300 170.120 C 276.735 172.862,269.670 177.128,265.600 179.599 C 261.530 182.071,257.660 184.412,257.000 184.803 C 256.340 185.193,251.930 187.848,247.200 190.703 C 237.416 196.609,237.439 196.609,240.646 190.537 C 241.906 188.152,243.254 185.595,243.642 184.855 C 244.422 183.368,245.162 182.810,251.000 179.308 C 253.200 177.989,256.530 175.959,258.400 174.798 C 260.270 173.637,262.610 172.200,263.600 171.605 C 264.590 171.010,267.830 169.034,270.800 167.215 C 273.770 165.395,278.000 162.811,280.200 161.473 C 282.400 160.135,285.263 158.357,286.562 157.520 C 289.715 155.491,289.600 155.375,289.600 160.567 M244.082 157.766 C 245.700 158.539,247.200 161.022,247.200 162.926 C 247.200 163.991,247.176 164.000,244.346 164.000 C 242.777 164.000,240.752 164.194,239.846 164.432 C 236.062 165.424,234.919 165.741,233.396 166.220 C 230.315 167.190,224.173 169.772,220.839 171.498 C 216.442 173.775,216.400 173.749,216.400 168.819 L 216.400 164.813 218.367 163.817 C 219.449 163.268,222.194 162.078,224.467 161.172 C 234.982 156.980,240.451 156.031,244.082 157.766 M192.800 185.758 L 192.800 190.715 189.546 193.648 C 171.745 209.696,151.300 241.086,151.214 252.500 C 151.198 254.620,150.907 254.819,149.752 253.500 C 143.105 245.909,150.200 228.825,170.559 203.400 C 172.321 201.200,173.861 199.310,173.981 199.200 C 174.102 199.090,175.361 197.650,176.780 196.000 C 181.119 190.953,191.567 180.860,192.500 180.815 C 192.665 180.807,192.800 183.031,192.800 185.758 M144.802 192.324 C 144.582 192.696,142.646 194.847,140.501 197.104 L 136.600 201.208 130.800 202.611 C 127.610 203.383,124.447 204.191,123.772 204.407 C 120.529 205.444,120.317 205.051,122.533 202.104 C 123.486 200.837,124.997 198.798,125.891 197.574 C 127.393 195.517,127.693 195.309,129.858 194.831 C 131.146 194.547,132.650 194.176,133.200 194.007 C 133.750 193.838,135.145 193.497,136.300 193.250 C 141.841 192.063,142.668 191.877,143.600 191.602 C 144.887 191.224,145.305 191.475,144.802 192.324 M191.600 224.320 C 191.600 250.859,191.670 250.000,189.520 250.000 C 188.904 250.000,188.400 250.180,188.400 250.400 C 188.400 250.620,187.781 250.800,187.024 250.800 C 186.267 250.800,185.536 250.980,185.400 251.200 C 185.264 251.420,184.623 251.600,183.976 251.600 C 183.329 251.600,182.800 251.780,182.800 252.000 C 182.800 252.220,182.080 252.400,181.200 252.400 C 180.320 252.400,179.600 252.580,179.600 252.800 C 179.600 253.020,178.801 253.200,177.824 253.200 C 176.847 253.200,175.936 253.380,175.800 253.600 C 175.664 253.820,174.764 254.000,173.800 254.000 C 172.836 254.000,171.936 254.180,171.800 254.400 C 171.652 254.639,169.061 254.800,165.371 254.800 C 159.296 254.800,158.343 254.634,156.915 253.329 C 156.312 252.777,156.212 249.200,156.800 249.200 C 157.020 249.200,157.200 248.671,157.200 248.024 C 157.200 247.377,157.380 246.736,157.600 246.600 C 157.820 246.464,158.000 245.913,158.000 245.376 C 158.000 244.839,158.180 244.400,158.400 244.400 C 158.620 244.400,158.800 244.040,158.800 243.600 C 158.800 243.160,158.980 242.800,159.200 242.800 C 159.420 242.800,159.600 242.566,159.600 242.280 C 159.600 241.544,160.541 239.607,160.900 239.603 C 161.065 239.601,161.200 239.240,161.200 238.800 C 161.200 238.360,161.380 238.000,161.600 238.000 C 161.820 238.000,162.000 237.640,162.000 237.200 C 162.000 236.760,162.180 236.400,162.400 236.400 C 162.620 236.400,162.800 236.080,162.800 235.688 C 162.800 235.297,163.160 234.717,163.600 234.400 C 164.040 234.083,164.400 233.503,164.400 233.112 C 164.400 232.720,164.580 232.400,164.800 232.400 C 165.020 232.400,165.200 232.164,165.200 231.875 C 165.200 231.587,165.560 230.964,166.000 230.492 C 166.440 230.020,166.800 229.491,166.801 229.317 C 166.801 229.143,167.341 228.370,168.000 227.600 C 168.659 226.830,169.199 226.015,169.199 225.788 C 169.200 225.562,169.560 225.117,170.000 224.800 C 170.440 224.483,170.800 223.991,170.800 223.708 C 170.800 223.425,171.340 222.628,172.000 221.937 C 172.660 221.246,173.200 220.510,173.200 220.301 C 173.200 220.092,173.740 219.417,174.400 218.800 C 175.060 218.183,175.600 217.503,175.600 217.288 C 175.600 217.073,176.320 216.155,177.200 215.248 C 178.080 214.341,178.800 213.441,178.800 213.248 C 178.800 213.055,179.476 212.200,180.302 211.348 C 181.128 210.497,182.239 209.189,182.771 208.442 C 183.911 206.839,190.865 199.646,191.300 199.619 C 191.465 199.608,191.600 210.724,191.600 224.320 M266.299 232.700 C 266.068 234.573,264.538 241.975,264.199 242.858 C 263.421 244.886,234.939 265.600,232.930 265.600 C 232.816 265.600,232.246 265.932,231.662 266.338 C 229.350 267.946,216.247 274.750,211.200 276.963 C 209.770 277.590,207.880 278.424,207.000 278.816 C 198.847 282.449,183.494 287.373,175.800 288.824 C 161.150 291.585,150.418 291.830,140.000 289.639 C 130.279 287.594,119.950 280.611,116.640 273.846 C 115.084 270.665,115.354 270.486,118.008 272.943 C 129.430 283.518,148.558 286.786,171.000 281.997 C 173.252 281.517,176.353 280.811,178.000 280.403 C 183.946 278.932,197.016 274.560,201.600 272.508 C 202.590 272.065,204.570 271.194,206.000 270.572 C 225.760 261.976,249.619 246.511,263.799 233.109 C 266.223 230.818,266.538 230.766,266.299 232.700 M212.157 282.633 C 212.291 282.981,212.400 285.553,212.400 288.349 L 212.400 293.432 215.900 293.948 C 230.238 296.063,238.335 304.517,238.386 317.424 C 238.404 321.981,238.091 322.494,235.600 321.998 C 234.610 321.801,232.450 321.439,230.800 321.193 C 229.150 320.948,227.305 320.673,226.700 320.583 C 225.374 320.386,225.311 320.851,226.365 323.034 C 233.125 337.024,228.830 351.922,214.708 363.476 C 211.521 366.083,211.563 365.941,213.600 367.200 C 218.009 369.925,211.744 376.925,202.800 379.270 C 199.004 380.265,196.018 380.800,194.263 380.800 L 192.325 380.800 192.602 378.787 C 192.975 376.076,194.104 373.095,195.798 370.351 L 197.200 368.079 197.194 347.540 C 197.190 336.216,197.028 326.747,196.831 326.437 C 196.149 325.359,191.737 329.621,188.381 334.600 C 187.639 335.700,186.485 337.339,185.816 338.242 C 185.147 339.145,183.791 341.035,182.801 342.442 C 177.721 349.667,169.701 355.852,170.601 351.851 C 170.756 351.163,171.041 349.880,171.235 349.000 C 171.915 345.921,172.784 337.770,172.792 334.400 C 172.827 320.286,182.274 304.648,194.641 298.236 L 196.682 297.178 196.911 292.539 C 197.161 287.455,197.289 287.157,199.256 287.064 L 200.600 287.000 200.800 293.200 L 201.000 299.400 202.328 299.338 C 204.573 299.233,204.773 298.577,204.787 291.286 L 204.800 284.772 206.700 283.972 C 207.745 283.532,209.140 282.913,209.800 282.595 C 211.353 281.849,211.859 281.857,212.157 282.633 M222.800 300.933 C 222.800 301.034,224.132 302.409,225.759 303.987 C 229.903 308.004,233.008 314.574,230.547 314.116 C 216.053 311.417,204.833 313.350,193.280 320.535 C 190.597 322.205,190.678 322.176,191.149 321.295 C 192.674 318.446,202.450 311.832,207.354 310.332 C 210.708 309.306,212.925 308.825,216.500 308.348 C 220.894 307.762,220.920 307.739,219.020 306.072 C 215.679 303.138,211.109 301.746,209.762 303.252 C 207.080 306.250,200.652 306.302,198.496 303.343 L 197.708 302.261 195.754 303.395 C 184.365 310.009,178.550 319.234,177.219 332.800 C 176.971 335.330,176.566 338.886,176.319 340.702 C 175.790 344.595,175.957 344.934,177.523 343.142 C 179.812 340.521,180.705 339.344,184.004 334.600 C 192.279 322.699,197.674 319.138,211.572 316.405 C 215.102 315.710,225.998 315.848,230.089 316.639 C 234.534 317.498,234.757 317.351,234.067 314.014 C 233.359 310.584,232.177 308.576,229.001 305.400 C 226.658 303.058,222.800 300.279,222.800 300.933 M218.372 321.829 C 223.955 328.188,225.294 336.570,222.567 348.100 C 222.003 350.485,223.061 349.028,223.874 346.300 C 227.257 334.950,224.133 320.400,218.312 320.400 L 217.117 320.400 218.372 321.829 M201.697 323.198 L 200.393 323.992 200.497 345.496 L 200.600 367.000 202.000 367.000 L 203.400 367.000 203.655 363.200 C 203.796 361.110,203.931 351.075,203.955 340.900 C 204.004 320.761,204.126 321.717,201.697 323.198 M212.000 322.902 C 212.000 323.005,212.395 324.600,212.878 326.445 C 214.076 331.023,214.163 344.015,213.029 349.000 C 212.629 350.760,212.209 352.625,212.096 353.144 C 211.983 353.663,211.403 355.508,210.808 357.244 C 209.589 360.803,209.729 361.004,212.002 358.950 C 222.336 349.615,224.217 330.885,215.489 324.243 C 214.306 323.343,212.000 322.457,212.000 322.902 " stroke="none" fill="#fab21c" fill-rule="evenodd"></path><path id="path1" d="M204.848 28.500 C 202.223 34.667,200.366 43.515,199.621 53.400 C 199.106 60.232,198.360 122.711,198.465 150.200 C 198.538 169.205,198.558 168.599,198.857 138.000 C 199.715 50.352,199.895 46.128,203.270 34.600 C 205.064 28.474,206.018 26.621,206.513 28.300 C 206.627 28.685,207.175 30.224,207.732 31.721 C 209.883 37.506,210.998 44.283,211.595 55.200 C 212.232 66.848,212.143 243.390,211.500 243.895 C 211.049 244.250,206.161 246.000,205.622 246.000 C 205.500 246.000,205.460 209.235,205.533 164.300 C 205.682 73.389,205.667 72.763,203.106 64.300 C 201.227 58.093,201.263 57.129,201.016 120.800 C 200.896 151.710,200.686 192.892,200.548 212.316 L 200.298 247.632 199.159 248.221 L 198.019 248.811 198.178 209.505 C 198.322 173.887,198.303 172.301,197.974 192.600 C 197.775 204.920,197.654 222.650,197.706 232.000 L 197.800 249.000 198.800 248.867 C 199.350 248.794,200.008 248.524,200.263 248.267 C 200.793 247.733,201.611 155.602,201.604 97.324 C 201.602 78.582,201.744 63.158,201.920 63.049 C 202.423 62.738,203.615 67.572,204.471 73.400 C 204.900 76.323,204.972 92.940,204.851 161.700 L 204.703 246.400 205.599 246.400 C 207.147 246.400,211.648 244.658,212.052 243.903 C 212.664 242.759,212.285 50.576,211.663 47.000 C 211.396 45.460,210.982 43.030,210.744 41.600 C 209.942 36.780,208.742 32.562,207.077 28.700 C 206.070 26.365,205.768 26.338,204.848 28.500 M238.000 141.197 C 237.010 141.366,234.670 141.721,232.800 141.986 C 230.930 142.251,228.860 142.612,228.200 142.788 C 227.540 142.964,225.920 143.328,224.600 143.597 C 223.280 143.866,221.750 144.226,221.200 144.398 C 220.650 144.570,219.435 144.918,218.500 145.171 L 216.800 145.632 216.800 153.416 C 216.800 157.697,216.906 161.200,217.035 161.200 C 217.165 161.200,218.689 160.576,220.422 159.814 C 243.117 149.836,254.689 154.365,249.001 171.000 C 248.506 172.449,247.092 175.808,246.155 177.765 C 245.350 179.444,245.725 179.491,248.096 178.008 C 249.253 177.284,250.830 176.334,251.600 175.899 C 252.370 175.463,253.450 174.788,254.000 174.400 C 254.550 174.012,255.630 173.337,256.400 172.900 C 257.170 172.464,259.330 171.157,261.200 169.997 C 263.070 168.836,265.410 167.398,266.400 166.800 C 267.390 166.202,269.730 164.764,271.600 163.603 C 273.470 162.443,275.629 161.136,276.398 160.698 C 277.167 160.261,278.517 159.412,279.398 158.811 C 280.279 158.210,281.185 157.647,281.410 157.559 C 282.476 157.145,286.800 154.247,286.800 153.946 C 286.800 153.029,280.854 148.592,277.082 146.694 C 271.345 143.807,268.432 142.873,260.600 141.412 C 257.145 140.767,241.395 140.617,238.000 141.197 M190.800 154.901 C 184.020 157.933,174.361 162.642,170.000 165.041 C 165.414 167.564,163.433 168.663,162.000 169.482 C 151.233 175.638,134.250 187.092,130.200 190.931 L 129.000 192.068 130.400 191.881 C 131.642 191.714,132.836 191.435,138.400 190.009 C 139.170 189.812,140.610 189.469,141.600 189.247 C 144.458 188.607,150.442 187.196,152.311 186.723 C 154.888 186.071,154.767 186.468,151.342 189.900 C 135.025 206.253,125.201 219.487,118.832 233.699 C 110.200 252.959,114.348 269.435,129.606 276.498 C 137.262 280.041,148.911 281.566,159.373 280.394 C 166.656 279.577,176.293 277.751,180.400 276.410 C 180.950 276.230,182.750 275.692,184.400 275.214 C 187.455 274.330,189.168 273.773,190.600 273.199 C 191.040 273.022,192.480 272.480,193.800 271.993 C 195.120 271.507,196.740 270.877,197.400 270.593 C 198.060 270.309,199.320 269.781,200.200 269.420 C 201.080 269.059,202.520 268.461,203.400 268.092 C 205.328 267.283,220.384 259.698,222.500 258.470 C 223.325 257.992,224.675 257.219,225.500 256.753 C 226.325 256.287,227.478 255.567,228.062 255.153 C 228.646 254.739,229.226 254.400,229.351 254.400 C 230.921 254.400,258.219 234.856,262.748 230.490 C 263.714 229.558,262.942 229.530,260.944 230.424 C 256.444 232.438,255.598 232.800,255.400 232.800 C 255.285 232.800,254.338 233.181,253.296 233.647 C 252.253 234.112,250.860 234.727,250.200 235.013 C 247.928 235.998,236.595 240.498,233.400 241.684 C 231.640 242.338,228.760 243.416,227.000 244.081 C 225.240 244.745,222.360 245.801,220.600 246.428 C 218.840 247.054,215.330 248.303,212.800 249.203 C 206.792 251.339,200.932 253.295,197.200 254.410 C 195.550 254.903,193.395 255.563,192.412 255.878 C 189.910 256.679,181.763 258.779,179.600 259.181 C 178.610 259.365,176.180 259.829,174.200 260.212 C 169.524 261.117,157.461 261.264,154.800 260.449 C 140.779 256.156,140.393 243.704,153.595 221.606 C 156.313 217.057,164.449 205.515,166.005 204.000 C 166.119 203.890,167.019 202.812,168.005 201.604 C 172.856 195.668,174.736 193.604,180.771 187.590 C 183.757 184.615,187.685 180.954,189.500 179.454 L 192.800 176.728 192.800 165.564 C 192.800 153.628,192.866 153.978,190.800 154.901 M286.562 157.520 C 285.263 158.357,282.400 160.135,280.200 161.473 C 278.000 162.811,273.770 165.395,270.800 167.215 C 267.830 169.034,264.590 171.010,263.600 171.605 C 262.610 172.200,260.270 173.637,258.400 174.798 C 256.530 175.959,253.200 177.989,251.000 179.308 C 245.162 182.810,244.422 183.368,243.642 184.855 C 243.254 185.595,241.906 188.152,240.646 190.537 C 237.439 196.609,237.416 196.609,247.200 190.703 C 251.930 187.848,256.340 185.193,257.000 184.803 C 257.660 184.412,261.530 182.071,265.600 179.599 C 269.670 177.128,276.735 172.862,281.300 170.120 L 289.600 165.134 289.600 160.567 C 289.600 155.375,289.715 155.491,286.562 157.520 M236.800 157.229 C 231.668 158.328,223.290 161.322,218.367 163.817 L 216.400 164.813 216.400 168.819 C 216.400 173.749,216.442 173.775,220.839 171.498 C 224.173 169.772,230.315 167.190,233.396 166.220 C 234.919 165.741,236.062 165.424,239.846 164.432 C 240.752 164.194,242.777 164.000,244.346 164.000 C 247.176 164.000,247.200 163.991,247.200 162.926 C 247.200 158.509,242.598 155.988,236.800 157.229 M289.114 160.827 L 289.000 164.855 282.600 168.738 C 279.080 170.874,271.174 175.653,265.032 179.358 C 258.890 183.063,250.631 188.059,246.680 190.462 C 242.729 192.864,239.423 194.756,239.332 194.666 C 239.242 194.575,240.418 192.094,241.945 189.151 L 244.722 183.800 266.661 170.324 C 278.727 162.912,288.741 156.837,288.914 156.824 C 289.087 156.811,289.177 158.612,289.114 160.827 M244.013 158.207 C 245.381 158.914,246.400 160.671,246.400 162.321 L 246.400 163.482 242.700 163.708 C 237.439 164.027,225.779 168.018,219.223 171.742 C 216.888 173.068,216.800 172.961,216.800 168.781 L 216.800 165.210 219.500 163.855 C 229.290 158.942,240.458 156.368,244.013 158.207 M189.400 183.296 C 185.549 186.689,179.872 192.403,176.780 196.000 C 175.361 197.650,174.102 199.090,173.981 199.200 C 173.861 199.310,172.321 201.200,170.559 203.400 C 150.200 228.825,143.105 245.909,149.752 253.500 C 150.907 254.819,151.198 254.620,151.214 252.500 C 151.300 241.086,171.745 209.696,189.546 193.648 L 192.800 190.715 192.800 185.758 C 192.800 179.991,192.993 180.131,189.400 183.296 M186.685 195.981 C 167.359 215.562,152.033 239.099,150.938 250.881 C 150.420 256.456,147.823 251.098,148.095 245.015 C 148.654 232.486,168.253 203.143,188.000 185.272 L 192.200 181.471 192.314 185.816 L 192.429 190.162 186.685 195.981 M143.600 191.602 C 142.668 191.877,141.841 192.063,136.300 193.250 C 135.145 193.497,133.750 193.838,133.200 194.007 C 132.650 194.176,131.146 194.547,129.858 194.831 C 127.693 195.309,127.393 195.517,125.891 197.574 C 124.997 198.798,123.486 200.837,122.533 202.104 C 120.317 205.051,120.529 205.444,123.772 204.407 C 124.447 204.191,127.610 203.383,130.800 202.611 L 136.600 201.208 140.501 197.104 C 145.586 191.754,146.084 190.871,143.600 191.602 M143.989 192.300 C 143.983 192.465,142.228 194.451,140.089 196.713 L 136.200 200.827 129.667 202.436 C 121.111 204.544,121.271 204.634,124.914 199.740 C 127.873 195.766,127.982 195.670,130.068 195.223 C 132.947 194.606,140.714 192.796,142.200 192.395 C 143.815 191.960,144.002 191.950,143.989 192.300 M263.799 233.109 C 249.619 246.511,225.760 261.976,206.000 270.572 C 204.570 271.194,202.590 272.065,201.600 272.508 C 197.016 274.560,183.946 278.932,178.000 280.403 C 176.353 280.811,173.252 281.517,171.000 281.997 C 148.558 286.786,129.430 283.518,118.008 272.943 C 115.354 270.486,115.084 270.665,116.640 273.846 C 123.898 288.681,146.372 294.371,175.800 288.824 C 183.494 287.373,198.847 282.449,207.000 278.816 C 207.880 278.424,209.770 277.590,211.200 276.963 C 216.247 274.750,229.350 267.946,231.662 266.338 C 232.246 265.932,232.816 265.600,232.930 265.600 C 234.939 265.600,263.421 244.886,264.199 242.858 C 264.538 241.975,266.068 234.573,266.299 232.700 C 266.538 230.766,266.223 230.818,263.799 233.109 M265.017 236.804 C 264.457 239.281,264.000 241.634,264.000 242.034 C 264.000 243.983,246.439 256.925,232.491 265.256 C 183.237 294.672,133.631 298.892,117.852 275.007 C 116.245 272.575,116.549 272.591,119.713 275.106 C 135.262 287.461,162.556 287.605,195.200 275.502 C 219.358 266.546,243.050 252.140,264.000 233.668 C 266.272 231.665,266.216 231.492,265.017 236.804 M209.800 282.595 C 209.140 282.913,207.745 283.532,206.700 283.972 L 204.800 284.772 204.787 291.286 C 204.773 298.577,204.573 299.233,202.328 299.338 L 201.000 299.400 200.800 293.200 L 200.600 287.000 199.256 287.064 C 197.289 287.157,197.161 287.455,196.911 292.539 L 196.682 297.178 194.641 298.236 C 181.995 304.793,172.653 320.560,172.857 335.000 L 172.914 339.000 173.252 334.200 C 174.354 318.588,182.216 305.671,194.864 298.693 C 197.632 297.166,197.586 297.269,197.600 292.600 C 197.613 288.303,197.764 287.756,199.000 287.540 C 199.765 287.406,199.805 287.650,199.911 293.173 C 200.033 299.474,200.208 300.000,202.187 300.000 C 204.671 300.000,204.975 299.160,205.200 291.671 L 205.400 285.024 208.400 283.763 C 212.209 282.161,212.000 281.893,212.000 288.377 C 212.000 294.568,211.897 294.373,215.200 294.401 C 226.784 294.497,237.034 304.051,237.805 315.473 C 238.226 321.696,238.079 321.827,231.800 320.830 C 223.950 319.583,224.246 319.461,225.952 323.245 C 232.442 337.639,228.097 352.144,213.900 363.478 C 210.697 366.035,210.729 365.901,213.001 367.337 C 213.990 367.962,214.800 368.715,214.800 369.011 C 214.800 371.208,211.471 374.929,207.917 376.703 C 203.011 379.153,192.793 381.349,192.805 379.952 C 192.822 377.961,195.153 371.914,196.787 369.618 C 198.005 367.908,198.073 325.600,196.858 325.600 C 194.791 325.600,191.706 329.075,183.018 341.195 C 177.294 349.180,170.639 354.926,171.314 351.300 C 172.379 345.582,172.779 342.694,172.742 341.000 C 172.700 339.118,172.678 339.165,172.357 341.800 C 171.883 345.688,171.208 349.555,170.730 351.116 C 170.040 353.371,170.515 353.808,172.479 352.727 C 176.503 350.511,180.479 345.989,188.066 335.000 C 191.867 329.495,196.131 325.330,196.831 326.437 C 197.028 326.747,197.190 336.216,197.194 347.540 L 197.200 368.079 195.798 370.351 C 194.104 373.095,192.975 376.076,192.602 378.787 L 192.325 380.800 194.263 380.800 C 196.018 380.800,199.004 380.265,202.800 379.270 C 211.744 376.925,218.009 369.925,213.600 367.200 C 211.563 365.941,211.521 366.083,214.708 363.476 C 228.830 351.922,233.125 337.024,226.365 323.034 C 225.311 320.851,225.374 320.386,226.700 320.583 C 227.305 320.673,229.150 320.948,230.800 321.193 C 232.450 321.439,234.610 321.801,235.600 321.998 C 238.091 322.494,238.404 321.981,238.386 317.424 C 238.335 304.517,230.238 296.063,215.900 293.948 L 212.400 293.432 212.400 288.349 C 212.400 281.639,212.291 281.397,209.800 282.595 M220.997 300.521 C 228.081 306.194,233.512 314.269,229.700 313.460 C 218.976 311.184,207.604 312.659,197.400 317.649 L 193.400 319.605 195.200 317.985 C 200.911 312.845,209.434 309.345,217.300 308.909 C 223.360 308.573,221.368 305.346,213.281 302.397 L 210.763 301.479 209.481 302.692 C 206.303 305.699,201.447 305.931,199.138 303.185 C 197.887 301.697,197.367 301.770,194.000 303.908 C 182.479 311.224,178.117 319.140,176.395 335.859 C 175.962 340.071,175.499 343.797,175.368 344.139 C 175.237 344.482,175.254 344.964,175.407 345.211 C 175.972 346.126,179.501 341.987,185.523 333.342 C 191.095 325.342,195.856 321.584,203.864 318.863 C 211.853 316.149,222.973 315.552,231.200 317.396 C 239.754 319.314,232.910 305.240,222.825 300.175 C 219.967 298.740,219.001 298.922,220.997 300.521 M229.001 305.400 C 232.177 308.576,233.359 310.584,234.067 314.014 C 234.757 317.351,234.534 317.498,230.089 316.639 C 225.998 315.848,215.102 315.710,211.572 316.405 C 197.674 319.138,192.279 322.699,184.004 334.600 C 180.705 339.344,179.812 340.521,177.523 343.142 C 175.957 344.934,175.790 344.595,176.319 340.702 C 176.566 338.886,176.971 335.330,177.219 332.800 C 178.550 319.234,184.365 310.009,195.754 303.395 L 197.708 302.261 198.496 303.343 C 200.652 306.302,207.080 306.250,209.762 303.252 C 211.109 301.746,215.679 303.138,219.020 306.072 C 220.920 307.739,220.894 307.762,216.500 308.348 C 212.925 308.825,210.708 309.306,207.354 310.332 C 202.450 311.832,192.674 318.446,191.149 321.295 C 190.678 322.176,190.597 322.205,193.280 320.535 C 204.833 313.350,216.053 311.417,230.547 314.116 C 233.008 314.574,229.903 308.004,225.759 303.987 C 224.132 302.409,222.800 301.034,222.800 300.933 C 222.800 300.279,226.658 303.058,229.001 305.400 M216.400 320.241 C 216.400 320.374,217.210 321.384,218.200 322.485 C 224.011 328.948,224.943 338.712,220.973 351.554 C 220.506 353.065,221.647 352.409,222.686 350.569 C 228.538 340.203,225.543 320.000,218.153 320.000 C 217.189 320.000,216.400 320.109,216.400 320.241 M220.931 321.976 C 225.634 327.182,226.771 336.579,223.874 346.300 C 223.061 349.028,222.003 350.485,222.567 348.100 C 225.294 336.570,223.955 328.188,218.372 321.829 L 217.117 320.400 218.312 320.400 C 219.195 320.400,219.878 320.811,220.931 321.976 M201.300 322.698 L 200.000 323.345 200.000 345.193 C 200.000 368.209,199.983 368.000,201.804 368.000 C 204.249 368.000,204.133 369.032,204.390 344.948 C 204.665 319.067,204.920 320.897,201.300 322.698 M203.955 340.900 C 203.931 351.075,203.796 361.110,203.655 363.200 L 203.400 367.000 202.000 367.000 L 200.600 367.000 200.497 345.496 L 200.393 323.992 201.697 323.198 C 204.126 321.717,204.004 320.761,203.955 340.900 M211.600 322.739 C 211.600 322.926,211.968 324.771,212.417 326.839 C 214.495 336.398,213.623 347.802,210.021 358.163 C 208.753 361.810,209.152 362.145,211.930 359.767 C 221.851 351.275,224.629 334.807,217.680 325.680 C 216.058 323.550,211.600 321.394,211.600 322.739 M215.489 324.243 C 224.217 330.885,222.336 349.615,212.002 358.950 C 209.729 361.004,209.589 360.803,210.808 357.244 C 211.403 355.508,211.983 353.663,212.096 353.144 C 212.209 352.625,212.629 350.760,213.029 349.000 C 214.163 344.015,214.076 331.023,212.878 326.445 C 212.395 324.600,212.000 323.005,212.000 322.902 C 212.000 322.457,214.306 323.343,215.489 324.243 " stroke="none" fill="#6b0d34" fill-rule="evenodd"></path><path id="path2" d="M204.874 29.700 C 202.899 34.991,201.538 40.846,200.575 48.200 C 199.872 53.568,199.378 82.138,198.804 150.600 C 198.580 177.220,198.287 210.221,198.152 223.934 L 197.906 248.869 199.102 248.251 L 200.298 247.632 200.548 212.316 C 200.686 192.892,200.896 151.710,201.016 120.800 C 201.263 57.129,201.227 58.093,203.106 64.300 C 205.667 72.763,205.682 73.389,205.533 164.300 C 205.460 209.235,205.500 246.000,205.622 246.000 C 206.161 246.000,211.049 244.250,211.500 243.895 C 212.143 243.390,212.232 66.848,211.595 55.200 C 210.998 44.283,209.883 37.506,207.732 31.721 C 207.175 30.224,206.627 28.685,206.513 28.300 C 206.162 27.111,205.690 27.514,204.874 29.700 M266.661 170.324 L 244.722 183.800 241.945 189.151 C 240.418 192.094,239.242 194.575,239.332 194.666 C 239.423 194.756,242.729 192.864,246.680 190.462 C 250.631 188.059,258.890 183.063,265.032 179.358 C 271.174 175.653,279.080 170.874,282.600 168.738 L 289.000 164.855 289.114 160.827 C 289.177 158.612,289.087 156.811,288.914 156.824 C 288.741 156.837,278.727 162.912,266.661 170.324 M233.400 158.572 C 229.110 159.800,222.809 162.194,219.500 163.855 L 216.800 165.210 216.800 168.781 C 216.800 172.961,216.888 173.068,219.223 171.742 C 225.779 168.018,237.439 164.027,242.700 163.708 L 246.400 163.482 246.400 162.321 C 246.400 157.848,241.188 156.345,233.400 158.572 M188.000 185.272 C 168.253 203.143,148.654 232.486,148.095 245.015 C 147.823 251.098,150.420 256.456,150.938 250.881 C 152.033 239.099,167.359 215.562,186.685 195.981 L 192.429 190.162 192.314 185.816 L 192.200 181.471 188.000 185.272 M142.200 192.395 C 140.714 192.796,132.947 194.606,130.068 195.223 C 127.982 195.670,127.873 195.766,124.914 199.740 C 121.271 204.634,121.111 204.544,129.667 202.436 L 136.200 200.827 140.089 196.713 C 144.702 191.835,144.766 191.704,142.200 192.395 M264.000 233.668 C 217.305 274.839,156.262 294.920,125.870 279.108 C 124.086 278.180,121.316 276.379,119.713 275.106 C 116.549 272.591,116.245 272.575,117.852 275.007 C 133.631 298.892,183.237 294.672,232.491 265.256 C 246.439 256.925,264.000 243.983,264.000 242.034 C 264.000 241.634,264.457 239.281,265.017 236.804 C 266.216 231.492,266.272 231.665,264.000 233.668 M208.400 283.763 L 205.400 285.024 205.200 291.671 C 204.975 299.160,204.671 300.000,202.187 300.000 C 200.208 300.000,200.033 299.474,199.911 293.173 C 199.805 287.650,199.765 287.406,199.000 287.540 C 197.764 287.756,197.613 288.303,197.600 292.600 C 197.586 297.269,197.632 297.166,194.864 298.693 C 181.565 306.030,174.332 318.490,173.191 336.028 C 172.804 341.988,172.327 345.861,171.314 351.300 C 170.638 354.926,177.294 349.180,183.018 341.195 C 191.706 329.075,194.791 325.600,196.858 325.600 C 198.073 325.600,198.005 367.908,196.787 369.618 C 195.153 371.914,192.822 377.961,192.805 379.952 C 192.793 381.349,203.011 379.153,207.917 376.703 C 211.471 374.929,214.800 371.208,214.800 369.011 C 214.800 368.715,213.990 367.962,213.001 367.337 C 210.729 365.901,210.697 366.035,213.900 363.478 C 228.097 352.144,232.442 337.639,225.952 323.245 C 224.246 319.461,223.950 319.583,231.800 320.830 C 238.079 321.827,238.226 321.696,237.805 315.473 C 237.034 304.051,226.784 294.497,215.200 294.401 C 211.897 294.373,212.000 294.568,212.000 288.377 C 212.000 281.893,212.209 282.161,208.400 283.763 M222.825 300.175 C 228.642 303.097,232.938 307.819,234.205 312.684 C 235.437 317.412,234.915 318.229,231.200 317.396 C 222.973 315.552,211.853 316.149,203.864 318.863 C 195.856 321.584,191.095 325.342,185.523 333.342 C 179.501 341.987,175.972 346.126,175.407 345.211 C 175.254 344.964,175.237 344.482,175.368 344.139 C 175.499 343.797,175.962 340.071,176.395 335.859 C 178.117 319.140,182.479 311.224,194.000 303.908 C 197.367 301.770,197.887 301.697,199.138 303.185 C 201.447 305.931,206.303 305.699,209.481 302.692 L 210.763 301.479 213.281 302.397 C 221.368 305.346,223.360 308.573,217.300 308.909 C 209.434 309.345,200.911 312.845,195.200 317.985 L 193.400 319.605 197.400 317.649 C 207.604 312.659,218.976 311.184,229.700 313.460 C 233.512 314.269,228.081 306.194,220.997 300.521 C 219.001 298.922,219.967 298.740,222.825 300.175 M221.294 321.535 C 226.720 327.542,227.422 342.180,222.686 350.569 C 221.647 352.409,220.506 353.065,220.973 351.554 C 224.943 338.712,224.011 328.948,218.200 322.485 C 215.990 320.027,215.990 320.000,218.153 320.000 C 219.679 320.000,220.087 320.199,221.294 321.535 M204.469 322.500 C 204.554 322.775,204.518 332.877,204.390 344.948 C 204.133 369.032,204.249 368.000,201.804 368.000 C 199.983 368.000,200.000 368.209,200.000 345.193 L 200.000 323.345 201.300 322.698 C 202.881 321.911,204.260 321.825,204.469 322.500 M215.002 323.380 C 224.953 329.212,223.187 350.132,211.930 359.767 C 209.152 362.145,208.753 361.810,210.021 358.163 C 213.623 347.802,214.495 336.398,212.417 326.839 C 211.968 324.771,211.600 322.926,211.600 322.739 C 211.600 322.082,213.349 322.411,215.002 323.380 " stroke="none" fill="#050d43" fill-rule="evenodd"></path></g></svg>