<svg id="svg" version="1.1" xmlns="http://www.w3.org/2000/svg" xmlns:xlink="http://www.w3.org/1999/xlink" width="400" height="400" viewBox="0, 0, 400,400"><g id="svgg"><path id="path0" d="M163.875 17.858 C 163.724 18.010,163.600 18.463,163.600 18.867 C 163.600 19.270,163.420 19.600,163.200 19.600 C 162.980 19.600,162.800 20.140,162.800 20.800 C 162.800 21.460,162.620 22.000,162.400 22.000 C 162.180 22.000,162.000 22.540,162.000 23.200 C 162.000 23.860,161.820 24.400,161.600 24.400 C 161.380 24.400,161.200 24.929,161.200 25.576 C 161.200 26.223,161.020 26.864,160.800 27.000 C 160.580 27.136,160.400 27.867,160.400 28.624 C 160.400 29.381,160.220 30.000,160.000 30.000 C 159.780 30.000,159.600 30.540,159.600 31.200 C 159.600 31.860,159.420 32.400,159.200 32.400 C 158.980 32.400,158.800 33.120,158.800 34.000 C 158.800 34.880,158.620 35.600,158.400 35.600 C 158.180 35.600,158.000 36.129,158.000 36.776 C 158.000 37.423,157.820 38.064,157.600 38.200 C 157.380 38.336,157.200 39.067,157.200 39.824 C 157.200 40.581,157.020 41.200,156.800 41.200 C 156.580 41.200,156.400 41.920,156.400 42.800 C 156.400 43.680,156.220 44.400,156.000 44.400 C 155.780 44.400,155.600 45.109,155.600 45.976 C 155.600 46.843,155.420 47.664,155.200 47.800 C 154.980 47.936,154.800 48.847,154.800 49.824 C 154.800 50.801,154.620 51.600,154.400 51.600 C 154.180 51.600,154.000 52.500,154.000 53.600 C 154.000 54.700,153.820 55.600,153.600 55.600 C 153.380 55.600,153.200 56.500,153.200 57.600 C 153.200 58.700,153.020 59.600,152.800 59.600 C 152.580 59.600,152.400 60.579,152.400 61.776 C 152.400 62.973,152.220 64.064,152.000 64.200 C 151.498 64.510,151.471 66.000,151.967 66.000 C 152.169 66.000,152.596 66.100,152.916 66.223 C 153.880 66.593,154.707 65.343,154.976 63.110 C 155.115 61.950,155.391 60.280,155.588 59.400 C 155.785 58.520,156.151 56.630,156.400 55.200 C 156.649 53.770,157.021 51.835,157.227 50.900 C 157.992 47.414,158.460 45.361,158.800 44.000 C 158.992 43.230,159.362 41.700,159.621 40.600 C 159.880 39.500,160.252 38.060,160.447 37.400 C 160.642 36.740,161.349 34.220,162.019 31.800 C 162.688 29.380,163.389 26.950,163.577 26.400 C 165.490 20.791,165.655 16.079,163.875 17.858 M127.200 76.027 C 117.468 76.342,110.222 76.931,108.003 77.587 C 107.234 77.814,106.006 78.000,105.274 78.000 C 103.848 78.000,102.800 78.751,102.800 79.771 C 102.800 80.273,103.285 80.400,105.200 80.400 C 106.533 80.400,107.600 80.222,107.600 80.000 C 107.600 79.749,110.125 79.600,114.376 79.600 C 118.463 79.600,121.251 79.441,121.400 79.200 C 121.557 78.946,126.804 78.800,135.824 78.800 L 150.000 78.800 150.000 82.376 C 150.000 84.343,149.820 86.064,149.600 86.200 C 149.049 86.540,149.049 139.460,149.600 139.800 C 149.859 139.960,150.000 147.809,150.000 162.038 C 150.000 181.911,150.064 184.126,150.668 185.048 C 151.562 186.411,151.074 186.684,147.219 186.974 C 141.282 187.421,129.726 189.100,120.600 190.842 C 119.500 191.052,117.610 191.413,116.400 191.644 C 111.765 192.530,107.589 193.533,102.800 194.911 C 96.810 196.634,91.438 199.522,91.358 201.062 C 91.321 201.770,91.432 201.816,92.255 201.435 C 92.771 201.196,93.195 200.865,93.197 200.700 C 93.199 200.535,93.549 200.400,93.976 200.400 C 94.403 200.400,94.864 200.220,95.000 200.000 C 95.136 199.780,95.687 199.600,96.224 199.600 C 96.761 199.600,97.200 199.420,97.200 199.200 C 97.200 198.980,97.740 198.800,98.400 198.800 C 99.060 198.800,99.600 198.620,99.600 198.400 C 99.600 198.180,100.140 198.000,100.800 198.000 C 101.460 198.000,102.000 197.820,102.000 197.600 C 102.000 197.380,102.720 197.200,103.600 197.200 C 104.480 197.200,105.200 197.020,105.200 196.800 C 105.200 196.580,105.920 196.400,106.800 196.400 C 107.680 196.400,108.400 196.220,108.400 196.000 C 108.400 195.780,109.199 195.600,110.176 195.600 C 111.153 195.600,112.064 195.420,112.200 195.200 C 112.336 194.980,113.236 194.800,114.200 194.800 C 115.164 194.800,116.064 194.620,116.200 194.400 C 116.336 194.180,117.337 194.000,118.424 194.000 C 119.511 194.000,120.400 193.820,120.400 193.600 C 120.400 193.380,121.379 193.200,122.576 193.200 C 123.773 193.200,124.864 193.020,125.000 192.800 C 125.136 192.580,126.216 192.400,127.400 192.400 C 128.584 192.400,129.664 192.220,129.800 192.000 C 129.936 191.780,131.117 191.600,132.424 191.600 C 133.741 191.600,134.800 191.422,134.800 191.200 C 134.800 190.978,135.859 190.800,137.176 190.800 C 138.483 190.800,139.664 190.620,139.800 190.400 C 139.936 190.180,141.207 190.000,142.624 190.000 C 144.075 190.000,145.200 189.825,145.200 189.600 C 145.200 189.378,146.265 189.200,147.596 189.200 L 149.991 189.200 150.096 206.100 L 150.200 223.000 151.452 223.122 L 152.705 223.244 153.010 205.722 C 153.361 185.568,153.005 141.693,152.350 124.419 C 151.877 111.935,152.072 92.663,152.775 82.460 C 153.007 79.083,153.098 76.158,152.975 75.960 C 152.725 75.556,140.767 75.587,127.200 76.027 M179.299 77.518 C 178.741 78.974,179.745 80.195,181.607 80.325 C 182.593 80.394,183.571 80.619,183.780 80.825 C 183.989 81.031,185.294 81.200,186.680 81.200 C 188.093 81.200,189.200 81.376,189.200 81.600 C 189.200 81.820,190.179 82.000,191.376 82.000 C 192.573 82.000,193.664 82.180,193.800 82.400 C 193.936 82.620,194.746 82.800,195.600 82.800 C 196.454 82.800,197.264 82.980,197.400 83.200 C 197.536 83.420,198.256 83.600,199.000 83.600 C 199.744 83.600,200.464 83.780,200.600 84.000 C 200.736 84.220,201.467 84.400,202.224 84.400 C 202.981 84.400,203.600 84.580,203.600 84.800 C 203.600 85.020,204.140 85.200,204.800 85.200 C 205.460 85.200,206.000 85.380,206.000 85.600 C 206.000 85.820,206.540 86.000,207.200 86.000 C 207.860 86.000,208.400 86.180,208.400 86.400 C 208.400 86.620,208.760 86.800,209.200 86.800 C 209.640 86.800,210.000 86.980,210.000 87.200 C 210.000 87.420,210.234 87.600,210.520 87.600 C 211.256 87.600,213.193 88.541,213.197 88.900 C 213.199 89.065,213.560 89.200,214.000 89.200 C 214.440 89.200,214.800 89.380,214.800 89.600 C 214.800 89.820,215.059 90.000,215.375 90.000 C 216.187 90.000,222.000 95.736,222.000 96.538 C 222.000 96.902,222.180 97.200,222.400 97.200 C 222.620 97.200,222.800 97.740,222.800 98.400 C 222.800 99.060,222.980 99.600,223.200 99.600 C 223.448 99.600,223.600 101.733,223.600 105.200 C 223.600 108.667,223.448 110.800,223.200 110.800 C 222.980 110.800,222.800 111.329,222.800 111.976 C 222.800 112.623,222.620 113.264,222.400 113.400 C 222.180 113.536,222.000 114.087,222.000 114.624 C 222.000 115.161,221.820 115.600,221.600 115.600 C 221.380 115.600,221.200 115.960,221.200 116.400 C 221.200 116.840,221.020 117.200,220.800 117.200 C 220.580 117.200,220.400 117.520,220.400 117.912 C 220.400 118.303,220.040 118.883,219.600 119.200 C 219.160 119.517,218.800 120.031,218.800 120.341 C 218.800 120.652,218.411 121.243,217.936 121.656 C 216.703 122.725,217.328 123.048,218.716 122.060 C 225.453 117.263,229.072 102.004,225.293 94.328 C 222.955 89.579,216.996 85.283,209.000 82.581 C 207.014 81.910,206.626 81.799,202.400 80.694 C 198.600 79.701,192.633 78.580,188.200 78.026 C 186.440 77.806,183.767 77.472,182.260 77.284 C 180.020 77.005,179.480 77.048,179.299 77.518 M244.000 121.533 C 244.000 121.790,243.730 122.000,243.400 122.000 C 243.070 122.000,242.800 122.148,242.800 122.329 C 242.800 122.510,241.990 123.063,241.001 123.557 C 240.012 124.051,238.970 124.668,238.686 124.928 C 237.485 126.026,227.359 131.181,226.380 131.193 C 226.039 131.197,225.589 131.348,225.380 131.528 C 225.171 131.708,223.650 132.268,222.000 132.772 C 220.350 133.275,218.587 133.848,218.081 134.044 C 217.576 134.240,216.821 134.400,216.405 134.400 C 215.988 134.400,215.518 134.609,215.361 134.864 C 214.539 136.193,224.616 134.523,228.095 132.753 C 228.477 132.559,229.062 132.400,229.395 132.400 C 229.728 132.400,230.000 132.220,230.000 132.000 C 230.000 131.780,230.360 131.600,230.800 131.600 C 231.240 131.600,231.600 131.441,231.600 131.247 C 231.600 131.052,231.915 130.793,232.300 130.671 C 232.987 130.454,235.206 129.195,235.600 128.799 C 235.710 128.689,236.295 128.344,236.900 128.032 C 237.505 127.720,238.000 127.315,238.000 127.132 C 238.000 126.950,238.241 126.800,238.535 126.800 C 239.250 126.800,244.622 121.688,244.273 121.340 C 244.123 121.190,244.000 121.277,244.000 121.533 M181.273 141.858 C 181.394 143.325,181.473 143.406,182.900 143.524 C 183.725 143.592,184.400 143.817,184.400 144.024 C 184.400 144.231,185.469 144.400,186.776 144.400 C 188.083 144.400,189.264 144.580,189.400 144.800 C 189.536 145.020,190.526 145.200,191.600 145.200 C 192.674 145.200,193.664 145.380,193.800 145.600 C 193.936 145.820,194.757 146.000,195.624 146.000 C 196.491 146.000,197.200 146.180,197.200 146.400 C 197.200 146.620,197.729 146.800,198.376 146.800 C 199.023 146.800,199.664 146.980,199.800 147.200 C 199.936 147.420,200.489 147.600,201.029 147.600 C 201.569 147.600,202.413 147.808,202.905 148.062 C 204.831 149.058,205.217 149.200,205.995 149.200 C 206.438 149.200,206.800 149.380,206.800 149.600 C 206.800 149.820,207.160 150.000,207.600 150.000 C 208.040 150.000,208.400 150.180,208.400 150.400 C 208.400 150.620,208.760 150.800,209.200 150.800 C 209.640 150.800,210.000 150.950,210.000 151.132 C 210.000 151.315,210.492 151.720,211.094 152.032 C 212.523 152.774,216.400 156.631,216.400 157.311 C 216.400 157.602,216.582 158.022,216.805 158.245 C 217.238 158.678,217.060 211.084,216.597 219.560 C 216.326 224.513,216.423 224.782,218.476 224.794 C 220.005 224.803,219.894 227.239,220.054 190.173 L 220.200 156.146 219.216 154.232 C 215.868 147.720,202.108 142.431,183.673 140.570 L 181.147 140.315 181.273 141.858 M247.829 187.153 C 247.210 188.154,248.014 189.200,249.403 189.200 C 250.146 189.200,250.864 189.380,251.000 189.600 C 251.136 189.820,252.587 190.000,254.224 190.000 C 255.941 190.000,257.200 190.169,257.200 190.400 C 257.200 190.629,258.400 190.800,260.000 190.800 C 261.600 190.800,262.800 190.971,262.800 191.200 C 262.800 191.422,263.859 191.600,265.176 191.600 C 266.483 191.600,267.664 191.780,267.800 192.000 C 267.936 192.220,269.106 192.400,270.400 192.400 C 271.694 192.400,272.864 192.580,273.000 192.800 C 273.136 193.020,274.126 193.200,275.200 193.200 C 276.274 193.200,277.264 193.380,277.400 193.600 C 277.536 193.820,278.526 194.000,279.600 194.000 C 280.674 194.000,281.664 194.180,281.800 194.400 C 281.936 194.620,282.746 194.800,283.600 194.800 C 284.454 194.800,285.264 194.980,285.400 195.200 C 285.536 195.420,286.447 195.600,287.424 195.600 C 288.401 195.600,289.200 195.780,289.200 196.000 C 289.200 196.220,289.920 196.400,290.800 196.400 C 291.680 196.400,292.400 196.580,292.400 196.800 C 292.400 197.020,292.940 197.200,293.600 197.200 C 294.260 197.200,294.800 197.380,294.800 197.600 C 294.800 197.820,295.329 198.000,295.976 198.000 C 296.623 198.000,297.264 198.180,297.400 198.400 C 297.536 198.620,298.087 198.800,298.624 198.800 C 299.161 198.800,299.600 198.980,299.600 199.200 C 299.600 199.420,299.949 199.600,300.376 199.600 C 300.803 199.600,301.264 199.780,301.400 200.000 C 301.536 200.220,301.963 200.400,302.348 200.400 C 302.734 200.400,303.436 200.760,303.908 201.200 C 304.380 201.640,304.962 202.000,305.201 202.000 C 306.346 202.000,307.600 203.977,307.600 205.782 C 307.600 206.782,307.420 207.600,307.200 207.600 C 306.980 207.600,306.800 207.780,306.800 208.000 C 306.800 209.748,309.970 207.159,310.831 204.707 C 311.887 201.703,305.979 196.000,301.812 196.000 C 301.501 196.000,301.150 195.843,301.032 195.652 C 300.914 195.460,300.318 195.193,299.708 195.057 C 299.099 194.922,297.250 194.431,295.600 193.966 C 291.935 192.932,291.197 192.766,284.400 191.433 C 275.348 189.659,274.520 189.515,267.000 188.420 C 265.460 188.196,263.030 187.839,261.600 187.628 C 257.020 186.951,248.143 186.644,247.829 187.153 M61.700 203.416 C 60.985 204.165,60.400 205.052,60.400 205.389 C 60.400 205.725,60.220 206.000,60.000 206.000 C 59.421 206.000,59.503 211.631,60.100 212.917 C 60.375 213.509,60.735 213.995,60.900 213.997 C 61.065 213.999,61.200 214.235,61.200 214.522 C 61.200 215.213,63.770 218.000,64.407 218.000 C 64.682 218.000,65.197 218.316,65.553 218.703 C 65.909 219.089,66.695 219.660,67.300 219.970 C 67.905 220.281,68.400 220.685,68.400 220.868 C 68.400 221.050,68.760 221.200,69.200 221.200 C 69.640 221.200,70.000 221.380,70.000 221.600 C 70.000 221.820,70.360 222.000,70.800 222.000 C 71.240 222.000,71.600 222.180,71.600 222.400 C 71.600 222.620,71.960 222.800,72.400 222.800 C 72.840 222.800,73.200 222.980,73.200 223.200 C 73.200 223.420,73.639 223.600,74.176 223.600 C 74.713 223.600,75.264 223.780,75.400 224.000 C 75.536 224.220,75.997 224.400,76.424 224.400 C 76.851 224.400,77.200 224.580,77.200 224.800 C 77.200 225.020,77.562 225.200,78.005 225.200 C 78.448 225.200,79.168 225.380,79.605 225.600 C 80.042 225.820,80.758 226.180,81.195 226.400 C 81.632 226.620,82.341 226.800,82.771 226.800 C 83.201 226.800,83.664 226.980,83.800 227.200 C 83.936 227.420,84.566 227.600,85.200 227.600 C 85.834 227.600,86.464 227.780,86.600 228.000 C 86.736 228.220,87.377 228.400,88.024 228.400 C 88.671 228.400,89.200 228.580,89.200 228.800 C 89.200 229.020,89.920 229.200,90.800 229.200 C 91.680 229.200,92.400 229.380,92.400 229.600 C 92.400 229.820,93.019 230.000,93.776 230.000 C 94.533 230.000,95.264 230.180,95.400 230.400 C 95.536 230.620,96.357 230.800,97.224 230.800 C 98.091 230.800,98.800 230.980,98.800 231.200 C 98.800 231.420,99.509 231.600,100.376 231.600 C 101.243 231.600,102.064 231.780,102.200 232.000 C 102.336 232.220,103.236 232.400,104.200 232.400 C 105.164 232.400,106.064 232.580,106.200 232.800 C 106.336 233.020,107.236 233.200,108.200 233.200 C 109.164 233.200,110.064 233.380,110.200 233.600 C 110.336 233.820,111.427 234.000,112.624 234.000 C 113.821 234.000,114.800 234.180,114.800 234.400 C 114.800 234.622,115.859 234.800,117.176 234.800 C 118.483 234.800,119.664 234.980,119.800 235.200 C 119.936 235.420,121.196 235.600,122.600 235.600 C 124.004 235.600,125.264 235.780,125.400 236.000 C 125.536 236.220,126.886 236.400,128.400 236.400 C 129.914 236.400,131.264 236.580,131.400 236.800 C 131.536 237.020,133.156 237.200,135.000 237.200 C 136.844 237.200,138.464 237.380,138.600 237.600 C 138.736 237.820,140.446 238.000,142.400 238.000 C 144.354 238.000,146.064 238.180,146.200 238.400 C 146.336 238.620,147.247 238.800,148.224 238.800 L 150.000 238.800 150.000 240.776 C 150.000 241.863,150.180 242.864,150.400 243.000 C 150.653 243.156,150.800 247.796,150.800 255.600 C 150.800 263.404,150.947 268.044,151.200 268.200 C 151.453 268.356,151.600 272.977,151.600 280.744 C 151.600 288.216,151.753 293.193,151.991 293.431 C 152.210 293.650,152.430 297.162,152.491 301.411 C 152.583 307.842,152.692 309.000,153.200 309.000 C 153.626 309.000,153.836 308.478,153.925 307.200 C 153.994 306.210,154.219 305.229,154.425 305.020 C 154.900 304.538,154.877 285.673,154.381 269.800 C 154.175 263.200,153.888 252.985,153.743 247.099 C 153.443 234.893,153.733 235.707,149.570 235.397 C 145.315 235.081,133.900 233.806,129.800 233.190 C 128.480 232.991,126.050 232.638,124.400 232.404 C 117.510 231.427,109.284 229.921,102.800 228.447 C 87.162 224.893,76.257 220.952,69.391 216.372 C 63.452 212.411,61.480 208.786,62.988 204.600 C 64.060 201.625,63.714 201.307,61.700 203.416 M331.800 216.812 C 325.487 220.532,316.109 224.117,306.600 226.445 C 305.720 226.660,304.325 227.008,303.500 227.218 C 299.746 228.174,292.630 229.694,288.600 230.403 C 275.902 232.635,260.681 234.653,250.722 235.425 C 247.165 235.701,246.367 236.243,247.207 237.814 C 247.741 238.812,248.946 239.134,249.400 238.400 C 249.536 238.179,251.330 238.000,253.400 238.000 C 255.470 238.000,257.264 237.821,257.400 237.600 C 257.536 237.380,259.156 237.200,261.000 237.200 C 262.844 237.200,264.464 237.020,264.600 236.800 C 264.736 236.580,266.086 236.400,267.600 236.400 C 269.114 236.400,270.464 236.220,270.600 236.000 C 270.736 235.780,272.097 235.600,273.624 235.600 C 275.208 235.600,276.400 235.428,276.400 235.200 C 276.400 234.978,277.467 234.800,278.800 234.800 C 280.133 234.800,281.200 234.622,281.200 234.400 C 281.200 234.178,282.267 234.000,283.600 234.000 C 284.933 234.000,286.000 233.822,286.000 233.600 C 286.000 233.380,286.900 233.200,288.000 233.200 C 289.100 233.200,290.000 233.020,290.000 232.800 C 290.000 232.580,290.900 232.400,292.000 232.400 C 293.100 232.400,294.000 232.220,294.000 232.000 C 294.000 231.780,294.799 231.600,295.776 231.600 C 296.753 231.600,297.664 231.420,297.800 231.200 C 297.936 230.980,298.757 230.800,299.624 230.800 C 300.491 230.800,301.200 230.620,301.200 230.400 C 301.200 230.180,301.920 230.000,302.800 230.000 C 303.680 230.000,304.400 229.820,304.400 229.600 C 304.400 229.380,305.019 229.200,305.776 229.200 C 306.533 229.200,307.264 229.020,307.400 228.800 C 307.536 228.580,308.177 228.400,308.824 228.400 C 309.471 228.400,310.000 228.220,310.000 228.000 C 310.000 227.780,310.619 227.600,311.376 227.600 C 312.133 227.600,312.864 227.420,313.000 227.200 C 313.136 226.980,313.599 226.800,314.029 226.800 C 314.459 226.800,315.168 226.620,315.605 226.400 C 316.042 226.180,316.758 225.820,317.195 225.600 C 317.632 225.380,318.352 225.200,318.795 225.200 C 319.238 225.200,319.600 225.020,319.600 224.800 C 319.600 224.580,320.039 224.400,320.576 224.400 C 321.113 224.400,321.664 224.220,321.800 224.000 C 321.936 223.780,322.397 223.600,322.824 223.600 C 323.251 223.600,323.600 223.420,323.600 223.200 C 323.600 222.980,323.960 222.800,324.400 222.800 C 324.840 222.800,325.200 222.620,325.200 222.400 C 325.200 222.180,325.560 222.000,326.000 222.000 C 326.440 222.000,326.800 221.820,326.800 221.600 C 326.800 221.380,327.160 221.200,327.600 221.200 C 328.040 221.200,328.400 221.020,328.400 220.800 C 328.400 220.580,328.720 220.400,329.112 220.400 C 329.503 220.400,330.083 220.040,330.400 219.600 C 330.717 219.160,331.172 218.800,331.410 218.800 C 331.877 218.800,334.800 216.253,334.800 215.846 C 334.800 215.331,333.728 215.676,331.800 216.812 M179.306 237.901 C 179.200 238.176,179.227 238.851,179.364 239.401 L 179.615 240.400 198.008 240.400 C 215.947 240.400,216.400 240.419,216.400 241.176 C 216.400 241.603,216.580 242.064,216.800 242.200 C 217.053 242.356,217.200 246.996,217.200 254.800 C 217.200 262.604,217.347 267.244,217.600 267.400 C 217.853 267.556,218.000 272.196,218.000 280.000 C 218.000 287.804,218.147 292.444,218.400 292.600 C 218.653 292.756,218.800 297.377,218.800 305.144 C 218.800 312.668,218.953 317.593,219.193 317.833 C 219.426 318.066,219.630 322.629,219.693 329.013 C 219.785 338.287,219.884 339.800,220.400 339.800 C 220.738 339.800,221.059 339.363,221.134 338.800 C 221.207 338.250,221.432 337.629,221.634 337.420 C 221.843 337.203,221.994 330.583,221.987 322.020 C 221.975 307.917,221.774 298.978,220.799 269.200 C 220.579 262.490,220.282 252.709,220.138 247.464 C 219.965 241.136,219.729 237.873,219.439 237.766 C 218.164 237.297,179.488 237.426,179.306 237.901 M160.214 255.322 C 159.610 256.244,159.808 257.598,160.854 259.695 C 161.044 260.077,161.200 266.411,161.200 273.771 C 161.200 282.261,161.346 287.243,161.600 287.400 C 161.855 287.558,162.000 293.177,162.000 302.944 C 162.000 312.014,162.154 318.395,162.378 318.620 C 162.586 318.829,162.811 320.080,162.878 321.400 C 163.036 324.515,164.130 324.886,164.322 321.890 C 164.403 320.628,164.594 320.072,164.884 320.252 C 165.160 320.422,165.209 320.338,165.015 320.025 C 164.846 319.751,164.667 309.328,164.617 296.863 C 164.497 266.593,164.136 256.681,163.108 255.374 C 162.145 254.149,160.996 254.128,160.214 255.322 M171.059 265.387 C 170.652 265.696,170.338 266.364,170.362 266.874 C 170.495 269.714,170.920 272.400,171.237 272.400 C 171.448 272.400,171.600 278.436,171.600 286.776 C 171.600 295.929,171.745 301.243,172.000 301.400 C 172.255 301.557,172.400 306.863,172.400 316.000 C 172.400 325.137,172.545 330.443,172.800 330.600 C 173.020 330.736,173.200 332.356,173.200 334.200 C 173.200 337.419,173.599 338.561,174.432 337.728 C 174.639 337.521,174.824 327.073,174.864 313.383 C 174.991 270.054,174.419 262.846,171.059 265.387 M227.046 280.750 C 226.323 281.548,226.505 286.800,227.255 286.800 C 227.445 286.800,227.600 291.379,227.600 296.976 C 227.600 303.329,227.750 307.246,228.000 307.400 C 228.250 307.555,228.400 311.596,228.400 318.200 C 228.400 324.804,228.550 328.845,228.800 329.000 C 229.050 329.155,229.200 333.196,229.200 339.800 C 229.200 346.404,229.350 350.445,229.600 350.600 C 229.831 350.742,230.000 352.871,230.000 355.624 C 230.000 360.037,230.057 360.400,230.754 360.400 C 232.162 360.400,232.356 338.501,231.216 308.400 C 231.011 303.010,230.730 295.180,230.590 291.000 C 230.337 283.440,229.999 281.443,228.819 280.513 C 227.987 279.858,227.834 279.878,227.046 280.750 M237.220 290.780 C 236.161 291.839,236.474 294.800,237.644 294.800 C 238.055 294.800,238.377 303.541,238.622 321.390 C 238.739 329.923,238.979 335.939,239.210 336.170 C 239.449 336.409,239.600 342.153,239.600 351.000 C 239.600 359.862,239.751 365.591,239.991 365.831 C 240.208 366.048,240.430 369.495,240.491 373.611 C 240.583 379.864,240.692 381.000,241.200 381.000 C 242.590 381.000,242.391 300.923,240.982 293.193 C 240.488 290.482,238.679 289.321,237.220 290.780 " stroke="none" fill="#051b24" fill-rule="evenodd"></path><path id="path1" d="M165.700 16.683 C 165.425 17.275,165.200 18.527,165.200 19.466 C 165.200 20.404,164.929 22.033,164.597 23.086 C 163.463 26.685,163.250 27.405,162.027 31.800 C 161.353 34.220,160.642 36.740,160.447 37.400 C 160.252 38.060,159.880 39.500,159.621 40.600 C 159.362 41.700,158.992 43.230,158.800 44.000 C 158.608 44.770,158.272 46.210,158.053 47.200 C 157.835 48.190,157.475 49.810,157.255 50.800 C 157.034 51.790,156.649 53.770,156.400 55.200 C 156.151 56.630,155.785 58.520,155.588 59.400 C 155.391 60.280,155.121 61.909,154.988 63.019 C 154.620 66.103,154.514 66.181,150.865 66.057 C 148.927 65.991,147.576 66.115,147.416 66.374 C 147.271 66.608,146.173 66.800,144.976 66.800 C 143.779 66.800,142.800 66.980,142.800 67.200 C 142.800 67.420,141.900 67.600,140.800 67.600 C 139.700 67.600,138.800 67.780,138.800 68.000 C 138.800 68.220,137.900 68.400,136.800 68.400 C 135.700 68.400,134.800 68.580,134.800 68.800 C 134.800 69.020,134.091 69.200,133.224 69.200 C 132.357 69.200,131.536 69.380,131.400 69.600 C 131.264 69.820,130.353 70.000,129.376 70.000 C 128.399 70.000,127.600 70.180,127.600 70.400 C 127.600 70.620,126.981 70.800,126.224 70.800 C 125.467 70.800,124.736 70.980,124.600 71.200 C 124.464 71.420,123.643 71.600,122.776 71.600 C 121.909 71.600,121.200 71.780,121.200 72.000 C 121.200 72.220,120.581 72.400,119.824 72.400 C 119.067 72.400,118.336 72.580,118.200 72.800 C 118.064 73.020,117.243 73.200,116.376 73.200 C 115.509 73.200,114.800 73.380,114.800 73.600 C 114.800 73.820,114.181 74.000,113.424 74.000 C 112.667 74.000,111.936 74.180,111.800 74.400 C 111.664 74.620,111.124 74.800,110.600 74.800 C 110.076 74.800,109.536 74.980,109.400 75.200 C 109.264 75.420,108.741 75.600,108.238 75.600 C 107.126 75.600,104.800 76.711,104.800 77.242 C 104.800 77.994,105.992 78.057,108.874 77.457 C 114.821 76.219,152.317 74.895,152.939 75.901 C 153.081 76.131,153.007 79.083,152.775 82.460 C 152.072 92.663,151.877 111.935,152.350 124.419 C 153.005 141.686,153.361 185.565,153.010 205.700 L 152.706 223.200 151.540 223.200 C 150.873 223.200,150.276 222.943,150.145 222.600 C 149.971 222.148,149.242 222.000,147.181 222.000 C 145.677 222.000,144.336 221.820,144.200 221.600 C 144.064 221.380,142.534 221.200,140.800 221.200 C 139.066 221.200,137.536 221.020,137.400 220.800 C 137.264 220.580,136.004 220.400,134.600 220.400 C 133.196 220.400,131.936 220.220,131.800 220.000 C 131.664 219.780,130.584 219.600,129.400 219.600 C 128.216 219.600,127.136 219.420,127.000 219.200 C 126.864 218.980,125.874 218.800,124.800 218.800 C 123.726 218.800,122.736 218.620,122.600 218.400 C 122.464 218.180,121.553 218.000,120.576 218.000 C 119.599 218.000,118.800 217.820,118.800 217.600 C 118.800 217.380,118.091 217.200,117.224 217.200 C 116.357 217.200,115.536 217.020,115.400 216.800 C 115.264 216.580,114.454 216.400,113.600 216.400 C 112.746 216.400,111.936 216.220,111.800 216.000 C 111.664 215.780,111.034 215.600,110.400 215.600 C 109.766 215.600,109.136 215.420,109.000 215.200 C 108.864 214.980,108.313 214.800,107.776 214.800 C 107.239 214.800,106.800 214.620,106.800 214.400 C 106.800 214.180,106.348 214.000,105.795 214.000 C 105.242 214.000,104.432 213.820,103.995 213.600 C 103.558 213.380,102.842 213.020,102.405 212.800 C 101.968 212.580,101.338 212.400,101.005 212.400 C 100.672 212.400,100.400 212.220,100.400 212.000 C 100.400 211.780,100.040 211.600,99.600 211.600 C 99.160 211.600,98.800 211.420,98.800 211.200 C 98.800 210.980,98.440 210.800,98.000 210.800 C 97.560 210.800,97.200 210.620,97.200 210.400 C 97.200 210.180,96.898 210.000,96.529 210.000 C 94.186 210.000,89.513 202.843,91.183 201.811 C 91.393 201.681,91.468 201.322,91.350 201.015 C 90.871 199.766,97.045 196.527,103.200 194.798 C 108.389 193.340,111.827 192.519,116.400 191.644 C 117.610 191.413,119.500 191.052,120.600 190.842 C 129.726 189.100,141.282 187.421,147.219 186.974 C 150.901 186.697,151.458 186.429,150.822 185.240 C 150.320 184.303,127.953 183.905,127.386 184.823 C 127.258 185.030,124.744 185.200,121.800 185.200 C 118.663 185.200,116.345 185.366,116.200 185.600 C 116.064 185.821,114.270 186.000,112.200 186.000 C 110.130 186.000,108.336 186.179,108.200 186.400 C 108.064 186.620,106.613 186.800,104.976 186.800 C 103.259 186.800,102.000 186.969,102.000 187.200 C 102.000 187.422,100.933 187.600,99.600 187.600 C 98.267 187.600,97.200 187.778,97.200 188.000 C 97.200 188.220,96.300 188.400,95.200 188.400 C 94.100 188.400,93.200 188.580,93.200 188.800 C 93.200 189.020,92.300 189.200,91.200 189.200 C 90.100 189.200,89.200 189.380,89.200 189.600 C 89.200 189.820,88.480 190.000,87.600 190.000 C 86.720 190.000,86.000 190.180,86.000 190.400 C 86.000 190.620,85.381 190.800,84.624 190.800 C 83.867 190.800,83.136 190.980,83.000 191.200 C 82.864 191.420,82.223 191.600,81.576 191.600 C 80.929 191.600,80.400 191.780,80.400 192.000 C 80.400 192.220,79.860 192.400,79.200 192.400 C 78.540 192.400,78.000 192.580,78.000 192.800 C 78.000 193.020,77.728 193.200,77.395 193.200 C 76.807 193.200,76.382 193.367,74.505 194.338 C 74.013 194.592,73.338 194.800,73.005 194.800 C 72.672 194.800,72.400 194.980,72.400 195.200 C 72.400 195.420,72.040 195.600,71.600 195.600 C 71.160 195.600,70.800 195.780,70.800 196.000 C 70.800 196.220,70.440 196.400,70.000 196.400 C 69.560 196.400,69.200 196.580,69.200 196.800 C 69.200 197.020,68.954 197.200,68.654 197.200 C 65.377 197.200,61.402 205.965,62.982 209.709 C 66.068 217.025,81.789 224.090,106.400 229.219 C 107.610 229.472,109.320 229.828,110.200 230.012 C 111.688 230.323,113.142 230.581,119.100 231.589 C 120.365 231.803,122.750 232.170,124.400 232.404 C 126.050 232.638,128.480 232.991,129.800 233.190 C 133.900 233.806,145.315 235.081,149.570 235.397 C 153.753 235.709,153.600 235.422,153.600 242.948 C 153.600 246.496,153.792 253.179,154.026 257.799 C 154.260 262.420,154.575 275.290,154.726 286.400 C 154.964 303.967,155.078 306.600,155.600 306.600 C 156.059 306.600,156.228 305.991,156.321 304.000 C 156.388 302.570,156.613 301.229,156.821 301.020 C 157.030 300.811,157.200 298.437,157.200 295.744 C 157.200 292.911,157.369 290.743,157.600 290.600 C 157.832 290.457,158.000 288.270,158.000 285.400 C 158.000 282.530,158.168 280.343,158.400 280.200 C 158.632 280.057,158.800 277.863,158.800 274.976 C 158.800 271.925,158.955 270.000,159.200 270.000 C 159.446 270.000,159.600 268.000,159.600 264.800 C 159.600 261.600,159.754 259.600,160.000 259.600 C 160.528 259.600,160.511 258.155,159.972 257.147 C 159.431 256.137,160.448 254.400,161.580 254.400 C 164.156 254.400,164.458 258.604,164.627 296.800 C 164.682 309.230,164.833 319.715,164.963 320.100 C 165.093 320.485,165.290 321.085,165.400 321.433 C 166.040 323.456,166.607 321.443,166.713 316.774 C 166.775 314.046,167.000 311.640,167.213 311.427 C 167.426 311.214,167.600 308.837,167.600 306.144 C 167.600 303.311,167.769 301.143,168.000 301.000 C 168.232 300.857,168.400 298.670,168.400 295.800 C 168.400 292.930,168.568 290.743,168.800 290.600 C 169.033 290.456,169.200 288.204,169.200 285.200 C 169.200 282.196,169.367 279.944,169.600 279.800 C 169.830 279.658,170.000 277.556,170.000 274.856 C 170.000 271.797,170.164 269.996,170.469 269.691 C 170.818 269.342,170.825 268.973,170.496 268.251 C 169.581 266.243,171.352 264.089,172.823 265.421 C 174.532 266.967,175.087 279.729,174.883 312.738 C 174.810 324.454,174.912 331.853,175.150 332.140 C 175.362 332.395,175.594 333.232,175.667 334.002 C 175.754 334.919,176.006 335.400,176.400 335.400 C 176.916 335.400,177.015 333.887,177.107 324.613 C 177.170 318.229,177.374 313.666,177.607 313.433 C 177.847 313.193,178.000 308.329,178.000 300.920 C 178.000 293.107,178.142 288.800,178.400 288.800 C 178.658 288.800,178.800 284.541,178.800 276.824 C 178.800 268.768,178.940 264.761,179.227 264.583 C 179.518 264.403,179.626 260.072,179.567 250.918 L 179.481 237.516 199.391 237.565 C 210.341 237.593,219.458 237.712,219.650 237.831 C 219.843 237.950,219.997 240.242,219.994 242.924 C 219.991 245.606,220.168 252.390,220.389 258.000 C 221.476 285.692,221.732 295.094,221.957 315.400 C 222.169 334.581,222.277 337.400,222.800 337.400 C 223.237 337.400,223.434 336.856,223.524 335.400 C 223.592 334.300,223.817 333.229,224.024 333.020 C 224.231 332.811,224.400 329.382,224.400 325.400 C 224.400 321.326,224.567 317.993,224.783 317.777 C 224.993 317.567,225.262 313.976,225.381 309.797 C 225.956 289.570,226.058 287.412,226.465 286.922 C 226.737 286.594,226.795 285.485,226.624 283.885 C 226.304 280.901,227.173 279.476,228.721 280.444 C 229.983 281.232,230.343 283.285,230.604 291.200 C 230.738 295.270,231.030 303.010,231.252 308.400 C 231.474 313.790,231.734 325.611,231.829 334.669 C 231.923 343.726,232.087 351.376,232.192 351.669 C 232.297 351.961,232.432 353.550,232.492 355.200 C 232.577 357.552,232.730 358.200,233.200 358.200 C 233.866 358.200,234.226 352.591,234.625 336.004 C 234.738 331.277,235.004 327.236,235.216 327.024 C 235.438 326.802,235.600 322.920,235.600 317.800 C 235.600 312.676,235.762 308.798,235.985 308.575 C 236.202 308.358,236.393 304.575,236.425 299.855 C 236.477 292.166,236.541 291.459,237.261 290.739 C 238.679 289.321,240.495 290.519,240.981 293.193 C 241.457 295.806,242.108 323.261,242.216 345.200 C 242.274 357.190,242.428 367.270,242.557 367.600 C 242.685 367.930,242.838 370.540,242.895 373.400 C 242.982 377.709,243.103 378.600,243.600 378.600 C 244.116 378.600,244.215 377.110,244.307 368.013 C 244.370 361.763,244.575 357.265,244.807 357.033 C 245.052 356.788,245.200 350.348,245.200 339.944 C 245.200 329.244,245.344 323.158,245.600 323.000 C 245.856 322.842,246.000 316.804,246.000 306.200 C 246.000 296.083,246.149 289.555,246.383 289.410 C 246.617 289.266,246.776 282.738,246.791 272.699 C 246.807 262.513,246.966 256.074,247.208 255.832 C 247.799 255.241,247.722 238.584,247.124 237.627 C 246.295 236.300,247.290 235.692,250.722 235.425 C 260.638 234.656,275.957 232.625,288.600 230.403 C 292.630 229.694,299.746 228.174,303.500 227.218 C 304.325 227.008,305.720 226.660,306.600 226.445 C 316.372 224.053,324.573 220.903,332.077 216.661 C 333.109 216.078,334.239 215.600,334.588 215.600 C 335.398 215.600,338.800 212.217,338.800 211.411 C 338.800 211.075,338.980 210.800,339.200 210.800 C 339.433 210.800,339.600 209.467,339.600 207.600 C 339.600 205.733,339.433 204.400,339.200 204.400 C 338.980 204.400,338.800 204.132,338.800 203.805 C 338.800 202.275,333.331 197.363,330.700 196.529 C 330.315 196.407,330.000 196.148,330.000 195.953 C 330.000 195.759,329.640 195.600,329.200 195.600 C 328.760 195.600,328.400 195.420,328.400 195.200 C 328.400 194.980,328.040 194.800,327.600 194.800 C 327.160 194.800,326.800 194.620,326.800 194.400 C 326.800 194.180,326.260 194.000,325.600 194.000 C 324.940 194.000,324.400 193.820,324.400 193.600 C 324.400 193.380,324.040 193.200,323.600 193.200 C 323.160 193.200,322.800 193.020,322.800 192.800 C 322.800 192.580,322.271 192.400,321.624 192.400 C 320.977 192.400,320.336 192.220,320.200 192.000 C 320.064 191.780,319.524 191.600,319.000 191.600 C 318.476 191.600,317.936 191.420,317.800 191.200 C 317.664 190.980,316.944 190.800,316.200 190.800 C 315.456 190.800,314.736 190.620,314.600 190.400 C 314.464 190.180,313.733 190.000,312.976 190.000 C 312.219 190.000,311.600 189.820,311.600 189.600 C 311.600 189.380,310.891 189.200,310.024 189.200 C 309.157 189.200,308.336 189.020,308.200 188.800 C 308.064 188.580,307.153 188.400,306.176 188.400 C 305.199 188.400,304.400 188.220,304.400 188.000 C 304.400 187.778,303.333 187.600,302.000 187.600 C 300.667 187.600,299.600 187.422,299.600 187.200 C 299.600 186.971,298.400 186.800,296.800 186.800 C 295.200 186.800,294.000 186.629,294.000 186.400 C 294.000 186.167,292.675 186.000,290.824 186.000 C 289.077 186.000,287.536 185.820,287.400 185.600 C 287.257 185.368,285.070 185.200,282.200 185.200 C 279.330 185.200,277.143 185.032,277.000 184.800 C 276.843 184.546,271.596 184.400,262.576 184.400 L 248.400 184.400 248.400 166.000 C 248.400 154.000,248.261 147.600,248.000 147.600 C 247.780 147.600,247.600 147.060,247.600 146.400 C 247.600 145.740,247.420 145.200,247.200 145.200 C 246.980 145.200,246.800 144.880,246.800 144.488 C 246.800 144.097,246.440 143.517,246.000 143.200 C 245.560 142.883,245.200 142.402,245.200 142.132 C 245.200 141.862,244.525 141.137,243.700 140.520 C 242.876 139.904,241.852 139.085,241.425 138.700 C 240.998 138.315,240.413 138.000,240.125 138.000 C 239.836 138.000,239.600 137.820,239.600 137.600 C 239.600 137.380,239.238 137.200,238.795 137.200 C 238.352 137.200,237.632 137.020,237.195 136.800 C 236.758 136.580,236.042 136.220,235.605 136.000 C 235.168 135.780,234.189 135.600,233.429 135.600 C 232.669 135.600,231.936 135.420,231.800 135.200 C 231.664 134.980,230.138 134.800,228.410 134.800 C 226.372 134.800,225.212 134.636,225.111 134.334 C 224.993 133.980,224.626 133.983,223.587 134.345 C 221.582 135.044,214.992 135.460,215.360 134.864 C 215.518 134.609,215.988 134.400,216.405 134.400 C 216.821 134.400,217.576 134.240,218.081 134.044 C 218.587 133.848,220.350 133.275,222.000 132.772 C 223.650 132.268,225.171 131.708,225.380 131.528 C 225.589 131.348,226.039 131.197,226.380 131.193 C 227.359 131.181,237.485 126.026,238.686 124.928 C 238.970 124.668,240.012 124.051,241.001 123.557 C 241.990 123.063,242.800 122.510,242.800 122.329 C 242.800 122.148,243.070 122.000,243.400 122.000 C 243.730 122.000,244.000 121.820,244.000 121.600 C 244.000 121.380,244.207 121.200,244.459 121.200 C 245.102 121.200,250.800 115.226,250.800 114.552 C 250.800 114.248,250.980 114.000,251.200 114.000 C 251.420 114.000,251.600 113.764,251.600 113.475 C 251.600 113.187,251.960 112.564,252.400 112.092 C 252.840 111.620,253.200 110.956,253.200 110.617 C 253.200 110.278,253.380 110.000,253.600 110.000 C 253.820 110.000,254.000 109.651,254.000 109.224 C 254.000 108.797,254.180 108.336,254.400 108.200 C 254.620 108.064,254.800 107.524,254.800 107.000 C 254.800 106.476,254.980 105.936,255.200 105.800 C 255.420 105.664,255.600 104.933,255.600 104.176 C 255.600 103.419,255.780 102.800,256.000 102.800 C 256.232 102.800,256.400 101.493,256.400 99.680 C 256.400 97.922,256.594 96.366,256.845 96.115 C 257.125 95.835,257.191 95.024,257.023 93.935 C 256.876 92.981,256.661 91.030,256.545 89.600 C 256.430 88.170,256.170 86.829,255.968 86.620 C 255.765 86.411,255.600 85.747,255.600 85.144 C 255.600 84.541,255.420 83.936,255.200 83.800 C 254.980 83.664,254.800 83.203,254.800 82.776 C 254.800 82.349,254.620 82.000,254.400 82.000 C 254.180 82.000,254.000 81.640,254.000 81.200 C 254.000 80.760,253.820 80.400,253.600 80.400 C 253.380 80.400,253.200 80.133,253.200 79.807 C 253.200 78.564,245.392 70.800,244.141 70.800 C 243.880 70.800,243.607 70.665,243.533 70.500 C 243.366 70.124,241.236 68.825,240.300 68.529 C 239.915 68.407,239.600 68.148,239.600 67.953 C 239.600 67.759,239.161 67.600,238.624 67.600 C 238.087 67.600,237.536 67.420,237.400 67.200 C 237.264 66.980,236.803 66.800,236.376 66.800 C 235.949 66.800,235.600 66.620,235.600 66.400 C 235.600 66.180,235.060 66.000,234.400 66.000 C 233.740 66.000,233.200 65.820,233.200 65.600 C 233.200 65.380,232.660 65.200,232.000 65.200 C 231.340 65.200,230.800 65.020,230.800 64.800 C 230.800 64.580,230.181 64.400,229.424 64.400 C 228.667 64.400,227.936 64.220,227.800 64.000 C 227.664 63.780,226.944 63.600,226.200 63.600 C 225.456 63.600,224.736 63.420,224.600 63.200 C 224.464 62.980,223.384 62.800,222.200 62.800 C 221.016 62.800,219.936 62.620,219.800 62.400 C 219.664 62.180,218.314 62.000,216.800 62.000 C 215.286 62.000,213.936 61.820,213.800 61.600 C 213.642 61.345,207.996 61.200,198.176 61.200 C 188.192 61.200,182.800 61.340,182.800 61.600 C 182.800 61.822,181.733 62.000,180.400 62.000 L 178.000 62.000 178.000 59.824 C 178.000 58.627,177.820 57.536,177.600 57.400 C 177.380 57.264,177.200 56.094,177.200 54.800 C 177.200 53.506,177.020 52.336,176.800 52.200 C 176.580 52.064,176.400 51.164,176.400 50.200 C 176.400 49.236,176.220 48.336,176.000 48.200 C 175.780 48.064,175.600 46.973,175.600 45.776 C 175.600 44.579,175.420 43.600,175.200 43.600 C 174.980 43.600,174.800 42.700,174.800 41.600 C 174.800 40.500,174.620 39.600,174.400 39.600 C 174.180 39.600,174.000 38.981,174.000 38.224 C 174.000 37.467,173.820 36.736,173.600 36.600 C 173.380 36.464,173.200 35.744,173.200 35.000 C 173.200 34.256,173.020 33.536,172.800 33.400 C 172.580 33.264,172.400 32.544,172.400 31.800 C 172.400 31.056,172.220 30.336,172.000 30.200 C 171.780 30.064,171.600 29.344,171.600 28.600 C 171.600 27.856,171.420 27.136,171.200 27.000 C 170.980 26.864,170.800 26.234,170.800 25.600 C 170.800 24.966,170.620 24.336,170.400 24.200 C 170.180 24.064,170.000 23.434,170.000 22.800 C 170.000 22.166,169.820 21.536,169.600 21.400 C 169.380 21.264,169.200 20.724,169.200 20.200 C 169.200 19.676,169.020 19.136,168.800 19.000 C 168.580 18.864,168.394 18.358,168.387 17.876 C 168.356 15.735,166.519 14.919,165.700 16.683 M188.200 78.026 C 192.633 78.580,198.600 79.701,202.400 80.694 C 206.626 81.799,207.014 81.910,209.000 82.581 C 216.996 85.283,222.955 89.579,225.293 94.328 C 229.247 102.360,224.830 119.237,217.915 122.519 C 217.181 122.867,216.045 123.613,215.390 124.175 C 214.736 124.738,214.015 125.199,213.788 125.200 C 213.562 125.200,213.117 125.560,212.800 126.000 C 212.483 126.440,211.903 126.800,211.512 126.800 C 211.120 126.800,210.800 126.980,210.800 127.200 C 210.800 127.420,210.564 127.600,210.275 127.600 C 209.987 127.600,209.364 127.960,208.892 128.400 C 208.420 128.840,207.843 129.200,207.611 129.200 C 207.379 129.200,206.877 129.360,206.495 129.556 C 206.113 129.752,204.900 130.312,203.800 130.800 C 202.700 131.288,201.487 131.848,201.105 132.044 C 200.723 132.240,200.059 132.400,199.629 132.400 C 199.199 132.400,198.736 132.580,198.600 132.800 C 198.464 133.020,197.924 133.200,197.400 133.200 C 196.876 133.200,196.336 133.380,196.200 133.600 C 196.064 133.820,195.434 134.000,194.800 134.000 C 194.166 134.000,193.536 134.180,193.400 134.400 C 193.264 134.620,192.443 134.800,191.576 134.800 C 190.709 134.800,190.000 134.980,190.000 135.200 C 190.000 135.420,189.201 135.600,188.224 135.600 C 187.247 135.600,186.336 135.780,186.200 136.000 C 186.064 136.220,185.063 136.400,183.976 136.400 L 182.000 136.400 182.000 120.224 C 182.000 109.871,181.856 103.958,181.600 103.800 C 181.356 103.649,181.200 100.537,181.200 95.800 C 181.200 91.063,181.044 87.951,180.800 87.800 C 180.580 87.664,180.394 85.988,180.387 84.076 C 180.378 81.655,180.196 80.364,179.787 79.824 C 179.222 79.077,178.995 77.539,179.391 77.143 C 179.495 77.038,180.800 77.104,182.291 77.289 C 183.781 77.474,186.440 77.806,188.200 78.026 M188.800 141.225 C 205.787 143.839,216.152 148.271,219.216 154.232 L 220.200 156.146 220.059 190.173 C 219.981 208.888,219.801 224.290,219.659 224.400 C 219.516 224.510,210.625 224.545,199.900 224.479 L 180.400 224.358 180.400 206.602 C 180.400 195.197,180.543 188.759,180.800 188.600 C 181.056 188.442,181.200 182.537,181.200 172.200 C 181.200 161.863,181.344 155.958,181.600 155.800 C 181.838 155.653,182.000 153.137,182.000 149.600 C 182.000 146.063,181.838 143.547,181.600 143.400 C 181.380 143.264,181.200 142.516,181.200 141.737 L 181.200 140.321 183.700 140.573 C 185.075 140.712,187.370 141.005,188.800 141.225 M261.600 187.628 C 263.030 187.839,265.460 188.196,267.000 188.420 C 274.520 189.515,275.348 189.659,284.400 191.433 C 291.197 192.766,291.935 192.932,295.600 193.966 C 297.250 194.431,299.099 194.922,299.708 195.057 C 300.318 195.193,300.914 195.460,301.032 195.652 C 301.150 195.843,301.501 196.000,301.812 196.000 C 303.940 196.000,309.722 199.790,310.689 201.818 C 311.778 204.100,309.629 208.400,307.401 208.400 C 306.933 208.400,306.164 208.760,305.692 209.200 C 305.220 209.640,304.556 210.000,304.217 210.000 C 303.878 210.000,303.600 210.180,303.600 210.400 C 303.600 210.620,303.240 210.800,302.800 210.800 C 302.360 210.800,302.000 210.980,302.000 211.200 C 302.000 211.420,301.640 211.600,301.200 211.600 C 300.760 211.600,300.400 211.780,300.400 212.000 C 300.400 212.220,300.040 212.400,299.600 212.400 C 299.160 212.400,298.800 212.580,298.800 212.800 C 298.800 213.020,298.260 213.200,297.600 213.200 C 296.940 213.200,296.400 213.380,296.400 213.600 C 296.400 213.820,295.860 214.000,295.200 214.000 C 294.540 214.000,294.000 214.180,294.000 214.400 C 294.000 214.620,293.460 214.800,292.800 214.800 C 292.140 214.800,291.600 214.980,291.600 215.200 C 291.600 215.420,290.981 215.600,290.224 215.600 C 289.467 215.600,288.736 215.780,288.600 216.000 C 288.464 216.220,287.744 216.400,287.000 216.400 C 286.256 216.400,285.536 216.580,285.400 216.800 C 285.264 217.020,284.544 217.200,283.800 217.200 C 283.056 217.200,282.336 217.380,282.200 217.600 C 282.064 217.820,281.063 218.000,279.976 218.000 C 278.889 218.000,278.000 218.180,278.000 218.400 C 278.000 218.620,277.111 218.800,276.024 218.800 C 274.937 218.800,273.936 218.980,273.800 219.200 C 273.664 219.420,272.494 219.600,271.200 219.600 C 269.906 219.600,268.736 219.780,268.600 220.000 C 268.464 220.220,267.294 220.400,266.000 220.400 C 264.706 220.400,263.536 220.580,263.400 220.800 C 263.264 221.020,261.633 221.200,259.776 221.200 C 257.792 221.200,256.400 221.365,256.400 221.600 C 256.400 221.837,254.941 222.000,252.824 222.000 C 250.857 222.000,249.136 222.180,249.000 222.400 C 247.850 224.261,247.568 222.716,247.775 215.700 C 248.399 194.598,248.436 189.852,247.984 188.762 C 247.174 186.806,247.590 186.672,253.555 186.971 C 256.550 187.121,260.170 187.417,261.600 187.628 " stroke="none" fill="#cc1444" fill-rule="evenodd"></path></g></svg>