<svg id="svg" version="1.1" xmlns="http://www.w3.org/2000/svg" xmlns:xlink="http://www.w3.org/1999/xlink" width="400" height="400" viewBox="0, 0, 400,400"><g id="svgg"><path id="path0" d="M187.600 34.215 C 180.508 34.674,175.815 35.150,172.000 35.799 C 171.230 35.930,169.520 36.221,168.200 36.445 C 158.862 38.034,146.306 41.572,137.382 45.128 C 123.006 50.857,111.501 57.209,98.800 66.429 C 96.930 67.787,95.310 69.012,95.200 69.151 C 95.090 69.290,94.341 69.896,93.535 70.496 C 92.729 71.097,91.824 71.816,91.525 72.094 C 91.226 72.372,89.635 73.754,87.990 75.163 C 65.193 94.706,46.119 124.490,38.015 153.200 C 37.736 154.190,37.369 155.450,37.200 156.000 C 35.487 161.577,33.400 172.083,32.432 180.000 C 30.008 199.841,31.129 218.677,36.001 240.000 C 49.947 301.038,102.687 351.239,165.800 363.549 C 170.985 364.561,174.976 365.141,182.627 365.995 C 187.321 366.519,207.879 366.519,212.573 365.995 C 222.072 364.934,225.775 364.335,235.000 362.363 C 236.428 362.058,240.912 360.915,244.200 360.017 C 298.873 345.093,346.558 295.327,359.199 240.000 C 362.464 225.713,363.489 217.678,363.871 203.400 C 364.291 187.661,361.971 168.925,358.000 156.000 C 357.831 155.450,357.464 154.190,357.185 153.200 C 349.081 124.490,330.007 94.706,307.210 75.163 C 305.565 73.754,303.974 72.372,303.675 72.094 C 303.376 71.816,302.471 71.097,301.665 70.496 C 300.859 69.896,300.110 69.290,300.000 69.151 C 299.730 68.808,293.660 64.411,290.200 62.051 C 283.532 57.504,271.063 50.650,264.000 47.649 C 255.570 44.069,248.937 41.751,241.200 39.682 C 233.494 37.622,229.328 36.745,222.000 35.639 C 215.532 34.663,199.452 33.427,196.187 33.655 C 195.754 33.685,191.890 33.937,187.600 34.215 M190.400 69.800 L 190.400 91.200 197.600 91.200 L 204.800 91.200 204.800 69.762 L 204.800 48.323 209.100 48.580 C 211.465 48.721,214.660 49.017,216.200 49.237 C 225.441 50.557,226.838 50.809,233.900 52.438 C 234.945 52.679,236.250 53.018,236.800 53.192 C 237.350 53.365,238.610 53.736,239.600 54.015 C 251.876 57.480,265.920 63.617,276.400 70.095 C 281.924 73.509,291.956 80.656,294.608 83.066 C 295.052 83.470,296.602 84.828,298.053 86.085 C 301.091 88.718,308.400 95.871,308.400 96.210 C 308.400 96.336,306.903 98.455,305.073 100.920 C 293.077 117.074,284.450 134.106,279.197 152.000 C 278.713 153.650,278.170 155.450,277.990 156.000 C 277.445 157.668,275.454 166.209,275.006 168.800 C 273.589 176.989,273.144 180.416,272.406 188.823 C 271.464 199.552,272.202 215.070,274.222 227.000 C 275.352 233.679,275.332 233.581,276.814 239.800 C 281.811 260.776,292.037 282.390,305.070 299.526 C 309.052 304.761,309.162 303.846,303.942 308.899 C 286.303 325.973,264.992 338.781,243.200 345.405 C 234.973 347.906,226.205 349.876,219.200 350.799 C 217.330 351.045,214.595 351.416,213.123 351.623 C 211.651 351.830,209.177 352.000,207.626 352.000 L 204.807 352.000 204.703 330.500 L 204.600 309.000 197.600 309.000 L 190.600 309.000 190.497 330.500 L 190.393 352.000 187.574 352.000 C 186.023 352.000,183.549 351.830,182.077 351.623 C 180.605 351.416,177.870 351.045,176.000 350.799 C 169.942 350.001,163.496 348.626,155.400 346.403 C 136.398 341.187,116.019 330.315,100.000 316.848 C 95.874 313.380,88.934 306.851,87.820 305.391 L 86.801 304.055 89.724 300.128 C 103.650 281.411,113.323 261.051,118.386 239.800 C 119.868 233.581,119.848 233.679,120.978 227.000 C 123.884 209.836,123.884 190.564,120.978 173.400 C 119.851 166.740,119.880 166.886,118.390 160.600 C 117.921 158.620,117.390 156.550,117.210 156.000 C 117.030 155.450,116.487 153.650,116.003 152.000 C 110.763 134.148,102.129 117.091,90.135 100.897 C 88.301 98.420,86.800 96.301,86.800 96.188 C 86.800 95.866,94.213 88.628,97.147 86.085 C 98.598 84.828,100.148 83.470,100.592 83.066 C 103.244 80.656,113.276 73.509,118.800 70.095 C 129.280 63.617,143.324 57.480,155.600 54.015 C 156.590 53.736,157.850 53.365,158.400 53.192 C 158.950 53.018,160.210 52.692,161.200 52.466 C 162.190 52.241,163.810 51.870,164.800 51.642 C 168.183 50.864,174.117 49.863,179.200 49.213 C 182.522 48.788,184.655 48.618,188.500 48.472 L 190.400 48.400 190.400 69.800 M78.102 108.700 C 79.816 110.615,85.647 119.271,88.081 123.512 C 100.055 144.377,106.063 163.330,108.443 187.744 C 108.829 191.713,108.815 192.545,108.352 192.838 C 107.621 193.301,46.769 193.295,46.036 192.831 C 44.946 192.140,46.857 177.145,49.608 164.800 C 51.050 158.333,55.057 146.336,57.891 140.000 C 59.651 136.064,63.359 128.566,64.651 126.332 C 70.109 116.885,76.195 108.000,77.208 108.000 C 77.355 108.000,77.758 108.315,78.102 108.700 M142.423 108.634 C 138.590 109.671,136.912 111.555,136.000 115.844 C 135.717 117.172,135.619 144.722,135.692 201.600 C 135.812 294.533,135.586 286.870,138.289 289.693 C 140.840 292.356,137.147 292.200,197.800 292.200 L 252.600 292.200 254.472 291.335 C 259.613 288.959,259.600 289.054,259.600 253.380 L 259.600 223.600 250.000 223.600 L 240.400 223.600 240.400 249.151 C 240.400 270.188,240.304 274.782,239.857 275.153 C 239.460 275.482,227.976 275.576,197.157 275.502 L 155.000 275.400 155.000 200.200 L 155.000 125.000 197.375 124.898 C 231.011 124.817,239.816 124.900,240.069 125.298 C 240.244 125.574,240.391 137.275,240.394 151.300 L 240.400 176.800 250.012 176.800 L 259.624 176.800 259.500 146.100 C 259.364 112.197,259.461 113.461,256.800 110.800 C 254.048 108.048,257.842 108.221,198.400 108.129 C 152.097 108.057,144.297 108.127,142.423 108.634 M320.126 110.230 C 330.118 123.127,339.651 142.772,344.448 160.353 C 347.555 171.739,350.495 191.988,349.164 192.831 C 348.431 193.295,287.579 193.301,286.848 192.838 C 286.385 192.545,286.371 191.713,286.757 187.744 C 289.137 163.330,295.145 144.377,307.119 123.512 C 309.559 119.259,315.385 110.613,317.106 108.690 C 317.962 107.734,318.343 107.928,320.126 110.230 M108.621 207.633 C 109.185 208.546,107.571 221.861,105.813 230.800 C 101.639 252.028,91.143 275.041,77.857 292.100 C 77.096 293.077,77.133 293.103,74.921 290.100 C 62.748 273.579,53.515 253.353,49.175 233.700 C 48.213 229.341,48.032 228.407,47.606 225.600 C 47.355 223.950,46.992 221.610,46.799 220.400 C 46.164 216.409,45.495 208.093,45.774 207.642 C 46.157 207.022,108.237 207.013,108.621 207.633 M349.359 209.600 C 349.246 215.721,347.609 227.020,345.592 235.600 C 342.567 248.472,336.448 264.024,330.089 275.000 C 326.087 281.910,318.745 292.800,318.089 292.800 C 317.839 292.800,317.487 292.348,313.951 287.486 C 307.940 279.222,301.022 266.446,296.793 255.800 C 293.206 246.770,290.179 235.854,288.419 225.600 C 287.287 219.006,286.188 208.266,286.581 207.631 C 286.772 207.321,295.896 207.225,318.125 207.298 L 349.400 207.400 349.359 209.600 " stroke="none" fill="#053551" fill-rule="evenodd"></path><path id="path1" d="M160.674 130.660 C 160.336 130.997,160.305 268.088,160.643 268.967 C 160.862 269.538,164.493 269.600,197.635 269.600 L 234.385 269.600 234.605 268.700 C 234.727 268.205,234.775 263.930,234.713 259.200 L 234.600 250.600 207.600 250.400 L 180.600 250.200 180.400 190.400 L 180.200 130.600 170.574 130.493 C 165.279 130.434,160.824 130.509,160.674 130.660 M186.675 130.697 C 186.578 130.864,186.432 156.560,186.349 187.800 L 186.200 244.600 195.800 244.600 L 205.400 244.600 205.600 227.000 L 205.800 209.400 210.166 209.286 C 212.920 209.214,214.692 209.332,214.965 209.605 C 215.264 209.904,215.399 215.435,215.400 227.320 L 215.400 244.600 225.000 244.600 L 234.600 244.600 234.600 187.600 L 234.600 130.600 210.726 130.497 C 197.595 130.440,186.772 130.530,186.675 130.697 M215.104 169.900 L 215.000 190.200 210.400 190.200 L 205.800 190.200 205.696 169.900 L 205.593 149.600 210.400 149.600 L 215.207 149.600 215.104 169.900 " stroke="none" fill="#ec144c" fill-rule="evenodd"></path><path id="path2" d="M183.000 18.400 C 182.864 18.621,181.070 18.800,179.000 18.800 C 176.930 18.800,175.136 18.979,175.000 19.200 C 174.864 19.420,173.503 19.600,171.976 19.600 C 170.392 19.600,169.200 19.772,169.200 20.000 C 169.200 20.222,168.133 20.400,166.800 20.400 C 165.467 20.400,164.400 20.578,164.400 20.800 C 164.400 21.020,163.500 21.200,162.400 21.200 C 161.300 21.200,160.400 21.380,160.400 21.600 C 160.400 21.820,159.500 22.000,158.400 22.000 C 157.300 22.000,156.400 22.180,156.400 22.400 C 156.400 22.620,155.680 22.800,154.800 22.800 C 153.920 22.800,153.200 22.980,153.200 23.200 C 153.200 23.420,152.480 23.600,151.600 23.600 C 150.720 23.600,150.000 23.780,150.000 24.000 C 150.000 24.220,149.381 24.400,148.624 24.400 C 147.867 24.400,147.136 24.580,147.000 24.800 C 146.864 25.020,146.223 25.200,145.576 25.200 C 144.929 25.200,144.400 25.380,144.400 25.600 C 144.400 25.820,143.860 26.000,143.200 26.000 C 142.540 26.000,142.000 26.180,142.000 26.400 C 142.000 26.620,141.460 26.800,140.800 26.800 C 140.140 26.800,139.600 26.980,139.600 27.200 C 139.600 27.420,139.060 27.600,138.400 27.600 C 137.740 27.600,137.200 27.780,137.200 28.000 C 137.200 28.220,136.660 28.400,136.000 28.400 C 135.340 28.400,134.800 28.580,134.800 28.800 C 134.800 29.020,134.361 29.200,133.824 29.200 C 133.287 29.200,132.736 29.380,132.600 29.600 C 132.464 29.820,132.003 30.000,131.576 30.000 C 131.149 30.000,130.800 30.180,130.800 30.400 C 130.800 30.620,130.260 30.800,129.600 30.800 C 128.940 30.800,128.400 30.980,128.400 31.200 C 128.400 31.420,128.040 31.600,127.600 31.600 C 127.160 31.600,126.800 31.780,126.800 32.000 C 126.800 32.220,126.361 32.400,125.824 32.400 C 125.287 32.400,124.736 32.580,124.600 32.800 C 124.464 33.020,124.003 33.200,123.576 33.200 C 123.149 33.200,122.800 33.380,122.800 33.600 C 122.800 33.820,122.440 34.000,122.000 34.000 C 121.560 34.000,121.200 34.180,121.200 34.400 C 121.200 34.620,120.840 34.800,120.400 34.800 C 119.960 34.800,119.600 34.980,119.600 35.200 C 119.600 35.420,119.240 35.600,118.800 35.600 C 118.360 35.600,118.000 35.780,118.000 36.000 C 118.000 36.220,117.640 36.400,117.200 36.400 C 116.760 36.400,116.400 36.580,116.400 36.800 C 116.400 37.020,116.040 37.200,115.600 37.200 C 115.160 37.200,114.800 37.380,114.800 37.600 C 114.800 37.820,114.440 38.000,114.000 38.000 C 113.560 38.000,113.200 38.180,113.200 38.400 C 113.200 38.620,112.840 38.800,112.400 38.800 C 111.960 38.800,111.600 38.980,111.600 39.200 C 111.600 39.420,111.240 39.600,110.800 39.600 C 110.360 39.600,110.000 39.780,110.000 40.000 C 110.000 40.220,109.640 40.400,109.200 40.400 C 108.760 40.400,108.400 40.580,108.400 40.800 C 108.400 41.020,108.164 41.200,107.875 41.200 C 107.587 41.200,106.964 41.560,106.492 42.000 C 106.020 42.440,105.356 42.800,105.017 42.800 C 104.678 42.800,104.400 42.980,104.400 43.200 C 104.400 43.420,104.164 43.600,103.875 43.600 C 103.587 43.600,102.964 43.960,102.492 44.400 C 102.020 44.840,101.438 45.200,101.200 45.200 C 100.962 45.200,100.380 45.560,99.908 46.000 C 99.436 46.440,98.813 46.800,98.525 46.800 C 98.236 46.800,98.000 46.980,98.000 47.200 C 98.000 47.420,97.764 47.600,97.475 47.600 C 97.187 47.600,96.564 47.960,96.092 48.400 C 95.620 48.840,95.091 49.200,94.917 49.201 C 94.743 49.201,93.970 49.741,93.200 50.400 C 92.430 51.059,91.615 51.599,91.388 51.599 C 91.162 51.600,90.717 51.960,90.400 52.400 C 90.083 52.840,89.631 53.200,89.396 53.200 C 89.160 53.200,88.172 53.920,87.200 54.800 C 86.228 55.680,85.290 56.400,85.116 56.400 C 84.943 56.400,84.059 57.120,83.152 58.000 C 82.245 58.880,81.334 59.600,81.126 59.600 C 80.918 59.600,79.905 60.460,78.874 61.511 C 77.843 62.562,76.370 63.866,75.600 64.409 C 73.804 65.674,63.307 76.162,62.006 77.990 C 61.462 78.755,59.978 80.436,58.708 81.725 C 57.439 83.015,56.400 84.234,56.400 84.434 C 56.400 84.635,55.680 85.541,54.800 86.448 C 53.920 87.355,53.200 88.256,53.200 88.452 C 53.200 88.647,52.660 89.372,52.000 90.063 C 51.340 90.754,50.800 91.474,50.800 91.663 C 50.800 91.852,50.260 92.572,49.600 93.263 C 48.940 93.954,48.400 94.762,48.400 95.059 C 48.400 95.357,48.250 95.600,48.068 95.600 C 47.885 95.600,47.481 96.095,47.170 96.700 C 46.860 97.305,46.289 98.091,45.903 98.447 C 45.516 98.803,45.200 99.305,45.200 99.564 C 45.200 99.822,44.840 100.420,44.400 100.892 C 43.960 101.364,43.600 101.987,43.600 102.275 C 43.600 102.564,43.420 102.800,43.200 102.800 C 42.980 102.800,42.800 103.036,42.800 103.325 C 42.800 103.613,42.440 104.236,42.000 104.708 C 41.560 105.180,41.200 105.844,41.200 106.183 C 41.200 106.522,41.020 106.800,40.800 106.800 C 40.580 106.800,40.400 107.036,40.400 107.325 C 40.400 107.613,40.040 108.236,39.600 108.708 C 39.160 109.180,38.800 109.844,38.800 110.183 C 38.800 110.522,38.620 110.800,38.400 110.800 C 38.180 110.800,38.000 111.160,38.000 111.600 C 38.000 112.040,37.820 112.400,37.600 112.400 C 37.380 112.400,37.200 112.760,37.200 113.200 C 37.200 113.640,37.065 114.001,36.900 114.003 C 36.735 114.005,36.399 114.410,36.154 114.903 C 35.288 116.646,33.104 121.009,32.754 121.695 C 32.559 122.077,32.400 122.662,32.400 122.995 C 32.400 123.328,32.220 123.600,32.000 123.600 C 31.780 123.600,31.600 123.960,31.600 124.400 C 31.600 124.840,31.420 125.200,31.200 125.200 C 30.980 125.200,30.800 125.560,30.800 126.000 C 30.800 126.440,30.620 126.800,30.400 126.800 C 30.180 126.800,30.000 127.149,30.000 127.576 C 30.000 128.003,29.820 128.464,29.600 128.600 C 29.380 128.736,29.200 129.287,29.200 129.824 C 29.200 130.361,29.020 130.800,28.800 130.800 C 28.580 130.800,28.400 131.160,28.400 131.600 C 28.400 132.040,28.220 132.400,28.000 132.400 C 27.780 132.400,27.600 132.940,27.600 133.600 C 27.600 134.260,27.420 134.800,27.200 134.800 C 26.980 134.800,26.800 135.149,26.800 135.576 C 26.800 136.003,26.620 136.464,26.400 136.600 C 26.180 136.736,26.000 137.276,26.000 137.800 C 26.000 138.324,25.820 138.864,25.600 139.000 C 25.380 139.136,25.200 139.687,25.200 140.224 C 25.200 140.761,25.020 141.200,24.800 141.200 C 24.580 141.200,24.400 141.740,24.400 142.400 C 24.400 143.060,24.220 143.600,24.000 143.600 C 23.780 143.600,23.600 144.129,23.600 144.776 C 23.600 145.423,23.420 146.064,23.200 146.200 C 22.980 146.336,22.800 147.067,22.800 147.824 C 22.800 148.581,22.620 149.200,22.400 149.200 C 22.180 149.200,22.000 149.729,22.000 150.376 C 22.000 151.023,21.820 151.664,21.600 151.800 C 21.380 151.936,21.200 152.667,21.200 153.424 C 21.200 154.181,21.020 154.800,20.800 154.800 C 20.580 154.800,20.400 155.520,20.400 156.400 C 20.400 157.280,20.220 158.000,20.000 158.000 C 19.780 158.000,19.600 158.900,19.600 160.000 C 19.600 161.100,19.420 162.000,19.200 162.000 C 18.980 162.000,18.800 162.900,18.800 164.000 C 18.800 165.100,18.620 166.000,18.400 166.000 C 18.180 166.000,18.000 166.889,18.000 167.976 C 18.000 169.063,17.820 170.064,17.600 170.200 C 17.380 170.336,17.200 171.596,17.200 173.000 C 17.200 174.404,17.020 175.664,16.800 175.800 C 16.580 175.936,16.400 177.556,16.400 179.400 C 16.400 181.244,16.220 182.864,16.000 183.000 C 15.744 183.159,15.600 189.330,15.600 200.200 C 15.600 211.070,15.744 217.241,16.000 217.400 C 16.220 217.536,16.400 219.156,16.400 221.000 C 16.400 222.844,16.580 224.464,16.800 224.600 C 17.020 224.736,17.200 226.007,17.200 227.424 C 17.200 228.875,17.375 230.000,17.600 230.000 C 17.822 230.000,18.000 231.067,18.000 232.400 C 18.000 233.733,18.178 234.800,18.400 234.800 C 18.620 234.800,18.800 235.700,18.800 236.800 C 18.800 237.900,18.980 238.800,19.200 238.800 C 19.420 238.800,19.600 239.509,19.600 240.376 C 19.600 241.243,19.780 242.064,20.000 242.200 C 20.220 242.336,20.400 243.056,20.400 243.800 C 20.400 244.544,20.580 245.264,20.800 245.400 C 21.020 245.536,21.200 246.267,21.200 247.024 C 21.200 247.781,21.380 248.400,21.600 248.400 C 21.820 248.400,22.000 249.120,22.000 250.000 C 22.000 250.880,22.180 251.600,22.400 251.600 C 22.620 251.600,22.800 252.140,22.800 252.800 C 22.800 253.460,22.980 254.000,23.200 254.000 C 23.420 254.000,23.600 254.529,23.600 255.176 C 23.600 255.823,23.780 256.464,24.000 256.600 C 24.220 256.736,24.400 257.276,24.400 257.800 C 24.400 258.324,24.580 258.864,24.800 259.000 C 25.020 259.136,25.200 259.687,25.200 260.224 C 25.200 260.761,25.380 261.200,25.600 261.200 C 25.820 261.200,26.000 261.740,26.000 262.400 C 26.000 263.060,26.180 263.600,26.400 263.600 C 26.620 263.600,26.800 264.039,26.800 264.576 C 26.800 265.113,26.980 265.664,27.200 265.800 C 27.420 265.936,27.600 266.397,27.600 266.824 C 27.600 267.251,27.780 267.600,28.000 267.600 C 28.220 267.600,28.400 268.140,28.400 268.800 C 28.400 269.460,28.580 270.000,28.800 270.000 C 29.020 270.000,29.200 270.360,29.200 270.800 C 29.200 271.240,29.380 271.600,29.600 271.600 C 29.820 271.600,30.000 271.949,30.000 272.376 C 30.000 272.803,30.180 273.264,30.400 273.400 C 30.620 273.536,30.800 274.087,30.800 274.624 C 30.800 275.161,30.980 275.600,31.200 275.600 C 31.420 275.600,31.600 275.960,31.600 276.400 C 31.600 276.840,31.780 277.200,32.000 277.200 C 32.220 277.200,32.400 277.560,32.400 278.000 C 32.400 278.440,32.580 278.800,32.800 278.800 C 33.020 278.800,33.200 279.160,33.200 279.600 C 33.200 280.040,33.380 280.400,33.600 280.400 C 33.820 280.400,34.000 280.760,34.000 281.200 C 34.000 281.640,34.180 282.000,34.400 282.000 C 34.620 282.000,34.800 282.360,34.800 282.800 C 34.800 283.240,34.980 283.600,35.200 283.600 C 35.420 283.600,35.600 283.960,35.600 284.400 C 35.600 284.840,35.780 285.200,36.000 285.200 C 36.220 285.200,36.400 285.560,36.400 286.000 C 36.400 286.440,36.580 286.800,36.800 286.800 C 37.020 286.800,37.200 287.160,37.200 287.600 C 37.200 288.040,37.380 288.400,37.600 288.400 C 37.820 288.400,38.000 288.636,38.000 288.925 C 38.000 289.213,38.360 289.836,38.800 290.308 C 39.240 290.780,39.600 291.444,39.600 291.783 C 39.600 292.122,39.780 292.400,40.000 292.400 C 40.220 292.400,40.400 292.678,40.400 293.017 C 40.400 293.356,40.760 294.020,41.200 294.492 C 41.640 294.964,42.000 295.587,42.000 295.875 C 42.000 296.164,42.180 296.400,42.400 296.400 C 42.620 296.400,42.800 296.636,42.800 296.925 C 42.800 297.213,43.160 297.836,43.600 298.308 C 44.040 298.780,44.400 299.404,44.400 299.695 C 44.400 299.986,44.760 300.483,45.200 300.800 C 45.640 301.117,46.000 301.657,46.000 302.000 C 46.000 302.343,46.360 302.883,46.800 303.200 C 47.240 303.517,47.600 304.009,47.600 304.292 C 47.600 304.575,48.140 305.372,48.800 306.063 C 49.460 306.754,50.000 307.522,50.000 307.771 C 50.000 308.020,50.360 308.483,50.800 308.800 C 51.240 309.117,51.600 309.569,51.600 309.804 C 51.600 310.040,52.320 311.028,53.200 312.000 C 54.080 312.972,54.800 313.924,54.800 314.115 C 54.800 314.306,55.481 315.124,56.313 315.931 C 57.145 316.739,58.249 318.002,58.767 318.737 C 60.920 321.798,77.877 338.800,78.776 338.800 C 78.965 338.800,80.038 339.700,81.161 340.800 C 82.285 341.900,83.345 342.800,83.518 342.800 C 83.691 342.800,84.628 343.520,85.600 344.400 C 86.572 345.280,87.512 346.000,87.688 346.000 C 87.863 346.000,88.572 346.540,89.263 347.200 C 89.954 347.860,90.722 348.400,90.971 348.400 C 91.220 348.400,91.683 348.760,92.000 349.200 C 92.317 349.640,92.857 350.000,93.200 350.000 C 93.543 350.000,94.083 350.360,94.400 350.800 C 94.717 351.240,95.173 351.600,95.413 351.600 C 95.653 351.600,96.198 351.915,96.625 352.300 C 97.051 352.685,97.895 353.255,98.500 353.568 C 99.105 353.880,99.600 354.285,99.600 354.468 C 99.600 354.650,99.878 354.800,100.217 354.800 C 100.556 354.800,101.220 355.160,101.692 355.600 C 102.164 356.040,102.787 356.400,103.075 356.400 C 103.364 356.400,103.600 356.580,103.600 356.800 C 103.600 357.020,103.878 357.200,104.217 357.200 C 104.556 357.200,105.220 357.560,105.692 358.000 C 106.164 358.440,106.787 358.800,107.075 358.800 C 107.364 358.800,107.600 358.980,107.600 359.200 C 107.600 359.420,107.960 359.600,108.400 359.600 C 108.840 359.600,109.200 359.780,109.200 360.000 C 109.200 360.220,109.560 360.400,110.000 360.400 C 110.440 360.400,110.800 360.580,110.800 360.800 C 110.800 361.020,111.145 361.200,111.567 361.200 C 111.988 361.200,112.393 361.337,112.467 361.504 C 112.646 361.912,119.267 365.207,119.900 365.203 C 120.175 365.201,120.400 365.380,120.400 365.600 C 120.400 365.820,120.760 366.000,121.200 366.000 C 121.640 366.000,122.000 366.180,122.000 366.400 C 122.000 366.620,122.360 366.800,122.800 366.800 C 123.240 366.800,123.600 366.980,123.600 367.200 C 123.600 367.420,123.949 367.600,124.376 367.600 C 124.803 367.600,125.264 367.780,125.400 368.000 C 125.536 368.220,126.087 368.400,126.624 368.400 C 127.161 368.400,127.600 368.580,127.600 368.800 C 127.600 369.020,127.960 369.200,128.400 369.200 C 128.840 369.200,129.200 369.380,129.200 369.600 C 129.200 369.820,129.740 370.000,130.400 370.000 C 131.060 370.000,131.600 370.180,131.600 370.400 C 131.600 370.620,131.949 370.800,132.376 370.800 C 132.803 370.800,133.264 370.980,133.400 371.200 C 133.536 371.420,134.087 371.600,134.624 371.600 C 135.161 371.600,135.600 371.780,135.600 372.000 C 135.600 372.220,136.140 372.400,136.800 372.400 C 137.460 372.400,138.000 372.580,138.000 372.800 C 138.000 373.020,138.540 373.200,139.200 373.200 C 139.860 373.200,140.400 373.380,140.400 373.600 C 140.400 373.820,140.940 374.000,141.600 374.000 C 142.260 374.000,142.800 374.180,142.800 374.400 C 142.800 374.620,143.329 374.800,143.976 374.800 C 144.623 374.800,145.264 374.980,145.400 375.200 C 145.536 375.420,146.267 375.600,147.024 375.600 C 147.781 375.600,148.400 375.780,148.400 376.000 C 148.400 376.220,149.019 376.400,149.776 376.400 C 150.533 376.400,151.264 376.580,151.400 376.800 C 151.536 377.020,152.357 377.200,153.224 377.200 C 154.091 377.200,154.800 377.380,154.800 377.600 C 154.800 377.820,155.520 378.000,156.400 378.000 C 157.280 378.000,158.000 378.180,158.000 378.400 C 158.000 378.620,158.900 378.800,160.000 378.800 C 161.100 378.800,162.000 378.980,162.000 379.200 C 162.000 379.420,162.889 379.600,163.976 379.600 C 165.063 379.600,166.064 379.780,166.200 380.000 C 166.336 380.220,167.607 380.400,169.024 380.400 C 170.475 380.400,171.600 380.575,171.600 380.800 C 171.600 381.033,172.933 381.200,174.800 381.200 C 176.560 381.200,178.000 381.367,178.000 381.570 C 178.000 381.774,180.655 382.055,183.900 382.195 C 196.201 382.724,217.200 382.330,217.200 381.570 C 217.200 381.367,218.640 381.200,220.400 381.200 C 222.267 381.200,223.600 381.033,223.600 380.800 C 223.600 380.575,224.725 380.400,226.176 380.400 C 227.593 380.400,228.864 380.220,229.000 380.000 C 229.136 379.780,230.137 379.600,231.224 379.600 C 232.311 379.600,233.200 379.420,233.200 379.200 C 233.200 378.980,234.100 378.800,235.200 378.800 C 236.300 378.800,237.200 378.620,237.200 378.400 C 237.200 378.180,237.920 378.000,238.800 378.000 C 239.680 378.000,240.400 377.820,240.400 377.600 C 240.400 377.380,241.109 377.200,241.976 377.200 C 242.843 377.200,243.664 377.020,243.800 376.800 C 243.936 376.580,244.667 376.400,245.424 376.400 C 246.181 376.400,246.800 376.220,246.800 376.000 C 246.800 375.780,247.419 375.600,248.176 375.600 C 248.933 375.600,249.664 375.420,249.800 375.200 C 249.936 374.980,250.577 374.800,251.224 374.800 C 251.871 374.800,252.400 374.620,252.400 374.400 C 252.400 374.180,252.940 374.000,253.600 374.000 C 254.260 374.000,254.800 373.820,254.800 373.600 C 254.800 373.380,255.340 373.200,256.000 373.200 C 256.660 373.200,257.200 373.020,257.200 372.800 C 257.200 372.580,257.740 372.400,258.400 372.400 C 259.060 372.400,259.600 372.220,259.600 372.000 C 259.600 371.780,260.039 371.600,260.576 371.600 C 261.113 371.600,261.664 371.420,261.800 371.200 C 261.936 370.980,262.397 370.800,262.824 370.800 C 263.251 370.800,263.600 370.620,263.600 370.400 C 263.600 370.180,264.140 370.000,264.800 370.000 C 265.460 370.000,266.000 369.820,266.000 369.600 C 266.000 369.380,266.360 369.200,266.800 369.200 C 267.240 369.200,267.600 369.020,267.600 368.800 C 267.600 368.580,268.039 368.400,268.576 368.400 C 269.113 368.400,269.664 368.220,269.800 368.000 C 269.936 367.780,270.397 367.600,270.824 367.600 C 271.251 367.600,271.600 367.420,271.600 367.200 C 271.600 366.980,271.960 366.800,272.400 366.800 C 272.840 366.800,273.200 366.620,273.200 366.400 C 273.200 366.180,273.560 366.000,274.000 366.000 C 274.440 366.000,274.800 365.820,274.800 365.600 C 274.800 365.380,275.025 365.201,275.300 365.203 C 275.933 365.207,282.554 361.912,282.733 361.504 C 282.807 361.337,283.212 361.200,283.633 361.200 C 284.055 361.200,284.400 361.020,284.400 360.800 C 284.400 360.580,284.760 360.400,285.200 360.400 C 285.640 360.400,286.000 360.220,286.000 360.000 C 286.000 359.780,286.360 359.600,286.800 359.600 C 287.240 359.600,287.600 359.420,287.600 359.200 C 287.600 358.980,287.836 358.800,288.125 358.800 C 288.413 358.800,289.036 358.440,289.508 358.000 C 289.980 357.560,290.644 357.200,290.983 357.200 C 291.322 357.200,291.600 357.020,291.600 356.800 C 291.600 356.580,291.836 356.400,292.125 356.400 C 292.413 356.400,293.036 356.040,293.508 355.600 C 293.980 355.160,294.644 354.800,294.983 354.800 C 295.322 354.800,295.600 354.650,295.600 354.468 C 295.600 354.285,296.095 353.880,296.700 353.568 C 297.305 353.255,298.149 352.685,298.575 352.300 C 299.002 351.915,299.547 351.600,299.787 351.600 C 300.027 351.600,300.483 351.240,300.800 350.800 C 301.117 350.360,301.657 350.000,302.000 350.000 C 302.343 350.000,302.883 349.640,303.200 349.200 C 303.517 348.760,303.980 348.400,304.229 348.400 C 304.478 348.400,305.246 347.860,305.937 347.200 C 306.628 346.540,307.337 346.000,307.512 346.000 C 307.688 346.000,308.628 345.280,309.600 344.400 C 310.572 343.520,311.524 342.800,311.715 342.800 C 311.906 342.800,312.754 342.080,313.600 341.200 C 314.446 340.320,315.316 339.600,315.535 339.600 C 315.754 339.600,317.649 337.935,319.747 335.900 C 321.844 333.865,324.694 331.112,326.080 329.783 C 329.694 326.318,335.333 320.301,336.433 318.737 C 336.951 318.002,338.055 316.739,338.887 315.931 C 339.719 315.124,340.400 314.306,340.400 314.115 C 340.400 313.924,341.120 312.972,342.000 312.000 C 342.880 311.028,343.600 310.040,343.600 309.804 C 343.600 309.569,343.960 309.117,344.400 308.800 C 344.840 308.483,345.200 308.020,345.200 307.771 C 345.200 307.522,345.740 306.754,346.400 306.063 C 347.060 305.372,347.600 304.575,347.600 304.292 C 347.600 304.009,347.960 303.517,348.400 303.200 C 348.840 302.883,349.200 302.343,349.200 302.000 C 349.200 301.657,349.560 301.117,350.000 300.800 C 350.440 300.483,350.800 299.986,350.800 299.695 C 350.800 299.404,351.160 298.780,351.600 298.308 C 352.040 297.836,352.400 297.213,352.400 296.925 C 352.400 296.636,352.580 296.400,352.800 296.400 C 353.020 296.400,353.200 296.164,353.200 295.875 C 353.200 295.587,353.560 294.964,354.000 294.492 C 354.440 294.020,354.800 293.356,354.800 293.017 C 354.800 292.678,354.980 292.400,355.200 292.400 C 355.420 292.400,355.600 292.122,355.600 291.783 C 355.600 291.444,355.960 290.780,356.400 290.308 C 356.840 289.836,357.200 289.213,357.200 288.925 C 357.200 288.636,357.380 288.400,357.600 288.400 C 357.820 288.400,358.000 288.040,358.000 287.600 C 358.000 287.160,358.180 286.800,358.400 286.800 C 358.620 286.800,358.800 286.440,358.800 286.000 C 358.800 285.560,358.980 285.200,359.200 285.200 C 359.420 285.200,359.600 284.840,359.600 284.400 C 359.600 283.960,359.780 283.600,360.000 283.600 C 360.220 283.600,360.400 283.240,360.400 282.800 C 360.400 282.360,360.580 282.000,360.800 282.000 C 361.020 282.000,361.200 281.640,361.200 281.200 C 361.200 280.760,361.380 280.400,361.600 280.400 C 361.820 280.400,362.000 280.040,362.000 279.600 C 362.000 279.160,362.180 278.800,362.400 278.800 C 362.620 278.800,362.800 278.440,362.800 278.000 C 362.800 277.560,362.980 277.200,363.200 277.200 C 363.420 277.200,363.600 276.840,363.600 276.400 C 363.600 275.960,363.780 275.600,364.000 275.600 C 364.220 275.600,364.400 275.161,364.400 274.624 C 364.400 274.087,364.580 273.536,364.800 273.400 C 365.020 273.264,365.200 272.803,365.200 272.376 C 365.200 271.949,365.380 271.600,365.600 271.600 C 365.820 271.600,366.000 271.240,366.000 270.800 C 366.000 270.360,366.180 270.000,366.400 270.000 C 366.620 270.000,366.800 269.460,366.800 268.800 C 366.800 268.140,366.980 267.600,367.200 267.600 C 367.420 267.600,367.600 267.240,367.600 266.800 C 367.600 266.360,367.780 266.000,368.000 266.000 C 368.220 266.000,368.400 265.460,368.400 264.800 C 368.400 264.140,368.580 263.600,368.800 263.600 C 369.020 263.600,369.200 263.060,369.200 262.400 C 369.200 261.740,369.380 261.200,369.600 261.200 C 369.820 261.200,370.000 260.761,370.000 260.224 C 370.000 259.687,370.180 259.136,370.400 259.000 C 370.620 258.864,370.800 258.324,370.800 257.800 C 370.800 257.276,370.980 256.736,371.200 256.600 C 371.420 256.464,371.600 255.823,371.600 255.176 C 371.600 254.529,371.780 254.000,372.000 254.000 C 372.220 254.000,372.400 253.460,372.400 252.800 C 372.400 252.140,372.580 251.600,372.800 251.600 C 373.020 251.600,373.200 250.880,373.200 250.000 C 373.200 249.120,373.380 248.400,373.600 248.400 C 373.820 248.400,374.000 247.781,374.000 247.024 C 374.000 246.267,374.180 245.536,374.400 245.400 C 374.620 245.264,374.800 244.544,374.800 243.800 C 374.800 243.056,374.980 242.336,375.200 242.200 C 375.420 242.064,375.600 241.243,375.600 240.376 C 375.600 239.509,375.780 238.800,376.000 238.800 C 376.220 238.800,376.400 237.900,376.400 236.800 C 376.400 235.700,376.580 234.800,376.800 234.800 C 377.022 234.800,377.200 233.733,377.200 232.400 C 377.200 231.067,377.378 230.000,377.600 230.000 C 377.825 230.000,378.000 228.875,378.000 227.424 C 378.000 226.007,378.180 224.736,378.400 224.600 C 378.620 224.464,378.800 222.844,378.800 221.000 C 378.800 219.156,378.980 217.536,379.200 217.400 C 379.456 217.241,379.600 211.070,379.600 200.200 C 379.600 189.330,379.456 183.159,379.200 183.000 C 378.980 182.864,378.800 181.244,378.800 179.400 C 378.800 177.556,378.620 175.936,378.400 175.800 C 378.180 175.664,378.000 174.404,378.000 173.000 C 378.000 171.596,377.820 170.336,377.600 170.200 C 377.380 170.064,377.200 169.074,377.200 168.000 C 377.200 166.926,377.020 165.936,376.800 165.800 C 376.580 165.664,376.400 164.753,376.400 163.776 C 376.400 162.799,376.220 162.000,376.000 162.000 C 375.780 162.000,375.600 161.100,375.600 160.000 C 375.600 158.900,375.420 158.000,375.200 158.000 C 374.980 158.000,374.800 157.280,374.800 156.400 C 374.800 155.520,374.620 154.800,374.400 154.800 C 374.180 154.800,374.000 154.181,374.000 153.424 C 374.000 152.667,373.820 151.936,373.600 151.800 C 373.380 151.664,373.200 151.023,373.200 150.376 C 373.200 149.729,373.020 149.200,372.800 149.200 C 372.580 149.200,372.400 148.581,372.400 147.824 C 372.400 147.067,372.220 146.336,372.000 146.200 C 371.780 146.064,371.600 145.423,371.600 144.776 C 371.600 144.129,371.420 143.600,371.200 143.600 C 370.980 143.600,370.800 143.060,370.800 142.400 C 370.800 141.740,370.620 141.200,370.400 141.200 C 370.180 141.200,370.000 140.761,370.000 140.224 C 370.000 139.687,369.820 139.136,369.600 139.000 C 369.380 138.864,369.200 138.324,369.200 137.800 C 369.200 137.276,369.020 136.736,368.800 136.600 C 368.580 136.464,368.400 136.003,368.400 135.576 C 368.400 135.149,368.220 134.800,368.000 134.800 C 367.780 134.800,367.600 134.260,367.600 133.600 C 367.600 132.940,367.420 132.400,367.200 132.400 C 366.980 132.400,366.800 132.040,366.800 131.600 C 366.800 131.160,366.620 130.800,366.400 130.800 C 366.180 130.800,366.000 130.361,366.000 129.824 C 366.000 129.287,365.820 128.736,365.600 128.600 C 365.380 128.464,365.200 128.003,365.200 127.576 C 365.200 127.149,365.020 126.800,364.800 126.800 C 364.580 126.800,364.400 126.440,364.400 126.000 C 364.400 125.560,364.220 125.200,364.000 125.200 C 363.780 125.200,363.600 124.840,363.600 124.400 C 363.600 123.960,363.420 123.600,363.200 123.600 C 362.980 123.600,362.800 123.328,362.800 122.995 C 362.800 122.662,362.641 122.077,362.446 121.695 C 362.096 121.009,359.912 116.646,359.046 114.903 C 358.801 114.410,358.465 114.005,358.300 114.003 C 358.135 114.001,358.000 113.640,358.000 113.200 C 358.000 112.760,357.820 112.400,357.600 112.400 C 357.380 112.400,357.200 112.040,357.200 111.600 C 357.200 111.160,357.020 110.800,356.800 110.800 C 356.580 110.800,356.400 110.522,356.400 110.183 C 356.400 109.844,356.040 109.180,355.600 108.708 C 355.160 108.236,354.800 107.613,354.800 107.325 C 354.800 107.036,354.620 106.800,354.400 106.800 C 354.180 106.800,354.000 106.522,354.000 106.183 C 354.000 105.844,353.640 105.180,353.200 104.708 C 352.760 104.236,352.400 103.613,352.400 103.325 C 352.400 103.036,352.220 102.800,352.000 102.800 C 351.780 102.800,351.600 102.564,351.600 102.275 C 351.600 101.987,351.240 101.364,350.800 100.892 C 350.360 100.420,350.000 99.822,350.000 99.564 C 350.000 99.305,349.684 98.803,349.297 98.447 C 348.911 98.091,348.340 97.305,348.030 96.700 C 347.719 96.095,347.315 95.600,347.132 95.600 C 346.950 95.600,346.800 95.357,346.800 95.059 C 346.800 94.762,346.260 93.954,345.600 93.263 C 344.940 92.572,344.400 91.852,344.400 91.663 C 344.400 91.474,343.860 90.754,343.200 90.063 C 342.540 89.372,342.000 88.647,342.000 88.452 C 342.000 88.256,341.280 87.355,340.400 86.448 C 339.520 85.541,338.800 84.643,338.800 84.453 C 338.800 84.263,337.540 82.799,336.000 81.200 C 334.460 79.601,333.200 78.135,333.200 77.943 C 333.200 77.458,321.316 65.620,319.610 64.406 C 318.845 63.862,317.164 62.378,315.875 61.108 C 314.585 59.839,313.348 58.800,313.126 58.800 C 312.903 58.800,312.217 58.260,311.600 57.600 C 310.983 56.940,310.319 56.400,310.124 56.400 C 309.928 56.400,308.972 55.680,308.000 54.800 C 307.028 53.920,306.040 53.200,305.804 53.200 C 305.569 53.200,305.117 52.840,304.800 52.400 C 304.483 51.960,304.038 51.600,303.812 51.599 C 303.585 51.599,302.770 51.059,302.000 50.400 C 301.230 49.741,300.375 49.201,300.100 49.201 C 299.825 49.200,299.600 49.050,299.600 48.868 C 299.600 48.685,299.105 48.280,298.500 47.968 C 297.895 47.655,297.051 47.085,296.625 46.700 C 296.198 46.315,295.613 46.000,295.325 46.000 C 295.036 46.000,294.800 45.820,294.800 45.600 C 294.800 45.380,294.522 45.200,294.183 45.200 C 293.844 45.200,293.180 44.840,292.708 44.400 C 292.236 43.960,291.613 43.600,291.325 43.600 C 291.036 43.600,290.800 43.420,290.800 43.200 C 290.800 42.980,290.522 42.800,290.183 42.800 C 289.844 42.800,289.180 42.440,288.708 42.000 C 288.236 41.560,287.613 41.200,287.325 41.200 C 287.036 41.200,286.800 41.020,286.800 40.800 C 286.800 40.580,286.440 40.400,286.000 40.400 C 285.560 40.400,285.200 40.220,285.200 40.000 C 285.200 39.780,284.840 39.600,284.400 39.600 C 283.960 39.600,283.600 39.420,283.600 39.200 C 283.600 38.980,283.240 38.800,282.800 38.800 C 282.360 38.800,282.000 38.620,282.000 38.400 C 282.000 38.180,281.640 38.000,281.200 38.000 C 280.760 38.000,280.400 37.820,280.400 37.600 C 280.400 37.380,280.040 37.200,279.600 37.200 C 279.160 37.200,278.800 37.020,278.800 36.800 C 278.800 36.580,278.440 36.400,278.000 36.400 C 277.560 36.400,277.200 36.220,277.200 36.000 C 277.200 35.780,276.840 35.600,276.400 35.600 C 275.960 35.600,275.600 35.420,275.600 35.200 C 275.600 34.980,275.240 34.800,274.800 34.800 C 274.360 34.800,274.000 34.620,274.000 34.400 C 274.000 34.180,273.640 34.000,273.200 34.000 C 272.760 34.000,272.400 33.820,272.400 33.600 C 272.400 33.380,272.051 33.200,271.624 33.200 C 271.197 33.200,270.736 33.020,270.600 32.800 C 270.464 32.580,269.913 32.400,269.376 32.400 C 268.839 32.400,268.400 32.220,268.400 32.000 C 268.400 31.780,268.040 31.600,267.600 31.600 C 267.160 31.600,266.800 31.420,266.800 31.200 C 266.800 30.980,266.260 30.800,265.600 30.800 C 264.940 30.800,264.400 30.620,264.400 30.400 C 264.400 30.180,264.051 30.000,263.624 30.000 C 263.197 30.000,262.736 29.820,262.600 29.600 C 262.464 29.380,261.913 29.200,261.376 29.200 C 260.839 29.200,260.400 29.020,260.400 28.800 C 260.400 28.580,259.860 28.400,259.200 28.400 C 258.540 28.400,258.000 28.220,258.000 28.000 C 258.000 27.780,257.460 27.600,256.800 27.600 C 256.140 27.600,255.600 27.420,255.600 27.200 C 255.600 26.980,255.060 26.800,254.400 26.800 C 253.740 26.800,253.200 26.620,253.200 26.400 C 253.200 26.180,252.660 26.000,252.000 26.000 C 251.340 26.000,250.800 25.820,250.800 25.600 C 250.800 25.380,250.271 25.200,249.624 25.200 C 248.977 25.200,248.336 25.020,248.200 24.800 C 248.064 24.580,247.333 24.400,246.576 24.400 C 245.819 24.400,245.200 24.220,245.200 24.000 C 245.200 23.780,244.480 23.600,243.600 23.600 C 242.720 23.600,242.000 23.420,242.000 23.200 C 242.000 22.980,241.280 22.800,240.400 22.800 C 239.520 22.800,238.800 22.620,238.800 22.400 C 238.800 22.180,237.900 22.000,236.800 22.000 C 235.700 22.000,234.800 21.820,234.800 21.600 C 234.800 21.380,233.900 21.200,232.800 21.200 C 231.700 21.200,230.800 21.020,230.800 20.800 C 230.800 20.578,229.733 20.400,228.400 20.400 C 227.067 20.400,226.000 20.222,226.000 20.000 C 226.000 19.772,224.808 19.600,223.224 19.600 C 221.697 19.600,220.336 19.420,220.200 19.200 C 220.064 18.979,218.270 18.800,216.200 18.800 C 214.130 18.800,212.336 18.621,212.200 18.400 C 212.043 18.145,206.737 18.000,197.600 18.000 C 188.463 18.000,183.157 18.145,183.000 18.400 M206.800 33.609 C 337.641 41.028,409.465 190.050,333.650 296.800 C 261.961 397.742,109.286 388.050,50.407 278.820 C -10.939 165.012,77.543 26.279,206.800 33.609 M186.000 49.056 C 173.063 50.405,167.137 51.441,157.600 54.020 C 132.936 60.688,109.632 74.135,91.334 92.256 C 86.879 96.667,86.973 95.804,90.443 100.419 C 120.287 140.115,130.767 191.890,118.778 240.400 C 113.451 261.954,103.137 283.557,90.046 300.582 C 86.946 304.613,86.745 303.934,92.700 309.538 C 119.463 334.724,150.656 348.624,186.700 351.427 L 190.000 351.683 190.000 330.474 C 190.000 318.809,190.109 308.981,190.243 308.633 C 190.608 307.681,204.592 307.681,204.957 308.633 C 205.091 308.981,205.200 318.809,205.200 330.474 L 205.200 351.683 208.500 351.427 C 244.781 348.606,276.712 334.258,303.300 308.828 C 308.361 303.987,308.228 304.580,305.154 300.582 C 275.220 261.654,264.385 208.572,276.458 160.000 C 281.810 138.464,291.514 118.034,304.757 100.419 C 308.235 95.794,308.328 96.617,303.829 92.198 C 278.059 66.884,241.451 50.389,208.200 49.108 L 205.400 49.000 205.200 70.400 L 205.000 91.800 197.600 91.800 L 190.200 91.800 190.000 70.400 L 189.800 49.000 188.600 48.955 C 187.940 48.931,186.770 48.976,186.000 49.056 M250.923 107.645 C 255.623 108.371,257.648 109.767,259.173 113.333 C 259.985 115.232,260.000 115.820,260.000 146.233 L 260.000 177.200 250.043 177.200 C 241.332 177.200,240.055 177.121,239.843 176.567 C 239.709 176.219,239.600 164.608,239.600 150.765 L 239.600 125.596 197.500 125.698 L 155.400 125.800 155.400 200.400 L 155.400 275.000 197.400 275.000 L 239.400 275.000 239.607 249.200 C 239.721 235.010,239.856 223.355,239.907 223.300 C 239.958 223.245,244.500 223.200,250.000 223.200 L 260.000 223.200 260.000 254.054 C 260.000 288.514,260.109 287.108,257.210 290.020 C 254.231 293.013,258.091 292.840,196.800 292.714 C 144.285 292.605,141.733 292.567,140.317 291.863 C 138.434 290.926,137.074 289.566,136.137 287.683 C 135.060 285.516,134.762 116.513,135.830 113.684 C 137.157 110.171,139.273 108.557,143.600 107.757 C 147.176 107.096,246.703 106.992,250.923 107.645 M73.932 112.705 C 58.136 134.816,46.401 167.805,46.400 190.100 L 46.400 192.400 77.200 192.400 L 108.000 192.400 107.997 190.300 C 107.958 166.892,95.808 133.666,78.736 110.279 C 77.039 107.955,77.487 107.729,73.932 112.705 M316.464 110.279 C 299.392 133.666,287.242 166.892,287.203 190.300 L 287.200 192.400 318.000 192.400 L 348.800 192.400 348.800 190.015 C 348.800 167.798,337.045 134.788,321.268 112.705 C 317.713 107.729,318.161 107.955,316.464 110.279 M180.400 190.400 L 180.600 250.200 207.600 250.400 L 234.600 250.600 234.713 259.200 C 234.775 263.930,234.727 268.205,234.605 268.700 L 234.385 269.600 197.635 269.600 C 164.493 269.600,160.862 269.538,160.643 268.967 C 160.305 268.088,160.336 130.997,160.674 130.660 C 160.824 130.509,165.279 130.434,170.574 130.493 L 180.200 130.600 180.400 190.400 M234.600 187.600 L 234.600 244.600 225.000 244.600 L 215.400 244.600 215.400 227.320 C 215.399 215.435,215.264 209.904,214.965 209.605 C 214.692 209.332,212.920 209.214,210.166 209.286 L 205.800 209.400 205.600 227.000 L 205.400 244.600 195.800 244.600 L 186.200 244.600 186.349 187.800 C 186.432 156.560,186.578 130.864,186.675 130.697 C 186.772 130.530,197.595 130.440,210.726 130.497 L 234.600 130.600 234.600 187.600 M205.696 169.900 L 205.800 190.200 210.400 190.200 L 215.000 190.200 215.104 169.900 L 215.207 149.600 210.400 149.600 L 205.593 149.600 205.696 169.900 M46.400 210.385 C 46.400 225.074,53.087 249.969,61.660 267.200 C 65.896 275.712,76.074 292.014,77.142 291.996 C 78.315 291.976,88.745 275.261,92.989 266.600 C 101.527 249.176,107.971 224.918,107.996 210.100 L 108.000 208.000 77.200 208.000 L 46.400 208.000 46.400 210.385 M287.204 210.100 C 287.229 224.888,293.690 249.212,302.211 266.600 C 306.455 275.261,316.885 291.976,318.058 291.996 C 319.138 292.014,329.249 275.819,333.539 267.200 C 342.112 249.974,348.800 225.075,348.800 210.385 L 348.800 208.000 318.000 208.000 L 287.200 208.000 287.204 210.100 " stroke="none" fill="#fbfbfb" fill-rule="evenodd"></path><path id="path3" d="M187.400 33.635 C 95.294 38.844,24.222 120.246,31.147 212.600 C 38.630 312.407,132.055 383.441,230.200 363.945 C 292.896 351.492,343.853 303.134,359.354 241.379 C 386.913 131.589,300.539 27.237,187.400 33.635 M204.587 33.999 C 218.818 34.746,228.164 36.197,241.200 39.682 C 260.766 44.913,278.797 53.651,296.400 66.429 C 298.270 67.787,299.890 69.012,300.000 69.151 C 300.110 69.290,300.859 69.896,301.665 70.496 C 302.471 71.097,303.376 71.816,303.675 72.094 C 303.974 72.372,305.565 73.754,307.210 75.163 C 330.007 94.706,349.081 124.490,357.185 153.200 C 357.464 154.190,357.831 155.450,358.000 156.000 C 359.713 161.577,361.800 172.083,362.768 180.000 C 365.192 199.841,364.071 218.677,359.199 240.000 C 346.558 295.327,298.873 345.093,244.200 360.017 C 240.912 360.915,236.428 362.058,235.000 362.363 C 225.775 364.335,222.072 364.934,212.573 365.995 C 207.879 366.519,187.321 366.519,182.627 365.995 C 166.929 364.242,157.995 362.334,144.182 357.783 C 91.685 340.486,48.124 293.058,36.001 240.000 C 32.736 225.713,31.711 217.678,31.329 203.400 C 30.909 187.661,33.229 168.925,37.200 156.000 C 37.369 155.450,37.736 154.190,38.015 153.200 C 46.119 124.490,65.193 94.706,87.990 75.163 C 89.635 73.754,91.226 72.372,91.525 72.094 C 91.824 71.816,92.729 71.097,93.535 70.496 C 94.341 69.896,95.090 69.290,95.200 69.151 C 95.470 68.808,101.540 64.411,105.000 62.051 C 109.963 58.667,116.046 55.129,122.600 51.818 C 129.294 48.435,130.849 47.731,137.382 45.128 C 146.306 41.572,158.862 38.034,168.200 36.445 C 169.520 36.221,171.230 35.930,172.000 35.799 C 175.815 35.150,180.508 34.674,187.600 34.215 C 191.890 33.937,195.754 33.685,196.187 33.655 C 196.620 33.625,200.400 33.780,204.587 33.999 M184.600 48.661 C 180.187 48.919,169.919 50.465,164.800 51.642 C 163.810 51.870,162.190 52.241,161.200 52.466 C 160.210 52.692,158.950 53.018,158.400 53.192 C 157.850 53.365,156.590 53.736,155.600 54.015 C 143.324 57.480,129.280 63.617,118.800 70.095 C 113.276 73.509,103.244 80.656,100.592 83.066 C 100.148 83.470,98.598 84.828,97.147 86.085 C 94.213 88.628,86.800 95.866,86.800 96.188 C 86.800 96.301,88.301 98.420,90.135 100.897 C 102.129 117.091,110.763 134.148,116.003 152.000 C 116.487 153.650,117.030 155.450,117.210 156.000 C 117.755 157.668,119.746 166.209,120.194 168.800 C 121.611 176.989,122.056 180.416,122.794 188.823 C 123.736 199.552,122.998 215.070,120.978 227.000 C 119.848 233.679,119.868 233.581,118.386 239.800 C 113.323 261.051,103.650 281.411,89.724 300.128 L 86.801 304.055 87.820 305.391 C 88.934 306.851,95.874 313.380,100.000 316.848 C 115.034 329.488,134.126 339.972,152.000 345.405 C 160.227 347.906,168.995 349.876,176.000 350.799 C 177.870 351.045,180.605 351.416,182.077 351.623 C 183.549 351.830,186.023 352.000,187.574 352.000 L 190.393 352.000 190.497 330.500 L 190.600 309.000 197.600 309.000 L 204.600 309.000 204.703 330.500 L 204.807 352.000 207.626 352.000 C 209.177 352.000,211.651 351.830,213.123 351.623 C 214.595 351.416,217.330 351.045,219.200 350.799 C 226.205 349.876,234.973 347.906,243.200 345.405 C 264.992 338.781,286.303 325.973,303.942 308.899 C 309.162 303.846,309.052 304.761,305.070 299.526 C 292.037 282.390,281.811 260.776,276.814 239.800 C 275.332 233.581,275.352 233.679,274.222 227.000 C 272.202 215.070,271.464 199.552,272.406 188.823 C 273.144 180.416,273.589 176.989,275.006 168.800 C 275.454 166.209,277.445 157.668,277.990 156.000 C 278.170 155.450,278.713 153.650,279.197 152.000 C 284.450 134.106,293.077 117.074,305.073 100.920 C 306.903 98.455,308.400 96.336,308.400 96.210 C 308.400 95.871,301.091 88.718,298.053 86.085 C 296.602 84.828,295.052 83.470,294.608 83.066 C 291.956 80.656,281.924 73.509,276.400 70.095 C 265.920 63.617,251.876 57.480,239.600 54.015 C 238.610 53.736,237.350 53.365,236.800 53.192 C 236.250 53.018,234.945 52.679,233.900 52.438 C 226.838 50.809,225.441 50.557,216.200 49.237 C 214.660 49.017,211.465 48.721,209.100 48.580 L 204.800 48.323 204.800 69.762 L 204.800 91.200 197.600 91.200 L 190.400 91.200 190.400 69.800 L 190.400 48.400 188.500 48.472 C 187.455 48.512,185.700 48.597,184.600 48.661 M190.000 70.400 L 190.200 91.800 197.600 91.800 L 205.000 91.800 205.200 70.400 L 205.400 49.000 208.200 49.108 C 241.451 50.389,278.059 66.884,303.829 92.198 C 308.328 96.617,308.235 95.794,304.757 100.419 C 275.097 139.871,264.495 191.729,276.262 239.800 C 281.597 261.593,291.996 283.471,305.154 300.582 C 308.228 304.580,308.361 303.987,303.300 308.828 C 276.712 334.258,244.781 348.606,208.500 351.427 L 205.200 351.683 205.200 330.474 C 205.200 318.809,205.091 308.981,204.957 308.633 C 204.592 307.681,190.608 307.681,190.243 308.633 C 190.109 308.981,190.000 318.809,190.000 330.474 L 190.000 351.683 186.700 351.427 C 150.656 348.624,119.463 334.724,92.700 309.538 C 86.745 303.934,86.946 304.613,90.046 300.582 C 119.780 261.914,130.718 209.038,118.963 160.800 C 113.629 138.914,103.904 118.324,90.443 100.419 C 86.973 95.804,86.879 96.667,91.334 92.256 C 115.357 68.466,147.237 53.247,180.621 49.633 C 187.165 48.925,187.353 48.909,188.600 48.955 L 189.800 49.000 190.000 70.400 M143.600 107.757 C 139.273 108.557,137.157 110.171,135.830 113.684 C 134.762 116.513,135.060 285.516,136.137 287.683 C 137.074 289.566,138.434 290.926,140.317 291.863 C 141.733 292.567,144.285 292.605,196.800 292.714 C 258.091 292.840,254.231 293.013,257.210 290.020 C 260.109 287.108,260.000 288.514,260.000 254.054 L 260.000 223.200 250.000 223.200 C 244.500 223.200,239.958 223.245,239.907 223.300 C 239.856 223.355,239.721 235.010,239.607 249.200 L 239.400 275.000 197.400 275.000 L 155.400 275.000 155.400 200.400 L 155.400 125.800 197.500 125.698 L 239.600 125.596 239.600 150.765 C 239.600 164.608,239.709 176.219,239.843 176.567 C 240.055 177.121,241.332 177.200,250.043 177.200 L 260.000 177.200 260.000 146.233 C 260.000 115.820,259.985 115.232,259.173 113.333 C 257.648 109.767,255.623 108.371,250.923 107.645 C 246.703 106.992,147.176 107.096,143.600 107.757 M76.140 108.900 C 72.299 113.226,65.010 125.065,60.852 133.732 C 56.178 143.477,53.255 151.180,50.752 160.353 C 47.645 171.739,44.705 191.988,46.036 192.831 C 46.769 193.295,107.621 193.301,108.352 192.838 C 108.815 192.545,108.829 191.713,108.443 187.744 C 106.063 163.330,100.055 144.377,88.081 123.512 C 85.647 119.271,79.816 110.615,78.102 108.700 C 77.294 107.797,77.102 107.817,76.140 108.900 M253.797 108.803 C 255.842 109.560,258.044 111.764,258.792 113.803 C 259.282 115.142,259.397 120.369,259.500 146.100 L 259.624 176.800 250.012 176.800 L 240.400 176.800 240.394 151.300 C 240.391 137.275,240.244 125.574,240.069 125.298 C 239.816 124.900,231.011 124.817,197.375 124.898 L 155.000 125.000 155.000 200.200 L 155.000 275.400 197.157 275.502 C 227.976 275.576,239.460 275.482,239.857 275.153 C 240.304 274.782,240.400 270.188,240.400 249.151 L 240.400 223.600 250.000 223.600 L 259.600 223.600 259.600 253.380 C 259.600 289.054,259.613 288.959,254.472 291.335 L 252.600 292.200 197.800 292.200 C 137.147 292.200,140.840 292.356,138.289 289.693 C 135.586 286.870,135.812 294.533,135.692 201.600 C 135.619 144.722,135.717 117.172,136.000 115.844 C 136.912 111.555,138.590 109.671,142.423 108.634 C 145.689 107.751,251.385 107.911,253.797 108.803 M317.106 108.690 C 315.385 110.613,309.559 119.259,307.119 123.512 C 295.145 144.377,289.137 163.330,286.757 187.744 C 286.371 191.713,286.385 192.545,286.848 192.838 C 287.579 193.301,348.431 193.295,349.164 192.831 C 350.254 192.140,348.343 177.145,345.592 164.800 C 341.648 147.108,330.971 124.227,320.126 110.230 C 318.343 107.928,317.962 107.734,317.106 108.690 M78.736 110.279 C 95.808 133.666,107.958 166.892,107.997 190.300 L 108.000 192.400 77.200 192.400 L 46.400 192.400 46.400 190.100 C 46.401 167.805,58.136 134.816,73.932 112.705 C 77.487 107.729,77.039 107.955,78.736 110.279 M321.268 112.705 C 337.045 134.788,348.800 167.798,348.800 190.015 L 348.800 192.400 318.000 192.400 L 287.200 192.400 287.203 190.300 C 287.242 166.892,299.392 133.666,316.464 110.279 C 318.161 107.955,317.713 107.729,321.268 112.705 M45.774 207.642 C 45.495 208.093,46.164 216.409,46.799 220.400 C 46.992 221.610,47.355 223.950,47.606 225.600 C 48.032 228.407,48.213 229.341,49.175 233.700 C 53.515 253.353,62.748 273.579,74.921 290.100 C 77.133 293.103,77.096 293.077,77.857 292.100 C 85.660 282.081,93.393 268.422,98.407 255.800 C 101.994 246.770,105.021 235.854,106.781 225.600 C 107.911 219.018,109.012 208.267,108.621 207.633 C 108.237 207.013,46.157 207.022,45.774 207.642 M286.581 207.631 C 286.015 208.546,287.626 221.850,289.387 230.800 C 293.557 252.006,304.070 275.059,317.343 292.100 C 317.643 292.485,317.979 292.800,318.089 292.800 C 318.745 292.800,326.087 281.910,330.089 275.000 C 336.448 264.024,342.567 248.472,345.592 235.600 C 347.609 227.020,349.246 215.721,349.359 209.600 L 349.400 207.400 318.125 207.298 C 295.896 207.225,286.772 207.321,286.581 207.631 M107.996 210.100 C 107.971 224.918,101.527 249.176,92.989 266.600 C 88.745 275.261,78.315 291.976,77.142 291.996 C 76.074 292.014,65.896 275.712,61.660 267.200 C 53.087 249.969,46.400 225.074,46.400 210.385 L 46.400 208.000 77.200 208.000 L 108.000 208.000 107.996 210.100 M348.800 210.385 C 348.800 225.075,342.112 249.974,333.539 267.200 C 329.249 275.819,319.138 292.014,318.058 291.996 C 316.885 291.976,306.455 275.261,302.211 266.600 C 293.690 249.212,287.229 224.888,287.204 210.100 L 287.200 208.000 318.000 208.000 L 348.800 208.000 348.800 210.385 " stroke="none" fill="#98a4ac" fill-rule="evenodd"></path></g></svg>