<svg id="svg" version="1.1" xmlns="http://www.w3.org/2000/svg" xmlns:xlink="http://www.w3.org/1999/xlink" width="400" height="400" viewBox="0, 0, 400,400"><g id="svgg"><path id="path0" d="M84.741 25.392 C 84.617 25.516,83.365 25.787,81.958 25.994 C 78.013 26.575,76.638 26.871,76.173 27.238 C 75.939 27.424,75.186 27.619,74.501 27.671 C 73.816 27.723,73.344 27.909,73.451 28.083 C 73.559 28.257,73.315 28.400,72.908 28.400 C 72.502 28.400,71.463 28.760,70.600 29.200 C 69.737 29.640,68.709 30.000,68.315 30.000 C 67.922 30.000,67.600 30.159,67.600 30.353 C 67.600 30.548,67.285 30.809,66.900 30.935 C 63.397 32.078,55.049 38.125,50.900 42.525 C 49.745 43.750,48.800 44.648,48.800 44.521 C 48.800 44.394,47.898 45.530,46.795 47.045 C 45.692 48.560,44.342 50.298,43.795 50.907 C 43.248 51.516,42.800 52.253,42.800 52.545 C 42.800 52.837,42.440 53.402,42.000 53.800 C 41.560 54.198,41.200 54.726,41.200 54.973 C 41.200 55.220,40.694 56.407,40.076 57.611 C 38.421 60.834,36.400 66.397,36.400 67.728 C 36.400 68.098,36.220 68.400,36.000 68.400 C 35.780 68.400,35.600 69.199,35.600 70.176 C 35.600 71.153,35.436 72.054,35.235 72.179 C 34.735 72.488,34.971 88.146,35.510 90.400 C 35.746 91.390,36.123 92.915,36.348 93.789 C 36.572 94.663,36.688 95.445,36.606 95.527 C 36.524 95.609,36.804 96.295,37.228 97.050 C 37.653 97.806,38.000 98.672,38.000 98.974 C 38.000 99.277,38.351 100.216,38.781 101.062 C 41.186 105.800,41.266 106.078,40.395 106.688 C 39.958 106.995,39.600 107.505,39.600 107.823 C 39.600 108.140,39.450 108.400,39.268 108.400 C 39.085 108.400,38.684 108.895,38.377 109.500 C 38.069 110.105,37.370 111.320,36.822 112.200 C 35.849 113.763,35.165 114.971,33.656 117.789 C 33.247 118.554,32.797 119.064,32.656 118.923 C 32.515 118.782,32.400 119.042,32.400 119.500 C 32.400 119.958,32.258 120.393,32.084 120.467 C 31.725 120.618,27.600 129.038,27.600 129.620 C 27.600 129.829,27.464 130.000,27.298 130.000 C 27.028 130.000,26.687 130.689,25.617 133.400 C 25.196 134.466,23.603 138.023,23.156 138.895 C 22.960 139.277,22.800 139.862,22.800 140.195 C 22.800 140.528,22.620 140.800,22.400 140.800 C 22.180 140.800,22.000 141.239,22.000 141.776 C 22.000 142.313,21.820 142.864,21.600 143.000 C 21.380 143.136,21.200 143.591,21.200 144.011 C 21.200 144.432,20.876 145.366,20.480 146.088 C 20.084 146.810,19.732 147.844,19.698 148.388 C 19.611 149.785,18.681 152.800,18.338 152.800 C 18.179 152.800,18.075 153.137,18.106 153.548 C 18.157 154.226,17.861 155.444,16.773 159.028 C 16.568 159.704,16.400 160.793,16.400 161.448 C 16.400 162.104,16.237 162.811,16.037 163.020 C 15.688 163.385,15.555 164.258,14.976 170.000 C 14.832 171.430,14.559 172.792,14.370 173.026 C 13.883 173.627,13.924 197.906,14.412 198.207 C 14.625 198.339,14.800 199.416,14.800 200.600 C 14.800 201.784,14.942 202.841,15.116 202.948 C 15.290 203.056,15.476 203.741,15.530 204.472 C 15.665 206.324,15.781 206.933,16.094 207.434 C 16.244 207.673,16.411 208.541,16.467 209.362 C 16.522 210.184,16.710 210.944,16.884 211.052 C 17.058 211.159,17.200 211.766,17.200 212.400 C 17.200 213.034,17.380 213.664,17.600 213.800 C 17.820 213.936,18.000 214.476,18.000 215.000 C 18.000 215.524,18.180 216.064,18.400 216.200 C 18.620 216.336,18.800 216.889,18.800 217.429 C 18.800 217.969,18.980 218.768,19.200 219.205 C 19.420 219.642,19.780 220.358,20.000 220.795 C 20.220 221.232,20.400 221.826,20.400 222.116 C 20.400 223.435,25.051 231.984,29.290 238.454 C 34.292 246.089,34.183 246.014,36.484 243.400 C 38.094 241.570,38.800 241.181,38.800 242.123 C 38.800 242.411,39.388 243.815,40.107 245.244 C 40.826 246.673,41.763 248.687,42.189 249.721 C 42.615 250.754,43.107 251.600,43.282 251.600 C 43.457 251.600,43.600 251.960,43.600 252.400 C 43.600 252.840,43.744 253.200,43.920 253.200 C 44.095 253.200,44.480 253.875,44.774 254.700 C 45.068 255.525,45.680 256.728,46.133 257.372 C 46.586 258.017,46.729 258.403,46.449 258.230 C 46.053 257.985,46.057 258.102,46.467 258.758 C 46.756 259.221,47.129 259.600,47.296 259.600 C 47.463 259.600,47.600 259.855,47.600 260.167 C 47.600 260.478,47.742 260.793,47.915 260.867 C 48.399 261.072,50.397 264.661,50.186 264.947 C 50.084 265.086,50.116 265.114,50.257 265.009 C 50.399 264.904,51.534 266.299,52.781 268.109 C 54.027 269.919,55.936 272.629,57.023 274.131 C 58.110 275.633,59.224 277.276,59.499 277.782 C 59.773 278.289,60.628 279.184,61.399 279.772 C 62.169 280.360,62.800 281.132,62.800 281.487 C 62.800 281.842,62.910 282.023,63.044 281.889 C 63.262 281.672,64.077 282.515,66.000 284.948 C 66.970 286.176,71.967 290.933,77.000 295.422 C 81.527 299.459,82.203 300.016,83.903 301.107 C 84.839 301.708,85.692 302.470,85.798 302.800 C 85.904 303.130,86.535 303.642,87.200 303.936 C 87.866 304.230,88.934 304.995,89.574 305.636 C 90.215 306.276,91.022 306.800,91.369 306.800 C 91.716 306.800,92.000 306.947,92.000 307.126 C 92.000 307.306,92.723 307.859,93.606 308.355 C 94.489 308.852,95.127 309.395,95.023 309.562 C 94.920 309.730,95.060 309.867,95.334 309.867 C 95.608 309.867,97.445 310.945,99.416 312.263 C 101.387 313.581,103.315 314.775,103.700 314.917 C 104.085 315.059,104.400 315.352,104.400 315.569 C 104.400 315.785,105.075 316.279,105.900 316.665 C 106.725 317.052,108.472 318.041,109.783 318.864 C 112.335 320.466,113.200 320.393,113.200 318.575 C 113.200 318.065,113.380 317.536,113.600 317.400 C 113.820 317.264,114.006 316.308,114.013 315.276 C 114.024 313.540,114.069 313.458,114.613 314.176 C 114.936 314.604,115.200 314.829,115.200 314.676 C 115.200 314.524,115.529 314.715,115.930 315.100 C 117.031 316.156,118.868 317.570,120.100 318.311 C 120.705 318.675,121.200 319.193,121.200 319.463 C 121.200 319.732,121.408 320.081,121.662 320.238 C 121.966 320.426,122.024 320.331,121.831 319.962 C 121.671 319.653,121.868 319.760,122.270 320.200 C 122.671 320.640,123.685 321.360,124.522 321.800 C 125.359 322.240,126.425 323.005,126.892 323.500 C 127.358 323.995,127.978 324.400,128.270 324.400 C 128.561 324.400,128.800 324.580,128.800 324.800 C 128.800 325.020,129.070 325.200,129.400 325.200 C 129.730 325.200,130.000 325.380,130.000 325.600 C 130.000 325.820,130.188 326.000,130.417 326.000 C 130.646 326.000,131.210 326.351,131.671 326.780 C 132.131 327.209,133.089 327.836,133.799 328.173 C 134.509 328.510,135.317 329.059,135.594 329.393 C 135.871 329.727,136.346 330.000,136.649 330.000 C 136.952 330.000,137.200 330.180,137.200 330.400 C 137.200 330.620,137.545 330.800,137.967 330.800 C 138.388 330.800,138.793 330.935,138.867 331.100 C 138.940 331.265,140.170 332.008,141.600 332.752 C 143.030 333.495,144.676 334.354,145.258 334.660 C 145.840 334.966,146.537 335.483,146.807 335.808 C 147.077 336.134,147.521 336.400,147.793 336.400 C 148.525 336.400,153.200 338.879,153.200 339.267 C 153.200 339.450,153.650 339.600,154.200 339.600 C 154.750 339.600,155.200 339.746,155.200 339.925 C 155.200 340.104,155.830 340.498,156.600 340.800 C 157.370 341.102,158.000 341.506,158.000 341.698 C 158.000 341.890,158.165 341.945,158.368 341.820 C 158.570 341.695,159.007 341.864,159.339 342.196 C 159.671 342.528,160.102 342.800,160.296 342.800 C 160.490 342.800,161.005 343.115,161.440 343.500 C 161.875 343.885,163.124 344.646,164.215 345.190 C 165.307 345.735,166.290 346.275,166.400 346.390 C 166.510 346.506,166.896 346.780,167.257 347.000 C 169.642 348.452,174.921 352.289,176.600 353.790 C 177.700 354.774,178.825 355.583,179.100 355.589 C 179.375 355.595,179.600 355.768,179.600 355.973 C 179.600 356.178,179.960 356.460,180.400 356.600 C 180.840 356.740,181.200 357.142,181.200 357.494 C 181.200 357.845,181.312 358.021,181.450 357.883 C 181.587 357.746,183.035 358.931,184.667 360.517 C 192.349 367.983,194.996 370.616,195.008 370.800 C 195.041 371.304,199.508 375.600,200.000 375.600 C 200.490 375.600,204.955 371.309,204.995 370.800 C 205.028 370.368,213.442 362.131,214.100 361.886 C 214.485 361.742,214.800 361.349,214.800 361.013 C 214.800 360.676,215.003 360.400,215.252 360.400 C 215.500 360.400,216.400 359.770,217.253 359.000 C 218.105 358.230,218.672 357.600,218.512 357.600 C 218.353 357.600,218.667 357.296,219.211 356.925 C 219.755 356.553,221.491 355.203,223.069 353.925 C 224.646 352.646,226.131 351.600,226.369 351.600 C 226.606 351.600,226.801 351.465,226.803 351.300 C 226.804 351.135,227.479 350.550,228.303 350.000 C 229.126 349.450,230.149 348.685,230.575 348.300 C 231.002 347.915,231.484 347.600,231.647 347.600 C 231.810 347.600,232.991 346.911,234.272 346.068 C 235.552 345.226,237.410 344.101,238.400 343.568 C 239.390 343.036,240.440 342.373,240.732 342.096 C 241.025 341.819,241.415 341.685,241.598 341.799 C 241.782 341.912,241.992 341.869,242.066 341.702 C 242.251 341.284,243.900 340.340,248.800 337.845 C 251.110 336.669,253.720 335.295,254.600 334.791 C 255.480 334.288,256.920 333.500,257.800 333.038 C 258.680 332.577,259.490 332.110,259.600 332.000 C 259.710 331.890,260.230 331.558,260.755 331.262 C 261.280 330.967,262.360 330.353,263.155 329.899 C 263.950 329.446,265.432 328.607,266.450 328.037 C 268.492 326.892,273.100 323.741,273.929 322.922 C 274.219 322.635,274.581 322.400,274.733 322.400 C 274.884 322.400,275.458 321.995,276.009 321.500 C 277.937 319.765,278.597 319.320,278.230 320.000 C 278.053 320.330,278.527 319.970,279.285 319.200 C 280.803 317.657,281.518 317.063,283.600 315.614 C 284.370 315.079,285.177 314.361,285.394 314.020 C 285.699 313.540,285.854 313.806,286.082 315.200 C 286.775 319.443,286.905 320.018,287.214 320.209 C 287.589 320.441,290.985 318.707,292.150 317.688 C 292.731 317.180,292.850 317.157,292.604 317.600 C 292.421 317.930,292.717 317.795,293.261 317.300 C 293.806 316.805,294.375 316.400,294.525 316.400 C 294.675 316.400,295.654 315.794,296.699 315.053 C 297.745 314.312,299.476 313.224,300.547 312.635 C 301.617 312.046,302.756 311.301,303.078 310.979 C 303.399 310.658,304.053 310.190,304.531 309.940 C 305.009 309.689,306.030 308.993,306.800 308.393 C 307.570 307.793,309.144 306.795,310.298 306.174 C 311.451 305.553,312.485 304.765,312.595 304.423 C 312.704 304.080,313.561 303.313,314.497 302.717 C 315.434 302.121,316.658 301.203,317.217 300.677 C 317.777 300.151,319.096 299.064,320.148 298.260 C 321.200 297.457,321.933 296.800,321.777 296.800 C 321.620 296.800,322.011 296.406,322.646 295.925 C 324.212 294.738,335.389 283.485,337.486 280.985 C 341.708 275.951,348.400 266.843,348.400 266.132 C 348.400 265.900,349.955 263.891,351.102 262.639 C 351.504 262.200,351.562 262.014,351.238 262.200 C 350.929 262.378,351.244 261.698,351.938 260.690 C 352.632 259.681,353.200 258.670,353.200 258.444 C 353.200 258.217,353.605 257.638,354.100 257.157 C 354.595 256.676,354.730 256.433,354.400 256.618 C 353.922 256.885,353.891 256.836,354.244 256.377 C 355.351 254.939,360.400 244.317,360.400 243.425 C 360.400 243.081,360.580 242.800,360.800 242.800 C 361.020 242.800,361.200 242.530,361.200 242.200 C 361.200 241.181,361.867 241.526,363.516 243.400 C 364.388 244.390,365.286 245.200,365.513 245.200 C 366.156 245.200,370.800 239.282,370.800 238.464 C 370.800 238.261,371.385 237.507,372.100 236.788 C 372.815 236.069,373.167 235.613,372.883 235.775 C 372.598 235.936,372.951 235.108,373.667 233.934 C 374.383 232.760,375.112 231.740,375.287 231.666 C 375.462 231.592,375.503 231.367,375.379 231.166 C 375.255 230.965,375.339 230.800,375.566 230.800 C 376.001 230.800,377.820 227.234,377.671 226.676 C 377.623 226.497,377.835 225.867,378.143 225.276 C 378.451 224.684,378.925 223.660,379.198 223.000 C 379.470 222.340,379.852 221.487,380.047 221.105 C 380.241 220.723,380.400 220.059,380.400 219.629 C 380.400 219.199,380.549 218.755,380.732 218.642 C 380.914 218.530,381.305 217.431,381.600 216.200 C 381.895 214.969,382.286 213.870,382.468 213.758 C 382.651 213.645,382.800 213.053,382.800 212.443 C 382.800 211.833,382.925 211.209,383.077 211.056 C 383.229 210.904,383.403 210.379,383.464 209.890 C 383.644 208.432,384.454 204.660,384.772 203.800 C 384.935 203.360,385.108 202.024,385.157 200.831 C 385.206 199.638,385.410 198.355,385.610 197.981 C 386.074 197.115,386.093 173.598,385.631 173.026 C 385.441 172.792,385.168 171.430,385.024 170.000 C 384.445 164.258,384.312 163.385,383.963 163.020 C 383.763 162.811,383.600 162.104,383.600 161.448 C 383.600 160.793,383.432 159.704,383.227 159.028 C 382.139 155.444,381.843 154.226,381.894 153.548 C 381.925 153.137,381.821 152.800,381.662 152.800 C 381.319 152.800,380.389 149.785,380.302 148.388 C 380.268 147.844,379.916 146.810,379.520 146.088 C 379.124 145.366,378.800 144.432,378.800 144.011 C 378.800 143.591,378.620 143.136,378.400 143.000 C 378.180 142.864,378.000 142.313,378.000 141.776 C 378.000 141.239,377.820 140.800,377.600 140.800 C 377.380 140.800,377.200 140.528,377.200 140.195 C 377.200 139.862,377.040 139.277,376.844 138.895 C 376.397 138.023,374.804 134.466,374.383 133.400 C 373.313 130.689,372.972 130.000,372.702 130.000 C 372.536 130.000,372.400 129.829,372.400 129.620 C 372.400 129.048,368.354 120.819,367.951 120.569 C 367.758 120.450,367.600 119.973,367.600 119.510 C 367.600 119.046,367.485 118.782,367.344 118.923 C 367.203 119.064,366.753 118.554,366.344 117.789 C 364.835 114.971,364.151 113.763,363.178 112.200 C 362.630 111.320,361.931 110.105,361.623 109.500 C 361.316 108.895,360.915 108.400,360.732 108.400 C 360.550 108.400,360.400 108.140,360.400 107.823 C 360.400 107.505,360.042 106.995,359.605 106.688 C 358.734 106.078,358.814 105.800,361.219 101.062 C 361.649 100.216,362.000 99.277,362.000 98.974 C 362.000 98.672,362.347 97.806,362.772 97.050 C 363.196 96.295,363.476 95.609,363.394 95.527 C 363.312 95.445,363.428 94.663,363.652 93.789 C 363.877 92.915,364.254 91.390,364.490 90.400 C 365.029 88.146,365.265 72.488,364.765 72.179 C 364.564 72.054,364.400 71.153,364.400 70.176 C 364.400 69.199,364.220 68.400,364.000 68.400 C 363.780 68.400,363.600 68.048,363.600 67.619 C 363.600 67.189,363.443 66.424,363.251 65.919 C 363.059 65.413,362.678 64.280,362.405 63.400 C 361.905 61.793,359.097 55.521,358.375 54.400 C 357.155 52.507,356.356 51.309,355.837 50.600 C 352.429 45.938,351.200 44.327,351.200 44.521 C 351.200 44.648,350.255 43.750,349.100 42.525 C 346.828 40.116,341.998 36.042,340.425 35.208 C 339.889 34.924,339.090 34.356,338.650 33.946 C 338.209 33.536,337.711 33.200,337.542 33.200 C 337.373 33.200,336.319 32.660,335.200 32.000 C 334.081 31.340,332.903 30.800,332.582 30.800 C 332.262 30.800,332.000 30.620,332.000 30.400 C 332.000 30.180,331.768 30.000,331.485 30.000 C 331.201 30.000,330.263 29.640,329.400 29.200 C 328.537 28.760,327.498 28.400,327.092 28.400 C 326.685 28.400,326.441 28.257,326.549 28.083 C 326.656 27.909,326.184 27.723,325.499 27.671 C 324.814 27.619,324.061 27.424,323.827 27.238 C 323.403 26.903,322.979 26.805,318.000 25.896 C 313.226 25.024,297.298 25.423,296.220 26.441 C 296.011 26.638,295.347 26.800,294.744 26.800 C 294.141 26.800,293.536 26.980,293.400 27.200 C 293.264 27.420,292.713 27.600,292.176 27.600 C 291.639 27.600,291.200 27.780,291.200 28.000 C 291.200 28.220,291.009 28.400,290.776 28.400 C 290.543 28.400,290.479 28.196,290.633 27.946 C 290.788 27.696,290.383 27.885,289.733 28.365 C 289.083 28.845,288.158 29.268,287.676 29.304 C 287.194 29.341,286.800 29.468,286.800 29.587 C 286.800 29.707,286.215 30.058,285.500 30.368 C 284.785 30.677,283.448 31.441,282.528 32.065 C 281.608 32.689,280.739 33.200,280.595 33.200 C 280.452 33.200,279.539 33.852,278.567 34.648 C 277.595 35.445,276.800 35.983,276.800 35.845 C 276.800 35.610,275.145 36.950,273.562 38.467 C 273.180 38.833,272.762 39.058,272.633 38.967 C 272.505 38.875,272.494 38.924,272.608 39.075 C 272.924 39.492,269.928 42.403,269.473 42.122 C 269.255 41.987,269.198 42.073,269.347 42.314 C 269.704 42.892,268.073 44.388,267.025 44.444 C 265.030 44.552,260.465 44.348,259.000 44.086 C 257.145 43.754,244.164 43.776,241.800 44.114 C 240.920 44.240,238.760 44.380,237.000 44.424 C 235.240 44.468,233.515 44.651,233.167 44.830 C 232.819 45.009,231.649 45.194,230.567 45.241 C 229.485 45.288,228.420 45.461,228.200 45.627 C 227.980 45.793,226.900 45.979,225.800 46.040 C 224.700 46.100,223.530 46.280,223.200 46.440 C 222.630 46.715,218.984 47.556,217.512 47.752 C 217.133 47.802,216.698 47.969,216.545 48.122 C 216.392 48.275,215.677 48.400,214.957 48.400 C 214.237 48.400,213.536 48.580,213.400 48.800 C 213.264 49.020,212.623 49.200,211.976 49.200 C 211.329 49.200,210.800 49.380,210.800 49.600 C 210.800 49.820,210.275 50.000,209.633 50.000 C 208.992 50.000,208.407 50.177,208.333 50.393 C 208.260 50.609,207.525 50.834,206.701 50.893 C 205.876 50.952,205.201 51.099,205.201 51.220 C 205.200 51.521,202.703 52.400,201.848 52.400 C 201.466 52.400,201.264 52.580,201.400 52.800 C 201.550 53.042,200.996 53.200,200.000 53.200 C 199.004 53.200,198.450 53.042,198.600 52.800 C 198.744 52.567,198.345 52.400,197.647 52.400 C 196.987 52.400,196.336 52.220,196.200 52.000 C 196.064 51.780,195.593 51.600,195.153 51.600 C 194.713 51.600,194.436 51.465,194.537 51.300 C 194.639 51.135,194.065 50.952,193.261 50.893 C 192.457 50.834,191.740 50.609,191.667 50.393 C 191.593 50.177,191.008 50.000,190.367 50.000 C 189.725 50.000,189.200 49.820,189.200 49.600 C 189.200 49.380,188.671 49.200,188.024 49.200 C 187.377 49.200,186.736 49.020,186.600 48.800 C 186.464 48.580,185.763 48.400,185.043 48.400 C 184.323 48.400,183.608 48.275,183.455 48.122 C 183.302 47.969,182.867 47.802,182.488 47.752 C 181.031 47.558,177.372 46.716,176.800 46.443 C 176.470 46.285,175.392 46.104,174.404 46.041 C 173.415 45.977,172.335 45.790,172.004 45.625 C 171.672 45.459,170.515 45.287,169.433 45.240 C 168.351 45.194,167.181 45.009,166.833 44.830 C 166.485 44.651,164.760 44.468,163.000 44.424 C 161.240 44.380,159.080 44.240,158.200 44.114 C 155.836 43.776,142.855 43.754,141.000 44.086 C 139.535 44.348,134.970 44.552,132.975 44.444 C 131.974 44.390,130.289 42.903,130.621 42.366 C 130.752 42.154,130.700 42.030,130.504 42.090 C 129.999 42.246,127.373 39.538,127.533 39.026 C 127.607 38.792,127.547 38.720,127.400 38.867 C 127.253 39.013,126.820 38.833,126.438 38.467 C 124.855 36.950,123.200 35.610,123.200 35.845 C 123.200 35.983,122.405 35.445,121.433 34.648 C 120.461 33.852,119.548 33.200,119.405 33.200 C 119.261 33.200,118.392 32.689,117.472 32.065 C 116.552 31.441,115.215 30.677,114.500 30.368 C 113.785 30.058,113.200 29.669,113.200 29.502 C 113.200 29.336,113.065 29.236,112.900 29.279 C 112.366 29.420,110.620 28.723,109.831 28.053 C 109.215 27.530,109.128 27.519,109.390 28.000 C 109.656 28.488,109.617 28.506,109.179 28.100 C 108.882 27.825,108.237 27.600,107.744 27.600 C 107.251 27.600,106.736 27.420,106.600 27.200 C 106.464 26.980,105.859 26.800,105.256 26.800 C 104.653 26.800,103.989 26.638,103.780 26.441 C 102.966 25.671,85.428 24.706,84.741 25.392 M99.800 33.927 C 101.770 34.327,103.378 34.752,105.865 35.529 C 112.946 37.741,121.283 43.883,127.814 51.698 L 129.400 53.596 132.600 53.197 C 144.633 51.700,160.539 52.015,171.000 53.958 C 181.639 55.934,188.783 57.919,196.900 61.156 L 200.000 62.392 203.100 61.156 C 211.217 57.919,218.361 55.934,229.000 53.958 C 239.461 52.015,255.367 51.700,267.400 53.197 L 270.600 53.596 272.183 51.698 C 280.574 41.638,289.837 35.864,301.000 33.736 C 303.426 33.274,313.508 33.384,316.000 33.899 C 320.262 34.782,320.607 34.863,321.400 35.175 C 321.840 35.348,322.920 35.715,323.800 35.991 C 337.013 40.138,350.247 53.236,354.723 66.600 C 355.486 68.878,355.801 70.187,356.779 75.131 C 358.400 83.331,355.238 96.733,349.630 105.431 C 349.141 106.189,349.445 106.785,353.147 112.321 C 355.376 115.654,357.200 118.492,357.200 118.629 C 357.200 118.765,357.533 119.354,357.939 119.938 C 359.444 122.101,364.516 131.779,366.159 135.624 C 366.577 136.601,367.231 138.120,367.613 139.000 C 367.995 139.880,368.706 141.680,369.193 143.000 C 369.680 144.320,370.231 145.760,370.419 146.200 C 370.851 147.215,371.994 150.631,372.425 152.200 C 372.606 152.860,372.957 154.120,373.204 155.000 C 373.451 155.880,373.821 157.275,374.027 158.100 C 374.232 158.925,374.591 160.365,374.825 161.300 C 378.710 176.838,378.698 197.521,374.797 211.000 C 374.543 211.880,374.238 213.097,374.121 213.705 C 374.004 214.313,373.749 214.908,373.554 215.029 C 373.359 215.149,373.200 215.599,373.200 216.029 C 373.200 216.459,373.041 217.123,372.847 217.505 C 372.652 217.887,372.314 218.650,372.095 219.200 C 370.351 223.572,365.886 231.529,364.798 232.201 C 364.495 232.389,363.093 231.283,361.014 229.214 C 357.602 225.820,357.200 225.714,357.200 228.209 C 357.200 228.728,357.020 229.264,356.800 229.400 C 356.580 229.536,356.400 230.076,356.400 230.600 C 356.400 231.124,356.220 231.664,356.000 231.800 C 355.780 231.936,355.600 232.399,355.600 232.829 C 355.600 233.259,355.441 233.923,355.247 234.305 C 355.052 234.687,354.692 235.495,354.447 236.100 C 354.201 236.705,353.796 237.695,353.546 238.300 C 353.297 238.905,352.961 239.760,352.799 240.200 C 352.426 241.217,346.603 253.003,345.685 254.600 C 344.123 257.317,340.938 262.328,339.585 264.200 C 332.782 273.606,329.715 277.300,323.177 283.965 C 318.649 288.581,310.348 295.743,305.600 299.130 C 292.329 308.596,292.957 308.597,291.741 299.100 C 291.441 296.750,291.828 296.613,287.915 300.448 C 277.994 310.169,268.172 317.462,254.500 325.259 C 253.785 325.666,252.525 326.387,251.700 326.860 C 250.875 327.333,249.030 328.344,247.600 329.107 C 246.170 329.870,244.100 330.989,243.000 331.594 C 241.900 332.199,239.740 333.378,238.200 334.214 C 236.660 335.050,234.257 336.424,232.859 337.267 C 231.462 338.110,230.237 338.800,230.137 338.800 C 230.038 338.800,228.896 339.520,227.600 340.400 C 226.304 341.280,225.150 342.000,225.036 342.000 C 224.922 342.000,224.129 342.495,223.274 343.100 C 222.419 343.705,220.837 344.819,219.760 345.575 C 215.320 348.691,209.524 353.640,205.111 358.081 C 202.532 360.676,200.232 362.800,200.000 362.800 C 199.768 362.800,197.468 360.676,194.889 358.081 C 190.476 353.640,184.680 348.691,180.240 345.575 C 179.163 344.819,177.581 343.705,176.726 343.100 C 175.871 342.495,175.078 342.000,174.964 342.000 C 174.850 342.000,173.696 341.280,172.400 340.400 C 171.104 339.520,169.962 338.800,169.863 338.800 C 169.763 338.800,168.538 338.110,167.141 337.267 C 165.743 336.424,163.340 335.050,161.800 334.214 C 160.260 333.378,158.100 332.199,157.000 331.594 C 155.900 330.989,153.830 329.870,152.400 329.107 C 150.970 328.344,149.125 327.333,148.300 326.860 C 147.475 326.387,146.215 325.666,145.500 325.259 C 131.828 317.462,122.006 310.169,112.085 300.448 C 108.172 296.613,108.559 296.750,108.259 299.100 C 107.043 308.597,107.671 308.596,94.400 299.130 C 89.652 295.743,81.351 288.581,76.823 283.965 C 70.285 277.300,67.218 273.606,60.415 264.200 C 59.062 262.328,55.877 257.317,54.315 254.600 C 53.413 253.032,47.596 241.264,47.147 240.100 C 46.113 237.419,45.145 235.075,44.753 234.305 C 44.559 233.923,44.400 233.259,44.400 232.829 C 44.400 232.399,44.220 231.936,44.000 231.800 C 43.780 231.664,43.600 231.124,43.600 230.600 C 43.600 230.076,43.420 229.536,43.200 229.400 C 42.980 229.264,42.800 228.728,42.800 228.209 C 42.800 225.714,42.398 225.820,38.986 229.214 C 36.907 231.283,35.505 232.389,35.202 232.201 C 34.424 231.720,31.935 227.655,30.052 223.789 C 28.220 220.028,27.982 219.477,27.200 217.200 C 26.936 216.430,26.582 215.440,26.415 215.000 C 25.686 213.082,25.200 211.281,25.200 210.495 C 25.200 210.029,25.044 209.551,24.853 209.433 C 24.662 209.315,24.381 208.359,24.227 207.309 C 24.073 206.259,23.779 204.410,23.572 203.200 C 21.047 188.416,22.187 171.175,26.746 155.200 C 26.966 154.430,27.263 153.350,27.406 152.800 C 27.550 152.250,27.807 151.440,27.978 151.000 C 28.149 150.560,28.506 149.480,28.771 148.600 C 29.036 147.720,29.404 146.640,29.588 146.200 C 29.773 145.760,30.512 143.870,31.230 142.000 C 34.003 134.783,39.446 123.695,42.061 119.938 C 42.467 119.354,42.800 118.765,42.800 118.629 C 42.800 118.492,44.624 115.654,46.853 112.321 C 50.555 106.785,50.859 106.189,50.370 105.431 C 45.987 98.634,42.800 88.140,42.800 80.506 C 42.800 77.487,42.957 76.300,44.058 71.000 C 46.329 60.066,54.379 48.725,64.895 41.645 C 67.418 39.946,74.426 36.408,75.276 36.403 C 75.648 36.402,76.064 36.220,76.200 36.000 C 76.336 35.780,76.876 35.600,77.400 35.600 C 77.924 35.600,78.452 35.440,78.573 35.244 C 78.694 35.049,79.379 34.787,80.096 34.664 C 80.813 34.540,82.452 34.263,83.737 34.049 C 85.023 33.834,86.190 33.543,86.332 33.401 C 86.704 33.029,97.439 33.448,99.800 33.927 M84.171 50.786 C 62.481 56.474,55.931 77.312,67.838 102.744 C 68.806 104.812,69.459 106.700,69.295 106.962 C 69.133 107.224,67.701 108.959,66.113 110.819 C 42.979 137.918,33.346 172.828,40.485 203.700 C 41.494 208.067,41.232 208.131,45.845 202.385 C 50.663 196.383,50.407 196.320,52.420 204.000 C 60.818 236.039,75.946 263.089,92.200 275.130 C 95.664 277.696,96.121 277.660,96.458 274.795 C 97.579 265.260,98.028 262.981,98.730 263.267 C 98.908 263.340,100.388 264.930,102.019 266.800 C 116.408 283.299,139.903 303.307,156.806 313.455 C 162.165 316.673,164.962 318.147,177.479 324.352 C 187.430 329.285,196.620 335.120,198.797 337.887 L 199.600 338.908 199.600 325.454 L 199.600 312.000 194.700 311.993 C 179.396 311.971,168.813 308.324,164.292 301.512 C 162.742 299.176,156.861 287.606,154.883 283.000 C 147.153 264.999,142.608 249.959,140.015 233.800 C 139.768 232.260,139.478 230.460,139.370 229.800 C 136.927 214.803,137.732 192.481,141.264 177.296 C 141.738 175.259,142.052 173.549,141.963 173.496 C 141.873 173.443,140.618 172.813,139.174 172.095 C 131.208 168.135,126.496 160.272,123.980 146.738 C 123.562 144.492,123.544 144.471,121.480 143.668 C 116.326 141.665,110.525 140.499,103.996 140.155 C 95.995 139.732,97.763 138.788,110.400 136.732 C 126.953 134.040,146.812 138.032,159.400 146.582 C 163.297 149.229,164.747 150.421,172.946 157.719 C 181.750 165.555,186.129 167.287,191.785 165.171 C 195.012 163.964,195.075 163.851,195.371 158.716 C 195.514 156.232,195.797 151.860,196.000 149.000 C 196.203 146.140,196.559 140.920,196.791 137.400 C 197.372 128.577,197.953 120.003,198.402 113.600 C 198.611 110.630,198.894 106.202,199.031 103.759 C 199.491 95.544,200.571 96.468,201.181 105.600 C 201.423 109.230,201.790 114.450,201.996 117.200 C 202.707 126.696,203.234 133.819,203.624 139.200 C 203.839 142.170,204.192 146.940,204.410 149.800 C 204.627 152.660,204.921 156.935,205.062 159.300 L 205.320 163.600 207.458 164.646 C 213.899 167.797,217.930 166.187,229.680 155.767 C 250.286 137.494,269.190 132.501,297.100 137.960 C 304.224 139.354,287.001 132.296,278.103 130.176 C 269.429 128.109,260.319 129.073,247.328 133.431 C 241.856 135.267,240.800 135.486,240.800 134.783 C 240.800 134.132,242.006 128.336,242.420 127.000 C 246.838 112.728,250.857 106.205,258.278 101.253 C 259.641 100.344,260.839 99.600,260.941 99.600 C 261.310 99.600,270.739 94.071,273.039 92.506 C 277.744 89.304,281.099 85.353,283.255 80.475 C 285.131 76.230,285.279 75.944,287.044 73.151 C 294.399 61.512,307.394 55.001,321.897 55.689 L 326.200 55.893 324.066 54.939 C 307.766 47.655,290.463 53.699,279.516 70.500 C 277.413 73.728,277.006 73.965,274.926 73.169 C 263.412 68.767,242.630 67.839,226.889 71.022 C 218.429 72.733,212.732 74.470,201.934 78.629 C 200.103 79.334,200.009 79.331,196.934 78.455 C 186.601 75.512,185.469 75.229,177.800 73.673 C 157.764 69.607,141.115 69.146,126.605 72.254 C 123.411 72.938,124.122 73.378,120.608 68.542 C 110.304 54.356,96.398 47.579,84.171 50.786 M95.800 62.184 C 101.094 64.017,105.963 67.207,111.135 72.230 C 115.114 76.094,115.110 76.184,110.898 77.613 C 101.880 80.673,90.459 88.002,79.496 97.765 C 75.256 101.541,74.800 101.658,74.800 98.968 C 74.800 95.605,77.679 90.451,82.286 85.567 L 84.869 82.830 83.534 82.016 C 81.895 81.017,77.954 80.919,75.034 81.805 C 71.947 82.741,72.016 81.360,75.231 77.843 C 79.063 73.649,84.989 71.767,91.188 72.774 C 94.750 73.352,95.331 73.240,93.838 72.262 C 90.320 69.957,86.673 68.734,81.217 68.031 C 76.988 67.486,76.559 67.115,78.400 65.593 C 83.323 61.523,90.072 60.200,95.800 62.184 M136.571 149.068 C 136.712 149.435,137.002 150.515,137.215 151.468 C 139.956 163.696,147.737 170.960,158.180 171.039 C 164.348 171.086,164.066 170.675,162.038 176.663 C 159.417 184.399,157.171 193.887,156.041 202.000 C 153.562 219.793,154.255 238.841,158.069 257.800 C 160.031 267.553,163.838 280.364,167.562 289.751 C 168.056 290.994,168.002 290.991,172.200 290.046 C 182.274 287.779,187.822 286.902,194.100 286.583 L 199.600 286.304 199.600 279.418 L 199.600 272.533 197.948 270.166 C 194.553 265.306,188.103 257.976,186.166 256.779 C 183.760 255.292,182.221 256.407,179.650 261.500 C 178.039 264.692,177.660 264.645,175.161 260.942 C 164.709 245.453,171.131 236.422,193.100 235.715 L 199.600 235.506 199.600 206.909 L 199.600 178.311 198.252 178.564 C 193.752 179.408,183.371 176.220,176.800 171.975 C 173.767 170.016,165.600 163.598,165.600 163.174 C 165.600 161.638,160.083 164.925,158.153 167.612 C 156.302 170.188,154.765 169.977,151.266 166.663 C 147.719 163.305,144.230 150.845,146.896 151.055 C 147.278 151.085,147.493 150.950,147.372 150.755 C 147.251 150.560,146.735 150.400,146.224 150.400 C 145.713 150.400,144.100 149.950,142.638 149.400 C 139.456 148.202,136.169 148.022,136.571 149.068 M261.400 149.011 C 260.300 149.298,258.771 149.728,258.003 149.967 C 257.234 150.205,256.120 150.400,255.526 150.400 C 254.933 150.400,254.346 150.563,254.223 150.763 C 254.100 150.962,254.386 151.024,254.860 150.900 C 256.571 150.453,255.260 158.977,252.971 163.183 C 251.050 166.712,244.800 171.370,244.800 169.272 C 244.800 167.831,239.096 163.200,237.322 163.200 C 236.363 163.200,236.154 162.831,236.744 162.180 C 236.934 161.971,235.809 163.069,234.244 164.620 C 232.680 166.171,229.805 168.511,227.856 169.820 L 224.312 172.200 228.056 172.300 C 233.539 172.445,233.221 172.252,235.331 176.737 C 240.095 186.865,243.699 200.858,245.649 216.800 C 246.324 222.318,246.335 242.051,245.667 247.600 C 243.908 262.209,241.919 271.549,237.966 283.766 C 236.741 287.549,237.092 287.293,239.422 282.703 C 244.489 272.724,248.476 260.067,250.356 248.000 C 251.520 240.524,251.775 236.688,251.762 226.800 C 251.745 214.466,251.173 208.814,248.728 196.800 C 247.771 192.094,245.492 183.664,243.744 178.358 C 241.746 172.293,241.735 171.600,243.630 171.600 C 252.852 171.600,261.586 163.321,264.643 151.680 C 265.594 148.060,265.461 147.950,261.400 149.011 M217.600 238.156 C 227.330 241.558,230.823 247.598,227.677 255.576 C 226.632 258.226,226.757 258.508,228.087 256.499 C 234.184 247.286,231.543 241.040,220.272 238.019 C 216.000 236.874,214.198 236.967,217.600 238.156 M183.000 295.400 C 172.063 296.338,170.067 296.966,171.506 299.019 C 173.905 302.442,181.988 303.772,200.200 303.742 C 219.488 303.709,227.911 302.198,227.521 298.840 C 227.158 295.719,201.966 293.772,183.000 295.400 " stroke="none" fill="#5f749f" fill-rule="evenodd"></path><path id="path1" d="M86.200 34.233 C 56.656 38.290,37.045 67.470,45.832 94.300 C 46.791 97.229,48.478 100.967,50.082 103.718 C 51.229 105.685,51.518 107.356,50.788 107.807 C 50.281 108.121,45.558 115.195,43.316 119.000 C 32.192 137.873,26.304 154.440,23.556 174.600 C 22.930 179.197,22.935 195.262,23.564 199.200 C 25.375 210.531,26.795 215.397,30.568 223.200 C 35.009 232.386,34.780 232.247,38.800 228.200 C 42.060 224.918,42.659 224.649,43.035 226.300 C 43.422 227.996,45.581 234.515,46.014 235.295 C 46.226 235.677,46.400 236.166,46.400 236.383 C 46.400 236.599,46.827 237.727,47.349 238.888 C 47.871 240.050,48.810 242.170,49.435 243.600 C 50.856 246.851,53.247 251.426,55.258 254.741 C 56.106 256.138,56.800 257.359,56.800 257.454 C 56.800 257.782,62.552 266.208,64.544 268.800 C 74.640 281.931,86.723 293.300,100.037 302.194 C 106.636 306.603,106.167 306.497,106.748 303.717 C 107.015 302.443,107.405 300.632,107.616 299.694 C 107.827 298.756,108.000 297.631,108.000 297.194 C 108.000 295.796,108.949 296.328,112.010 299.440 C 114.973 302.453,122.200 308.875,124.795 310.800 C 125.536 311.350,126.606 312.181,127.171 312.647 C 129.284 314.387,144.062 324.000,144.623 324.000 C 144.701 324.000,145.628 324.507,146.682 325.127 C 147.737 325.747,149.860 326.940,151.400 327.780 C 152.940 328.619,155.145 329.822,156.300 330.453 C 157.455 331.084,159.435 332.164,160.700 332.854 C 177.121 341.810,187.619 349.426,196.938 359.145 C 200.255 362.605,199.745 362.605,203.062 359.145 C 212.381 349.426,222.879 341.810,239.300 332.854 C 240.565 332.164,242.545 331.084,243.700 330.453 C 244.855 329.822,247.060 328.619,248.600 327.780 C 250.140 326.940,252.263 325.747,253.318 325.127 C 254.372 324.507,255.299 324.000,255.377 324.000 C 255.938 324.000,270.716 314.387,272.829 312.647 C 273.394 312.181,274.464 311.350,275.205 310.800 C 277.800 308.875,285.027 302.453,287.990 299.440 C 291.051 296.328,292.000 295.796,292.000 297.194 C 292.000 297.631,292.173 298.756,292.384 299.694 C 292.595 300.632,292.985 302.443,293.252 303.717 C 293.833 306.497,293.364 306.603,299.963 302.194 C 321.127 288.055,339.039 267.703,349.515 245.893 C 350.442 243.963,351.200 242.303,351.200 242.203 C 351.200 242.102,351.740 240.841,352.400 239.400 C 353.060 237.959,353.600 236.602,353.600 236.385 C 353.600 236.167,353.774 235.677,353.986 235.295 C 354.419 234.515,356.578 227.996,356.965 226.300 C 357.341 224.649,357.940 224.918,361.200 228.200 C 365.174 232.201,365.085 232.252,369.279 223.600 C 371.579 218.856,371.645 218.701,372.754 215.400 C 374.288 210.837,375.142 207.093,376.447 199.200 C 377.097 195.269,377.106 178.856,376.460 174.400 C 373.970 157.206,370.567 146.183,362.938 130.600 C 360.380 125.374,359.723 124.155,356.684 119.000 C 354.442 115.195,349.719 108.121,349.212 107.807 C 348.482 107.356,348.771 105.685,349.918 103.718 C 351.522 100.967,353.209 97.229,354.168 94.300 C 366.397 56.960,324.369 20.999,288.946 38.494 C 283.301 41.282,275.745 47.738,272.347 52.677 C 271.127 54.450,271.061 54.486,269.449 54.224 C 264.475 53.416,261.392 53.167,253.600 52.943 C 239.905 52.549,228.194 54.067,214.200 58.050 C 211.349 58.861,205.514 60.881,202.867 61.972 L 200.000 63.155 197.133 61.972 C 195.556 61.322,192.721 60.278,190.833 59.652 C 187.731 58.624,186.524 58.257,182.600 57.155 C 171.642 54.075,158.832 52.585,146.400 52.943 C 138.608 53.167,135.525 53.416,130.551 54.224 C 128.939 54.486,128.873 54.450,127.653 52.677 C 121.958 44.399,111.701 37.526,101.000 34.815 C 99.042 34.319,88.573 33.908,86.200 34.233 M50.593 42.007 C 49.737 42.883,49.146 43.600,49.279 43.600 C 49.617 43.600,52.458 40.724,52.287 40.554 C 52.211 40.477,51.448 41.131,50.593 42.007 M347.600 40.479 C 347.600 40.817,350.476 43.658,350.646 43.487 C 350.723 43.411,350.069 42.648,349.193 41.793 C 348.317 40.937,347.600 40.346,347.600 40.479 M97.600 50.240 C 104.073 51.848,112.124 57.430,118.010 64.390 C 119.214 65.815,120.396 67.194,120.635 67.454 C 120.874 67.714,121.668 68.859,122.400 69.999 C 123.545 71.785,123.873 72.045,124.765 71.881 C 134.610 70.062,138.995 69.599,146.400 69.597 C 161.479 69.593,178.845 72.441,197.337 77.949 L 200.073 78.764 204.133 77.147 C 207.661 75.741,209.851 74.978,215.400 73.220 C 219.600 71.889,227.220 70.223,234.000 69.152 C 238.494 68.443,256.725 68.421,260.600 69.120 C 267.022 70.279,270.275 71.044,274.200 72.317 C 277.007 73.228,277.207 73.187,278.177 71.487 C 288.660 53.128,307.411 46.690,326.045 55.052 C 329.905 56.785,328.752 57.210,322.423 56.389 C 307.711 54.480,291.316 63.958,285.136 77.945 C 283.283 82.139,283.112 82.463,281.429 85.000 C 278.593 89.273,273.436 93.466,266.200 97.380 C 252.035 105.043,247.290 111.235,242.888 127.800 C 240.853 135.459,240.511 135.052,247.141 132.859 C 252.055 131.233,253.866 130.706,256.800 130.046 C 257.790 129.823,259.590 129.417,260.800 129.144 C 270.208 127.020,283.474 129.662,296.700 136.293 C 302.795 139.349,302.681 139.686,296.000 138.377 C 283.434 135.915,268.012 136.378,257.200 139.543 C 247.430 142.403,239.890 147.118,229.000 157.177 C 219.057 166.361,213.874 168.290,207.419 165.209 L 204.923 164.018 204.473 158.709 C 204.226 155.789,203.831 150.700,203.597 147.400 C 203.362 144.100,203.004 139.240,202.800 136.600 C 202.596 133.960,202.239 129.100,202.005 125.800 C 201.771 122.500,201.404 117.910,201.189 115.600 C 200.975 113.290,200.789 110.320,200.776 109.000 C 200.705 101.341,199.685 102.418,199.176 110.691 C 198.962 114.161,198.613 119.610,198.399 122.800 C 198.186 125.990,197.826 131.390,197.599 134.800 C 197.372 138.210,197.012 143.610,196.798 146.800 C 196.584 149.990,196.307 154.580,196.184 157.000 C 195.850 163.538,195.762 163.892,194.282 164.684 C 186.845 168.666,182.153 166.905,169.367 155.334 C 156.742 143.910,147.533 139.430,132.123 137.214 C 128.403 136.679,115.588 136.680,111.877 137.215 C 100.794 138.815,100.278 139.142,107.800 139.802 C 112.997 140.258,119.787 142.029,123.200 143.818 C 123.923 144.197,124.288 144.821,124.519 146.071 C 126.172 155.018,127.729 159.278,131.240 164.456 C 133.298 167.491,136.396 170.123,139.890 171.804 C 143.033 173.317,143.099 173.473,142.003 176.800 C 141.822 177.350,141.463 178.970,141.206 180.400 C 140.950 181.830,140.588 183.810,140.403 184.800 C 137.832 198.535,137.859 217.030,140.473 232.800 C 143.397 250.442,147.319 263.621,155.236 282.400 C 156.900 286.347,163.115 298.545,164.756 301.083 C 166.772 304.202,169.526 306.262,174.600 308.446 C 178.441 310.098,185.833 311.184,193.300 311.193 L 200.000 311.200 200.000 325.600 C 200.000 340.073,199.923 340.914,198.776 338.897 C 197.113 335.975,187.694 330.086,173.000 322.783 C 159.022 315.836,151.860 311.540,141.899 304.128 C 138.290 301.442,132.561 296.969,132.000 296.398 C 131.890 296.287,130.630 295.211,129.200 294.009 C 121.258 287.332,107.675 274.146,101.702 267.314 C 100.122 265.507,98.757 264.157,98.668 264.314 C 98.579 264.471,98.290 266.130,98.026 268.000 C 97.762 269.870,97.378 272.375,97.173 273.567 C 96.968 274.758,96.800 276.233,96.800 276.843 C 96.800 278.605,96.270 278.534,92.936 276.325 C 82.708 269.549,70.556 253.158,63.038 236.000 C 62.411 234.570,61.471 232.450,60.949 231.288 C 60.427 230.127,60.000 228.999,60.000 228.783 C 60.000 228.566,59.841 228.077,59.647 227.695 C 58.562 225.562,54.666 214.565,53.555 210.500 C 53.360 209.785,53.035 208.615,52.834 207.900 C 52.266 205.885,50.400 198.715,50.400 198.549 C 50.400 197.843,49.217 199.052,46.223 202.816 C 42.436 207.578,41.703 208.400,41.249 208.400 C 40.765 208.400,38.888 200.104,38.018 194.123 C 37.485 190.453,37.474 175.090,38.003 171.633 C 38.685 167.173,39.263 163.864,39.616 162.400 C 39.801 161.630,40.168 160.100,40.430 159.000 C 43.165 147.544,49.591 133.227,56.947 122.200 C 61.084 115.999,67.517 107.670,68.481 107.267 C 69.011 107.045,68.847 106.255,67.840 104.179 C 66.988 102.421,66.260 100.782,65.185 98.200 C 62.714 92.261,61.494 86.133,61.444 79.400 C 61.402 73.623,61.526 72.693,62.894 68.600 C 67.370 55.199,83.408 46.714,97.600 50.240 M86.800 62.167 C 83.903 62.837,81.961 63.691,79.785 65.254 C 77.592 66.828,77.551 67.200,79.569 67.200 C 83.385 67.200,90.051 69.196,93.344 71.324 C 97.050 73.720,97.774 74.693,95.500 74.221 C 86.012 72.255,79.978 73.486,75.595 78.282 C 73.564 80.504,72.959 81.955,74.300 81.391 C 77.135 80.196,82.180 80.309,84.326 81.614 C 86.006 82.635,86.054 82.514,82.495 86.249 C 78.141 90.820,75.200 96.160,75.200 99.495 C 75.200 100.714,75.518 100.595,77.669 98.575 C 87.786 89.076,102.229 79.660,110.800 76.974 C 114.093 75.942,114.093 75.881,110.782 72.690 C 102.136 64.355,93.579 60.601,86.800 62.167 M144.633 149.444 C 148.109 150.842,153.985 154.079,157.337 156.442 C 158.252 157.087,159.945 158.259,161.100 159.046 C 162.255 159.834,164.055 161.234,165.100 162.158 C 177.268 172.916,186.175 177.425,196.000 177.801 L 199.800 177.946 199.903 206.973 L 200.005 236.000 196.103 236.003 C 187.992 236.010,180.173 237.601,175.995 240.095 C 169.184 244.160,169.251 251.028,176.204 261.535 C 177.652 263.722,177.976 263.638,179.400 260.708 C 183.252 252.778,185.606 253.572,195.675 266.200 C 200.287 271.984,200.000 271.109,200.000 279.413 C 200.000 287.920,200.478 287.200,194.832 287.200 C 190.559 287.200,183.816 288.112,177.400 289.559 C 169.866 291.257,168.309 291.540,167.727 291.317 C 167.437 291.205,167.200 290.861,167.200 290.552 C 167.200 290.242,167.034 289.677,166.832 289.295 C 166.630 288.913,166.090 287.565,165.632 286.300 C 165.174 285.035,164.459 283.055,164.043 281.900 C 163.104 279.298,161.033 272.607,160.174 269.400 C 158.639 263.672,158.623 263.604,157.446 257.800 C 156.309 252.197,155.957 250.003,154.714 240.800 C 154.019 235.654,154.021 211.452,154.717 206.800 C 154.996 204.930,155.411 202.050,155.639 200.400 C 155.866 198.750,156.206 196.680,156.393 195.800 C 156.581 194.920,156.956 193.120,157.227 191.800 C 158.226 186.928,159.690 181.633,161.560 176.124 L 163.079 171.647 159.725 171.884 C 149.352 172.616,140.662 165.552,137.233 153.600 C 136.949 152.610,136.555 151.387,136.358 150.881 C 136.161 150.376,136.000 149.406,136.000 148.726 L 136.000 147.490 138.533 147.749 C 139.967 147.896,142.613 148.631,144.633 149.444 M265.769 149.300 C 263.767 161.630,254.090 172.000,244.585 172.000 C 242.227 172.000,242.231 171.933,244.210 177.853 C 246.856 185.768,248.418 191.731,249.958 199.800 C 253.245 217.021,253.504 233.200,250.754 249.400 C 250.246 252.394,249.282 256.891,248.396 260.400 C 247.812 262.714,244.453 273.161,243.853 274.527 C 243.546 275.227,242.985 276.520,242.607 277.400 C 239.541 284.528,235.200 292.006,235.200 290.159 C 235.200 290.027,235.900 287.822,236.756 285.259 C 238.962 278.656,239.783 275.907,240.774 271.800 C 243.179 261.840,243.784 258.277,245.192 245.773 C 245.720 241.078,245.719 223.874,245.189 218.877 C 244.635 213.640,244.023 208.976,243.606 206.800 C 243.416 205.810,243.041 203.830,242.773 202.400 C 242.355 200.170,241.165 195.268,240.007 191.000 C 238.366 184.955,233.535 173.250,232.641 173.151 C 232.398 173.125,230.236 173.080,227.836 173.051 C 222.640 172.990,222.402 172.719,225.689 170.601 C 228.681 168.672,231.651 166.309,235.400 162.872 C 242.359 156.492,249.937 151.845,256.800 149.748 C 258.670 149.177,260.650 148.564,261.200 148.386 C 261.750 148.208,263.050 148.049,264.090 148.032 L 265.980 148.000 265.769 149.300 M216.617 236.584 C 233.104 239.501,236.827 250.029,225.243 260.975 C 223.878 262.265,223.580 261.736,224.729 260.062 C 228.985 253.862,229.124 247.129,225.082 242.898 C 222.348 240.034,213.124 236.814,207.600 236.794 C 206.610 236.791,205.530 236.613,205.200 236.400 C 204.252 235.787,212.903 235.927,216.617 236.584 M214.800 294.811 C 219.850 295.578,222.618 296.045,224.200 296.398 C 225.080 296.594,226.275 296.853,226.856 296.974 C 231.305 297.897,227.213 301.979,220.600 303.216 C 200.263 307.018,170.404 303.766,170.400 297.749 C 170.399 294.910,201.779 292.833,214.800 294.811 M79.600 298.300 C 79.600 298.469,79.960 298.832,80.400 299.107 C 80.840 299.382,81.200 299.469,81.200 299.300 C 81.200 299.131,80.840 298.768,80.400 298.493 C 79.960 298.218,79.600 298.131,79.600 298.300 " stroke="none" fill="#14143c" fill-rule="evenodd"></path><path id="path2" d="M146.274 151.059 C 144.624 152.709,148.141 163.705,151.266 166.663 C 154.776 169.987,156.301 170.190,158.173 167.585 C 159.744 165.398,162.805 163.200,164.278 163.200 C 164.785 163.200,165.195 163.065,165.189 162.900 C 165.171 162.423,154.103 154.400,153.463 154.400 C 153.363 154.400,152.138 153.706,150.741 152.858 C 147.944 151.160,146.682 150.652,146.274 151.059 M254.000 151.090 C 247.012 153.735,233.950 163.200,237.288 163.200 C 239.091 163.200,244.800 167.815,244.800 169.272 C 244.800 170.352,248.196 168.702,250.459 166.523 C 253.330 163.758,254.995 159.612,255.441 154.117 C 255.721 150.661,255.632 150.473,254.000 151.090 " stroke="none" fill="#f3b72a" fill-rule="evenodd"></path><path id="path3" d="M82.590 25.616 C 82.421 25.889,82.723 25.938,83.466 25.760 C 84.999 25.392,85.144 25.200,83.890 25.200 C 83.317 25.200,82.732 25.387,82.590 25.616 M315.233 25.344 C 315.705 25.750,317.643 25.993,317.410 25.616 C 317.268 25.387,316.683 25.200,316.110 25.200 C 315.536 25.200,315.142 25.265,315.233 25.344 M86.332 33.401 C 86.190 33.543,85.023 33.834,83.737 34.049 C 82.452 34.263,80.813 34.540,80.096 34.664 C 79.379 34.787,78.694 35.049,78.573 35.244 C 78.452 35.440,77.924 35.600,77.400 35.600 C 76.876 35.600,76.336 35.780,76.200 36.000 C 76.064 36.220,75.648 36.402,75.276 36.403 C 74.426 36.408,67.418 39.946,64.895 41.645 C 54.379 48.725,46.329 60.066,44.058 71.000 C 42.957 76.300,42.800 77.487,42.800 80.506 C 42.800 88.140,45.987 98.634,50.370 105.431 C 50.859 106.189,50.555 106.785,46.853 112.321 C 44.624 115.654,42.800 118.492,42.800 118.629 C 42.800 118.765,42.467 119.354,42.061 119.938 C 39.446 123.695,34.003 134.783,31.230 142.000 C 30.512 143.870,29.773 145.760,29.588 146.200 C 29.404 146.640,29.036 147.720,28.771 148.600 C 28.506 149.480,28.149 150.560,27.978 151.000 C 27.807 151.440,27.550 152.250,27.406 152.800 C 27.263 153.350,26.966 154.430,26.746 155.200 C 22.187 171.175,21.047 188.416,23.572 203.200 C 23.779 204.410,24.073 206.259,24.227 207.309 C 24.381 208.359,24.662 209.315,24.853 209.433 C 25.044 209.551,25.200 210.029,25.200 210.495 C 25.200 211.281,25.686 213.082,26.415 215.000 C 26.582 215.440,26.936 216.430,27.200 217.200 C 27.982 219.477,28.220 220.028,30.052 223.789 C 31.935 227.655,34.424 231.720,35.202 232.201 C 35.505 232.389,36.907 231.283,38.986 229.214 C 42.398 225.820,42.800 225.714,42.800 228.209 C 42.800 228.728,42.980 229.264,43.200 229.400 C 43.420 229.536,43.600 230.076,43.600 230.600 C 43.600 231.124,43.780 231.664,44.000 231.800 C 44.220 231.936,44.400 232.399,44.400 232.829 C 44.400 233.259,44.559 233.923,44.753 234.305 C 45.145 235.075,46.113 237.419,47.147 240.100 C 47.596 241.264,53.413 253.032,54.315 254.600 C 55.877 257.317,59.062 262.328,60.415 264.200 C 67.218 273.606,70.285 277.300,76.823 283.965 C 81.351 288.581,89.652 295.743,94.400 299.130 C 107.671 308.596,107.043 308.597,108.259 299.100 C 108.559 296.750,108.172 296.613,112.085 300.448 C 122.006 310.169,131.828 317.462,145.500 325.259 C 146.215 325.666,147.475 326.387,148.300 326.860 C 149.125 327.333,150.970 328.344,152.400 329.107 C 153.830 329.870,155.900 330.989,157.000 331.594 C 158.100 332.199,160.260 333.378,161.800 334.214 C 163.340 335.050,165.743 336.424,167.141 337.267 C 168.538 338.110,169.763 338.800,169.863 338.800 C 169.962 338.800,171.104 339.520,172.400 340.400 C 173.696 341.280,174.850 342.000,174.964 342.000 C 175.078 342.000,175.871 342.495,176.726 343.100 C 177.581 343.705,179.163 344.819,180.240 345.575 C 184.680 348.691,190.476 353.640,194.889 358.081 C 197.468 360.676,199.768 362.800,200.000 362.800 C 200.232 362.800,202.532 360.676,205.111 358.081 C 209.524 353.640,215.320 348.691,219.760 345.575 C 220.837 344.819,222.419 343.705,223.274 343.100 C 224.129 342.495,224.922 342.000,225.036 342.000 C 225.150 342.000,226.304 341.280,227.600 340.400 C 228.896 339.520,230.038 338.800,230.137 338.800 C 230.237 338.800,231.462 338.110,232.859 337.267 C 234.257 336.424,236.660 335.050,238.200 334.214 C 239.740 333.378,241.900 332.199,243.000 331.594 C 244.100 330.989,246.170 329.870,247.600 329.107 C 249.030 328.344,250.875 327.333,251.700 326.860 C 252.525 326.387,253.785 325.666,254.500 325.259 C 268.172 317.462,277.994 310.169,287.915 300.448 C 291.828 296.613,291.441 296.750,291.741 299.100 C 292.957 308.597,292.329 308.596,305.600 299.130 C 310.348 295.743,318.649 288.581,323.177 283.965 C 329.715 277.300,332.782 273.606,339.585 264.200 C 340.938 262.328,344.123 257.317,345.685 254.600 C 346.603 253.003,352.426 241.217,352.799 240.200 C 352.961 239.760,353.297 238.905,353.546 238.300 C 353.796 237.695,354.201 236.705,354.447 236.100 C 354.692 235.495,355.052 234.687,355.247 234.305 C 355.441 233.923,355.600 233.259,355.600 232.829 C 355.600 232.399,355.780 231.936,356.000 231.800 C 356.220 231.664,356.400 231.124,356.400 230.600 C 356.400 230.076,356.580 229.536,356.800 229.400 C 357.020 229.264,357.200 228.728,357.200 228.209 C 357.200 225.714,357.602 225.820,361.014 229.214 C 363.093 231.283,364.495 232.389,364.798 232.201 C 365.886 231.529,370.351 223.572,372.095 219.200 C 372.314 218.650,372.652 217.887,372.847 217.505 C 373.041 217.123,373.200 216.459,373.200 216.029 C 373.200 215.599,373.359 215.149,373.554 215.029 C 373.749 214.908,374.004 214.313,374.121 213.705 C 374.238 213.097,374.543 211.880,374.797 211.000 C 378.698 197.521,378.710 176.838,374.825 161.300 C 374.591 160.365,374.232 158.925,374.027 158.100 C 373.821 157.275,373.451 155.880,373.204 155.000 C 372.957 154.120,372.606 152.860,372.425 152.200 C 371.994 150.631,370.851 147.215,370.419 146.200 C 370.231 145.760,369.680 144.320,369.193 143.000 C 368.706 141.680,367.995 139.880,367.613 139.000 C 367.231 138.120,366.577 136.601,366.159 135.624 C 364.516 131.779,359.444 122.101,357.939 119.938 C 357.533 119.354,357.200 118.765,357.200 118.629 C 357.200 118.492,355.376 115.654,353.147 112.321 C 349.445 106.785,349.141 106.189,349.630 105.431 C 355.238 96.733,358.400 83.331,356.779 75.131 C 355.801 70.187,355.486 68.878,354.723 66.600 C 350.247 53.236,337.013 40.138,323.800 35.991 C 322.920 35.715,321.840 35.348,321.400 35.175 C 320.607 34.863,320.262 34.782,316.000 33.899 C 313.508 33.384,303.426 33.274,301.000 33.736 C 289.837 35.864,280.574 41.638,272.183 51.698 L 270.600 53.596 267.400 53.197 C 255.367 51.700,239.461 52.015,229.000 53.958 C 218.361 55.934,211.217 57.919,203.100 61.156 L 200.000 62.392 196.900 61.156 C 188.783 57.919,181.639 55.934,171.000 53.958 C 160.539 52.015,144.633 51.700,132.600 53.197 L 129.400 53.596 127.814 51.698 C 121.283 43.883,112.946 37.741,105.865 35.529 C 103.378 34.752,101.770 34.327,99.800 33.927 C 97.439 33.448,86.704 33.029,86.332 33.401 M59.700 34.544 C 59.205 34.789,58.800 35.133,58.800 35.309 C 58.800 35.694,60.255 34.959,60.601 34.398 C 60.737 34.179,60.792 34.022,60.724 34.049 C 60.656 34.076,60.195 34.299,59.700 34.544 M101.000 34.815 C 111.701 37.526,121.958 44.399,127.653 52.677 C 128.873 54.450,128.939 54.486,130.551 54.224 C 146.512 51.633,167.068 52.790,182.600 57.155 C 186.524 58.257,187.731 58.624,190.833 59.652 C 192.721 60.278,195.556 61.322,197.133 61.972 L 200.000 63.155 202.867 61.972 C 211.338 58.479,222.515 55.521,232.800 54.049 C 240.375 52.966,245.299 52.704,253.600 52.943 C 261.392 53.167,264.475 53.416,269.449 54.224 C 271.061 54.486,271.127 54.450,272.347 52.677 C 290.684 26.025,331.403 28.618,349.654 57.600 C 356.518 68.499,358.183 82.040,354.168 94.300 C 353.209 97.229,351.522 100.967,349.918 103.718 C 348.771 105.685,348.482 107.356,349.212 107.807 C 350.010 108.300,355.501 116.843,359.364 123.600 C 361.882 128.005,366.115 137.008,368.204 142.400 C 372.683 153.960,374.547 161.185,376.460 174.400 C 377.106 178.856,377.097 195.269,376.447 199.200 C 375.142 207.093,374.288 210.837,372.754 215.400 C 370.693 221.530,365.703 231.200,364.601 231.200 C 364.369 231.200,362.839 229.850,361.200 228.200 C 357.940 224.918,357.341 224.649,356.965 226.300 C 356.578 227.996,354.419 234.515,353.986 235.295 C 353.774 235.677,353.600 236.167,353.600 236.385 C 353.600 236.602,353.060 237.959,352.400 239.400 C 351.740 240.841,351.200 242.102,351.200 242.203 C 351.200 242.303,350.442 243.963,349.515 245.893 C 339.039 267.703,321.127 288.055,299.963 302.194 C 293.364 306.603,293.833 306.497,293.252 303.717 C 292.985 302.443,292.595 300.632,292.384 299.694 C 292.173 298.756,292.000 297.631,292.000 297.194 C 292.000 295.796,291.051 296.328,287.990 299.440 C 285.027 302.453,277.800 308.875,275.205 310.800 C 274.464 311.350,273.394 312.181,272.829 312.647 C 270.716 314.387,255.938 324.000,255.377 324.000 C 255.299 324.000,254.372 324.507,253.318 325.127 C 252.263 325.747,250.140 326.940,248.600 327.780 C 247.060 328.619,244.855 329.822,243.700 330.453 C 242.545 331.084,240.565 332.164,239.300 332.854 C 222.879 341.810,212.381 349.426,203.062 359.145 C 199.745 362.605,200.255 362.605,196.938 359.145 C 187.619 349.426,177.121 341.810,160.700 332.854 C 159.435 332.164,157.455 331.084,156.300 330.453 C 155.145 329.822,152.940 328.619,151.400 327.780 C 149.860 326.940,147.737 325.747,146.682 325.127 C 145.628 324.507,144.701 324.000,144.623 324.000 C 144.062 324.000,129.284 314.387,127.171 312.647 C 126.606 312.181,125.536 311.350,124.795 310.800 C 122.200 308.875,114.973 302.453,112.010 299.440 C 108.949 296.328,108.000 295.796,108.000 297.194 C 108.000 297.631,107.827 298.756,107.616 299.694 C 107.405 300.632,107.015 302.443,106.748 303.717 C 106.167 306.497,106.636 306.603,100.037 302.194 C 84.209 291.620,70.234 277.674,59.673 261.913 C 58.093 259.556,56.800 257.549,56.800 257.454 C 56.800 257.359,56.106 256.138,55.258 254.741 C 53.247 251.426,50.856 246.851,49.435 243.600 C 48.810 242.170,47.871 240.050,47.349 238.888 C 46.827 237.727,46.400 236.599,46.400 236.383 C 46.400 236.166,46.226 235.677,46.014 235.295 C 45.581 234.515,43.422 227.996,43.035 226.300 C 42.659 224.649,42.060 224.918,38.800 228.200 C 34.780 232.247,35.009 232.386,30.568 223.200 C 27.827 217.531,26.565 214.000,25.278 208.400 C 23.534 200.807,23.085 196.484,23.075 187.200 C 23.053 165.802,29.086 143.960,40.644 123.600 C 44.321 117.122,49.986 108.303,50.788 107.807 C 51.518 107.356,51.229 105.685,50.082 103.718 C 48.478 100.967,46.791 97.229,45.832 94.300 C 37.045 67.470,56.656 38.290,86.200 34.233 C 88.573 33.908,99.042 34.319,101.000 34.815 M120.800 34.125 C 120.800 34.193,121.340 34.649,122.000 35.137 C 123.401 36.173,123.586 35.990,122.325 34.816 C 121.556 34.099,120.800 33.757,120.800 34.125 M277.675 34.816 C 276.414 35.990,276.599 36.173,278.000 35.137 C 278.660 34.649,279.200 34.193,279.200 34.125 C 279.200 33.757,278.444 34.099,277.675 34.816 M339.200 34.373 C 339.200 34.537,339.650 34.877,340.200 35.127 C 340.750 35.378,341.199 35.452,341.197 35.291 C 341.195 35.131,340.745 34.792,340.197 34.538 C 339.649 34.283,339.200 34.209,339.200 34.373 M55.260 37.842 C 54.962 38.178,54.799 38.532,54.895 38.629 C 54.992 38.726,55.398 38.444,55.798 38.002 C 56.197 37.561,56.361 37.207,56.162 37.215 C 55.963 37.224,55.557 37.505,55.260 37.842 M344.202 38.002 C 344.602 38.444,345.011 38.722,345.112 38.621 C 345.328 38.405,344.188 37.200,343.767 37.200 C 343.607 37.200,343.803 37.561,344.202 38.002 M270.222 41.452 C 268.764 42.910,267.622 44.156,267.686 44.219 C 267.867 44.400,268.824 43.542,271.186 41.079 C 274.218 37.919,273.464 38.210,270.222 41.452 M130.030 42.289 C 131.142 43.536,132.147 44.387,132.313 44.221 C 132.462 44.071,129.589 41.200,129.290 41.200 C 129.164 41.200,129.497 41.690,130.030 42.289 M140.800 43.945 C 140.800 44.134,141.250 44.203,141.800 44.098 C 142.350 43.993,142.800 43.838,142.800 43.753 C 142.800 43.669,142.350 43.600,141.800 43.600 C 141.250 43.600,140.800 43.755,140.800 43.945 M156.442 43.776 C 156.825 44.158,158.800 44.324,158.800 43.974 C 158.800 43.768,158.230 43.600,157.533 43.600 C 156.837 43.600,156.346 43.679,156.442 43.776 M241.200 43.974 C 241.200 44.179,241.691 44.258,242.291 44.149 C 243.856 43.865,243.941 43.600,242.467 43.600 C 241.770 43.600,241.200 43.768,241.200 43.974 M257.200 43.753 C 257.200 43.838,257.650 43.993,258.200 44.098 C 258.750 44.203,259.200 44.134,259.200 43.945 C 259.200 43.755,258.750 43.600,258.200 43.600 C 257.650 43.600,257.200 43.669,257.200 43.753 M227.000 45.600 C 226.864 45.820,227.023 46.000,227.353 46.000 C 227.683 46.000,228.064 45.820,228.200 45.600 C 228.336 45.380,228.177 45.200,227.847 45.200 C 227.517 45.200,227.136 45.380,227.000 45.600 M46.460 46.642 C 46.162 46.978,45.999 47.332,46.095 47.429 C 46.192 47.526,46.598 47.244,46.998 46.802 C 47.397 46.361,47.561 46.007,47.362 46.015 C 47.163 46.024,46.757 46.305,46.460 46.642 M353.002 46.802 C 353.402 47.244,353.811 47.522,353.912 47.421 C 354.128 47.205,352.988 46.000,352.567 46.000 C 352.407 46.000,352.603 46.361,353.002 46.802 M44.093 50.000 C 43.818 50.440,43.731 50.800,43.900 50.800 C 44.069 50.800,44.432 50.440,44.707 50.000 C 44.982 49.560,45.069 49.200,44.900 49.200 C 44.731 49.200,44.368 49.560,44.093 50.000 M87.200 49.603 C 77.952 50.681,67.910 57.542,64.302 65.249 C 61.846 70.494,61.395 72.726,61.444 79.400 C 61.494 86.133,62.714 92.261,65.185 98.200 C 66.260 100.782,66.988 102.421,67.840 104.179 C 68.847 106.255,69.011 107.045,68.481 107.267 C 67.517 107.670,61.084 115.999,56.947 122.200 C 49.591 133.227,43.165 147.544,40.430 159.000 C 40.168 160.100,39.801 161.630,39.616 162.400 C 39.263 163.864,38.685 167.173,38.003 171.633 C 37.474 175.090,37.485 190.453,38.018 194.123 C 38.888 200.104,40.765 208.400,41.249 208.400 C 41.703 208.400,42.436 207.578,46.223 202.816 C 49.217 199.052,50.400 197.843,50.400 198.549 C 50.400 198.715,52.266 205.885,52.834 207.900 C 53.035 208.615,53.360 209.785,53.555 210.500 C 54.666 214.565,58.562 225.562,59.647 227.695 C 59.841 228.077,60.000 228.566,60.000 228.783 C 60.000 228.999,60.427 230.127,60.949 231.288 C 61.471 232.450,62.411 234.570,63.038 236.000 C 70.556 253.158,82.708 269.549,92.936 276.325 C 96.270 278.534,96.800 278.605,96.800 276.843 C 96.800 276.233,96.968 274.758,97.173 273.567 C 97.378 272.375,97.762 269.870,98.026 268.000 C 98.290 266.130,98.579 264.471,98.668 264.314 C 98.757 264.157,100.122 265.507,101.702 267.314 C 107.675 274.146,121.258 287.332,129.200 294.009 C 130.630 295.211,131.890 296.287,132.000 296.398 C 132.561 296.969,138.290 301.442,141.899 304.128 C 151.860 311.540,159.022 315.836,173.000 322.783 C 187.694 330.086,197.113 335.975,198.776 338.897 C 199.923 340.914,200.000 340.073,200.000 325.600 L 200.000 311.200 193.300 311.193 C 185.833 311.184,178.441 310.098,174.600 308.446 C 167.062 305.202,165.655 303.616,159.659 291.602 C 156.225 284.723,155.725 283.627,152.904 276.800 C 143.754 254.658,138.400 229.261,138.400 208.002 C 138.400 201.263,139.323 190.567,140.403 184.800 C 140.588 183.810,140.950 181.830,141.206 180.400 C 141.463 178.970,141.822 177.350,142.003 176.800 C 143.099 173.473,143.033 173.317,139.890 171.804 C 136.396 170.123,133.298 167.491,131.240 164.456 C 127.729 159.278,126.172 155.018,124.519 146.071 C 124.288 144.821,123.923 144.197,123.200 143.818 C 119.787 142.029,112.997 140.258,107.800 139.802 C 100.278 139.142,100.794 138.815,111.877 137.215 C 115.588 136.680,128.403 136.679,132.123 137.214 C 147.533 139.430,156.742 143.910,169.367 155.334 C 182.153 166.905,186.845 168.666,194.282 164.684 C 195.762 163.892,195.850 163.538,196.184 157.000 C 196.307 154.580,196.584 149.990,196.798 146.800 C 197.012 143.610,197.372 138.210,197.599 134.800 C 197.826 131.390,198.186 125.990,198.399 122.800 C 198.613 119.610,198.962 114.161,199.176 110.691 C 199.685 102.418,200.705 101.341,200.776 109.000 C 200.789 110.320,200.975 113.290,201.189 115.600 C 201.404 117.910,201.771 122.500,202.005 125.800 C 202.239 129.100,202.596 133.960,202.800 136.600 C 203.004 139.240,203.362 144.100,203.597 147.400 C 203.831 150.700,204.226 155.789,204.473 158.709 L 204.923 164.018 207.419 165.209 C 213.874 168.290,219.057 166.361,229.000 157.177 C 246.197 141.291,258.775 136.338,280.400 136.935 C 288.232 137.151,291.091 137.415,296.000 138.377 C 302.681 139.686,302.795 139.349,296.700 136.293 C 283.474 129.662,270.208 127.020,260.800 129.144 C 259.590 129.417,257.790 129.823,256.800 130.046 C 253.866 130.706,252.055 131.233,247.141 132.859 C 240.967 134.901,241.016 134.919,242.032 131.046 C 243.130 126.858,243.387 125.976,244.497 122.600 C 248.848 109.370,253.038 104.501,266.200 97.380 C 273.436 93.466,278.593 89.273,281.429 85.000 C 283.112 82.463,283.283 82.139,285.136 77.945 C 291.316 63.958,307.711 54.480,322.423 56.389 C 328.752 57.210,329.905 56.785,326.045 55.052 C 307.411 46.690,288.660 53.128,278.177 71.487 C 277.207 73.187,277.007 73.228,274.200 72.317 C 270.275 71.044,267.022 70.279,260.600 69.120 C 256.725 68.421,238.494 68.443,234.000 69.152 C 227.220 70.223,219.600 71.889,215.400 73.220 C 209.851 74.978,207.661 75.741,204.133 77.147 L 200.073 78.764 197.337 77.949 C 178.845 72.441,161.479 69.593,146.400 69.597 C 138.995 69.599,134.610 70.062,124.765 71.881 C 123.873 72.045,123.545 71.785,122.400 69.999 C 121.668 68.859,120.874 67.714,120.635 67.454 C 120.396 67.194,119.214 65.815,118.010 64.390 C 108.820 53.523,98.024 48.341,87.200 49.603 M355.293 50.000 C 355.568 50.440,355.931 50.800,356.100 50.800 C 356.269 50.800,356.182 50.440,355.907 50.000 C 355.632 49.560,355.269 49.200,355.100 49.200 C 354.931 49.200,355.018 49.560,355.293 50.000 M97.014 50.804 C 105.312 52.926,114.022 59.474,120.608 68.542 C 124.122 73.378,123.411 72.938,126.605 72.254 C 141.115 69.146,157.764 69.607,177.800 73.673 C 185.469 75.229,186.601 75.512,196.934 78.455 C 200.009 79.331,200.103 79.334,201.934 78.629 C 212.732 74.470,218.429 72.733,226.889 71.022 C 242.630 67.839,263.412 68.767,274.926 73.169 C 277.006 73.965,277.413 73.728,279.516 70.500 C 290.463 53.699,307.766 47.655,324.066 54.939 L 326.200 55.893 321.897 55.689 C 307.394 55.001,294.399 61.512,287.044 73.151 C 285.279 75.944,285.131 76.230,283.255 80.475 C 281.099 85.353,277.744 89.304,273.039 92.506 C 270.739 94.071,261.310 99.600,260.941 99.600 C 260.839 99.600,259.641 100.344,258.278 101.253 C 250.857 106.205,246.838 112.728,242.420 127.000 C 242.006 128.336,240.800 134.132,240.800 134.783 C 240.800 135.486,241.856 135.267,247.328 133.431 C 266.294 127.068,278.674 127.875,296.008 136.604 C 299.262 138.243,299.396 138.409,297.100 137.960 C 287.982 136.177,273.922 135.602,267.200 136.738 C 251.419 139.404,243.741 143.298,229.680 155.767 C 217.930 166.187,213.899 167.797,207.458 164.646 L 205.320 163.600 205.062 159.300 C 204.921 156.935,204.627 152.660,204.410 149.800 C 204.192 146.940,203.839 142.170,203.624 139.200 C 203.234 133.819,202.707 126.696,201.996 117.200 C 201.790 114.450,201.423 109.230,201.181 105.600 C 200.571 96.468,199.491 95.544,199.031 103.759 C 198.894 106.202,198.611 110.630,198.402 113.600 C 197.953 120.003,197.372 128.577,196.791 137.400 C 196.559 140.920,196.203 146.140,196.000 149.000 C 195.797 151.860,195.514 156.232,195.371 158.716 C 195.075 163.851,195.012 163.964,191.785 165.171 C 186.129 167.287,181.750 165.555,172.946 157.719 C 164.747 150.421,163.297 149.229,159.400 146.582 C 146.812 138.032,126.953 134.040,110.400 136.732 C 102.854 137.960,98.800 138.969,98.800 139.619 C 98.800 139.763,101.138 140.004,103.996 140.155 C 110.525 140.499,116.326 141.665,121.480 143.668 C 123.544 144.471,123.562 144.492,123.980 146.738 C 126.496 160.272,131.208 168.135,139.174 172.095 C 140.618 172.813,141.873 173.443,141.963 173.496 C 142.052 173.549,141.738 175.259,141.264 177.296 C 137.732 192.481,136.927 214.803,139.370 229.800 C 139.478 230.460,139.768 232.260,140.015 233.800 C 144.186 259.791,159.190 298.515,167.694 305.237 C 173.275 309.648,182.580 311.976,194.700 311.993 L 199.600 312.000 199.600 325.454 L 199.600 338.908 198.797 337.887 C 196.620 335.120,187.430 329.285,177.479 324.352 C 164.962 318.147,162.165 316.673,156.806 313.455 C 139.903 303.307,116.408 283.299,102.019 266.800 C 100.388 264.930,98.908 263.340,98.730 263.267 C 98.028 262.981,97.579 265.260,96.458 274.795 C 96.121 277.660,95.664 277.696,92.200 275.130 C 75.946 263.089,60.818 236.039,52.420 204.000 C 50.407 196.320,50.663 196.383,45.845 202.385 C 41.232 208.131,41.494 208.067,40.485 203.700 C 33.346 172.828,42.979 137.918,66.113 110.819 C 67.701 108.959,69.133 107.224,69.295 106.962 C 69.459 106.700,68.806 104.812,67.838 102.744 C 60.689 87.475,59.981 73.115,65.909 63.600 C 72.197 53.505,85.761 47.925,97.014 50.804 M85.557 61.757 C 81.886 62.815,76.592 66.338,77.417 67.173 C 77.647 67.405,79.357 67.791,81.217 68.031 C 86.673 68.734,90.320 69.957,93.838 72.262 C 95.331 73.240,94.750 73.352,91.188 72.774 C 84.989 71.767,79.063 73.649,75.231 77.843 C 72.016 81.360,71.947 82.741,75.034 81.805 C 77.954 80.919,81.895 81.017,83.534 82.016 L 84.869 82.830 82.286 85.567 C 77.679 90.451,74.800 95.605,74.800 98.968 C 74.800 101.658,75.256 101.541,79.496 97.765 C 90.459 88.002,101.880 80.673,110.898 77.613 C 115.110 76.184,115.114 76.094,111.135 72.230 C 102.196 63.548,92.753 59.682,85.557 61.757 M95.100 62.645 C 99.796 63.864,105.251 67.359,110.782 72.690 C 114.093 75.881,114.093 75.942,110.800 76.974 C 102.229 79.660,87.786 89.076,77.669 98.575 C 75.518 100.595,75.200 100.714,75.200 99.495 C 75.200 96.160,78.141 90.820,82.495 86.249 C 86.054 82.514,86.006 82.635,84.326 81.614 C 82.180 80.309,77.135 80.196,74.300 81.391 C 72.959 81.955,73.564 80.504,75.595 78.282 C 79.978 73.486,86.012 72.255,95.500 74.221 C 97.774 74.693,97.050 73.720,93.344 71.324 C 90.051 69.196,83.385 67.200,79.569 67.200 C 77.551 67.200,77.592 66.828,79.785 65.254 C 84.438 61.912,89.173 61.106,95.100 62.645 M136.000 148.724 C 136.000 149.405,136.161 150.376,136.358 150.881 C 136.555 151.387,136.949 152.610,137.233 153.600 C 140.662 165.552,149.352 172.616,159.725 171.884 L 163.079 171.647 161.560 176.124 C 159.690 181.633,158.226 186.928,157.227 191.800 C 156.956 193.120,156.581 194.920,156.393 195.800 C 156.206 196.680,155.866 198.750,155.639 200.400 C 155.411 202.050,154.996 204.930,154.717 206.800 C 154.021 211.452,154.019 235.654,154.714 240.800 C 155.957 250.003,156.309 252.197,157.446 257.800 C 158.623 263.604,158.639 263.672,160.174 269.400 C 161.033 272.607,163.104 279.298,164.043 281.900 C 164.459 283.055,165.174 285.035,165.632 286.300 C 166.090 287.565,166.630 288.913,166.832 289.295 C 167.034 289.677,167.200 290.242,167.200 290.552 C 167.200 290.861,167.437 291.205,167.727 291.317 C 168.309 291.540,169.866 291.257,177.400 289.559 C 183.816 288.112,190.559 287.200,194.832 287.200 C 200.478 287.200,200.000 287.920,200.000 279.413 C 200.000 271.109,200.287 271.984,195.675 266.200 C 185.606 253.572,183.252 252.778,179.400 260.708 C 177.976 263.638,177.652 263.722,176.204 261.535 C 170.624 253.102,169.553 247.751,172.550 243.273 C 174.937 239.706,179.354 237.796,188.000 236.592 C 190.310 236.270,193.956 236.005,196.103 236.003 L 200.005 236.000 199.903 206.973 L 199.800 177.946 196.000 177.801 C 187.026 177.457,179.535 174.017,169.060 165.430 C 166.893 163.654,164.463 161.665,163.660 161.010 C 162.857 160.356,163.190 160.809,164.400 162.018 C 174.958 172.568,190.284 180.059,198.252 178.564 L 199.600 178.311 199.600 206.909 L 199.600 235.506 193.100 235.715 C 171.131 236.422,164.709 245.453,175.161 260.942 C 177.660 264.645,178.039 264.692,179.650 261.500 C 182.221 256.407,183.760 255.292,186.166 256.779 C 188.103 257.976,194.553 265.306,197.948 270.166 L 199.600 272.533 199.600 279.418 L 199.600 286.304 194.100 286.583 C 187.822 286.902,182.274 287.779,172.200 290.046 C 168.002 290.991,168.056 290.994,167.562 289.751 C 162.937 278.094,158.753 263.042,156.846 251.200 C 155.095 240.332,154.704 235.324,154.703 223.800 C 154.703 210.865,155.291 204.700,157.662 192.800 C 158.533 188.431,160.465 181.305,162.038 176.663 C 164.066 170.675,164.348 171.086,158.180 171.039 C 147.737 170.960,139.956 163.696,137.215 151.468 C 137.002 150.515,136.712 149.435,136.571 149.068 C 136.168 148.018,139.461 148.204,142.674 149.413 C 144.155 149.971,145.638 150.374,145.970 150.310 C 147.092 150.094,141.019 148.010,138.500 147.747 L 136.000 147.486 136.000 148.724 M260.400 148.620 C 256.468 149.757,255.004 150.321,255.886 150.360 C 256.373 150.382,257.543 150.146,258.486 149.835 C 261.132 148.963,264.776 148.242,265.067 148.534 C 265.830 149.297,262.734 157.963,260.397 161.604 C 256.865 167.108,249.331 171.600,243.630 171.600 C 241.735 171.600,241.746 172.293,243.744 178.358 C 246.625 187.104,249.214 197.832,250.367 205.800 C 251.539 213.902,251.748 217.057,251.762 226.800 C 251.775 236.688,251.520 240.524,250.356 248.000 C 248.476 260.067,244.489 272.724,239.422 282.703 C 237.092 287.293,236.741 287.549,237.966 283.766 C 241.919 271.549,243.908 262.209,245.667 247.600 C 246.335 242.051,246.324 222.318,245.649 216.800 C 243.699 200.858,240.095 186.865,235.331 176.737 C 233.221 172.252,233.539 172.445,228.056 172.300 L 224.312 172.200 227.749 169.867 C 231.701 167.185,234.815 164.486,236.060 162.665 C 236.722 161.696,236.418 161.877,234.762 163.438 C 231.893 166.143,228.721 168.647,225.689 170.601 C 222.402 172.719,222.640 172.990,227.836 173.051 C 230.236 173.080,232.398 173.125,232.641 173.151 C 233.535 173.250,238.366 184.955,240.007 191.000 C 241.165 195.268,242.355 200.170,242.773 202.400 C 243.041 203.830,243.416 205.810,243.606 206.800 C 244.023 208.976,244.635 213.640,245.189 218.877 C 245.719 223.874,245.720 241.078,245.192 245.773 C 243.263 262.903,241.558 270.884,236.756 285.259 C 235.900 287.822,235.200 290.027,235.200 290.159 C 235.200 292.006,239.541 284.528,242.607 277.400 C 242.985 276.520,243.546 275.227,243.853 274.527 C 244.453 273.161,247.812 262.714,248.396 260.400 C 250.688 251.321,251.667 244.998,252.441 234.278 C 253.150 224.447,252.235 211.729,249.958 199.800 C 248.418 191.731,246.856 185.768,244.210 177.853 C 242.231 171.933,242.227 172.000,244.585 172.000 C 254.090 172.000,263.767 161.630,265.769 149.300 L 265.980 148.000 264.090 148.050 C 263.050 148.077,261.390 148.334,260.400 148.620 M153.000 153.873 C 153.795 154.650,159.694 158.476,159.426 158.041 C 159.274 157.796,157.946 156.817,156.475 155.866 C 153.326 153.831,152.431 153.318,153.000 153.873 M244.730 155.590 C 243.042 156.684,241.550 157.758,241.414 157.978 C 241.189 158.342,246.892 154.721,247.780 153.936 C 248.665 153.153,247.606 153.728,244.730 155.590 M239.185 159.629 L 237.800 160.858 239.300 159.781 C 240.626 158.830,241.057 158.400,240.685 158.400 C 240.622 158.400,239.947 158.953,239.185 159.629 M14.800 203.533 C 14.800 204.010,14.964 204.400,15.165 204.400 C 15.571 204.400,15.511 203.377,15.078 202.945 C 14.925 202.792,14.800 203.057,14.800 203.533 M383.908 207.183 C 383.631 208.167,383.797 208.737,384.232 208.301 C 384.360 208.173,384.401 207.648,384.324 207.134 L 384.184 206.200 383.908 207.183 M374.088 233.203 C 372.912 235.263,373.188 235.261,374.553 233.200 C 375.135 232.320,375.474 231.601,375.306 231.603 C 375.138 231.605,374.590 232.325,374.088 233.203 M26.000 234.193 C 26.000 234.325,26.382 234.831,26.849 235.317 L 27.699 236.200 27.247 235.322 C 26.800 234.454,26.000 233.729,26.000 234.193 M205.200 236.400 C 205.530 236.613,206.610 236.791,207.600 236.794 C 213.124 236.814,222.348 240.034,225.082 242.898 C 229.124 247.129,228.985 253.862,224.729 260.062 C 223.580 261.736,223.878 262.265,225.243 260.975 C 235.246 251.523,233.799 241.735,221.817 237.804 C 217.276 236.314,203.231 235.127,205.200 236.400 M220.272 238.019 C 231.543 241.040,234.184 247.286,228.087 256.499 C 226.757 258.508,226.632 258.226,227.677 255.576 C 230.823 247.598,227.330 241.558,217.600 238.156 C 214.198 236.967,216.000 236.874,220.272 238.019 M28.400 237.938 C 28.400 238.124,28.788 238.619,29.262 239.038 L 30.124 239.800 29.416 238.700 C 28.686 237.566,28.400 237.351,28.400 237.938 M36.800 243.000 C 36.054 243.770,35.574 244.400,35.735 244.400 C 35.895 244.400,36.657 243.770,37.427 243.000 C 38.197 242.230,38.676 241.600,38.492 241.600 C 38.308 241.600,37.546 242.230,36.800 243.000 M362.573 243.000 C 363.343 243.770,364.105 244.400,364.265 244.400 C 364.426 244.400,363.946 243.770,363.200 243.000 C 362.454 242.230,361.692 241.600,361.508 241.600 C 361.324 241.600,361.803 242.230,362.573 243.000 M49.200 263.538 C 49.200 263.724,49.588 264.219,50.062 264.638 L 50.924 265.400 50.216 264.300 C 49.486 263.166,49.200 262.951,49.200 263.538 M349.064 265.129 C 348.699 265.533,348.400 266.018,348.400 266.207 C 348.400 266.396,348.778 266.145,349.240 265.649 C 349.702 265.153,350.001 264.668,349.904 264.571 C 349.808 264.474,349.430 264.725,349.064 265.129 M52.422 268.200 C 52.427 268.729,53.542 270.191,53.769 269.965 C 53.866 269.868,53.602 269.341,53.182 268.794 C 52.761 268.247,52.420 267.980,52.422 268.200 M54.896 271.795 C 55.393 272.562,55.944 273.192,56.120 273.195 C 56.297 273.198,55.960 272.570,55.373 271.800 C 54.000 270.000,53.732 269.997,54.896 271.795 M341.845 275.388 C 341.480 275.944,341.322 276.400,341.495 276.400 C 341.884 276.400,342.919 274.786,342.682 274.549 C 342.586 274.453,342.210 274.831,341.845 275.388 M339.046 279.047 C 338.235 280.063,338.139 280.320,338.701 279.969 C 339.130 279.701,339.701 279.131,339.968 278.702 C 340.810 277.355,340.220 277.575,339.046 279.047 M61.200 279.767 C 61.200 280.188,62.405 281.328,62.621 281.112 C 62.722 281.011,62.444 280.602,62.002 280.202 C 61.561 279.803,61.200 279.607,61.200 279.767 M64.305 283.400 C 64.750 284.060,65.535 284.960,66.050 285.400 C 67.269 286.441,66.473 285.307,64.648 283.403 L 63.496 282.200 64.305 283.400 M329.527 289.279 C 326.516 292.342,324.220 294.793,324.424 294.724 C 325.210 294.460,335.984 283.564,335.370 283.654 C 335.166 283.684,332.537 286.215,329.527 289.279 M67.600 286.975 C 67.600 287.408,72.896 292.400,73.355 292.400 C 73.563 292.400,73.658 292.348,73.567 292.285 C 73.475 292.221,72.095 290.932,70.500 289.419 C 68.905 287.906,67.600 286.807,67.600 286.975 M191.600 294.234 C 178.441 294.676,170.399 296.009,170.400 297.749 C 170.404 303.766,200.263 307.018,220.600 303.216 C 227.213 301.979,231.305 297.897,226.856 296.974 C 226.275 296.853,225.080 296.594,224.200 296.398 C 222.618 296.045,219.850 295.578,214.800 294.811 C 211.980 294.382,197.729 294.028,191.600 294.234 M213.800 295.399 C 224.438 296.692,227.356 297.424,227.521 298.840 C 228.309 305.625,176.252 305.791,171.506 299.019 C 170.906 298.163,171.232 297.285,172.300 296.877 C 176.909 295.119,203.658 294.167,213.800 295.399 M319.054 299.055 C 318.423 299.597,317.973 300.106,318.054 300.186 C 318.134 300.266,318.716 299.888,319.346 299.345 C 319.977 298.803,320.427 298.294,320.346 298.214 C 320.266 298.134,319.684 298.512,319.054 299.055 M83.489 301.230 C 83.978 301.739,84.478 302.055,84.601 301.932 C 84.724 301.809,84.324 301.392,83.712 301.006 L 82.600 300.304 83.489 301.230 M314.400 302.800 C 313.850 303.230,313.597 303.586,313.838 303.591 C 314.079 303.596,314.602 303.240,315.000 302.800 C 315.912 301.792,315.688 301.792,314.400 302.800 M307.944 307.587 C 307.425 308.019,307.197 308.379,307.438 308.387 C 307.679 308.394,308.202 308.040,308.600 307.600 C 309.526 306.576,309.166 306.569,307.944 307.587 M303.429 310.629 C 303.005 310.938,302.736 311.269,302.830 311.363 C 302.924 311.457,303.348 311.281,303.771 310.971 C 304.195 310.662,304.464 310.331,304.370 310.237 C 304.276 310.143,303.852 310.319,303.429 310.629 M297.600 314.400 C 296.610 315.058,296.023 315.597,296.295 315.598 C 296.568 315.599,297.108 315.333,297.495 315.008 C 297.883 314.682,298.560 314.147,299.000 313.820 C 300.414 312.769,299.459 313.164,297.600 314.400 M119.600 318.300 C 119.600 318.469,119.960 318.832,120.400 319.107 C 120.840 319.382,121.200 319.469,121.200 319.300 C 121.200 319.131,120.840 318.768,120.400 318.493 C 119.960 318.218,119.600 318.131,119.600 318.300 M110.314 319.572 C 110.817 320.059,111.408 320.397,111.629 320.324 C 111.849 320.250,111.438 319.852,110.715 319.438 L 109.400 318.686 110.314 319.572 M289.000 319.600 C 288.340 320.037,287.980 320.392,288.200 320.388 C 288.601 320.382,290.776 318.823,290.400 318.812 C 290.290 318.808,289.660 319.163,289.000 319.600 M125.896 323.144 C 126.609 323.835,127.312 324.400,127.458 324.400 C 127.887 324.400,126.282 322.764,125.404 322.307 C 124.942 322.066,125.151 322.422,125.896 323.144 M230.629 348.229 C 230.205 348.538,229.936 348.869,230.030 348.963 C 230.124 349.057,230.548 348.881,230.971 348.571 C 231.395 348.262,231.664 347.931,231.570 347.837 C 231.476 347.743,231.052 347.919,230.629 348.229 M225.002 352.398 C 224.603 352.839,224.407 353.200,224.567 353.200 C 224.988 353.200,226.128 351.995,225.912 351.779 C 225.811 351.678,225.402 351.956,225.002 352.398 M220.415 356.016 C 219.653 356.667,219.215 357.200,219.440 357.200 C 219.666 357.200,220.368 356.660,221.000 356.000 C 222.455 354.481,222.203 354.488,220.415 356.016 M179.400 356.400 C 179.798 356.840,180.411 357.188,180.762 357.173 C 181.204 357.154,181.124 357.013,180.500 356.712 C 180.005 356.473,179.600 356.125,179.600 355.939 C 179.600 355.752,179.392 355.600,179.138 355.600 C 178.876 355.600,178.989 355.946,179.400 356.400 M182.800 358.907 C 182.800 359.272,184.853 361.280,185.038 361.095 C 185.123 361.011,184.654 360.426,183.996 359.796 C 183.338 359.166,182.800 358.766,182.800 358.907 M188.202 364.402 C 188.602 364.844,189.011 365.122,189.112 365.021 C 189.328 364.805,188.188 363.600,187.767 363.600 C 187.607 363.600,187.803 363.961,188.202 364.402 M210.800 364.668 C 209.944 365.540,209.920 365.626,210.633 365.265 C 211.572 364.790,212.683 363.587,212.149 363.624 C 211.957 363.637,211.350 364.107,210.800 364.668 M190.727 366.638 C 192.008 368.327,193.200 369.488,193.200 369.047 C 193.200 368.910,192.364 367.943,191.342 366.899 C 189.499 365.014,189.494 365.012,190.727 366.638 M208.072 367.441 C 206.248 369.429,206.692 369.554,208.607 367.593 C 209.463 366.717,209.990 366.000,209.778 366.000 C 209.567 366.000,208.799 366.649,208.072 367.441 " stroke="none" fill="#485b8b" fill-rule="evenodd"></path></g></svg>