<svg id="svg" version="1.1" xmlns="http://www.w3.org/2000/svg" xmlns:xlink="http://www.w3.org/1999/xlink" width="400" height="400" viewBox="0, 0, 400,400"><g id="svgg"><path id="path0" d="M286.950 95.506 C 286.535 95.777,255.303 126.461,229.200 152.244 C 223.150 158.220,215.140 166.092,211.400 169.738 L 204.600 176.368 206.000 176.857 C 216.262 180.436,223.172 190.071,223.172 200.800 C 223.172 208.806,220.416 214.342,212.709 221.820 C 210.452 224.009,198.101 236.150,185.262 248.800 C 172.423 261.450,161.778 271.890,161.608 272.000 C 161.437 272.110,150.818 282.550,138.009 295.200 C 125.200 307.850,114.580 318.290,114.409 318.400 C 114.238 318.510,103.681 328.866,90.949 341.413 C 78.217 353.960,66.495 365.465,64.900 366.979 C 63.305 368.493,62.000 369.882,62.000 370.066 C 62.000 370.250,65.915 370.396,70.700 370.390 L 79.400 370.381 91.600 358.327 C 98.310 351.697,108.030 342.109,113.200 337.020 C 118.370 331.930,133.284 317.244,146.341 304.383 C 159.399 291.522,170.222 280.910,170.392 280.800 C 170.764 280.559,214.328 237.713,222.022 230.021 C 238.495 213.551,240.563 192.642,227.256 177.113 C 224.397 173.776,224.220 174.493,229.057 169.814 C 234.068 164.968,233.748 165.086,235.841 167.300 C 241.283 173.057,245.859 181.860,247.535 189.800 C 248.650 195.079,248.800 196.386,248.800 200.800 C 248.800 203.406,248.610 206.498,248.379 207.669 C 248.147 208.841,247.775 210.700,247.551 211.800 C 246.889 215.055,244.852 220.632,243.121 223.926 C 239.098 231.579,241.255 229.362,164.400 304.806 C 151.530 317.439,136.050 332.661,130.000 338.631 C 123.950 344.602,114.365 354.043,108.700 359.610 C 103.035 365.178,98.400 369.884,98.400 370.067 C 98.400 370.250,102.225 370.396,106.900 370.392 L 115.400 370.384 122.800 363.144 C 126.870 359.161,134.430 351.732,139.600 346.634 C 144.770 341.536,159.530 327.028,172.400 314.394 C 251.010 237.229,249.786 238.503,254.634 228.818 C 266.366 205.382,262.422 177.480,244.710 158.600 C 242.605 156.357,242.682 156.171,247.593 151.607 L 251.986 147.524 253.514 149.062 C 259.003 154.587,267.410 167.454,268.893 172.600 C 269.020 173.040,269.587 174.660,270.152 176.200 C 277.410 195.949,274.559 223.472,263.606 239.391 C 262.943 240.355,262.400 241.271,262.400 241.426 C 262.400 243.383,251.771 254.545,223.182 282.611 C 178.515 326.461,165.902 338.859,156.000 348.647 C 149.730 354.844,142.305 362.143,139.500 364.865 C 136.695 367.588,134.400 369.947,134.400 370.108 C 134.400 370.268,138.277 370.400,143.015 370.400 L 151.630 370.400 163.049 359.102 C 169.330 352.889,174.611 347.714,174.785 347.602 C 175.081 347.413,207.993 315.054,233.000 290.365 C 239.160 284.283,248.496 275.098,253.746 269.954 C 267.537 256.441,273.784 248.544,278.073 239.200 C 280.433 234.058,281.743 230.846,282.639 228.000 C 288.302 210.020,288.455 193.043,283.114 175.200 C 279.563 163.337,272.304 150.845,263.474 141.400 C 262.240 140.080,261.223 138.809,261.215 138.576 C 261.196 138.035,269.341 130.000,269.909 130.000 C 270.469 130.000,272.876 132.367,275.605 135.600 C 276.812 137.030,277.890 138.290,278.000 138.400 C 281.335 141.735,289.156 154.887,292.390 162.600 C 294.530 167.703,296.311 173.546,297.997 181.000 C 299.246 186.521,300.000 193.972,300.000 200.800 C 300.000 206.357,299.637 210.976,298.773 216.400 C 298.354 219.035,298.157 219.977,296.978 225.000 C 296.345 227.695,293.946 235.348,293.216 237.000 C 293.021 237.440,292.535 238.610,292.135 239.600 C 290.511 243.616,286.377 251.268,283.491 255.600 C 276.729 265.748,280.101 262.270,216.400 324.809 C 181.669 358.906,170.522 369.989,170.739 370.205 C 170.846 370.312,174.722 370.400,179.352 370.400 L 187.770 370.400 194.385 363.886 C 198.023 360.303,211.530 347.033,224.400 334.398 C 271.717 287.943,282.451 277.282,285.213 274.000 C 286.416 272.570,287.506 271.310,287.635 271.200 C 288.814 270.194,294.677 261.577,297.840 256.200 C 299.729 252.989,303.981 244.054,305.170 240.800 C 305.451 240.030,305.824 239.040,306.000 238.600 C 306.987 236.126,308.991 229.121,309.948 224.800 C 312.763 212.085,313.268 195.697,311.217 183.600 C 309.752 174.961,306.831 164.064,305.186 161.105 C 304.974 160.723,304.800 160.234,304.800 160.017 C 304.800 159.243,299.755 148.651,297.837 145.400 C 293.021 137.233,287.193 129.450,281.432 123.491 C 280.205 122.220,279.200 121.047,279.200 120.884 C 279.200 120.492,287.724 112.000,288.117 112.000 C 288.632 112.000,294.321 118.064,297.310 121.800 C 297.663 122.240,298.741 123.590,299.707 124.800 C 305.895 132.551,313.924 146.712,317.170 155.600 C 317.451 156.370,317.835 157.360,318.024 157.800 C 318.606 159.159,320.327 164.568,321.225 167.864 C 322.435 172.303,322.846 174.196,324.013 180.700 C 324.941 185.877,325.599 194.206,325.599 200.800 C 325.599 212.033,324.252 222.255,321.277 233.600 C 320.497 236.575,318.683 242.262,318.024 243.800 C 317.835 244.240,317.451 245.230,317.170 246.000 C 314.826 252.419,309.154 263.300,304.635 270.049 C 303.190 272.208,300.623 275.830,300.420 276.000 C 300.287 276.110,299.562 277.010,298.808 278.000 C 295.865 281.863,292.342 285.689,285.217 292.760 C 269.990 307.871,214.051 362.849,209.700 366.979 C 208.105 368.493,206.800 369.882,206.800 370.066 C 206.800 370.250,210.715 370.396,215.500 370.390 L 224.200 370.381 236.400 358.327 C 243.110 351.697,252.830 342.112,258.000 337.026 C 298.548 297.138,302.825 292.810,307.872 286.566 C 310.959 282.747,318.471 271.924,319.232 270.200 C 319.426 269.760,320.124 268.500,320.783 267.400 C 323.024 263.660,326.962 255.375,328.770 250.600 C 329.269 249.280,329.829 247.840,330.013 247.400 C 330.448 246.361,331.756 242.293,332.393 240.000 C 332.668 239.010,333.031 237.750,333.200 237.200 C 333.635 235.786,334.280 233.304,334.761 231.200 C 335.140 229.538,335.448 227.931,336.406 222.600 C 338.638 210.185,338.635 191.261,336.401 179.000 C 336.201 177.900,335.823 175.830,335.561 174.400 C 335.155 172.179,334.020 167.480,332.808 163.000 C 331.888 159.598,329.832 153.559,329.168 152.305 C 328.966 151.923,328.800 151.433,328.800 151.215 C 328.800 150.998,328.260 149.641,327.600 148.200 C 326.940 146.759,326.400 145.480,326.400 145.358 C 326.400 145.088,322.036 136.394,320.850 134.300 C 320.382 133.475,319.632 132.151,319.183 131.358 C 317.415 128.236,310.273 117.810,309.210 116.800 C 309.095 116.690,308.375 115.790,307.612 114.800 C 305.305 111.810,303.690 110.067,297.412 103.788 C 288.796 95.172,288.193 94.694,286.950 95.506 " stroke="none" fill="#f8f8f8" fill-rule="evenodd"></path><path id="path1" d="M171.339 31.106 C 170.813 31.441,117.440 83.906,102.000 99.265 C 94.968 106.260,90.267 111.327,87.588 114.800 C 86.825 115.790,86.110 116.690,86.000 116.800 C 81.236 121.564,70.834 139.933,66.525 151.192 C 65.976 152.627,65.375 154.160,65.190 154.600 C 65.004 155.040,64.665 156.030,64.435 156.800 C 64.206 157.570,63.650 159.370,63.200 160.800 C 61.851 165.090,61.719 165.588,60.448 171.200 C 59.814 174.003,59.305 176.750,58.856 179.800 C 58.629 181.340,58.219 184.130,57.944 186.000 C 57.283 190.496,57.276 210.590,57.934 215.400 C 58.925 222.639,60.332 230.168,61.560 234.800 C 64.351 245.331,67.280 253.092,71.900 262.200 C 72.905 264.180,74.058 266.385,74.463 267.100 C 74.868 267.815,75.533 268.985,75.940 269.700 C 79.588 276.104,87.064 286.351,92.355 292.200 C 96.607 296.899,105.721 305.553,107.440 306.524 C 107.860 306.760,111.287 303.600,120.225 294.736 C 126.942 288.074,132.589 282.529,132.775 282.412 C 132.961 282.295,143.527 271.944,156.256 259.409 C 168.985 246.874,181.965 234.102,185.100 231.027 C 190.605 225.627,191.304 224.800,190.361 224.800 C 190.119 224.800,188.454 224.087,186.661 223.215 C 173.788 216.959,168.944 202.442,175.313 189.210 C 176.819 186.081,177.472 185.296,183.806 179.010 C 199.110 163.822,258.029 105.839,258.402 105.600 C 258.676 105.424,286.052 78.513,315.200 49.766 C 320.590 44.450,326.935 38.205,329.300 35.887 C 331.665 33.569,333.600 31.477,333.600 31.237 C 333.600 30.935,330.926 30.800,324.922 30.800 L 316.244 30.800 307.859 39.100 C 303.247 43.665,297.730 49.110,295.599 51.200 C 293.467 53.290,286.881 59.776,280.962 65.613 C 253.797 92.401,225.080 120.618,224.797 120.800 C 224.400 121.055,178.959 165.772,172.742 172.026 C 166.494 178.311,162.910 183.794,161.254 189.600 C 161.034 190.370,160.617 191.810,160.327 192.800 C 159.608 195.257,159.620 205.938,160.346 208.600 C 162.333 215.891,165.043 221.095,169.298 225.789 C 170.861 227.512,171.397 226.703,163.879 233.969 L 161.635 236.138 160.173 234.569 C 143.227 216.381,142.445 187.921,158.368 168.889 C 160.097 166.822,184.268 142.580,185.148 142.030 C 185.350 141.903,195.905 131.540,208.603 119.000 C 221.302 106.460,231.832 96.110,232.003 96.000 C 232.313 95.800,270.724 58.020,288.281 40.645 C 293.385 35.594,297.469 31.312,297.357 31.131 C 297.245 30.949,293.338 30.802,288.676 30.806 L 280.200 30.811 273.000 37.850 C 269.040 41.721,261.120 49.510,255.400 55.158 C 249.680 60.806,234.560 75.674,221.800 88.198 C 167.585 141.409,148.346 160.507,147.481 161.970 C 147.091 162.630,146.547 163.402,146.273 163.685 C 144.858 165.144,142.656 168.821,140.216 173.800 C 132.484 189.580,132.064 208.673,139.086 225.200 C 140.884 229.431,145.545 237.414,146.793 238.400 C 146.932 238.510,147.306 238.981,147.623 239.446 C 147.940 239.911,149.145 241.316,150.300 242.568 C 151.455 243.820,152.400 244.995,152.400 245.180 C 152.400 245.602,144.049 253.600,143.608 253.600 C 143.140 253.600,138.663 248.664,136.556 245.825 C 135.565 244.491,134.538 243.130,134.271 242.800 C 133.839 242.264,132.931 240.782,130.718 237.000 C 130.000 235.772,128.737 233.201,127.282 230.000 C 122.464 219.407,120.036 201.255,121.957 190.200 C 125.447 170.113,131.132 160.042,149.182 141.970 C 160.178 130.961,205.887 85.930,206.402 85.600 C 206.574 85.490,217.128 75.140,229.857 62.600 C 242.586 50.060,254.846 38.011,257.100 35.825 C 262.602 30.491,262.881 30.800,252.568 30.800 L 243.935 30.800 231.351 43.287 C 224.429 50.155,218.613 55.870,218.425 55.987 C 218.237 56.104,207.760 66.363,195.142 78.784 C 182.524 91.205,167.712 105.785,162.226 111.184 C 137.496 135.523,128.868 144.322,126.125 148.000 C 119.969 156.253,114.351 167.312,112.001 175.800 C 110.629 180.757,110.505 181.331,109.129 189.000 C 108.460 192.728,108.473 208.430,109.148 212.400 C 110.290 219.118,111.455 224.054,112.973 228.600 C 113.340 229.700,113.787 230.960,113.967 231.400 C 114.146 231.840,114.470 232.650,114.687 233.200 C 117.246 239.687,124.724 252.422,127.605 255.200 C 127.720 255.310,128.325 256.030,128.950 256.800 C 129.576 257.570,131.086 259.248,132.308 260.529 L 134.528 262.858 130.371 267.029 C 125.376 272.041,125.610 272.017,121.872 267.900 C 111.457 256.431,103.514 242.337,99.611 228.400 C 99.334 227.410,98.967 226.150,98.796 225.600 C 98.503 224.655,97.953 222.057,97.189 218.000 C 96.124 212.347,95.841 208.625,95.850 200.400 C 95.856 195.196,96.069 190.135,96.355 188.400 C 97.489 181.515,97.664 180.536,97.999 179.200 C 98.192 178.430,98.565 176.900,98.828 175.800 C 103.111 157.911,113.552 140.838,129.649 125.404 C 131.712 123.426,143.815 111.546,156.545 99.004 C 169.275 86.462,179.830 76.110,180.000 76.000 C 180.855 75.448,225.200 31.441,225.200 31.145 C 225.200 30.955,221.299 30.800,216.531 30.800 L 207.862 30.800 199.831 38.707 C 195.414 43.055,181.450 56.773,168.800 69.190 C 116.572 120.458,112.560 124.468,108.355 129.600 C 101.134 138.412,94.759 149.164,90.786 159.232 C 89.353 162.864,86.814 170.829,86.046 174.100 C 84.884 179.050,84.590 180.638,83.622 187.200 C 82.944 191.789,82.716 202.773,83.177 208.600 C 83.711 215.362,84.108 218.106,85.602 225.400 C 86.707 230.794,88.876 237.588,91.573 244.100 C 92.184 245.577,96.374 254.105,97.124 255.400 C 100.857 261.844,101.664 263.058,106.291 269.200 C 107.958 271.413,111.100 275.063,113.896 278.036 C 115.053 279.266,116.000 280.433,116.000 280.629 C 116.000 281.159,107.890 289.200,107.356 289.200 C 106.594 289.200,100.911 282.914,94.988 275.521 C 90.676 270.140,82.482 255.787,79.561 248.500 C 79.362 248.005,79.037 247.195,78.837 246.700 C 77.554 243.517,75.845 238.462,74.814 234.800 C 74.535 233.810,74.170 232.550,74.003 232.000 C 73.836 231.450,73.488 230.010,73.230 228.800 C 72.972 227.590,72.603 225.880,72.411 225.000 C 72.219 224.120,71.869 222.140,71.635 220.600 C 71.400 219.060,70.991 216.450,70.726 214.800 C 70.061 210.665,70.057 190.775,70.720 186.600 C 71.000 184.840,71.416 182.140,71.645 180.600 C 72.108 177.488,72.364 176.238,73.618 171.000 C 76.048 160.841,80.932 148.464,85.928 139.800 C 95.198 123.724,95.849 122.995,137.200 82.402 C 150.070 69.768,165.010 55.082,170.400 49.766 C 175.790 44.450,182.135 38.205,184.500 35.887 C 186.865 33.569,188.800 31.477,188.800 31.237 C 188.800 30.736,172.116 30.611,171.339 31.106 M297.594 103.700 C 300.561 106.725,303.036 109.200,303.094 109.200 C 303.381 109.200,302.809 108.606,297.700 103.594 L 292.200 98.200 297.594 103.700 M271.796 110.100 L 264.200 117.800 271.900 110.204 C 276.135 106.026,279.600 102.561,279.600 102.504 C 279.600 102.219,278.854 102.946,271.796 110.100 M303.200 109.725 C 303.200 109.794,303.785 110.379,304.500 111.025 L 305.800 112.200 304.625 110.900 C 303.530 109.688,303.200 109.416,303.200 109.725 M283.445 116.355 C 280.813 118.995,279.189 120.925,279.320 121.255 C 279.488 121.678,279.544 121.665,279.568 121.193 C 279.603 120.527,287.434 112.621,288.400 112.277 C 288.929 112.089,288.928 112.059,288.393 112.032 C 288.059 112.014,285.833 113.960,283.445 116.355 M292.000 116.125 C 292.000 116.194,292.585 116.779,293.300 117.425 L 294.600 118.600 293.425 117.300 C 292.330 116.088,292.000 115.816,292.000 116.125 M283.000 125.200 C 283.859 126.080,284.652 126.800,284.762 126.800 C 284.872 126.800,284.259 126.080,283.400 125.200 C 282.541 124.320,281.748 123.600,281.638 123.600 C 281.528 123.600,282.141 124.320,283.000 125.200 M248.597 132.900 L 239.800 141.800 248.700 133.003 C 253.595 128.165,257.600 124.160,257.600 124.103 C 257.600 123.820,256.770 124.630,248.597 132.900 M285.200 127.464 C 285.200 127.682,285.695 128.297,286.300 128.830 L 287.400 129.800 286.400 128.600 C 285.850 127.940,285.355 127.325,285.300 127.233 C 285.245 127.142,285.200 127.245,285.200 127.464 M265.092 134.307 C 260.639 138.778,260.711 138.594,262.700 140.422 L 264.200 141.800 262.900 140.381 C 261.172 138.495,261.061 138.756,265.492 134.307 C 267.633 132.158,269.295 130.400,269.185 130.400 C 269.075 130.400,267.233 132.158,265.092 134.307 M273.600 133.725 C 273.600 133.794,274.185 134.379,274.900 135.025 L 276.200 136.200 275.025 134.900 C 273.930 133.688,273.600 133.416,273.600 133.725 M292.975 137.732 C 293.591 138.539,294.176 139.200,294.275 139.200 C 294.553 139.200,292.821 136.860,292.309 136.544 C 292.059 136.389,292.359 136.924,292.975 137.732 M264.800 142.925 C 264.800 142.994,265.385 143.579,266.100 144.225 L 267.400 145.400 266.225 144.100 C 265.130 142.888,264.800 142.616,264.800 142.925 M225.396 155.700 L 217.800 163.400 225.500 155.804 C 229.735 151.626,233.200 148.161,233.200 148.104 C 233.200 147.819,232.454 148.546,225.396 155.700 M255.200 151.325 C 255.200 151.394,255.785 151.979,256.500 152.625 L 257.800 153.800 256.625 152.500 C 255.530 151.288,255.200 151.016,255.200 151.325 M245.186 153.900 L 243.000 156.200 245.300 154.014 C 247.437 151.982,247.783 151.600,247.486 151.600 C 247.424 151.600,246.389 152.635,245.186 153.900 M258.575 155.332 C 259.191 156.139,259.776 156.800,259.875 156.800 C 260.153 156.800,258.421 154.460,257.909 154.144 C 257.659 153.989,257.959 154.524,258.575 155.332 M243.200 156.925 C 243.200 156.994,243.785 157.579,244.500 158.225 L 245.800 159.400 244.625 158.100 C 243.530 156.888,243.200 156.616,243.200 156.925 M231.385 167.700 L 229.400 169.800 231.500 167.815 C 233.451 165.971,233.783 165.600,233.485 165.600 C 233.422 165.600,232.477 166.545,231.385 167.700 M235.583 167.300 C 236.564 168.345,237.419 169.200,237.483 169.200 C 237.784 169.200,237.466 168.841,235.700 167.183 L 233.800 165.400 235.583 167.300 M207.791 172.900 L 204.600 176.200 207.900 173.009 C 209.715 171.255,211.200 169.770,211.200 169.709 C 211.200 169.418,210.754 169.835,207.791 172.900 M322.456 174.000 C 322.456 174.330,322.611 174.960,322.800 175.400 C 323.017 175.904,323.144 175.978,323.144 175.600 C 323.144 175.270,322.989 174.640,322.800 174.200 C 322.583 173.696,322.456 173.622,322.456 174.000 M225.600 175.325 C 225.600 175.394,226.185 175.979,226.900 176.625 L 228.200 177.800 227.025 176.500 C 225.930 175.288,225.600 175.016,225.600 175.325 M336.068 177.400 C 336.062 177.840,336.211 178.560,336.400 179.000 C 336.838 180.019,336.838 178.968,336.400 177.600 C 336.143 176.796,336.077 176.757,336.068 177.400 M210.810 179.326 C 211.409 179.974,214.095 181.597,213.618 181.022 C 213.310 180.651,212.505 180.066,211.829 179.723 C 211.153 179.379,210.695 179.201,210.810 179.326 M310.468 179.600 C 310.488 180.639,311.118 182.346,311.132 181.400 C 311.138 180.960,310.989 180.240,310.800 179.800 C 310.589 179.310,310.461 179.232,310.468 179.600 M284.856 182.000 C 284.856 182.330,285.011 182.960,285.200 183.400 C 285.417 183.904,285.544 183.978,285.544 183.600 C 285.544 183.270,285.389 182.640,285.200 182.200 C 284.983 181.696,284.856 181.622,284.856 182.000 M324.095 182.800 C 324.095 183.350,324.232 184.340,324.400 185.000 C 324.672 186.070,324.705 186.092,324.705 185.200 C 324.705 184.650,324.568 183.660,324.400 183.000 C 324.128 181.930,324.095 181.908,324.095 182.800 M298.487 185.000 C 298.491 185.440,298.632 186.340,298.800 187.000 C 299.074 188.078,299.106 188.098,299.113 187.200 C 299.117 186.650,298.976 185.750,298.800 185.200 C 298.549 184.416,298.481 184.373,298.487 185.000 M260.068 188.400 C 260.088 189.439,260.718 191.146,260.732 190.200 C 260.738 189.760,260.589 189.040,260.400 188.600 C 260.189 188.110,260.061 188.032,260.068 188.400 M324.909 190.000 C 324.909 190.990,324.987 191.395,325.082 190.900 C 325.178 190.405,325.178 189.595,325.082 189.100 C 324.987 188.605,324.909 189.010,324.909 190.000 M337.709 190.400 C 337.709 191.390,337.787 191.795,337.882 191.300 C 337.978 190.805,337.978 189.995,337.882 189.500 C 337.787 189.005,337.709 189.410,337.709 190.400 M247.256 189.600 C 247.256 189.930,247.411 190.560,247.600 191.000 C 247.817 191.504,247.944 191.578,247.944 191.200 C 247.944 190.870,247.789 190.240,247.600 189.800 C 247.383 189.296,247.256 189.222,247.256 189.600 M312.109 191.600 C 312.109 192.590,312.187 192.995,312.282 192.500 C 312.378 192.005,312.378 191.195,312.282 190.700 C 312.187 190.205,312.109 190.610,312.109 191.600 M299.301 191.800 C 299.305 192.680,299.387 192.993,299.483 192.495 C 299.579 191.998,299.575 191.278,299.475 190.895 C 299.375 190.513,299.296 190.920,299.301 191.800 M286.493 192.400 C 286.493 193.170,286.575 193.485,286.676 193.100 C 286.776 192.715,286.776 192.085,286.676 191.700 C 286.575 191.315,286.493 191.630,286.493 192.400 M325.314 193.800 C 325.317 194.900,325.395 195.303,325.487 194.695 C 325.579 194.086,325.577 193.186,325.482 192.695 C 325.387 192.203,325.311 192.700,325.314 193.800 M338.140 195.600 C 338.140 197.470,338.209 198.235,338.293 197.300 C 338.377 196.365,338.377 194.835,338.293 193.900 C 338.209 192.965,338.140 193.730,338.140 195.600 M248.294 196.000 C 248.414 197.430,248.577 198.675,248.656 198.767 C 248.935 199.089,248.716 195.388,248.398 194.400 C 248.205 193.800,248.163 194.440,248.294 196.000 M299.728 196.000 C 299.728 197.430,299.801 198.015,299.889 197.300 C 299.978 196.585,299.978 195.415,299.889 194.700 C 299.801 193.985,299.728 194.570,299.728 196.000 M312.534 196.400 C 312.534 198.050,312.605 198.725,312.691 197.900 C 312.778 197.075,312.778 195.725,312.691 194.900 C 312.605 194.075,312.534 194.750,312.534 196.400 M235.270 194.600 C 235.257 195.040,235.395 196.120,235.577 197.000 C 235.855 198.345,235.908 198.409,235.907 197.400 C 235.905 195.999,235.308 193.370,235.270 194.600 M286.920 196.000 C 286.920 197.210,286.995 197.705,287.087 197.100 C 287.178 196.495,287.178 195.505,287.087 194.900 C 286.995 194.295,286.920 194.790,286.920 196.000 M274.128 196.800 C 274.128 198.230,274.201 198.815,274.289 198.100 C 274.378 197.385,274.378 196.215,274.289 195.500 C 274.201 194.785,274.128 195.370,274.128 196.800 M261.324 197.000 C 261.326 198.320,261.401 198.812,261.490 198.093 C 261.579 197.374,261.577 196.294,261.486 195.693 C 261.395 195.092,261.322 195.680,261.324 197.000 M274.128 204.800 C 274.128 206.230,274.201 206.815,274.289 206.100 C 274.378 205.385,274.378 204.215,274.289 203.500 C 274.201 202.785,274.128 203.370,274.128 204.800 M261.320 204.800 C 261.320 206.010,261.395 206.505,261.487 205.900 C 261.578 205.295,261.578 204.305,261.487 203.700 C 261.395 203.095,261.320 203.590,261.320 204.800 M312.534 205.600 C 312.534 207.250,312.605 207.925,312.691 207.100 C 312.778 206.275,312.778 204.925,312.691 204.100 C 312.605 203.275,312.534 203.950,312.534 205.600 M338.140 206.000 C 338.140 207.870,338.209 208.635,338.293 207.700 C 338.377 206.765,338.377 205.235,338.293 204.300 C 338.209 203.365,338.140 204.130,338.140 206.000 M235.693 204.400 C 235.693 205.170,235.775 205.485,235.876 205.100 C 235.976 204.715,235.976 204.085,235.876 203.700 C 235.775 203.315,235.693 203.630,235.693 204.400 M248.464 204.250 C 248.429 204.938,248.311 206.107,248.201 206.850 L 248.003 208.200 248.424 206.858 C 248.655 206.120,248.773 204.950,248.686 204.258 L 248.528 203.000 248.464 204.250 M299.728 205.600 C 299.728 207.030,299.801 207.615,299.889 206.900 C 299.978 206.185,299.978 205.015,299.889 204.300 C 299.801 203.585,299.728 204.170,299.728 205.600 M286.920 205.600 C 286.920 206.810,286.995 207.305,287.087 206.700 C 287.178 206.095,287.178 205.105,287.087 204.500 C 286.995 203.895,286.920 204.390,286.920 205.600 M325.320 207.600 C 325.320 208.810,325.395 209.305,325.487 208.700 C 325.578 208.095,325.578 207.105,325.487 206.500 C 325.395 205.895,325.320 206.390,325.320 207.600 M286.493 209.200 C 286.493 209.970,286.575 210.285,286.676 209.900 C 286.776 209.515,286.776 208.885,286.676 208.500 C 286.575 208.115,286.493 208.430,286.493 209.200 M299.301 209.800 C 299.305 210.680,299.387 210.993,299.483 210.495 C 299.579 209.998,299.575 209.278,299.475 208.895 C 299.375 208.513,299.296 208.920,299.301 209.800 M312.101 210.200 C 312.105 211.080,312.187 211.393,312.283 210.895 C 312.379 210.398,312.375 209.678,312.275 209.295 C 312.175 208.913,312.096 209.320,312.101 210.200 M337.709 211.200 C 337.709 212.190,337.787 212.595,337.882 212.100 C 337.978 211.605,337.978 210.795,337.882 210.300 C 337.787 209.805,337.709 210.210,337.709 211.200 M247.429 211.029 C 247.281 211.615,247.238 212.172,247.332 212.266 C 247.427 212.360,247.624 211.958,247.771 211.371 C 247.919 210.785,247.962 210.228,247.868 210.134 C 247.773 210.040,247.576 210.442,247.429 211.029 M324.909 211.600 C 324.909 212.590,324.987 212.995,325.082 212.500 C 325.178 212.005,325.178 211.195,325.082 210.700 C 324.987 210.205,324.909 210.610,324.909 211.600 M298.640 215.240 C 298.493 216.157,298.452 216.985,298.547 217.080 C 298.642 217.176,298.846 216.510,299.000 215.600 C 299.154 214.690,299.196 213.862,299.093 213.760 C 298.990 213.657,298.787 214.323,298.640 215.240 M311.440 216.040 C 311.293 216.957,311.252 217.785,311.347 217.880 C 311.442 217.976,311.646 217.310,311.800 216.400 C 311.954 215.490,311.996 214.662,311.893 214.560 C 311.790 214.457,311.587 215.123,311.440 216.040 M324.218 217.418 C 324.065 218.439,324.022 219.355,324.122 219.455 C 324.222 219.555,324.429 218.802,324.582 217.782 C 324.735 216.761,324.778 215.845,324.678 215.745 C 324.578 215.645,324.371 216.398,324.218 217.418 M212.992 221.300 L 209.000 225.400 213.100 221.408 C 216.908 217.699,217.382 217.200,217.092 217.200 C 217.033 217.200,215.188 219.045,212.992 221.300 M285.029 218.629 C 284.881 219.215,284.838 219.772,284.932 219.866 C 285.027 219.960,285.224 219.558,285.371 218.971 C 285.519 218.385,285.562 217.828,285.468 217.734 C 285.373 217.640,285.176 218.042,285.029 218.629 M310.650 220.850 C 310.509 221.553,310.469 222.202,310.559 222.292 C 310.650 222.383,310.848 221.891,311.000 221.200 C 311.152 220.509,311.193 219.859,311.091 219.758 C 310.989 219.656,310.791 220.147,310.650 220.850 M228.799 222.500 C 228.210 223.304,228.113 223.584,228.545 223.233 C 229.201 222.700,230.193 221.200,229.889 221.200 C 229.813 221.200,229.322 221.785,228.799 222.500 M336.200 223.200 C 336.048 223.891,336.007 224.541,336.109 224.642 C 336.211 224.744,336.409 224.253,336.550 223.550 C 336.691 222.847,336.731 222.198,336.641 222.108 C 336.550 222.017,336.352 222.509,336.200 223.200 M309.829 225.029 C 309.681 225.615,309.638 226.172,309.732 226.266 C 309.827 226.360,310.024 225.958,310.171 225.371 C 310.319 224.785,310.362 224.228,310.268 224.134 C 310.173 224.040,309.976 224.442,309.829 225.029 M322.629 226.629 C 322.481 227.215,322.438 227.772,322.532 227.866 C 322.627 227.960,322.824 227.558,322.971 226.971 C 323.119 226.385,323.162 225.828,323.068 225.734 C 322.973 225.640,322.776 226.042,322.629 226.629 M239.144 229.900 C 237.993 231.289,237.506 232.000,237.704 232.000 C 237.814 232.000,238.386 231.370,238.973 230.600 C 240.063 229.171,240.195 228.632,239.144 229.900 M194.196 239.700 L 186.600 247.400 194.300 239.804 C 201.454 232.746,202.181 232.000,201.896 232.000 C 201.839 232.000,198.374 235.465,194.196 239.700 M235.781 234.100 L 234.200 235.800 235.900 234.219 C 236.835 233.349,237.600 232.584,237.600 232.519 C 237.600 232.216,237.252 232.519,235.781 234.100 M207.797 244.100 L 199.000 253.000 207.900 244.203 C 216.170 236.030,216.980 235.200,216.697 235.200 C 216.640 235.200,212.635 239.205,207.797 244.100 M220.596 249.300 L 213.000 257.000 220.700 249.404 C 224.935 245.226,228.400 241.761,228.400 241.704 C 228.400 241.419,227.654 242.146,220.596 249.300 M235.397 252.500 L 224.600 263.400 235.500 252.603 C 245.629 242.569,246.580 241.600,246.297 241.600 C 246.241 241.600,241.336 246.505,235.397 252.500 M246.400 259.400 C 242.114 263.690,238.698 267.200,238.808 267.200 C 238.918 267.200,242.514 263.690,246.800 259.400 C 251.086 255.110,254.502 251.600,254.392 251.600 C 254.282 251.600,250.686 255.110,246.400 259.400 M170.997 262.500 L 161.400 272.200 171.100 262.603 C 180.114 253.685,180.980 252.800,180.697 252.800 C 180.640 252.800,176.275 257.165,170.997 262.500 M265.775 257.700 L 264.600 259.000 265.900 257.825 C 266.615 257.179,267.200 256.594,267.200 256.525 C 267.200 256.216,266.870 256.488,265.775 257.700 M184.196 267.300 L 176.200 275.400 184.300 267.404 C 188.755 263.006,192.400 259.361,192.400 259.304 C 192.400 259.019,191.626 259.774,184.196 267.300 M257.796 266.100 L 251.000 273.000 257.900 266.204 C 264.310 259.891,264.981 259.200,264.696 259.200 C 264.638 259.200,261.533 262.305,257.796 266.100 M295.000 260.800 C 294.659 261.460,294.469 262.000,294.579 262.000 C 294.689 262.000,295.059 261.460,295.400 260.800 C 295.741 260.140,295.931 259.600,295.821 259.600 C 295.711 259.600,295.341 260.140,295.000 260.800 M196.997 272.500 L 187.800 281.800 197.100 272.603 C 205.742 264.058,206.580 263.200,206.297 263.200 C 206.240 263.200,202.055 267.385,196.997 272.500 M275.029 266.362 L 273.858 267.800 275.209 266.513 C 275.951 265.805,276.478 265.158,276.379 265.075 C 276.281 264.992,275.673 265.571,275.029 266.362 M304.252 270.065 C 303.653 270.980,303.453 271.488,303.808 271.194 C 304.412 270.692,305.785 268.400,305.481 268.400 C 305.405 268.400,304.852 269.149,304.252 270.065 M268.792 273.100 L 265.000 277.000 268.900 273.208 C 272.522 269.686,272.982 269.200,272.692 269.200 C 272.633 269.200,270.878 270.955,268.792 273.100 M210.196 277.300 L 202.600 285.000 210.300 277.404 C 214.535 273.226,218.000 269.761,218.000 269.704 C 218.000 269.419,217.254 270.146,210.196 277.300 M222.997 282.500 L 214.200 291.400 223.100 282.603 C 231.370 274.430,232.180 273.600,231.897 273.600 C 231.840 273.600,227.835 277.605,222.997 282.500 M314.399 277.700 C 313.810 278.504,313.713 278.784,314.145 278.433 C 314.801 277.900,315.793 276.400,315.489 276.400 C 315.413 276.400,314.922 276.985,314.399 277.700 M146.996 286.100 L 139.400 293.800 147.100 286.204 C 151.335 282.026,154.800 278.561,154.800 278.504 C 154.800 278.219,154.054 278.946,146.996 286.100 M236.596 286.900 L 229.000 294.600 236.700 287.004 C 240.935 282.826,244.400 279.361,244.400 279.304 C 244.400 279.019,243.654 279.746,236.596 286.900 M296.175 280.900 L 295.000 282.200 296.300 281.025 C 297.015 280.379,297.600 279.794,297.600 279.725 C 297.600 279.416,297.270 279.688,296.175 280.900 M278.575 281.300 L 277.400 282.600 278.700 281.425 C 279.415 280.779,280.000 280.194,280.000 280.125 C 280.000 279.816,279.670 280.088,278.575 281.300 M160.797 290.300 L 151.400 299.800 160.900 290.403 C 169.728 281.671,170.580 280.800,170.297 280.800 C 170.240 280.800,165.965 285.075,160.797 290.300 M293.775 283.700 L 292.600 285.000 293.900 283.825 C 294.615 283.179,295.200 282.594,295.200 282.525 C 295.200 282.216,294.870 282.488,293.775 283.700 M248.997 292.500 L 239.800 301.800 249.100 292.603 C 257.742 284.058,258.580 283.200,258.297 283.200 C 258.240 283.200,254.055 287.385,248.997 292.500 M287.200 290.600 C 285.561 292.250,284.310 293.600,284.420 293.600 C 284.530 293.600,285.961 292.250,287.600 290.600 C 289.239 288.950,290.490 287.600,290.380 287.600 C 290.270 287.600,288.839 288.950,287.200 290.600 M173.396 295.700 L 165.800 303.400 173.500 295.804 C 180.654 288.746,181.381 288.000,181.096 288.000 C 181.039 288.000,177.574 291.465,173.396 295.700 M262.196 297.300 L 254.600 305.000 262.300 297.404 C 266.535 293.226,270.000 289.761,270.000 289.704 C 270.000 289.419,269.254 290.146,262.196 297.300 M186.597 300.500 L 177.400 309.800 186.700 300.603 C 191.815 295.545,196.000 291.360,196.000 291.303 C 196.000 291.020,195.142 291.858,186.597 300.500 M300.587 294.900 L 298.200 297.400 300.700 295.013 C 302.075 293.699,303.200 292.574,303.200 292.513 C 303.200 292.217,302.805 292.578,300.587 294.900 M199.396 305.700 L 191.400 313.800 199.500 305.804 C 207.026 298.374,207.781 297.600,207.496 297.600 C 207.439 297.600,203.794 301.245,199.396 305.700 M123.397 309.300 L 114.200 318.600 123.500 309.403 C 128.615 304.345,132.800 300.160,132.800 300.103 C 132.800 299.820,131.942 300.658,123.397 309.300 M268.197 309.300 L 259.000 318.600 268.300 309.403 C 276.942 300.858,277.780 300.000,277.497 300.000 C 277.440 300.000,273.255 304.185,268.197 309.300 M212.797 310.300 L 203.800 319.400 212.900 310.403 C 221.356 302.044,222.180 301.200,221.897 301.200 C 221.840 301.200,217.745 305.295,212.797 310.300 M136.596 314.100 L 129.000 321.800 136.700 314.204 C 143.854 307.146,144.581 306.400,144.296 306.400 C 144.239 306.400,140.774 309.865,136.596 314.100 M281.396 314.100 L 273.800 321.800 281.500 314.204 C 285.735 310.026,289.200 306.561,289.200 306.504 C 289.200 306.219,288.454 306.946,281.396 314.100 M225.396 315.700 L 217.800 323.400 225.500 315.804 C 229.735 311.626,233.200 308.161,233.200 308.104 C 233.200 307.819,232.454 308.546,225.396 315.700 M149.797 318.900 L 140.600 328.200 149.900 319.003 C 155.015 313.945,159.200 309.760,159.200 309.703 C 159.200 309.420,158.342 310.258,149.797 318.900 M238.797 320.300 L 229.800 329.400 238.900 320.403 C 247.356 312.044,248.180 311.200,247.897 311.200 C 247.840 311.200,243.745 315.295,238.797 320.300 M162.996 323.700 L 155.400 331.400 163.100 323.804 C 167.335 319.626,170.800 316.161,170.800 316.104 C 170.800 315.819,170.054 316.546,162.996 323.700 M175.797 328.900 L 167.000 337.800 175.900 329.003 C 180.795 324.165,184.800 320.160,184.800 320.103 C 184.800 319.820,183.970 320.630,175.797 328.900 M99.796 332.500 L 92.200 340.200 99.900 332.604 C 104.135 328.426,107.600 324.961,107.600 324.904 C 107.600 324.619,106.854 325.346,99.796 332.500 M244.596 332.500 L 237.000 340.200 244.700 332.604 C 248.935 328.426,252.400 324.961,252.400 324.904 C 252.400 324.619,251.654 325.346,244.596 332.500 M189.396 333.300 L 181.800 341.000 189.500 333.404 C 193.735 329.226,197.200 325.761,197.200 325.704 C 197.200 325.419,196.454 326.146,189.396 333.300 M113.197 337.100 L 104.200 346.200 113.300 337.203 C 118.305 332.255,122.400 328.160,122.400 328.103 C 122.400 327.820,121.556 328.644,113.197 337.100 M257.797 337.300 L 248.600 346.600 257.900 337.403 C 266.542 328.858,267.380 328.000,267.097 328.000 C 267.040 328.000,262.855 332.185,257.797 337.300 M201.797 338.900 L 192.600 348.200 201.900 339.003 C 210.542 330.458,211.380 329.600,211.097 329.600 C 211.040 329.600,206.855 333.785,201.797 338.900 M126.196 342.100 L 118.600 349.800 126.300 342.204 C 130.535 338.026,134.000 334.561,134.000 334.504 C 134.000 334.219,133.254 334.946,126.196 342.100 M214.996 343.700 L 207.400 351.400 215.100 343.804 C 219.335 339.626,222.800 336.161,222.800 336.104 C 222.800 335.819,222.054 336.546,214.996 343.700 M139.397 346.900 L 130.200 356.200 139.500 347.003 C 144.615 341.945,148.800 337.760,148.800 337.703 C 148.800 337.420,147.942 338.258,139.397 346.900 M151.796 352.500 L 144.200 360.200 151.900 352.604 C 156.135 348.426,159.600 344.961,159.600 344.904 C 159.600 344.619,158.854 345.346,151.796 352.500 M76.197 355.700 L 67.000 365.000 76.300 355.803 C 84.942 347.258,85.780 346.400,85.497 346.400 C 85.440 346.400,81.255 350.585,76.197 355.700 M220.997 355.700 L 211.800 365.000 221.100 355.803 C 229.742 347.258,230.580 346.400,230.297 346.400 C 230.240 346.400,226.055 350.585,220.997 355.700 M165.597 356.700 L 156.600 365.800 165.700 356.803 C 170.705 351.855,174.800 347.760,174.800 347.703 C 174.800 347.420,173.956 348.244,165.597 356.700 M89.396 360.500 L 81.800 368.200 89.500 360.604 C 93.735 356.426,97.200 352.961,97.200 352.904 C 97.200 352.619,96.454 353.346,89.396 360.500 M234.196 360.500 L 226.600 368.200 234.300 360.604 C 238.535 356.426,242.000 352.961,242.000 352.904 C 242.000 352.619,241.254 353.346,234.196 360.500 M178.196 362.100 L 170.600 369.800 178.300 362.204 C 182.535 358.026,186.000 354.561,186.000 354.504 C 186.000 354.219,185.254 354.946,178.196 362.100 M104.815 362.985 C 100.977 366.827,97.919 370.022,98.019 370.085 C 98.118 370.148,101.344 367.005,105.188 363.100 C 109.031 359.195,112.089 356.000,111.983 356.000 C 111.878 356.000,108.652 359.143,104.815 362.985 M194.195 364.100 L 187.800 370.600 194.300 364.205 C 197.875 360.687,200.800 357.762,200.800 357.705 C 200.800 357.419,200.137 358.061,194.195 364.100 M119.392 366.500 L 115.400 370.600 119.500 366.608 C 121.755 364.412,123.600 362.567,123.600 362.508 C 123.600 362.218,123.101 362.692,119.392 366.500 M135.608 368.192 C 134.641 369.177,133.929 370.041,134.025 370.113 C 134.121 370.184,134.990 369.378,135.957 368.321 C 138.171 365.900,137.941 365.814,135.608 368.192 " stroke="none" fill="#d93b3b" fill-rule="evenodd"></path><path id="path2" d="M157.982 25.531 C 153.902 29.639,148.424 34.980,145.808 37.400 C 143.193 39.820,132.569 50.260,122.201 60.600 C 111.833 70.940,101.229 81.369,98.637 83.776 C 92.527 89.450,85.013 96.970,83.663 98.762 C 83.078 99.537,81.565 101.229,80.300 102.521 C 79.035 103.813,78.000 105.034,78.000 105.234 C 78.000 105.435,77.280 106.341,76.400 107.248 C 75.520 108.155,74.800 109.056,74.800 109.252 C 74.800 109.447,74.260 110.172,73.600 110.863 C 72.940 111.554,72.400 112.322,72.400 112.571 C 72.400 112.820,72.040 113.283,71.600 113.600 C 71.160 113.917,70.800 114.373,70.800 114.613 C 70.800 114.853,70.485 115.398,70.100 115.825 C 69.715 116.251,69.145 117.095,68.832 117.700 C 68.520 118.305,68.115 118.800,67.932 118.800 C 67.750 118.800,67.600 119.120,67.600 119.512 C 67.600 119.903,67.240 120.483,66.800 120.800 C 66.360 121.117,66.000 121.697,66.000 122.088 C 66.000 122.480,65.820 122.800,65.600 122.800 C 65.380 122.800,65.200 123.036,65.200 123.325 C 65.200 123.613,64.840 124.236,64.400 124.708 C 63.960 125.180,63.600 125.844,63.600 126.183 C 63.600 126.522,63.420 126.800,63.200 126.800 C 62.980 126.800,62.800 127.160,62.800 127.600 C 62.800 128.040,62.665 128.401,62.500 128.403 C 62.335 128.405,62.002 128.810,61.760 129.303 C 60.578 131.711,59.370 133.813,59.100 133.933 C 58.935 134.007,58.800 134.324,58.800 134.639 C 58.800 134.953,58.620 135.568,58.400 136.005 C 58.180 136.442,57.820 137.158,57.600 137.595 C 57.380 138.032,57.200 138.662,57.200 138.995 C 57.200 139.328,57.020 139.600,56.800 139.600 C 56.580 139.600,56.400 139.960,56.400 140.400 C 56.400 140.840,56.220 141.200,56.000 141.200 C 55.780 141.200,55.600 141.549,55.600 141.976 C 55.600 142.403,55.420 142.864,55.200 143.000 C 54.980 143.136,54.800 143.687,54.800 144.224 C 54.800 144.761,54.620 145.200,54.400 145.200 C 54.180 145.200,54.000 145.549,54.000 145.976 C 54.000 146.403,53.820 146.864,53.600 147.000 C 53.380 147.136,53.200 147.687,53.200 148.224 C 53.200 148.761,53.020 149.200,52.800 149.200 C 52.580 149.200,52.400 149.740,52.400 150.400 C 52.400 151.060,52.220 151.600,52.000 151.600 C 51.780 151.600,51.600 152.140,51.600 152.800 C 51.600 153.460,51.420 154.000,51.200 154.000 C 50.980 154.000,50.800 154.540,50.800 155.200 C 50.800 155.860,50.620 156.400,50.400 156.400 C 50.180 156.400,50.000 156.929,50.000 157.576 C 50.000 158.223,49.820 158.864,49.600 159.000 C 49.380 159.136,49.200 159.867,49.200 160.624 C 49.200 161.381,49.020 162.000,48.800 162.000 C 48.580 162.000,48.400 162.720,48.400 163.600 C 48.400 164.480,48.220 165.200,48.000 165.200 C 47.780 165.200,47.600 165.920,47.600 166.800 C 47.600 167.680,47.420 168.400,47.200 168.400 C 46.980 168.400,46.800 169.300,46.800 170.400 C 46.800 171.500,46.620 172.400,46.400 172.400 C 46.178 172.400,46.000 173.467,46.000 174.800 C 46.000 176.133,45.822 177.200,45.600 177.200 C 45.372 177.200,45.200 178.392,45.200 179.976 C 45.200 181.503,45.020 182.864,44.800 183.000 C 44.571 183.141,44.400 185.196,44.400 187.800 C 44.400 190.404,44.229 192.459,44.000 192.600 C 43.460 192.934,43.460 208.666,44.000 209.000 C 44.227 209.140,44.400 211.130,44.400 213.600 C 44.400 216.070,44.573 218.060,44.800 218.200 C 45.020 218.336,45.200 219.787,45.200 221.424 C 45.200 223.141,45.369 224.400,45.600 224.400 C 45.820 224.400,46.000 225.379,46.000 226.576 C 46.000 227.773,46.180 228.864,46.400 229.000 C 46.620 229.136,46.800 230.036,46.800 231.000 C 46.800 231.964,46.980 232.864,47.200 233.000 C 47.420 233.136,47.600 233.957,47.600 234.824 C 47.600 235.691,47.780 236.400,48.000 236.400 C 48.220 236.400,48.400 237.120,48.400 238.000 C 48.400 238.880,48.580 239.600,48.800 239.600 C 49.020 239.600,49.200 240.129,49.200 240.776 C 49.200 241.423,49.380 242.064,49.600 242.200 C 49.820 242.336,50.000 243.067,50.000 243.824 C 50.000 244.581,50.180 245.200,50.400 245.200 C 50.620 245.200,50.800 245.740,50.800 246.400 C 50.800 247.060,50.980 247.600,51.200 247.600 C 51.420 247.600,51.600 248.140,51.600 248.800 C 51.600 249.460,51.780 250.000,52.000 250.000 C 52.220 250.000,52.400 250.540,52.400 251.200 C 52.400 251.860,52.580 252.400,52.800 252.400 C 53.020 252.400,53.200 252.749,53.200 253.176 C 53.200 253.603,53.380 254.064,53.600 254.200 C 53.820 254.336,54.000 254.887,54.000 255.424 C 54.000 255.961,54.180 256.400,54.400 256.400 C 54.620 256.400,54.800 256.749,54.800 257.176 C 54.800 257.603,54.980 258.064,55.200 258.200 C 55.420 258.336,55.600 258.887,55.600 259.424 C 55.600 259.961,55.780 260.400,56.000 260.400 C 56.220 260.400,56.400 260.760,56.400 261.200 C 56.400 261.640,56.580 262.000,56.800 262.000 C 57.020 262.000,57.200 262.360,57.200 262.800 C 57.200 263.240,57.380 263.600,57.600 263.600 C 57.820 263.600,58.000 263.960,58.000 264.400 C 58.000 264.840,58.180 265.200,58.400 265.200 C 58.620 265.200,58.800 265.434,58.800 265.720 C 58.800 266.456,59.741 268.393,60.100 268.397 C 60.265 268.399,60.400 268.760,60.400 269.200 C 60.400 269.640,60.580 270.000,60.800 270.000 C 61.020 270.000,61.200 270.360,61.200 270.800 C 61.200 271.240,61.380 271.600,61.600 271.600 C 61.820 271.600,62.000 271.960,62.000 272.400 C 62.000 272.840,62.180 273.200,62.400 273.200 C 62.620 273.200,62.800 273.478,62.800 273.817 C 62.800 274.156,63.160 274.820,63.600 275.292 C 64.040 275.764,64.400 276.387,64.400 276.675 C 64.400 276.964,64.580 277.200,64.800 277.200 C 65.020 277.200,65.200 277.560,65.200 278.000 C 65.200 278.440,65.380 278.800,65.600 278.800 C 65.820 278.800,66.000 279.036,66.000 279.325 C 66.000 279.613,66.315 280.198,66.700 280.625 C 67.085 281.051,67.655 281.895,67.968 282.500 C 68.280 283.105,68.685 283.600,68.868 283.600 C 69.050 283.600,69.200 283.920,69.200 284.312 C 69.200 284.703,69.560 285.283,70.000 285.600 C 70.440 285.917,70.800 286.380,70.800 286.629 C 70.800 286.878,71.340 287.646,72.000 288.337 C 72.660 289.028,73.200 289.748,73.200 289.937 C 73.200 290.126,73.740 290.846,74.400 291.537 C 75.060 292.228,75.600 292.953,75.600 293.148 C 75.600 293.344,76.276 294.200,77.102 295.052 C 77.928 295.903,79.049 297.230,79.593 298.000 C 80.137 298.770,84.326 303.131,88.902 307.692 L 97.223 315.984 91.891 321.292 C 88.959 324.211,84.421 328.580,81.806 331.000 C 79.192 333.420,68.569 343.860,58.201 354.200 C 47.833 364.540,37.246 374.953,34.675 377.341 C 31.215 380.554,30.000 381.931,30.000 382.641 L 30.000 383.600 129.808 383.600 L 229.615 383.600 237.126 376.100 C 241.257 371.975,246.776 366.620,249.392 364.200 C 252.007 361.780,262.631 351.340,272.999 341.000 C 283.367 330.660,293.971 320.231,296.563 317.824 C 302.673 312.150,310.187 304.630,311.537 302.838 C 312.122 302.063,313.635 300.371,314.900 299.079 C 316.165 297.787,317.200 296.566,317.200 296.366 C 317.200 296.165,317.920 295.259,318.800 294.352 C 319.680 293.445,320.400 292.527,320.400 292.312 C 320.400 292.097,320.940 291.417,321.600 290.800 C 322.260 290.183,322.800 289.480,322.800 289.236 C 322.800 288.992,323.340 288.228,324.000 287.537 C 324.660 286.846,325.200 286.038,325.200 285.741 C 325.200 285.443,325.350 285.200,325.532 285.200 C 325.715 285.200,326.120 284.705,326.432 284.100 C 326.745 283.495,327.315 282.651,327.700 282.225 C 328.085 281.798,328.400 281.213,328.400 280.925 C 328.400 280.636,328.580 280.400,328.800 280.400 C 329.020 280.400,329.200 280.164,329.200 279.875 C 329.200 279.587,329.560 278.964,330.000 278.492 C 330.440 278.020,330.800 277.356,330.800 277.017 C 330.800 276.678,330.980 276.400,331.200 276.400 C 331.420 276.400,331.600 276.122,331.600 275.783 C 331.600 275.444,331.960 274.780,332.400 274.308 C 332.840 273.836,333.200 273.213,333.200 272.925 C 333.200 272.636,333.380 272.400,333.600 272.400 C 333.820 272.400,334.000 272.040,334.000 271.600 C 334.000 271.160,334.180 270.800,334.400 270.800 C 334.620 270.800,334.800 270.440,334.800 270.000 C 334.800 269.560,334.980 269.200,335.200 269.200 C 335.420 269.200,335.600 268.840,335.600 268.400 C 335.600 267.960,335.780 267.600,336.000 267.600 C 336.220 267.600,336.400 267.240,336.400 266.800 C 336.400 266.360,336.580 266.000,336.800 266.000 C 337.020 266.000,337.200 265.640,337.200 265.200 C 337.200 264.760,337.380 264.400,337.600 264.400 C 337.820 264.400,338.000 264.128,338.000 263.795 C 338.000 263.462,338.208 262.787,338.462 262.295 C 339.433 260.418,339.600 259.993,339.600 259.405 C 339.600 259.072,339.780 258.800,340.000 258.800 C 340.220 258.800,340.400 258.451,340.400 258.024 C 340.400 257.597,340.580 257.136,340.800 257.000 C 341.020 256.864,341.200 256.313,341.200 255.776 C 341.200 255.239,341.380 254.800,341.600 254.800 C 341.820 254.800,342.000 254.451,342.000 254.024 C 342.000 253.597,342.180 253.136,342.400 253.000 C 342.620 252.864,342.800 252.324,342.800 251.800 C 342.800 251.276,342.980 250.736,343.200 250.600 C 343.420 250.464,343.600 249.913,343.600 249.376 C 343.600 248.839,343.780 248.400,344.000 248.400 C 344.220 248.400,344.400 247.860,344.400 247.200 C 344.400 246.540,344.580 246.000,344.800 246.000 C 345.020 246.000,345.200 245.381,345.200 244.624 C 345.200 243.867,345.380 243.136,345.600 243.000 C 345.820 242.864,346.000 242.223,346.000 241.576 C 346.000 240.929,346.180 240.400,346.400 240.400 C 346.620 240.400,346.800 239.680,346.800 238.800 C 346.800 237.920,346.980 237.200,347.200 237.200 C 347.420 237.200,347.600 236.480,347.600 235.600 C 347.600 234.720,347.780 234.000,348.000 234.000 C 348.220 234.000,348.400 233.100,348.400 232.000 C 348.400 230.900,348.580 230.000,348.800 230.000 C 349.020 230.000,349.200 229.111,349.200 228.024 C 349.200 226.937,349.380 225.936,349.600 225.800 C 349.820 225.664,350.000 224.404,350.000 223.000 C 350.000 221.596,350.180 220.336,350.400 220.200 C 350.621 220.064,350.800 218.270,350.800 216.200 C 350.800 214.130,350.979 212.336,351.200 212.200 C 351.451 212.045,351.600 207.804,351.600 200.800 C 351.600 193.796,351.451 189.555,351.200 189.400 C 350.977 189.262,350.800 187.396,350.800 185.176 C 350.800 182.792,350.640 181.200,350.400 181.200 C 350.171 181.200,350.000 180.000,350.000 178.400 C 350.000 176.800,349.829 175.600,349.600 175.600 C 349.380 175.600,349.200 174.711,349.200 173.624 C 349.200 172.537,349.020 171.536,348.800 171.400 C 348.580 171.264,348.400 170.353,348.400 169.376 C 348.400 168.399,348.220 167.600,348.000 167.600 C 347.780 167.600,347.600 166.891,347.600 166.024 C 347.600 165.157,347.420 164.336,347.200 164.200 C 346.980 164.064,346.800 163.333,346.800 162.576 C 346.800 161.819,346.620 161.200,346.400 161.200 C 346.180 161.200,346.000 160.581,346.000 159.824 C 346.000 159.067,345.820 158.336,345.600 158.200 C 345.380 158.064,345.200 157.423,345.200 156.776 C 345.200 156.129,345.020 155.600,344.800 155.600 C 344.580 155.600,344.400 155.060,344.400 154.400 C 344.400 153.740,344.220 153.200,344.000 153.200 C 343.780 153.200,343.600 152.660,343.600 152.000 C 343.600 151.340,343.420 150.800,343.200 150.800 C 342.980 150.800,342.800 150.260,342.800 149.600 C 342.800 148.940,342.620 148.400,342.400 148.400 C 342.180 148.400,342.000 148.051,342.000 147.624 C 342.000 147.197,341.820 146.736,341.600 146.600 C 341.380 146.464,341.200 145.913,341.200 145.376 C 341.200 144.839,341.020 144.400,340.800 144.400 C 340.580 144.400,340.400 144.051,340.400 143.624 C 340.400 143.197,340.220 142.736,340.000 142.600 C 339.780 142.464,339.600 141.913,339.600 141.376 C 339.600 140.839,339.420 140.400,339.200 140.400 C 338.980 140.400,338.800 140.040,338.800 139.600 C 338.800 139.160,338.620 138.800,338.400 138.800 C 338.180 138.800,338.000 138.440,338.000 138.000 C 338.000 137.560,337.820 137.200,337.600 137.200 C 337.380 137.200,337.200 136.840,337.200 136.400 C 337.200 135.960,337.020 135.600,336.800 135.600 C 336.580 135.600,336.400 135.240,336.400 134.800 C 336.400 134.360,336.220 134.000,336.000 134.000 C 335.780 134.000,335.600 133.640,335.600 133.200 C 335.600 132.760,335.420 132.400,335.200 132.400 C 334.980 132.400,334.800 132.040,334.800 131.600 C 334.800 131.160,334.620 130.800,334.400 130.800 C 334.180 130.800,334.000 130.440,334.000 130.000 C 334.000 129.560,333.820 129.200,333.600 129.200 C 333.380 129.200,333.200 128.840,333.200 128.400 C 333.200 127.960,333.020 127.600,332.800 127.600 C 332.580 127.600,332.400 127.364,332.400 127.075 C 332.400 126.787,332.040 126.164,331.600 125.692 C 331.160 125.220,330.800 124.556,330.800 124.217 C 330.800 123.878,330.620 123.600,330.400 123.600 C 330.180 123.600,330.000 123.280,330.000 122.888 C 330.000 122.497,329.640 121.917,329.200 121.600 C 328.760 121.283,328.400 120.743,328.400 120.400 C 328.400 120.057,328.040 119.517,327.600 119.200 C 327.160 118.883,326.800 118.303,326.800 117.912 C 326.800 117.520,326.650 117.200,326.468 117.200 C 326.285 117.200,325.881 116.705,325.570 116.100 C 325.260 115.495,324.689 114.709,324.303 114.353 C 323.916 113.997,323.600 113.529,323.600 113.312 C 323.600 113.096,323.060 112.354,322.400 111.663 C 321.740 110.972,321.200 110.226,321.200 110.004 C 321.200 109.782,320.480 108.859,319.600 107.952 C 318.720 107.045,318.000 106.134,318.000 105.926 C 318.000 105.718,317.140 104.705,316.089 103.674 C 315.038 102.643,313.734 101.170,313.192 100.400 C 311.915 98.588,303.020 89.691,301.200 88.406 C 300.430 87.862,299.390 87.011,298.888 86.515 L 297.977 85.613 301.708 81.907 C 303.760 79.868,307.578 76.220,310.193 73.800 C 312.808 71.380,323.434 60.940,333.806 50.600 C 344.178 40.260,353.820 30.729,355.232 29.420 C 363.167 22.067,365.200 19.938,365.200 18.979 L 365.200 18.000 265.300 18.031 L 165.400 18.061 157.982 25.531 M188.800 31.237 C 188.800 31.477,186.865 33.569,184.500 35.887 C 182.135 38.205,175.790 44.450,170.400 49.766 C 165.010 55.082,150.070 69.768,137.200 82.402 C 95.849 122.995,95.198 123.724,85.928 139.800 C 82.754 145.303,78.204 155.649,76.165 161.996 C 74.730 166.463,74.556 167.078,73.618 171.000 C 72.364 176.238,72.108 177.488,71.645 180.600 C 71.416 182.140,71.000 184.840,70.720 186.600 C 70.057 190.775,70.061 210.665,70.726 214.800 C 70.991 216.450,71.400 219.060,71.635 220.600 C 71.869 222.140,72.219 224.120,72.411 225.000 C 72.603 225.880,72.972 227.590,73.230 228.800 C 73.488 230.010,73.836 231.450,74.003 232.000 C 74.170 232.550,74.535 233.810,74.814 234.800 C 75.845 238.462,77.554 243.517,78.837 246.700 C 79.037 247.195,79.362 248.005,79.561 248.500 C 80.245 250.207,85.987 261.804,86.996 263.517 C 88.112 265.412,94.127 274.446,94.988 275.521 C 100.911 282.914,106.594 289.200,107.356 289.200 C 107.890 289.200,116.000 281.159,116.000 280.629 C 116.000 280.433,115.053 279.266,113.896 278.036 C 106.856 270.553,102.484 264.652,97.124 255.400 C 96.374 254.105,92.184 245.577,91.573 244.100 C 88.876 237.588,86.707 230.794,85.602 225.400 C 84.108 218.106,83.711 215.362,83.177 208.600 C 82.716 202.773,82.944 191.789,83.622 187.200 C 85.101 177.179,85.804 174.106,88.567 165.600 C 91.855 155.476,95.556 147.879,101.723 138.600 C 108.725 128.064,106.901 129.951,168.800 69.190 C 181.450 56.773,195.414 43.055,199.831 38.707 L 207.862 30.800 216.531 30.800 C 221.299 30.800,225.200 30.955,225.200 31.145 C 225.200 31.441,180.855 75.448,180.000 76.000 C 179.830 76.110,169.275 86.462,156.545 99.004 C 143.815 111.546,131.712 123.426,129.649 125.404 C 113.552 140.838,103.111 157.911,98.828 175.800 C 98.565 176.900,98.192 178.430,97.999 179.200 C 97.664 180.536,97.489 181.515,96.355 188.400 C 96.069 190.135,95.856 195.196,95.850 200.400 C 95.841 208.625,96.124 212.347,97.189 218.000 C 97.953 222.057,98.503 224.655,98.796 225.600 C 98.967 226.150,99.334 227.410,99.611 228.400 C 103.514 242.337,111.457 256.431,121.872 267.900 C 125.610 272.017,125.376 272.041,130.371 267.029 L 134.528 262.858 132.308 260.529 C 131.086 259.248,129.576 257.570,128.950 256.800 C 128.325 256.030,127.720 255.310,127.605 255.200 C 124.724 252.422,117.246 239.687,114.687 233.200 C 114.470 232.650,114.146 231.840,113.967 231.400 C 112.748 228.414,111.198 222.937,110.230 218.200 C 109.915 216.660,109.428 214.050,109.148 212.400 C 108.473 208.430,108.460 192.728,109.129 189.000 C 110.505 181.331,110.629 180.757,112.001 175.800 C 114.351 167.312,119.969 156.253,126.125 148.000 C 128.868 144.322,137.496 135.523,162.226 111.184 C 167.712 105.785,182.524 91.205,195.142 78.784 C 207.760 66.363,218.237 56.104,218.425 55.987 C 218.613 55.870,224.429 50.155,231.351 43.287 L 243.935 30.800 252.568 30.800 C 262.881 30.800,262.602 30.491,257.100 35.825 C 254.846 38.011,242.586 50.060,229.857 62.600 C 217.128 75.140,206.574 85.490,206.402 85.600 C 205.887 85.930,160.178 130.961,149.182 141.970 C 131.132 160.042,125.447 170.113,121.957 190.200 C 120.036 201.255,122.464 219.407,127.282 230.000 C 128.737 233.201,130.000 235.772,130.718 237.000 C 132.931 240.782,133.839 242.264,134.271 242.800 C 134.538 243.130,135.565 244.491,136.556 245.825 C 138.663 248.664,143.140 253.600,143.608 253.600 C 144.049 253.600,152.400 245.602,152.400 245.180 C 152.400 244.995,151.455 243.820,150.300 242.568 C 149.145 241.316,147.940 239.911,147.623 239.446 C 147.306 238.981,146.932 238.510,146.793 238.400 C 145.545 237.414,140.884 229.431,139.086 225.200 C 135.499 216.757,134.234 210.343,134.235 200.600 C 134.236 192.116,134.646 189.479,137.255 181.200 C 139.112 175.306,143.763 166.272,146.273 163.685 C 146.547 163.402,147.091 162.630,147.481 161.970 C 148.346 160.507,167.585 141.409,221.800 88.198 C 234.560 75.674,249.680 60.806,255.400 55.158 C 261.120 49.510,269.040 41.721,273.000 37.850 L 280.200 30.811 288.676 30.806 C 293.338 30.802,297.245 30.949,297.357 31.131 C 297.469 31.312,293.385 35.594,288.281 40.645 C 270.724 58.020,232.313 95.800,232.003 96.000 C 231.832 96.110,221.302 106.460,208.603 119.000 C 195.905 131.540,185.350 141.903,185.148 142.030 C 184.268 142.580,160.097 166.822,158.368 168.889 C 142.445 187.921,143.227 216.381,160.173 234.569 L 161.635 236.138 163.879 233.969 C 171.397 226.703,170.861 227.512,169.298 225.789 C 165.043 221.095,162.333 215.891,160.346 208.600 C 159.620 205.938,159.608 195.257,160.327 192.800 C 160.617 191.810,161.034 190.370,161.254 189.600 C 162.910 183.794,166.494 178.311,172.742 172.026 C 178.959 165.772,224.400 121.055,224.797 120.800 C 225.080 120.618,253.797 92.401,280.962 65.613 C 286.881 59.776,293.467 53.290,295.599 51.200 C 297.730 49.110,303.247 43.665,307.859 39.100 L 316.244 30.800 324.922 30.800 C 330.926 30.800,333.600 30.935,333.600 31.237 C 333.600 31.477,331.665 33.569,329.300 35.887 C 326.935 38.205,320.590 44.450,315.200 49.766 C 286.052 78.513,258.676 105.424,258.402 105.600 C 258.029 105.839,199.110 163.822,183.806 179.010 C 177.472 185.296,176.819 186.081,175.313 189.210 C 168.944 202.442,173.788 216.959,186.661 223.215 C 188.454 224.087,190.119 224.800,190.361 224.800 C 191.304 224.800,190.605 225.627,185.100 231.027 C 181.965 234.102,168.985 246.874,156.256 259.409 C 143.527 271.944,132.961 282.295,132.775 282.412 C 132.589 282.529,126.942 288.074,120.225 294.736 C 111.287 303.600,107.860 306.760,107.440 306.524 C 105.721 305.553,96.607 296.899,92.355 292.200 C 87.064 286.351,79.588 276.104,75.940 269.700 C 75.533 268.985,74.868 267.815,74.463 267.100 C 73.284 265.020,70.153 258.778,69.195 256.600 C 65.607 248.438,63.831 243.367,61.560 234.800 C 60.332 230.168,58.925 222.639,57.934 215.400 C 57.276 210.590,57.283 190.496,57.944 186.000 C 58.219 184.130,58.629 181.340,58.856 179.800 C 59.305 176.750,59.814 174.003,60.448 171.200 C 61.719 165.588,61.851 165.090,63.200 160.800 C 63.650 159.370,64.206 157.570,64.435 156.800 C 64.665 156.030,65.004 155.040,65.190 154.600 C 65.375 154.160,65.976 152.627,66.525 151.192 C 70.834 139.933,81.236 121.564,86.000 116.800 C 86.110 116.690,86.825 115.790,87.588 114.800 C 90.267 111.327,94.968 106.260,102.000 99.265 C 117.440 83.906,170.813 31.441,171.339 31.106 C 172.116 30.611,188.800 30.736,188.800 31.237 M289.959 96.290 C 294.880 100.271,304.781 110.619,309.203 116.400 C 309.960 117.390,310.692 118.290,310.831 118.400 C 311.324 118.793,319.095 130.646,320.403 133.000 C 326.039 143.151,330.274 153.288,333.185 163.600 C 333.464 164.590,333.830 165.850,333.997 166.400 C 334.164 166.950,334.512 168.390,334.770 169.600 C 335.028 170.810,335.396 172.520,335.588 173.400 C 336.558 177.850,337.148 181.937,337.996 190.068 C 338.515 195.041,338.515 206.559,337.996 211.532 C 336.989 221.187,336.547 223.980,334.775 231.900 C 333.343 238.295,330.202 248.059,327.956 253.096 C 327.540 254.028,327.200 254.890,327.200 255.010 C 327.200 255.484,322.130 265.583,320.378 268.600 C 313.393 280.627,307.520 288.183,296.163 299.755 C 293.277 302.696,249.021 346.262,248.747 346.432 C 248.542 346.559,243.008 352.004,236.449 358.532 L 224.523 370.400 215.462 370.400 C 210.478 370.400,206.400 370.319,206.400 370.219 C 206.400 370.026,229.833 346.755,230.378 346.407 C 230.557 346.293,241.209 335.853,254.051 323.207 C 266.893 310.561,280.342 297.331,283.939 293.807 C 316.199 262.198,329.513 226.291,324.357 184.800 C 322.668 171.209,318.385 157.290,312.049 144.800 C 308.513 137.831,300.905 125.907,298.777 124.000 C 298.654 123.890,298.294 123.421,297.977 122.957 C 297.379 122.083,293.500 117.628,290.445 114.308 C 288.168 111.832,288.443 111.741,283.645 116.555 C 278.890 121.327,278.971 120.695,282.624 124.477 C 294.224 136.482,304.012 153.858,308.627 170.636 C 309.656 174.378,310.645 178.801,311.213 182.200 C 316.529 214.035,308.210 245.701,287.832 271.200 C 283.507 276.612,283.786 276.329,253.800 305.789 C 240.820 318.542,225.160 333.949,219.000 340.028 C 212.840 346.106,203.390 355.423,198.000 360.730 L 188.200 370.381 179.300 370.390 C 174.405 370.396,170.400 370.247,170.400 370.061 C 170.400 369.773,210.332 330.173,211.200 329.600 C 212.374 328.825,273.378 268.403,275.414 265.999 C 282.400 257.748,287.099 250.277,291.538 240.368 C 293.859 235.186,295.019 231.774,296.834 224.800 C 300.675 210.033,300.662 191.226,296.799 176.700 C 296.579 175.875,296.246 174.615,296.057 173.900 C 293.664 164.838,288.677 154.119,282.778 145.362 C 280.957 142.658,277.071 137.435,276.409 136.800 C 276.294 136.690,274.969 135.205,273.464 133.500 C 270.046 129.627,270.206 129.611,265.507 134.292 C 260.859 138.923,260.965 138.223,264.341 141.963 C 270.904 149.235,276.625 158.120,280.206 166.600 C 280.578 167.480,281.034 168.560,281.219 169.000 C 281.671 170.070,283.777 176.595,284.318 178.600 C 288.144 192.785,288.145 208.721,284.321 223.000 C 283.762 225.088,281.672 231.574,281.228 232.600 C 281.037 233.040,280.572 234.120,280.194 235.000 C 275.028 247.022,268.995 255.399,257.139 267.013 C 253.762 270.320,240.497 283.370,227.660 296.013 C 214.823 308.656,204.180 319.090,204.009 319.200 C 203.838 319.310,193.281 329.666,180.549 342.213 C 167.817 354.760,156.126 366.235,154.568 367.713 L 151.736 370.400 142.868 370.400 C 133.008 370.400,133.179 370.466,136.100 367.773 C 137.255 366.708,148.613 355.568,161.340 343.018 C 174.067 330.468,184.619 320.110,184.790 320.000 C 185.328 319.653,231.250 274.392,244.225 261.421 C 258.849 246.801,261.675 243.277,266.390 233.780 C 274.223 218.007,276.029 201.853,272.045 183.195 C 269.805 172.701,263.241 160.345,254.892 150.900 C 251.732 147.326,252.411 147.214,247.333 152.146 L 243.065 156.292 245.971 159.646 C 266.383 183.202,266.876 216.564,247.167 240.600 C 245.904 242.140,240.310 247.908,234.735 253.418 C 214.106 273.809,177.910 309.406,177.609 309.600 C 177.347 309.768,153.343 333.362,123.187 363.091 L 115.773 370.400 106.887 370.400 C 101.999 370.400,98.000 370.258,98.000 370.085 C 98.000 369.912,101.195 366.621,105.100 362.771 C 135.018 333.272,158.930 309.768,159.191 309.600 C 159.362 309.490,169.982 299.050,182.791 286.400 C 195.600 273.750,206.243 263.299,206.442 263.175 C 206.641 263.052,213.469 256.326,221.615 248.229 C 235.374 234.552,239.402 230.123,241.555 226.300 C 242.020 225.475,242.726 224.215,243.125 223.500 C 252.585 206.541,249.290 181.838,235.657 167.518 L 233.865 165.636 229.533 169.663 C 224.602 174.244,224.763 173.910,226.546 175.899 C 234.810 185.115,237.994 198.598,234.740 210.600 C 232.762 217.895,229.706 222.709,222.558 229.791 C 216.597 235.698,188.859 262.997,161.000 290.376 C 155.720 295.565,145.100 306.005,137.400 313.576 C 129.700 321.146,119.080 331.584,113.800 336.770 C 108.520 341.957,98.693 351.645,91.962 358.300 L 79.724 370.400 70.662 370.400 C 65.678 370.400,61.600 370.319,61.600 370.219 C 61.600 370.026,85.033 346.755,85.578 346.407 C 85.757 346.293,96.382 335.850,109.191 323.200 C 122.000 310.550,132.620 300.110,132.792 300.000 C 133.080 299.816,166.130 267.314,191.200 242.560 C 197.030 236.803,205.194 228.788,209.343 224.747 C 219.619 214.739,221.612 211.664,222.858 203.900 C 224.316 194.816,219.530 184.929,211.113 179.641 C 209.156 178.412,205.805 176.800,205.204 176.800 C 204.155 176.800,205.089 175.464,208.300 172.371 C 212.709 168.125,253.764 127.815,268.400 113.362 C 285.258 96.714,287.248 94.800,287.699 94.800 C 287.929 94.800,288.946 95.470,289.959 96.290 " stroke="none" fill="#041c24" fill-rule="evenodd"></path></g></svg>