<svg id="svg" version="1.1" xmlns="http://www.w3.org/2000/svg" xmlns:xlink="http://www.w3.org/1999/xlink" width="400" height="270.4" viewBox="0, 0, 400,270.4"><g id="svgg"><path id="path0" d="M73.293 100.070 C 39.568 103.992,12.987 137.904,12.983 177.011 C 12.979 221.459,49.967 245.561,81.172 221.444 C 85.395 218.180,93.576 209.716,93.159 209.041 C 93.074 208.903,90.999 208.790,88.541 208.790 L 84.077 208.790 81.435 211.319 C 56.799 234.894,30.532 215.739,34.205 176.876 C 36.364 154.032,47.024 129.242,59.858 117.223 C 77.822 100.400,103.528 104.741,109.648 125.631 C 111.175 130.843,111.251 131.029,111.906 131.122 C 112.645 131.227,112.974 130.544,113.986 126.808 C 114.364 125.414,115.667 120.622,116.882 116.160 C 120.067 104.466,120.062 104.412,115.838 104.941 C 111.873 105.438,104.091 104.421,99.286 102.778 C 91.984 100.280,81.172 99.154,73.293 100.070 M131.621 115.544 C 127.774 116.563,127.153 120.520,130.529 122.498 C 133.332 124.140,133.655 124.715,132.350 125.741 C 131.448 126.451,130.091 126.459,129.203 125.761 C 128.324 125.070,128.149 125.080,127.406 125.872 C 125.425 127.981,130.468 129.640,133.601 127.910 C 137.181 125.934,136.947 122.583,133.094 120.638 C 130.273 119.214,131.475 116.469,134.327 117.823 C 135.554 118.405,136.714 117.920,136.714 116.825 C 136.714 115.505,134.176 114.867,131.621 115.544 M291.954 115.471 C 282.953 117.716,283.411 130.078,292.440 128.592 C 295.616 128.069,298.836 124.928,298.848 122.341 C 298.855 120.777,292.987 121.064,292.528 122.650 C 292.292 123.467,292.659 123.818,293.848 123.915 C 295.274 124.031,295.431 124.728,294.204 125.498 C 292.778 126.393,290.372 126.143,289.345 124.992 C 287.445 122.866,289.135 118.808,292.285 117.934 C 293.731 117.532,293.999 117.565,295.492 118.322 C 297.126 119.151,297.288 119.154,298.189 118.379 L 298.910 117.759 298.184 116.896 C 297.039 115.536,294.251 114.898,291.954 115.471 M319.729 115.635 C 312.651 117.540,311.062 126.506,317.472 128.369 C 321.036 129.405,325.535 127.375,327.240 123.961 C 329.895 118.644,325.725 114.021,319.729 115.635 M156.498 116.092 C 155.524 116.984,149.233 127.705,149.517 127.989 C 150.258 128.730,152.384 128.076,153.025 126.910 L 153.658 125.761 156.181 125.761 L 158.705 125.761 159.068 126.910 C 159.470 128.181,162.031 128.866,162.436 127.811 C 162.700 127.122,160.313 116.500,159.773 115.959 C 159.074 115.261,157.329 115.332,156.498 116.092 M179.780 115.800 C 179.266 116.187,176.978 127.094,177.258 127.823 C 177.439 128.295,179.415 128.321,179.780 127.857 C 179.927 127.671,180.258 126.362,180.517 124.949 C 181.551 119.308,181.338 119.363,184.174 123.996 C 186.816 128.310,186.753 128.249,188.417 128.143 C 189.990 128.042,189.899 128.268,191.277 121.069 C 192.290 115.775,192.259 115.483,190.683 115.483 C 189.556 115.483,189.301 115.988,188.595 119.608 C 187.836 123.506,187.690 123.727,186.800 122.343 C 186.125 121.294,183.470 117.021,182.958 116.162 C 182.597 115.555,180.433 115.309,179.780 115.800 M221.258 115.711 C 220.779 116.040,218.642 126.456,218.767 127.857 C 218.813 128.385,225.108 128.315,226.712 127.769 C 231.960 125.980,233.570 118.196,229.101 116.219 C 227.716 115.606,221.955 115.233,221.258 115.711 M247.397 115.670 C 247.137 115.738,246.865 116.058,246.792 116.382 C 246.313 118.525,244.994 125.601,244.854 126.775 L 244.686 128.195 246.057 128.195 C 247.691 128.195,247.404 128.869,248.814 121.704 C 250.073 115.302,250.000 114.990,247.397 115.670 M263.713 115.863 C 263.306 116.354,261.151 127.256,261.356 127.790 C 261.558 128.318,268.526 128.391,269.047 127.870 C 270.293 126.624,269.231 125.770,266.428 125.764 L 264.702 125.761 264.849 124.668 C 265.077 122.967,265.358 122.786,267.772 122.786 C 270.023 122.786,270.453 122.533,270.453 121.210 C 270.453 120.507,269.960 120.352,267.726 120.352 C 265.856 120.352,265.855 120.351,265.855 119.592 C 265.855 118.205,266.306 117.940,268.809 117.858 C 271.254 117.777,272.198 117.014,271.257 115.880 C 270.789 115.317,264.179 115.302,263.713 115.863 M226.710 118.203 C 230.770 119.331,228.212 125.761,223.702 125.761 C 222.003 125.761,221.998 125.742,222.754 121.875 C 223.572 117.689,223.868 117.414,226.710 118.203 M323.895 118.837 C 326.299 121.241,323.763 126.031,320.086 126.031 C 316.624 126.031,315.328 122.617,317.714 119.781 C 319.527 117.626,322.265 117.208,323.895 118.837 M158.120 121.683 L 158.292 123.327 156.901 123.327 C 155.334 123.327,155.203 123.091,155.953 121.623 C 157.387 118.814,157.822 118.827,158.120 121.683 M310.615 132.981 C 298.173 134.631,293.045 149.614,301.006 161.055 C 312.085 176.977,313.650 181.230,310.130 185.845 C 304.007 193.873,293.352 186.470,292.671 173.714 C 292.392 168.486,291.860 168.517,290.603 173.833 C 288.204 183.979,286.452 187.478,283.770 187.478 C 281.607 187.478,280.917 185.239,280.458 176.741 C 280.032 168.865,279.860 168.233,277.506 165.933 C 275.397 163.872,275.730 163.118,279.243 162.001 C 289.179 158.839,294.356 149.440,290.637 141.312 C 288.225 136.039,285.169 135.226,267.748 135.228 C 249.629 135.229,248.058 135.406,250.303 137.197 C 252.905 139.274,252.936 142.887,250.438 153.212 C 242.840 184.616,242.119 186.721,237.976 189.607 C 236.560 190.593,237.354 190.669,249.081 190.669 C 262.621 190.669,262.502 190.690,259.749 188.862 C 256.623 186.786,256.383 184.329,258.513 176.163 C 259.244 173.357,260.054 170.149,260.312 169.033 C 261.028 165.933,261.940 164.995,263.452 165.804 C 265.697 167.006,266.640 171.055,266.910 180.663 C 267.118 188.070,267.185 188.292,270.031 191.087 C 273.432 194.426,278.904 194.911,282.703 192.210 C 283.927 191.340,284.030 191.315,285.325 191.580 C 286.760 191.874,286.905 191.842,291.143 190.292 C 294.052 189.227,295.512 189.327,299.333 190.852 L 302.502 192.116 305.747 192.093 C 318.193 192.002,326.107 181.863,323.217 169.709 C 322.343 166.036,320.247 162.074,315.095 154.359 C 308.026 143.773,307.533 142.161,310.398 138.989 C 315.548 133.290,324.003 138.620,324.003 147.565 C 324.003 151.999,324.438 150.956,328.053 137.853 C 328.690 135.545,328.700 134.229,328.078 134.364 C 323.444 135.368,321.073 135.271,317.065 133.909 C 313.903 132.835,312.854 132.684,310.615 132.981 M55.240 135.719 C 54.234 135.862,54.545 136.480,56.172 137.573 C 59.453 139.776,59.625 141.409,57.449 149.654 C 56.618 152.801,55.331 157.688,54.588 160.514 C 53.846 163.340,52.820 167.235,52.308 169.168 C 51.797 171.102,50.886 174.571,50.285 176.876 C 48.469 183.836,46.097 188.118,43.157 189.740 C 42.817 189.927,42.696 190.187,42.810 190.484 C 43.016 191.022,77.976 191.202,78.970 190.671 C 79.794 190.230,82.034 183.648,83.419 177.603 C 84.264 173.913,83.679 173.370,81.986 176.270 C 77.570 183.831,72.875 187.269,66.243 187.800 C 61.806 188.155,61.163 186.899,62.864 181.204 C 63.244 179.930,63.305 179.707,66.131 169.033 C 67.096 165.389,68.243 161.129,68.679 159.567 C 69.115 158.005,70.159 154.178,71.000 151.062 C 73.112 143.230,75.092 139.564,78.324 137.496 C 79.955 136.453,80.200 136.164,79.720 135.854 C 79.404 135.649,56.613 135.524,55.240 135.719 M102.389 135.762 C 93.143 135.918,93.153 135.915,94.896 137.528 C 97.287 139.740,97.381 141.435,95.493 148.345 C 94.762 151.022,93.586 155.402,92.881 158.080 C 92.176 160.757,91.449 163.496,91.266 164.165 C 91.083 164.834,89.942 169.094,88.729 173.631 C 85.944 184.052,85.014 186.505,83.092 188.506 C 80.784 190.908,80.364 190.794,91.822 190.880 C 103.720 190.970,104.363 190.866,102.473 189.156 C 101.410 188.195,100.795 186.584,100.676 184.449 C 100.557 182.329,100.611 182.079,103.951 169.304 C 105.878 161.936,106.513 159.550,109.387 148.884 C 111.325 141.693,112.484 139.153,114.535 137.607 C 116.807 135.893,116.504 135.476,113.049 135.563 C 111.785 135.594,106.988 135.684,102.389 135.762 M122.718 135.675 C 122.004 135.874,122.137 136.196,123.330 137.155 C 125.806 139.144,126.286 141.929,124.962 146.610 C 124.650 147.712,123.427 152.387,122.243 156.998 C 121.059 161.609,119.907 166.051,119.682 166.870 C 119.458 167.688,118.604 170.974,117.785 174.172 C 115.178 184.350,114.504 186.038,112.115 188.370 C 109.390 191.031,109.025 190.940,122.411 190.940 C 134.150 190.940,134.900 190.846,133.067 189.608 C 128.586 186.583,128.539 183.452,132.765 169.698 C 134.118 165.293,133.761 165.521,139.261 165.549 C 144.665 165.577,147.501 164.971,151.868 162.855 C 165.718 156.143,167.995 139.755,155.583 136.117 C 154.067 135.673,124.170 135.271,122.718 135.675 M165.179 135.676 C 164.496 135.865,164.578 136.074,165.805 137.268 C 168.762 140.145,168.805 141.204,166.341 150.507 C 164.834 156.198,161.964 167.262,159.563 176.635 C 157.574 184.399,156.689 186.402,154.227 188.707 C 153.005 189.852,152.513 190.484,152.699 190.671 C 152.879 190.851,156.894 190.921,164.317 190.875 C 177.008 190.796,176.837 190.828,174.455 189.011 C 171.046 186.411,171.207 182.585,175.288 169.219 C 176.455 165.398,176.250 165.518,181.538 165.553 C 186.371 165.584,188.499 165.207,192.515 163.603 C 207.347 157.684,210.698 141.011,198.018 136.227 C 196.549 135.673,166.985 135.177,165.179 135.676 M205.544 136.141 C 205.544 136.346,206.276 136.980,207.170 137.550 C 210.450 139.639,210.515 140.670,208.000 150.652 C 205.949 158.787,202.535 172.220,201.058 177.958 C 199.364 184.542,197.305 187.952,194.255 189.227 C 193.637 189.485,193.367 189.760,193.427 190.072 C 193.530 190.606,233.469 190.939,234.841 190.417 C 235.683 190.097,236.152 188.877,238.285 181.461 C 240.634 173.298,240.477 172.984,236.645 178.161 C 231.832 184.663,228.327 187.563,224.471 188.236 C 220.984 188.845,214.675 188.865,213.740 188.270 C 212.162 187.266,212.179 187.084,214.717 177.417 C 218.249 163.965,218.349 163.655,219.382 162.989 C 223.313 160.456,228.521 165.927,228.531 172.601 C 228.533 173.645,228.931 174.152,229.390 173.694 C 229.725 173.358,235.013 152.404,235.019 151.386 C 235.026 150.255,234.701 150.453,232.613 152.854 C 229.268 156.700,226.790 158.192,223.378 158.415 C 219.921 158.641,219.879 158.465,221.660 151.225 C 224.993 137.673,224.548 138.330,230.387 138.353 C 238.260 138.384,240.660 140.275,241.235 146.900 C 241.476 149.667,241.739 150.417,242.247 149.775 C 242.670 149.239,245.661 136.663,245.479 136.186 C 245.249 135.587,205.544 135.542,205.544 136.141 M145.970 138.069 C 148.596 138.849,149.831 140.982,149.831 144.737 C 149.831 154.593,144.297 162.523,137.408 162.539 C 134.935 162.545,134.611 161.652,135.668 157.741 C 136.732 153.798,137.530 150.814,138.324 147.803 C 140.907 138.014,141.830 136.840,145.970 138.069 M188.333 138.263 C 196.211 140.623,191.450 159.668,182.304 162.378 C 177.622 163.764,176.712 162.452,178.386 156.728 C 178.603 155.984,179.636 152.163,180.681 148.238 C 183.368 138.147,184.223 137.031,188.333 138.263 M274.054 138.774 C 278.126 140.859,279.218 147.890,276.398 153.854 C 273.727 159.502,264.443 163.873,263.569 159.894 C 263.381 159.041,267.661 141.572,268.414 140.116 C 269.174 138.646,272.335 137.894,274.054 138.774 " stroke="none" fill="#0a6eb8" fill-rule="evenodd"></path><path id="path1" d="M231.913 15.028 C 231.616 15.072,229.851 15.246,227.992 15.415 C 204.855 17.515,182.806 26.524,163.797 41.643 L 160.049 44.625 120.566 44.625 C 76.934 44.625,80.080 44.498,78.549 46.318 C 77.692 47.336,77.755 48.398,78.702 48.874 C 79.235 49.143,87.211 49.215,116.482 49.218 C 141.231 49.221,153.642 49.314,153.755 49.496 C 153.848 49.647,152.912 50.834,151.675 52.133 C 150.437 53.433,148.677 55.348,147.763 56.389 L 146.100 58.283 106.384 58.345 C 77.344 58.391,66.468 58.490,65.923 58.716 C 64.165 59.444,62.937 61.895,63.921 62.711 C 64.185 62.930,74.916 63.033,102.930 63.082 C 139.729 63.148,141.579 63.174,141.667 63.632 C 141.720 63.905,141.007 65.135,140.021 66.472 C 139.064 67.769,137.756 69.621,137.112 70.588 C 136.469 71.555,135.812 72.436,135.652 72.545 C 135.493 72.654,117.350 72.746,95.335 72.749 C 67.322 72.753,54.989 72.843,54.247 73.049 C 52.256 73.602,50.956 75.729,51.981 76.755 C 52.231 77.004,61.551 77.079,92.287 77.079 C 128.296 77.079,132.285 77.121,132.431 77.502 C 132.521 77.738,131.937 79.324,131.112 81.085 C 130.297 82.824,129.407 84.771,129.134 85.412 C 128.379 87.188,130.929 87.086,87.273 87.086 C 51.585 87.086,46.718 87.135,45.677 87.502 C 43.283 88.347,41.956 90.672,43.264 91.731 C 44.139 92.440,326.988 92.512,327.999 91.803 C 329.288 90.901,328.250 88.288,326.275 87.463 C 325.515 87.145,317.844 87.086,277.651 87.086 C 251.404 87.086,229.738 87.013,229.505 86.923 C 229.271 86.833,228.427 85.829,227.629 84.692 C 222.331 77.141,211.603 66.344,202.888 59.790 C 199.997 57.616,199.920 57.906,203.952 55.758 C 211.566 51.701,213.995 51.091,216.171 52.693 C 223.658 58.200,241.438 65.008,255.545 67.768 C 278.244 72.211,309.488 71.397,326.220 65.927 C 329.360 64.901,328.927 64.673,332.250 69.101 C 352.012 95.435,358.812 129.724,350.889 163.083 C 341.092 204.332,306.786 238.789,266.597 247.745 C 264.512 248.210,264.485 248.112,265.912 245.229 C 270.193 236.580,273.041 224.858,273.353 214.604 C 273.429 212.076,273.604 209.794,273.740 209.533 C 273.973 209.090,275.174 209.060,293.123 209.060 L 312.259 209.060 313.463 208.452 C 315.538 207.404,316.635 204.707,315.464 203.535 C 314.770 202.841,54.692 202.889,53.842 203.584 C 52.497 204.683,53.009 207.433,54.760 208.515 C 55.613 209.042,56.083 209.060,68.997 209.064 C 76.412 209.067,82.524 209.176,82.736 209.311 C 82.978 209.464,83.329 209.428,83.683 209.214 C 84.129 208.945,90.279 208.900,113.316 208.999 L 142.385 209.123 143.336 210.119 C 143.859 210.666,145.277 212.326,146.487 213.806 C 174.033 247.505,222.714 263.454,266.960 253.273 C 315.864 242.021,353.649 199.854,359.289 150.237 C 360.004 143.949,360.057 142.867,360.024 135.393 C 359.959 120.898,357.887 108.374,353.500 95.965 C 353.044 94.675,352.671 93.387,352.671 93.102 C 352.671 92.568,367.889 92.226,391.642 92.225 C 399.503 92.224,399.582 92.203,399.582 90.061 C 399.582 87.287,400.287 87.360,373.427 87.358 L 350.235 87.356 347.935 82.706 C 346.335 79.471,345.722 77.970,345.918 77.773 C 346.110 77.581,354.567 77.468,372.222 77.420 L 398.242 77.350 398.986 76.534 C 400.215 75.185,399.879 73.554,398.229 72.864 C 397.460 72.543,392.946 72.481,370.040 72.481 C 348.624 72.481,342.678 72.409,342.351 72.143 C 342.123 71.957,341.118 70.541,340.118 68.996 C 318.422 35.462,279.556 14.685,238.945 14.912 C 235.375 14.932,232.211 14.984,231.913 15.028 M253.685 21.885 C 267.580 23.739,280.955 27.853,291.199 33.427 C 294.311 35.119,294.317 35.283,291.253 35.064 C 263.571 33.085,239.737 35.490,219.980 42.256 C 216.789 43.348,216.681 43.366,215.990 42.913 C 212.521 40.640,211.498 32.283,213.961 26.340 C 215.317 23.070,215.670 22.925,224.746 21.911 C 227.350 21.620,229.905 21.331,230.426 21.269 C 233.547 20.895,249.419 21.317,253.685 21.885 M207.897 26.031 C 207.818 26.366,207.552 27.309,207.306 28.127 C 205.906 32.795,207.065 42.586,209.231 44.383 C 210.164 45.158,209.645 45.612,206.018 47.191 C 204.047 48.049,200.170 49.841,197.404 51.173 L 192.373 53.594 189.130 51.969 C 183.092 48.942,176.795 46.475,172.437 45.428 C 169.125 44.633,169.139 44.570,173.283 41.587 C 180.711 36.239,193.637 29.816,203.651 26.498 C 207.520 25.216,208.106 25.151,207.897 26.031 M293.577 40.936 C 307.225 42.499,308.399 43.092,319.887 54.226 C 326.211 60.355,326.173 59.877,320.442 61.229 C 298.437 66.417,273.318 66.320,251.273 60.961 C 239.380 58.070,221.792 50.553,222.370 48.607 C 223.084 46.204,241.650 42.256,259.500 40.712 C 265.644 40.180,288.281 40.329,293.577 40.936 M169.709 50.410 C 174.218 51.576,178.980 53.263,182.488 54.938 C 185.682 56.463,185.909 56.875,184.111 57.876 C 182.193 58.944,175.769 63.094,173.939 64.448 C 171.853 65.991,171.733 65.996,169.035 64.639 C 165.547 62.886,160.149 60.853,155.713 59.622 C 153.556 59.024,153.576 58.984,158.578 53.946 L 162.998 49.493 164.596 49.497 C 165.519 49.499,167.678 49.885,169.709 50.410 M195.942 62.001 C 203.635 67.173,220.771 84.384,220.358 86.526 C 220.286 86.904,218.806 86.958,206.840 87.021 L 193.404 87.091 191.546 84.587 C 187.748 79.469,183.146 74.490,179.225 71.257 C 178.344 70.530,177.975 70.046,178.085 69.760 C 178.504 68.671,191.744 60.596,193.128 60.586 C 193.532 60.584,194.726 61.184,195.942 62.001 M152.852 64.632 C 158.188 65.900,166.058 69.197,166.058 70.165 C 166.058 70.353,164.628 71.772,162.880 73.318 C 161.133 74.864,157.223 78.594,154.192 81.607 L 148.682 87.086 142.216 87.086 C 136.656 87.086,135.728 87.028,135.591 86.671 C 135.159 85.545,142.899 72.137,146.671 67.478 C 149.670 63.773,149.521 63.841,152.852 64.632 M174.452 75.388 C 179.056 79.059,185.486 85.837,185.164 86.677 C 184.888 87.396,157.404 87.284,157.404 86.564 C 157.404 85.515,170.691 73.563,171.856 73.563 C 172.025 73.563,173.194 74.385,174.452 75.388 M183.718 209.231 C 184.614 210.127,171.936 224.052,168.702 225.724 C 167.741 226.221,167.466 226.077,164.615 223.581 C 158.577 218.294,150.649 209.977,151.042 209.341 C 151.232 209.033,183.412 208.925,183.718 209.231 M213.764 209.488 C 215.442 213.860,210.985 243.772,208.292 246.208 C 206.484 247.844,185.994 238.904,175.712 231.993 C 172.589 229.893,172.589 229.898,174.948 227.778 C 178.144 224.905,186.186 215.742,189.297 211.427 L 191.003 209.060 202.301 209.060 C 212.355 209.060,213.618 209.107,213.764 209.488 M267.698 210.818 C 268.281 222.008,259.882 249.101,255.576 249.920 C 246.172 251.708,221.184 250.842,215.065 248.516 C 213.971 248.100,213.948 247.875,214.744 245.347 C 217.248 237.400,219.283 221.467,219.336 209.397 C 219.337 209.126,224.254 209.071,243.475 209.126 L 267.613 209.195 267.698 210.818 " stroke="none" fill="#ec1f51" fill-rule="evenodd"></path></g></svg>