<svg id="svg" version="1.1" xmlns="http://www.w3.org/2000/svg" xmlns:xlink="http://www.w3.org/1999/xlink" width="400" height="400" viewBox="0, 0, 400,400"><g id="svgg"><path id="path0" d="M78.800 181.600 C 78.800 181.822,77.733 182.000,76.400 182.000 C 75.067 182.000,74.000 182.178,74.000 182.400 C 74.000 182.620,73.280 182.800,72.400 182.800 C 71.520 182.800,70.800 182.980,70.800 183.200 C 70.800 183.420,70.080 183.600,69.200 183.600 C 68.320 183.600,67.600 183.780,67.600 184.000 C 67.600 184.220,67.060 184.400,66.400 184.400 C 65.740 184.400,65.200 184.580,65.200 184.800 C 65.200 185.020,64.761 185.200,64.224 185.200 C 63.687 185.200,63.136 185.380,63.000 185.600 C 62.864 185.820,62.403 186.000,61.976 186.000 C 61.549 186.000,61.200 186.180,61.200 186.400 C 61.200 186.620,60.840 186.800,60.400 186.800 C 59.960 186.800,59.600 186.980,59.600 187.200 C 59.600 187.420,59.366 187.600,59.080 187.600 C 58.344 187.600,56.407 188.541,56.403 188.900 C 56.401 189.065,56.040 189.200,55.600 189.200 C 55.160 189.200,54.800 189.380,54.800 189.600 C 54.800 189.820,54.440 190.000,54.000 190.000 C 53.560 190.000,53.200 190.180,53.200 190.400 C 53.200 190.620,52.964 190.800,52.675 190.800 C 52.387 190.800,51.764 191.160,51.292 191.600 C 50.820 192.040,50.273 192.400,50.076 192.400 C 49.879 192.400,49.154 192.940,48.463 193.600 C 47.772 194.260,47.017 194.800,46.785 194.800 C 46.241 194.800,44.400 196.636,44.400 197.179 C 44.400 197.407,46.020 199.227,48.000 201.222 C 49.980 203.217,51.600 205.036,51.600 205.264 C 51.600 205.492,52.095 206.156,52.700 206.740 C 53.305 207.323,54.055 208.295,54.368 208.900 C 54.680 209.505,55.085 210.000,55.268 210.000 C 55.450 210.000,55.600 210.225,55.601 210.500 C 55.601 210.775,56.141 211.630,56.800 212.400 C 57.459 213.170,57.999 214.025,57.999 214.300 C 58.000 214.575,58.180 214.800,58.400 214.800 C 58.620 214.800,58.800 215.160,58.800 215.600 C 58.800 216.040,58.980 216.400,59.200 216.400 C 59.420 216.400,59.600 216.760,59.600 217.200 C 59.600 217.640,59.780 218.000,60.000 218.000 C 60.220 218.000,60.400 218.360,60.400 218.800 C 60.400 219.240,60.580 219.600,60.800 219.600 C 61.020 219.600,61.200 219.960,61.200 220.400 C 61.200 220.840,61.380 221.200,61.600 221.200 C 61.820 221.200,62.000 221.549,62.000 221.976 C 62.000 222.403,62.180 222.864,62.400 223.000 C 62.620 223.136,62.800 223.687,62.800 224.224 C 62.800 224.761,62.980 225.200,63.200 225.200 C 63.420 225.200,63.600 225.560,63.600 226.000 C 63.600 226.440,63.780 226.800,64.000 226.800 C 64.220 226.800,64.400 227.419,64.400 228.176 C 64.400 228.933,64.580 229.664,64.800 229.800 C 65.020 229.936,65.200 230.577,65.200 231.224 C 65.200 231.871,65.380 232.400,65.600 232.400 C 65.820 232.400,66.000 233.120,66.000 234.000 C 66.000 234.880,66.180 235.600,66.400 235.600 C 66.620 235.600,66.800 236.489,66.800 237.576 C 66.800 238.663,66.980 239.664,67.200 239.800 C 67.420 239.936,67.600 241.711,67.600 243.744 C 67.600 248.705,66.965 248.400,77.280 248.400 L 86.000 248.400 86.000 214.800 L 86.000 181.200 82.400 181.200 C 80.267 181.200,78.800 181.363,78.800 181.600 M67.867 253.467 C 67.720 253.613,67.600 255.413,67.600 257.467 C 67.600 259.689,67.438 261.200,67.200 261.200 C 66.980 261.200,66.800 262.100,66.800 263.200 C 66.800 264.300,66.620 265.200,66.400 265.200 C 66.180 265.200,66.000 265.909,66.000 266.776 C 66.000 267.643,65.820 268.464,65.600 268.600 C 65.380 268.736,65.200 269.366,65.200 270.000 C 65.200 270.634,65.020 271.264,64.800 271.400 C 64.580 271.536,64.400 272.177,64.400 272.824 C 64.400 273.471,64.220 274.000,64.000 274.000 C 63.780 274.000,63.600 274.349,63.600 274.776 C 63.600 275.203,63.420 275.664,63.200 275.800 C 62.980 275.936,62.800 276.487,62.800 277.024 C 62.800 277.561,62.620 278.000,62.400 278.000 C 62.180 278.000,62.000 278.360,62.000 278.800 C 62.000 279.240,61.820 279.600,61.600 279.600 C 61.380 279.600,61.200 279.834,61.200 280.120 C 61.200 280.856,60.259 282.793,59.900 282.797 C 59.735 282.799,59.600 283.160,59.600 283.600 C 59.600 284.040,59.420 284.400,59.200 284.400 C 58.980 284.400,58.800 284.760,58.800 285.200 C 58.800 285.640,58.620 286.000,58.400 286.000 C 58.180 286.000,58.000 286.320,58.000 286.712 C 58.000 287.103,57.640 287.683,57.200 288.000 C 56.760 288.317,56.400 288.857,56.400 289.200 C 56.400 289.543,56.040 290.083,55.600 290.400 C 55.160 290.717,54.800 291.207,54.800 291.488 C 54.800 291.769,54.080 292.741,53.200 293.648 C 52.320 294.555,51.600 295.462,51.600 295.664 C 51.600 295.866,49.980 297.637,48.000 299.600 C 46.020 301.563,44.400 303.377,44.400 303.631 C 44.400 304.194,47.187 306.800,47.790 306.800 C 48.028 306.800,48.483 307.160,48.800 307.600 C 49.117 308.040,49.657 308.400,50.000 308.400 C 50.343 308.400,50.883 308.760,51.200 309.200 C 51.517 309.640,52.097 310.000,52.488 310.000 C 52.880 310.000,53.201 310.135,53.203 310.300 C 53.205 310.465,53.610 310.799,54.103 311.041 C 54.596 311.284,56.053 312.049,57.341 312.741 C 58.628 313.434,60.023 314.000,60.441 314.000 C 60.858 314.000,61.200 314.180,61.200 314.400 C 61.200 314.620,61.560 314.800,62.000 314.800 C 62.440 314.800,62.800 314.980,62.800 315.200 C 62.800 315.420,63.340 315.600,64.000 315.600 C 64.660 315.600,65.200 315.780,65.200 316.000 C 65.200 316.220,65.740 316.400,66.400 316.400 C 67.060 316.400,67.600 316.580,67.600 316.800 C 67.600 317.020,68.129 317.200,68.776 317.200 C 69.423 317.200,70.064 317.380,70.200 317.600 C 70.336 317.820,71.056 318.000,71.800 318.000 C 72.544 318.000,73.264 318.180,73.400 318.400 C 73.536 318.620,74.627 318.800,75.824 318.800 C 77.021 318.800,78.000 318.980,78.000 319.200 C 78.000 319.440,79.600 319.600,82.000 319.600 L 86.000 319.600 86.000 286.400 L 86.000 253.200 77.067 253.200 C 72.153 253.200,68.013 253.320,67.867 253.467 " stroke="none" fill="#fca41c" fill-rule="evenodd"></path><path id="path1" d="M209.400 80.844 C 208.595 81.237,207.600 82.914,207.600 83.880 C 207.600 84.166,207.420 84.400,207.200 84.400 C 206.980 84.400,206.800 84.839,206.800 85.376 C 206.800 85.913,206.620 86.464,206.400 86.600 C 206.180 86.736,206.000 87.197,206.000 87.624 C 206.000 88.051,205.820 88.400,205.600 88.400 C 205.380 88.400,205.200 88.672,205.200 89.005 C 205.200 89.338,205.040 89.923,204.844 90.305 C 204.648 90.687,204.108 91.855,203.644 92.900 C 203.180 93.945,202.417 95.655,201.949 96.700 C 201.481 97.745,200.964 98.960,200.800 99.400 C 200.636 99.840,200.096 101.100,199.600 102.200 C 199.104 103.300,198.565 104.560,198.402 105.000 C 198.239 105.440,197.542 106.950,196.853 108.356 C 196.164 109.762,195.600 111.247,195.600 111.656 C 195.600 112.065,195.420 112.400,195.200 112.400 C 194.980 112.400,194.800 112.760,194.800 113.200 C 194.800 113.640,194.620 114.000,194.400 114.000 C 194.180 114.000,194.000 114.272,194.000 114.605 C 194.000 114.938,193.820 115.568,193.600 116.005 C 193.380 116.442,193.020 117.158,192.800 117.595 C 192.580 118.032,192.400 118.662,192.400 118.995 C 192.400 119.328,192.220 119.600,192.000 119.600 C 191.780 119.600,191.600 119.872,191.600 120.205 C 191.600 120.538,191.392 121.213,191.138 121.705 C 190.167 123.582,190.000 124.007,190.000 124.595 C 190.000 124.928,189.820 125.200,189.600 125.200 C 189.380 125.200,189.200 125.555,189.200 125.988 C 189.200 126.421,188.840 127.417,188.400 128.200 C 187.960 128.983,187.600 129.889,187.600 130.212 C 187.600 130.535,187.420 130.800,187.200 130.800 C 186.980 130.800,186.800 131.239,186.800 131.776 C 186.800 132.313,186.620 132.864,186.400 133.000 C 186.180 133.136,186.000 133.597,186.000 134.024 C 186.000 134.451,185.820 134.800,185.600 134.800 C 185.380 134.800,185.200 135.053,185.200 135.362 C 185.200 135.671,184.814 136.706,184.343 137.662 C 183.872 138.618,183.355 139.760,183.194 140.200 C 183.033 140.640,182.496 141.900,182.000 143.000 C 181.504 144.100,180.965 145.360,180.802 145.800 C 180.639 146.240,179.942 147.750,179.253 149.156 C 178.564 150.562,178.000 152.047,178.000 152.456 C 178.000 152.865,177.820 153.200,177.600 153.200 C 177.380 153.200,177.200 153.560,177.200 154.000 C 177.200 154.440,177.020 154.800,176.800 154.800 C 176.580 154.800,176.400 155.072,176.400 155.405 C 176.400 155.738,176.220 156.368,176.000 156.805 C 175.780 157.242,175.420 157.958,175.200 158.395 C 174.980 158.832,174.800 159.462,174.800 159.795 C 174.800 160.128,174.620 160.400,174.400 160.400 C 174.180 160.400,174.000 160.672,174.000 161.005 C 174.000 161.593,173.833 162.018,172.862 163.895 C 172.608 164.387,172.400 165.062,172.400 165.395 C 172.400 165.728,172.220 166.000,172.000 166.000 C 171.780 166.000,171.600 166.355,171.600 166.788 C 171.600 167.221,171.240 168.217,170.800 169.000 C 170.360 169.783,170.000 170.689,170.000 171.012 C 170.000 171.335,169.820 171.600,169.600 171.600 C 169.380 171.600,169.200 172.039,169.200 172.576 C 169.200 173.113,169.020 173.664,168.800 173.800 C 168.580 173.936,168.400 174.397,168.400 174.824 C 168.400 175.251,168.220 175.600,168.000 175.600 C 167.780 175.600,167.600 175.960,167.600 176.400 C 167.600 176.840,167.420 177.200,167.200 177.200 C 166.980 177.200,166.800 177.472,166.800 177.805 C 166.800 178.138,166.641 178.723,166.447 179.105 C 166.252 179.487,165.915 180.250,165.697 180.800 C 165.480 181.350,164.896 182.700,164.400 183.800 C 163.904 184.900,163.364 186.160,163.200 186.600 C 163.036 187.040,162.496 188.300,162.000 189.400 C 161.504 190.500,160.963 191.760,160.798 192.200 C 160.480 193.047,158.163 198.121,157.558 199.295 C 157.361 199.677,157.200 200.262,157.200 200.595 C 157.200 200.928,157.020 201.200,156.800 201.200 C 156.580 201.200,156.400 201.472,156.400 201.805 C 156.400 202.393,156.233 202.818,155.262 204.695 C 155.008 205.187,154.800 205.862,154.800 206.195 C 154.800 206.528,154.620 206.800,154.400 206.800 C 154.180 206.800,154.000 207.155,154.000 207.588 C 154.000 208.021,153.640 209.017,153.200 209.800 C 152.760 210.583,152.400 211.489,152.400 211.812 C 152.400 212.135,152.220 212.400,152.000 212.400 C 151.780 212.400,151.600 212.839,151.600 213.376 C 151.600 213.913,151.420 214.464,151.200 214.600 C 150.980 214.736,150.800 215.197,150.800 215.624 C 150.800 216.051,150.620 216.400,150.400 216.400 C 150.180 216.400,150.000 216.741,150.000 217.157 C 150.000 217.913,148.977 218.618,148.657 218.083 C 148.355 217.578,146.686 214.622,146.237 213.796 C 145.476 212.398,140.663 205.960,138.800 203.849 C 136.602 201.358,135.528 200.400,134.934 200.400 C 134.352 200.400,129.200 205.355,129.200 205.914 C 129.200 206.096,128.547 206.954,127.749 207.822 C 126.951 208.690,125.827 210.030,125.251 210.800 C 124.676 211.570,124.113 212.290,124.002 212.400 C 123.890 212.510,123.544 213.095,123.232 213.700 C 122.920 214.305,122.515 214.800,122.332 214.800 C 122.150 214.800,122.000 215.160,122.000 215.600 C 122.000 216.040,121.820 216.400,121.600 216.400 C 121.380 216.400,121.200 216.760,121.200 217.200 C 121.200 217.640,121.050 218.000,120.867 218.000 C 120.467 218.000,118.000 222.686,118.000 223.444 C 118.000 223.736,117.640 224.617,117.200 225.400 C 116.760 226.183,116.400 227.179,116.400 227.612 C 116.400 228.045,116.220 228.400,116.000 228.400 C 115.780 228.400,115.600 228.929,115.600 229.576 C 115.600 230.223,115.420 230.864,115.200 231.000 C 114.980 231.136,114.800 231.766,114.800 232.400 C 114.800 233.034,114.620 233.664,114.400 233.800 C 114.180 233.936,114.000 234.746,114.000 235.600 C 114.000 236.454,113.820 237.264,113.600 237.400 C 113.380 237.536,113.200 238.897,113.200 240.424 C 113.200 242.092,113.033 243.200,112.781 243.200 C 112.521 243.200,112.407 244.148,112.481 245.700 L 112.600 248.200 134.431 248.303 L 156.261 248.407 156.731 247.403 C 156.989 246.852,157.356 245.995,157.547 245.500 C 157.738 245.005,158.458 243.450,159.147 242.044 C 159.836 240.638,160.400 239.279,160.400 239.024 C 160.400 238.332,161.355 236.407,161.700 236.403 C 161.865 236.401,162.000 236.128,162.000 235.795 C 162.000 235.207,162.167 234.782,163.138 232.905 C 163.392 232.413,163.600 231.738,163.600 231.405 C 163.600 231.072,163.780 230.800,164.000 230.800 C 164.220 230.800,164.400 230.528,164.400 230.195 C 164.400 229.607,164.567 229.182,165.538 227.305 C 165.792 226.813,166.000 226.138,166.000 225.805 C 166.000 225.472,166.180 225.200,166.400 225.200 C 166.620 225.200,166.800 224.845,166.800 224.412 C 166.800 223.979,167.160 222.983,167.600 222.200 C 168.040 221.417,168.400 220.511,168.400 220.188 C 168.400 219.865,168.580 219.600,168.800 219.600 C 169.020 219.600,169.200 219.161,169.200 218.624 C 169.200 218.087,169.380 217.536,169.600 217.400 C 169.820 217.264,170.000 216.803,170.000 216.376 C 170.000 215.949,170.180 215.600,170.400 215.600 C 170.620 215.600,170.800 215.240,170.800 214.800 C 170.800 214.360,170.980 214.000,171.200 214.000 C 171.420 214.000,171.600 213.728,171.600 213.395 C 171.600 213.062,171.780 212.432,172.000 211.995 C 172.220 211.558,172.580 210.842,172.800 210.405 C 173.020 209.968,173.200 209.338,173.200 209.005 C 173.200 208.672,173.380 208.400,173.600 208.400 C 173.820 208.400,174.000 208.128,174.000 207.795 C 174.000 207.462,174.159 206.877,174.353 206.495 C 174.548 206.113,174.885 205.350,175.103 204.800 C 175.320 204.250,175.904 202.900,176.400 201.800 C 176.896 200.700,177.435 199.440,177.598 199.000 C 177.761 198.560,178.458 197.050,179.147 195.644 C 179.836 194.238,180.400 192.868,180.400 192.600 C 180.400 192.194,181.627 189.480,183.246 186.305 C 183.441 185.923,183.600 185.338,183.600 185.005 C 183.600 184.672,183.780 184.400,184.000 184.400 C 184.220 184.400,184.400 184.128,184.400 183.795 C 184.400 183.207,184.567 182.782,185.538 180.905 C 185.792 180.413,186.000 179.738,186.000 179.405 C 186.000 179.072,186.180 178.800,186.400 178.800 C 186.620 178.800,186.800 178.445,186.800 178.012 C 186.800 177.579,187.160 176.583,187.600 175.800 C 188.040 175.017,188.400 174.111,188.400 173.788 C 188.400 173.465,188.580 173.200,188.800 173.200 C 189.020 173.200,189.200 172.761,189.200 172.224 C 189.200 171.687,189.380 171.136,189.600 171.000 C 189.820 170.864,190.000 170.403,190.000 169.976 C 190.000 169.549,190.180 169.200,190.400 169.200 C 190.620 169.200,190.800 168.840,190.800 168.400 C 190.800 167.960,190.980 167.600,191.200 167.600 C 191.420 167.600,191.600 167.161,191.600 166.624 C 191.600 166.087,191.780 165.536,192.000 165.400 C 192.220 165.264,192.400 164.803,192.400 164.376 C 192.400 163.949,192.580 163.600,192.800 163.600 C 193.020 163.600,193.200 163.240,193.200 162.800 C 193.200 162.360,193.380 162.000,193.600 162.000 C 193.820 162.000,194.000 161.728,194.000 161.395 C 194.000 161.062,194.159 160.477,194.353 160.095 C 194.548 159.713,194.885 158.950,195.103 158.400 C 195.320 157.850,195.904 156.500,196.400 155.400 C 196.896 154.300,197.441 153.040,197.611 152.600 C 197.782 152.160,198.344 150.859,198.861 149.708 L 199.800 147.616 263.356 147.508 C 319.378 147.413,326.948 147.329,327.213 146.800 C 327.715 145.795,329.283 142.250,329.600 141.400 C 329.764 140.960,330.304 139.700,330.800 138.600 C 331.296 137.500,331.835 136.240,331.998 135.800 C 332.161 135.360,332.858 133.850,333.547 132.444 C 334.236 131.038,334.800 129.679,334.800 129.424 C 334.800 128.732,335.755 126.807,336.100 126.803 C 336.265 126.801,336.400 126.528,336.400 126.195 C 336.400 125.862,336.608 125.187,336.862 124.695 C 337.833 122.818,338.000 122.393,338.000 121.805 C 338.000 121.472,338.180 121.200,338.400 121.200 C 338.620 121.200,338.800 120.928,338.800 120.595 C 338.800 120.262,339.008 119.587,339.262 119.095 C 340.233 117.218,340.400 116.793,340.400 116.205 C 340.400 115.872,340.580 115.600,340.800 115.600 C 341.020 115.600,341.200 115.245,341.200 114.812 C 341.200 114.379,341.560 113.383,342.000 112.600 C 342.440 111.817,342.800 110.911,342.800 110.588 C 342.800 110.265,342.980 110.000,343.200 110.000 C 343.420 110.000,343.600 109.561,343.600 109.024 C 343.600 108.487,343.780 107.936,344.000 107.800 C 344.220 107.664,344.400 107.203,344.400 106.776 C 344.400 106.349,344.580 106.000,344.800 106.000 C 345.020 106.000,345.200 105.640,345.200 105.200 C 345.200 104.760,345.380 104.400,345.600 104.400 C 345.820 104.400,346.000 104.128,346.000 103.795 C 346.000 103.462,346.159 102.877,346.353 102.495 C 346.548 102.113,346.885 101.350,347.103 100.800 C 347.320 100.250,347.904 98.900,348.400 97.800 C 348.896 96.700,349.436 95.440,349.600 95.000 C 349.764 94.560,350.304 93.300,350.800 92.200 C 351.296 91.100,351.837 89.840,352.002 89.400 C 352.167 88.960,352.852 87.430,353.524 86.000 C 355.208 82.416,355.341 81.798,354.585 81.042 C 353.824 80.281,210.955 80.086,209.400 80.844 M39.558 201.318 C 37.406 203.379,31.600 210.569,31.600 211.173 C 31.600 211.408,31.450 211.600,31.268 211.600 C 31.085 211.600,30.685 212.095,30.380 212.700 C 30.074 213.305,29.324 214.552,28.712 215.472 C 28.101 216.392,27.600 217.311,27.600 217.516 C 27.600 217.720,27.038 219.038,26.351 220.444 C 25.664 221.850,24.764 223.692,24.351 224.538 C 23.938 225.384,23.600 226.419,23.600 226.838 C 23.600 227.257,23.420 227.600,23.200 227.600 C 22.980 227.600,22.800 228.129,22.800 228.776 C 22.800 229.423,22.620 230.064,22.400 230.200 C 22.180 230.336,22.000 231.067,22.000 231.824 C 22.000 232.581,21.820 233.200,21.600 233.200 C 21.380 233.200,21.200 234.089,21.200 235.176 C 21.200 236.263,21.020 237.264,20.800 237.400 C 20.580 237.536,20.400 238.526,20.400 239.600 C 20.400 240.674,20.220 241.664,20.000 241.800 C 19.780 241.936,19.600 243.477,19.600 245.224 L 19.600 248.400 41.645 248.400 L 63.690 248.400 63.426 245.500 C 63.281 243.905,63.065 241.520,62.947 240.200 C 62.829 238.880,62.568 237.629,62.366 237.420 C 62.165 237.211,62.000 236.277,62.000 235.344 C 62.000 234.411,61.820 233.536,61.600 233.400 C 61.380 233.264,61.200 232.724,61.200 232.200 C 61.200 231.676,61.020 231.136,60.800 231.000 C 60.580 230.864,60.400 230.223,60.400 229.576 C 60.400 228.929,60.220 228.400,60.000 228.400 C 59.780 228.400,59.600 228.045,59.600 227.612 C 59.600 227.179,59.240 226.183,58.800 225.400 C 58.360 224.617,58.000 223.729,58.000 223.428 C 58.000 223.127,57.434 221.828,56.741 220.541 C 56.049 219.253,55.284 217.796,55.041 217.303 C 54.799 216.810,54.465 216.405,54.300 216.403 C 54.135 216.401,54.000 216.080,54.000 215.688 C 54.000 215.297,53.640 214.717,53.200 214.400 C 52.760 214.083,52.400 213.503,52.400 213.112 C 52.400 212.720,52.250 212.400,52.068 212.400 C 51.885 212.400,51.482 211.927,51.173 211.349 C 50.863 210.771,49.753 209.399,48.705 208.301 C 47.657 207.202,46.800 206.142,46.800 205.944 C 46.800 205.363,41.666 200.400,41.066 200.400 C 40.764 200.400,40.086 200.813,39.558 201.318 M19.600 255.976 C 19.600 257.503,19.780 258.864,20.000 259.000 C 20.220 259.136,20.400 260.216,20.400 261.400 C 20.400 262.584,20.580 263.664,20.800 263.800 C 21.020 263.936,21.200 264.847,21.200 265.824 C 21.200 266.801,21.380 267.600,21.600 267.600 C 21.820 267.600,22.000 268.142,22.000 268.805 C 22.000 269.468,22.158 270.323,22.351 270.705 C 22.544 271.087,22.916 272.120,23.177 273.000 C 23.439 273.880,23.845 275.050,24.080 275.600 C 24.315 276.150,24.644 276.960,24.811 277.400 C 25.449 279.082,28.915 286.060,29.347 286.534 C 29.596 286.807,29.997 287.384,30.238 287.815 C 31.580 290.223,31.861 290.648,32.500 291.243 C 32.885 291.601,33.200 292.056,33.200 292.255 C 33.200 292.592,35.276 295.057,38.300 298.313 C 39.015 299.082,39.600 299.867,39.600 300.056 C 39.600 301.803,45.238 297.391,48.338 293.217 C 48.917 292.438,49.708 291.509,50.096 291.153 C 50.483 290.797,50.800 290.340,50.800 290.138 C 50.800 289.935,51.333 289.147,51.984 288.385 C 52.635 287.623,53.175 286.852,53.184 286.672 C 53.193 286.492,53.711 285.592,54.335 284.672 C 54.959 283.752,55.723 282.415,56.032 281.700 C 56.342 280.985,56.731 280.400,56.898 280.400 C 57.064 280.400,57.200 280.045,57.200 279.612 C 57.200 279.179,57.560 278.183,58.000 277.400 C 58.440 276.617,58.800 275.711,58.800 275.388 C 58.800 275.065,58.960 274.800,59.155 274.800 C 59.350 274.800,59.626 274.215,59.769 273.500 C 60.394 270.376,60.510 270.000,60.845 270.000 C 61.040 270.000,61.200 269.381,61.200 268.624 C 61.200 267.867,61.380 267.136,61.600 267.000 C 61.820 266.864,62.000 266.054,62.000 265.200 C 62.000 264.346,62.180 263.536,62.400 263.400 C 62.620 263.264,62.800 262.094,62.800 260.800 C 62.800 259.506,62.980 258.336,63.200 258.200 C 63.420 258.064,63.600 256.883,63.600 255.576 L 63.600 253.200 41.600 253.200 L 19.600 253.200 19.600 255.976 M112.400 255.576 C 112.400 256.883,112.580 258.064,112.800 258.200 C 113.020 258.336,113.200 259.416,113.200 260.600 C 113.200 261.784,113.380 262.864,113.600 263.000 C 113.820 263.136,114.000 264.126,114.000 265.200 C 114.000 266.274,114.180 267.264,114.400 267.400 C 114.620 267.536,114.800 268.177,114.800 268.824 C 114.800 269.471,114.980 270.000,115.200 270.000 C 115.420 270.000,115.600 270.439,115.600 270.976 C 115.600 271.513,115.780 272.064,116.000 272.200 C 116.220 272.336,116.400 272.977,116.400 273.624 C 116.400 274.271,116.580 274.800,116.800 274.800 C 117.020 274.800,117.200 275.065,117.200 275.388 C 117.200 275.711,117.560 276.617,118.000 277.400 C 118.440 278.183,118.800 279.179,118.800 279.612 C 118.800 280.045,118.936 280.400,119.102 280.400 C 119.269 280.400,119.659 280.985,119.971 281.700 C 120.282 282.415,121.586 284.568,122.868 286.485 C 124.151 288.401,125.200 290.090,125.200 290.238 C 125.200 290.385,125.525 290.797,125.922 291.153 C 126.320 291.509,126.949 292.250,127.322 292.800 C 129.868 296.563,136.400 301.783,136.400 300.056 C 136.400 299.867,136.985 299.082,137.700 298.313 C 140.724 295.057,142.800 292.592,142.800 292.255 C 142.800 292.056,143.115 291.601,143.500 291.243 C 143.885 290.884,144.425 290.188,144.700 289.696 C 144.975 289.203,145.425 288.395,145.700 287.900 C 145.975 287.405,146.290 286.910,146.400 286.800 C 146.772 286.428,148.020 284.209,148.706 282.700 C 149.082 281.875,149.526 281.200,149.694 281.200 C 149.862 281.200,150.000 280.928,150.000 280.595 C 150.000 280.262,150.159 279.677,150.353 279.295 C 150.548 278.913,150.884 278.150,151.100 277.600 C 151.316 277.050,151.685 276.150,151.920 275.600 C 152.155 275.050,152.561 273.880,152.823 273.000 C 153.084 272.120,153.456 271.087,153.649 270.705 C 153.842 270.323,154.000 269.468,154.000 268.805 C 154.000 268.142,154.180 267.600,154.400 267.600 C 154.620 267.600,154.800 266.826,154.800 265.880 C 154.800 264.934,154.964 263.989,155.165 263.780 C 155.365 263.571,155.633 262.320,155.759 261.000 C 155.886 259.680,156.102 257.385,156.240 255.900 L 156.490 253.200 134.445 253.200 L 112.400 253.200 112.400 255.576 " stroke="none" fill="#042c5c" fill-rule="evenodd"></path><path id="path2" d="M363.290 80.870 C 363.020 81.140,362.800 81.684,362.800 82.080 C 362.800 82.476,362.620 82.800,362.400 82.800 C 362.180 82.800,362.000 83.160,362.000 83.600 C 362.000 84.040,361.820 84.400,361.600 84.400 C 361.380 84.400,361.200 84.749,361.200 85.176 C 361.200 85.603,361.020 86.064,360.800 86.200 C 360.580 86.336,360.400 86.887,360.400 87.424 C 360.400 87.961,360.220 88.400,360.000 88.400 C 359.780 88.400,359.600 88.760,359.600 89.200 C 359.600 89.640,359.420 90.000,359.200 90.000 C 358.980 90.000,358.800 90.360,358.800 90.800 C 358.800 91.240,358.620 91.600,358.400 91.600 C 358.180 91.600,358.000 92.039,358.000 92.576 C 358.000 93.113,357.820 93.664,357.600 93.800 C 357.380 93.936,357.200 94.397,357.200 94.824 C 357.200 95.251,357.020 95.600,356.800 95.600 C 356.580 95.600,356.400 95.960,356.400 96.400 C 356.400 96.840,356.220 97.200,356.000 97.200 C 355.780 97.200,355.600 97.639,355.600 98.176 C 355.600 98.713,355.420 99.264,355.200 99.400 C 354.980 99.536,354.800 99.997,354.800 100.424 C 354.800 100.851,354.620 101.200,354.400 101.200 C 354.180 101.200,354.000 101.560,354.000 102.000 C 354.000 102.440,353.820 102.800,353.600 102.800 C 353.380 102.800,353.200 103.239,353.200 103.776 C 353.200 104.313,353.020 104.864,352.800 105.000 C 352.580 105.136,352.400 105.597,352.400 106.024 C 352.400 106.451,352.220 106.800,352.000 106.800 C 351.780 106.800,351.600 107.160,351.600 107.600 C 351.600 108.040,351.420 108.400,351.200 108.400 C 350.980 108.400,350.800 108.749,350.800 109.176 C 350.800 109.603,350.620 110.064,350.400 110.200 C 350.180 110.336,350.000 110.887,350.000 111.424 C 350.000 111.961,349.820 112.400,349.600 112.400 C 349.380 112.400,349.200 112.760,349.200 113.200 C 349.200 113.640,349.020 114.000,348.800 114.000 C 348.580 114.000,348.400 114.349,348.400 114.776 C 348.400 115.203,348.220 115.664,348.000 115.800 C 347.780 115.936,347.600 116.487,347.600 117.024 C 347.600 117.561,347.420 118.000,347.200 118.000 C 346.980 118.000,346.800 118.360,346.800 118.800 C 346.800 119.240,346.620 119.600,346.400 119.600 C 346.180 119.600,346.000 119.949,346.000 120.376 C 346.000 120.803,345.820 121.264,345.600 121.400 C 345.380 121.536,345.200 122.087,345.200 122.624 C 345.200 123.161,345.020 123.600,344.800 123.600 C 344.580 123.600,344.400 123.960,344.400 124.400 C 344.400 124.840,344.220 125.200,344.000 125.200 C 343.780 125.200,343.600 125.549,343.600 125.976 C 343.600 126.403,343.420 126.864,343.200 127.000 C 342.980 127.136,342.800 127.687,342.800 128.224 C 342.800 128.761,342.620 129.200,342.400 129.200 C 342.180 129.200,342.000 129.560,342.000 130.000 C 342.000 130.440,341.820 130.800,341.600 130.800 C 341.380 130.800,341.200 131.072,341.200 131.405 C 341.200 131.738,341.020 132.368,340.800 132.805 C 340.580 133.242,340.220 133.958,340.000 134.395 C 339.780 134.832,339.600 135.462,339.600 135.795 C 339.600 136.128,339.420 136.400,339.200 136.400 C 338.980 136.400,338.800 136.760,338.800 137.200 C 338.800 137.640,338.620 138.000,338.400 138.000 C 338.180 138.000,338.000 138.439,338.000 138.976 C 338.000 139.513,337.820 140.064,337.600 140.200 C 337.380 140.336,337.200 140.797,337.200 141.224 C 337.200 141.651,337.020 142.000,336.800 142.000 C 336.580 142.000,336.400 142.360,336.400 142.800 C 336.400 143.240,336.220 143.600,336.000 143.600 C 335.780 143.600,335.600 144.039,335.600 144.576 C 335.600 145.113,335.420 145.664,335.200 145.800 C 334.980 145.936,334.800 146.397,334.800 146.824 C 334.800 147.561,335.134 147.600,341.429 147.600 C 348.459 147.600,349.200 147.414,349.200 145.652 C 349.200 145.209,349.380 144.736,349.600 144.600 C 349.820 144.464,350.000 144.003,350.000 143.576 C 350.000 143.149,350.180 142.800,350.400 142.800 C 350.620 142.800,350.800 142.440,350.800 142.000 C 350.800 141.560,350.980 141.200,351.200 141.200 C 351.420 141.200,351.600 140.851,351.600 140.424 C 351.600 139.997,351.780 139.536,352.000 139.400 C 352.220 139.264,352.400 138.713,352.400 138.176 C 352.400 137.639,352.580 137.200,352.800 137.200 C 353.020 137.200,353.200 136.840,353.200 136.400 C 353.200 135.960,353.380 135.600,353.600 135.600 C 353.820 135.600,354.000 135.251,354.000 134.824 C 354.000 134.397,354.180 133.936,354.400 133.800 C 354.620 133.664,354.800 133.113,354.800 132.576 C 354.800 132.039,354.980 131.600,355.200 131.600 C 355.420 131.600,355.600 131.240,355.600 130.800 C 355.600 130.360,355.780 130.000,356.000 130.000 C 356.220 130.000,356.400 129.651,356.400 129.224 C 356.400 128.797,356.580 128.336,356.800 128.200 C 357.020 128.064,357.200 127.513,357.200 126.976 C 357.200 126.439,357.380 126.000,357.600 126.000 C 357.820 126.000,358.000 125.640,358.000 125.200 C 358.000 124.760,358.180 124.400,358.400 124.400 C 358.620 124.400,358.800 124.051,358.800 123.624 C 358.800 123.197,358.980 122.736,359.200 122.600 C 359.420 122.464,359.600 121.913,359.600 121.376 C 359.600 120.839,359.780 120.400,360.000 120.400 C 360.220 120.400,360.400 120.040,360.400 119.600 C 360.400 119.160,360.580 118.800,360.800 118.800 C 361.020 118.800,361.200 118.528,361.200 118.195 C 361.200 117.862,361.380 117.232,361.600 116.795 C 361.820 116.358,362.180 115.642,362.400 115.205 C 362.620 114.768,362.800 114.138,362.800 113.805 C 362.800 113.472,362.980 113.200,363.200 113.200 C 363.420 113.200,363.600 112.840,363.600 112.400 C 363.600 111.960,363.780 111.600,364.000 111.600 C 364.220 111.600,364.400 111.161,364.400 110.624 C 364.400 110.087,364.580 109.536,364.800 109.400 C 365.020 109.264,365.200 108.803,365.200 108.376 C 365.200 107.949,365.380 107.600,365.600 107.600 C 365.820 107.600,366.000 107.240,366.000 106.800 C 366.000 106.360,366.180 106.000,366.400 106.000 C 366.620 106.000,366.800 105.561,366.800 105.024 C 366.800 104.487,366.980 103.936,367.200 103.800 C 367.420 103.664,367.600 103.203,367.600 102.776 C 367.600 102.349,367.780 102.000,368.000 102.000 C 368.220 102.000,368.400 101.640,368.400 101.200 C 368.400 100.760,368.580 100.400,368.800 100.400 C 369.020 100.400,369.200 100.051,369.200 99.624 C 369.200 99.197,369.380 98.736,369.600 98.600 C 369.820 98.464,370.000 97.913,370.000 97.376 C 370.000 96.839,370.180 96.400,370.400 96.400 C 370.620 96.400,370.800 96.040,370.800 95.600 C 370.800 95.160,370.980 94.800,371.200 94.800 C 371.420 94.800,371.600 94.451,371.600 94.024 C 371.600 93.597,371.780 93.136,372.000 93.000 C 372.220 92.864,372.400 92.313,372.400 91.776 C 372.400 91.239,372.580 90.800,372.800 90.800 C 373.020 90.800,373.200 90.440,373.200 90.000 C 373.200 89.560,373.380 89.200,373.600 89.200 C 373.820 89.200,374.000 88.851,374.000 88.424 C 374.000 87.997,374.180 87.536,374.400 87.400 C 374.620 87.264,374.800 86.713,374.800 86.176 C 374.800 85.639,374.980 85.200,375.200 85.200 C 375.420 85.200,375.600 84.840,375.600 84.400 C 375.600 83.960,375.791 83.600,376.024 83.600 C 376.270 83.600,376.396 82.968,376.324 82.100 L 376.200 80.600 369.990 80.490 C 365.498 80.411,363.644 80.516,363.290 80.870 M90.000 214.800 L 90.000 248.400 98.720 248.400 C 109.035 248.400,108.400 248.705,108.400 243.744 C 108.400 241.711,108.580 239.936,108.800 239.800 C 109.020 239.664,109.200 238.663,109.200 237.576 C 109.200 236.489,109.380 235.600,109.600 235.600 C 109.820 235.600,110.000 234.880,110.000 234.000 C 110.000 233.120,110.180 232.400,110.400 232.400 C 110.620 232.400,110.800 231.871,110.800 231.224 C 110.800 230.577,110.980 229.936,111.200 229.800 C 111.420 229.664,111.600 228.933,111.600 228.176 C 111.600 227.419,111.780 226.800,112.000 226.800 C 112.220 226.800,112.400 226.440,112.400 226.000 C 112.400 225.560,112.580 225.200,112.800 225.200 C 113.020 225.200,113.200 224.761,113.200 224.224 C 113.200 223.687,113.380 223.136,113.600 223.000 C 113.820 222.864,114.000 222.403,114.000 221.976 C 114.000 221.549,114.180 221.200,114.400 221.200 C 114.620 221.200,114.800 220.840,114.800 220.400 C 114.800 219.960,114.980 219.600,115.200 219.600 C 115.420 219.600,115.600 219.240,115.600 218.800 C 115.600 218.360,115.780 218.000,116.000 218.000 C 116.220 218.000,116.400 217.640,116.400 217.200 C 116.400 216.760,116.580 216.400,116.800 216.400 C 117.020 216.400,117.200 216.040,117.200 215.600 C 117.200 215.160,117.350 214.800,117.532 214.800 C 117.715 214.800,118.120 214.305,118.432 213.700 C 118.745 213.095,119.315 212.251,119.700 211.825 C 120.085 211.398,120.400 210.813,120.400 210.525 C 120.400 210.236,120.550 210.000,120.732 210.000 C 120.915 210.000,121.320 209.510,121.632 208.911 C 121.945 208.311,122.875 207.120,123.700 206.262 C 124.525 205.405,125.200 204.538,125.200 204.335 C 125.200 204.132,126.640 202.541,128.400 200.800 C 130.160 199.059,131.600 197.438,131.600 197.199 C 131.600 196.641,129.769 194.800,129.215 194.800 C 128.983 194.800,128.228 194.260,127.537 193.600 C 126.846 192.940,126.121 192.400,125.924 192.400 C 125.727 192.400,125.180 192.040,124.708 191.600 C 124.236 191.160,123.613 190.800,123.325 190.800 C 123.036 190.800,122.800 190.620,122.800 190.400 C 122.800 190.180,122.440 190.000,122.000 190.000 C 121.560 190.000,121.200 189.820,121.200 189.600 C 121.200 189.380,120.840 189.200,120.400 189.200 C 119.960 189.200,119.599 189.065,119.597 188.900 C 119.593 188.541,117.656 187.600,116.920 187.600 C 116.634 187.600,116.400 187.420,116.400 187.200 C 116.400 186.980,116.040 186.800,115.600 186.800 C 115.160 186.800,114.800 186.620,114.800 186.400 C 114.800 186.180,114.451 186.000,114.024 186.000 C 113.597 186.000,113.136 185.820,113.000 185.600 C 112.864 185.380,112.313 185.200,111.776 185.200 C 111.239 185.200,110.800 185.020,110.800 184.800 C 110.800 184.580,110.260 184.400,109.600 184.400 C 108.940 184.400,108.400 184.220,108.400 184.000 C 108.400 183.780,107.680 183.600,106.800 183.600 C 105.920 183.600,105.200 183.420,105.200 183.200 C 105.200 182.980,104.480 182.800,103.600 182.800 C 102.720 182.800,102.000 182.620,102.000 182.400 C 102.000 182.178,100.933 182.000,99.600 182.000 C 98.267 182.000,97.200 181.822,97.200 181.600 C 97.200 181.363,95.733 181.200,93.600 181.200 L 90.000 181.200 90.000 214.800 M47.293 206.800 C 47.568 207.240,47.931 207.600,48.100 207.600 C 48.269 207.600,48.182 207.240,47.907 206.800 C 47.632 206.360,47.269 206.000,47.100 206.000 C 46.931 206.000,47.018 206.360,47.293 206.800 M128.093 206.800 C 127.818 207.240,127.731 207.600,127.900 207.600 C 128.069 207.600,128.432 207.240,128.707 206.800 C 128.982 206.360,129.069 206.000,128.900 206.000 C 128.731 206.000,128.368 206.360,128.093 206.800 M90.000 286.392 L 90.000 319.600 94.000 319.600 C 96.400 319.600,98.000 319.440,98.000 319.200 C 98.000 318.980,98.979 318.800,100.176 318.800 C 101.373 318.800,102.464 318.620,102.600 318.400 C 102.736 318.180,103.456 318.000,104.200 318.000 C 104.944 318.000,105.664 317.820,105.800 317.600 C 105.936 317.380,106.577 317.200,107.224 317.200 C 107.871 317.200,108.400 317.020,108.400 316.800 C 108.400 316.580,108.940 316.400,109.600 316.400 C 110.260 316.400,110.800 316.220,110.800 316.000 C 110.800 315.780,111.340 315.600,112.000 315.600 C 112.660 315.600,113.200 315.420,113.200 315.200 C 113.200 314.980,113.560 314.800,114.000 314.800 C 114.440 314.800,114.800 314.620,114.800 314.400 C 114.800 314.180,115.239 314.000,115.776 314.000 C 116.313 314.000,116.864 313.820,117.000 313.600 C 117.136 313.380,117.582 313.200,117.990 313.200 C 118.399 313.200,118.793 313.065,118.867 312.900 C 119.034 312.524,121.164 311.225,122.100 310.929 C 122.485 310.807,122.800 310.548,122.800 310.353 C 122.800 310.159,123.120 310.000,123.512 310.000 C 123.903 310.000,124.483 309.640,124.800 309.200 C 125.117 308.760,125.657 308.400,126.000 308.400 C 126.343 308.400,126.883 308.040,127.200 307.600 C 127.517 307.160,127.972 306.800,128.210 306.800 C 128.813 306.800,131.600 304.194,131.600 303.631 C 131.600 303.377,129.980 301.563,128.000 299.600 C 126.020 297.637,124.400 295.882,124.400 295.699 C 124.400 295.517,123.680 294.572,122.800 293.600 C 121.920 292.628,121.200 291.640,121.200 291.404 C 121.200 291.169,120.840 290.717,120.400 290.400 C 119.960 290.083,119.600 289.543,119.600 289.200 C 119.600 288.857,119.240 288.317,118.800 288.000 C 118.360 287.683,118.000 287.103,118.000 286.712 C 118.000 286.320,117.820 286.000,117.600 286.000 C 117.380 286.000,117.200 285.640,117.200 285.200 C 117.200 284.760,117.020 284.400,116.800 284.400 C 116.580 284.400,116.400 284.040,116.400 283.600 C 116.400 283.160,116.220 282.800,116.000 282.800 C 115.780 282.800,115.600 282.440,115.600 282.000 C 115.600 281.560,115.420 281.200,115.200 281.200 C 114.980 281.200,114.800 280.840,114.800 280.400 C 114.800 279.960,114.620 279.600,114.400 279.600 C 114.180 279.600,114.000 279.240,114.000 278.800 C 114.000 278.360,113.820 278.000,113.600 278.000 C 113.380 278.000,113.200 277.561,113.200 277.024 C 113.200 276.487,113.020 275.936,112.800 275.800 C 112.580 275.664,112.400 275.203,112.400 274.776 C 112.400 274.349,112.220 274.000,112.000 274.000 C 111.780 274.000,111.600 273.381,111.600 272.624 C 111.600 271.867,111.420 271.136,111.200 271.000 C 110.980 270.864,110.800 270.223,110.800 269.576 C 110.800 268.929,110.620 268.400,110.400 268.400 C 110.180 268.400,110.000 267.680,110.000 266.800 C 110.000 265.920,109.820 265.200,109.600 265.200 C 109.380 265.200,109.200 264.300,109.200 263.200 C 109.200 262.100,109.027 261.200,108.814 261.200 C 108.601 261.200,108.378 259.456,108.314 257.300 L 108.200 253.400 99.100 253.292 L 90.000 253.185 90.000 286.392 " stroke="none" fill="#04441c" fill-rule="evenodd"></path></g></svg>